<?xml version="1.0" encoding="utf-8"?>
<!-- Generator: Adobe Illustrator 24.1.0, SVG Export Plug-In . SVG Version: 6.00 Build 0)  -->
<svg version="1.1" id="Layer_1" xmlns="http://www.w3.org/2000/svg" xmlns:xlink="http://www.w3.org/1999/xlink" x="0px" y="0px"
	 viewBox="0 0 1366 768" style="enable-background:new 0 0 1366 768;" xml:space="preserve">
<style type="text/css">
	.st0{fill:#3398FF;}
</style>
<path d="M857.07,522.29c-1.04-0.98-2.37-0.81-3.59-0.8c-5.03,0.04-10.03-0.3-14.97-1.21c-3.44-0.64-6.83-1.55-10.26-2.29
	c-2.32-0.5-4.64-1.06-7-1.32c-3.44-0.37-6.61-1.64-9.87-2.62c-5.87-1.76-11.76-3.45-17.58-5.34c-2.48-0.8-4.84-2-7.23-3.07
	c-3.63-1.61-7.29-3.16-10.85-4.92c-2.9-1.43-5.71-3.02-8.19-5.2c-2.08-1.83-4.54-3.22-6.77-4.88c-2.42-1.81-4.78-3.71-7.15-5.58
	c-0.93-0.74-1.81-1.56-2.75-2.28c-4.5-3.47-8.4-7.57-12.12-11.85c-2.35-2.7-4.72-5.38-7.03-8.11c-1.18-1.4-2.25-2.89-3.36-4.34
	c-2.32-3.04-4.77-5.99-6.9-9.16c-2.31-3.43-4.42-7.01-6.42-10.64c-1.88-3.41-3.57-6.92-5.21-10.45c-0.77-1.64-1.28-3.42-1.81-5.16
	c-1.79-5.85-3.38-11.74-4.54-17.78c-1.09-5.68-1.5-11.38-1.24-17.09c0.21-4.77,1.07-9.5,1.59-14.25c0.29-2.69,0.53-5.39,0.7-8.09
	c0.33-5.27,1.4-10.42,3.04-15.4c1.71-5.2,3.77-10.29,5.83-15.37c2.08-5.15,4.25-10.28,6.58-15.32c1.06-2.29,2.54-4.42,3.99-6.51
	c2.77-3.99,5.58-7.95,8.5-11.82c3.41-4.5,6.86-8.98,10.47-13.32c3.13-3.77,7.18-6.54,11.17-9.32c2.15-1.5,4.3-3.01,6.51-4.43
	c1.39-0.89,2.88-1.64,4.35-2.41c4.1-2.12,8.2-4.26,12.34-6.31c2.13-1.05,4.3-2.03,6.52-2.86c2.9-1.08,5.89-1.95,8.82-2.97
	c6.14-2.13,12.55-2.74,18.96-3.25c1.72-0.14,3.48,0.27,5.22,0.32c5.43,0.16,10.84,0.31,16.13,1.76c1.81,0.5,3.76,0.49,5.63,0.79
	c6.8,1.07,13.69,1.62,20.29,3.84c4.34,1.45,8.86,2.29,13.11,4.09c3.86,1.63,7.93,2.78,11.87,4.25c1.47,0.55,2.81,1.44,4.24,2.11
	c1.29,0.61,2.63,1.11,3.92,1.71c3.67,1.7,7.31,3.47,10.99,5.14c1.88,0.85,3.83,1.52,5.76,2.27c3.39,1.32,6.6,3.01,9.73,4.84
	c3.43,2,6.8,4.09,10.18,6.15c0.33,0.2,0.62,0.46,0.92,0.71c1.32,1.14,2.64,2.28,3.96,3.44c1.36,1.2,2.74,2.38,4.06,3.63
	c2.76,2.62,5.62,5.16,8.19,7.95c1.63,1.77,3.08,3.82,4.14,5.98c1.96,3.97,3.76,8.04,5.29,12.19c1.28,3.49,2.09,7.16,3.1,10.75
	c0.73,2.6,1.51,5.18,2.15,7.8c0.77,3.15,1.48,6.32,2.1,9.51c0.97,4.99,1.83,10.01,2.74,15.01c0.6,3.32,1.6,6.62,1.71,9.95
	c0.13,3.94,1.08,7.84,0.34,11.86c-1.11,6.02-1.72,12.13-2.84,18.14c-0.92,4.91-2.23,9.76-3.45,14.61
	c-0.91,3.61-1.91,7.21-2.95,10.79c-0.35,1.22-0.94,2.37-1.43,3.54c-1.42,3.36-2.71,6.78-4.32,10.05c-1.61,3.26-3.48,6.4-5.37,9.52
	c-1.19,1.97-2.54,3.86-3.95,5.67c-3.03,3.89-6.05,7.8-9.25,11.55c-2.43,2.84-5.12,5.44-7.71,8.14c-2.63,2.74-5.25,5.49-7.94,8.17
	c-1.01,1-2.17,1.86-3.31,2.72c-3.86,2.91-7.49,6.27-11.7,8.55c-3.79,2.05-7.4,4.57-11.68,5.76c-4.95,1.39-9.8,3.15-14.69,4.77
	c-2.93,0.97-5.87,1.91-8.77,2.99c-1.08,0.4-1.98,1.26-3.04,1.73c-1.74,0.77-3.55,1.39-5.32,2.1c-0.57,0.23-1.1,0.57-1.65,0.85
	C857.71,522.29,857.39,522.29,857.07,522.29z M817.8,259.41c0-0.19-0.01-0.37-0.01-0.56c-4.13,0.19-8.28,0.2-12.39,0.62
	c-2.91,0.3-5.79,1.06-8.64,1.79c-2.85,0.73-5.69,1.56-8.45,2.56c-3.58,1.29-7.18,2.6-10.6,4.25c-3.93,1.89-7.67,4.17-11.5,6.26
	c-1.19,0.64-2.51,1.06-3.61,1.82c-4.37,2.99-8.78,5.95-12.98,9.18c-2.38,1.83-4.57,3.99-6.5,6.29c-2.7,3.22-4.99,6.79-7.61,10.08
	c-3.47,4.34-6.74,8.79-9.62,13.56c-2.88,4.76-5.43,9.64-7.4,14.83c-0.7,1.85-1.65,3.61-2.4,5.45c-1.34,3.29-2.63,6.61-3.88,9.93
	c-0.64,1.69-1.06,3.47-1.76,5.12c-1.1,2.58-2,5.17-2.06,8.01c-0.01,0.78-0.3,1.56-0.43,2.35c-0.27,1.72-0.59,3.43-0.77,5.16
	c-0.32,3.08-0.49,6.19-0.86,9.27c-0.34,2.91-1.09,5.8-1.24,8.71c-0.28,5.29-0.35,10.58,0.34,15.88c0.78,5.98,1.7,11.89,3.68,17.61
	c0.65,1.88,1.42,3.74,1.83,5.68c0.85,3.92,2.73,7.43,4.42,10.98c1.7,3.58,3.9,6.92,5.91,10.35c0.52,0.89,1.14,1.73,1.77,2.55
	c1.76,2.26,3.58,4.48,5.31,6.76c2.26,2.98,4.33,6.11,6.71,8.99c2.58,3.12,5.43,6.02,8.16,9.01c1.8,1.97,3.47,4.09,5.43,5.88
	c2.4,2.2,4.99,4.19,7.59,6.16c2.9,2.2,6.03,4.11,8.82,6.42c3.68,3.05,7.53,5.82,11.81,7.92c3.93,1.92,7.92,3.71,11.91,5.51
	c0.86,0.39,1.84,0.52,2.72,0.88c2.48,1.01,4.89,2.21,7.42,3.1c2.84,1,5.78,1.76,8.68,2.61c0.46,0.13,0.94,0.19,1.4,0.31
	c1.99,0.53,3.98,1.06,5.97,1.6c1.15,0.31,2.28,0.74,3.44,0.97c3.97,0.8,7.96,1.5,11.94,2.3c1.16,0.24,2.27,0.91,3.43,0.99
	c4.44,0.3,8.74,1.73,13.26,1.42c2.83-0.19,5.66,0.41,8.51-0.47c3.26-1,6.61-1.67,9.93-2.48c0.38-0.09,0.77-0.19,1.15-0.17
	c2.18,0.12,4.25-0.48,6.27-1.09c3.78-1.15,7.42-2.88,11.25-3.68c3.24-0.68,6.27-1.83,9.22-3.11c6.14-2.65,11.81-6.23,17.11-10.31
	c5.62-4.34,10.62-9.39,15.52-14.51c5.24-5.46,10.27-11.12,14.75-17.23c2.72-3.72,5.57-7.4,7.79-11.42c2.45-4.45,4.29-9.24,6.3-13.92
	c0.91-2.11,1.7-4.29,2.32-6.5c1.48-5.21,2.88-10.45,4.21-15.7c0.58-2.31,0.92-4.67,1.35-7.02c0.9-4.84,1.86-9.66,2.65-14.51
	c0.75-4.59,0.71-9.2-0.17-13.8c-0.59-3.06-1.08-6.13-1.56-9.2c-0.69-4.4-1.18-8.83-2.03-13.2c-0.99-5.07-2.17-10.11-3.46-15.11
	c-1.31-5.07-2.73-10.13-4.35-15.11c-1.65-5.08-3.71-10.02-6.82-14.4c-1.74-2.46-3.62-4.86-5.69-7.04c-2.34-2.46-4.92-4.7-7.49-6.93
	c-2.52-2.2-5.04-4.42-7.75-6.38c-2.38-1.71-4.98-3.12-7.55-4.55c-2.5-1.38-5.07-2.66-7.65-3.9c-3.3-1.58-6.64-3.07-9.96-4.59
	c-2.23-1.02-4.45-2.07-6.69-3.06c-2.53-1.11-5.1-2.12-7.62-3.23c-2.18-0.96-4.27-2.14-6.48-2.98c-4-1.52-8.04-2.96-12.12-4.26
	c-4.78-1.52-9.55-3.14-14.44-4.2c-5.43-1.18-11-1.77-16.5-2.63c-1.33-0.21-2.65-0.5-3.98-0.72c-2.44-0.4-4.87-0.92-7.32-1.1
	C823.08,259.26,820.44,259.41,817.8,259.41z"/>
<path class="st0" d="M817.8,259.41c2.63,0,5.28-0.15,7.89,0.04c2.45,0.18,4.88,0.71,7.32,1.1c1.33,0.22,2.65,0.51,3.98,0.72
	c5.5,0.86,11.06,1.45,16.5,2.63c4.89,1.06,9.66,2.68,14.44,4.2c4.08,1.3,8.12,2.74,12.12,4.26c2.22,0.84,4.31,2.02,6.48,2.98
	c2.52,1.11,5.09,2.13,7.62,3.23c2.25,0.98,4.47,2.03,6.69,3.06c3.32,1.53,6.67,3.02,9.96,4.59c2.58,1.24,5.15,2.51,7.65,3.9
	c2.57,1.42,5.17,2.84,7.55,4.55c2.71,1.95,5.23,4.17,7.75,6.38c2.56,2.24,5.15,4.47,7.49,6.93c2.07,2.18,3.94,4.58,5.69,7.04
	c3.11,4.38,5.17,9.33,6.82,14.4c1.62,4.98,3.04,10.04,4.35,15.11c1.29,5,2.47,10.04,3.46,15.11c0.85,4.36,1.34,8.8,2.03,13.2
	c0.48,3.07,0.98,6.15,1.56,9.2c0.88,4.6,0.92,9.21,0.17,13.8c-0.79,4.85-1.76,9.68-2.65,14.51c-0.43,2.34-0.77,4.71-1.35,7.02
	c-1.33,5.25-2.73,10.49-4.21,15.7c-0.63,2.21-1.42,4.39-2.32,6.5c-2.01,4.68-3.85,9.47-6.3,13.92c-2.21,4.02-5.06,7.7-7.79,11.42
	c-4.48,6.11-9.5,11.77-14.75,17.23c-4.91,5.12-9.9,10.17-15.52,14.51c-5.29,4.08-10.96,7.66-17.11,10.31
	c-2.95,1.27-5.97,2.43-9.22,3.11c-3.84,0.8-7.48,2.53-11.25,3.68c-2.02,0.62-4.09,1.21-6.27,1.09c-0.38-0.02-0.77,0.08-1.15,0.17
	c-3.32,0.81-6.67,1.48-9.93,2.48c-2.85,0.88-5.68,0.28-8.51,0.47c-4.53,0.31-8.82-1.12-13.26-1.42c-1.16-0.08-2.27-0.75-3.43-0.99
	c-3.97-0.8-7.96-1.51-11.94-2.3c-1.16-0.23-2.29-0.66-3.44-0.97c-1.99-0.54-3.98-1.08-5.97-1.6c-0.46-0.12-0.94-0.18-1.4-0.31
	c-2.9-0.85-5.83-1.6-8.68-2.61c-2.52-0.89-4.94-2.08-7.42-3.1c-0.88-0.36-1.86-0.49-2.72-0.88c-3.99-1.8-7.98-3.58-11.91-5.51
	c-4.29-2.1-8.13-4.87-11.81-7.92c-2.79-2.32-5.92-4.23-8.82-6.42c-2.6-1.97-5.19-3.96-7.59-6.16c-1.96-1.8-3.63-3.91-5.43-5.88
	c-2.73-2.99-5.58-5.89-8.16-9.01c-2.38-2.88-4.45-6.01-6.71-8.99c-1.73-2.28-3.55-4.5-5.31-6.76c-0.63-0.82-1.25-1.66-1.77-2.55
	c-2.01-3.43-4.21-6.77-5.91-10.35c-1.68-3.55-3.57-7.05-4.42-10.98c-0.42-1.93-1.18-3.8-1.83-5.68c-1.98-5.72-2.9-11.63-3.68-17.61
	c-0.69-5.3-0.62-10.59-0.34-15.88c0.16-2.92,0.9-5.8,1.24-8.71c0.36-3.08,0.53-6.18,0.86-9.27c0.18-1.73,0.49-3.44,0.77-5.16
	c0.12-0.79,0.41-1.56,0.43-2.35c0.05-2.84,0.95-5.44,2.06-8.01c0.71-1.66,1.13-3.43,1.76-5.12c1.26-3.33,2.55-6.64,3.88-9.93
	c0.75-1.84,1.7-3.6,2.4-5.45c1.97-5.2,4.52-10.07,7.4-14.83c2.89-4.78,6.16-9.22,9.62-13.56c2.63-3.29,4.91-6.86,7.61-10.08
	c1.93-2.3,4.12-4.46,6.5-6.29c4.2-3.23,8.61-6.19,12.98-9.18c1.1-0.75,2.43-1.18,3.61-1.82c3.84-2.08,7.58-4.36,11.5-6.26
	c3.42-1.65,7.02-2.96,10.6-4.25c2.77-1,5.6-1.83,8.45-2.56c2.85-0.73,5.73-1.49,8.64-1.79c4.11-0.42,8.26-0.43,12.39-0.62
	C817.79,259.04,817.8,259.23,817.8,259.41z M799.55,275.27c-1.91,0.36-2.11,0.79-1.54,2.4c1.22,3.44,2.66,6.84,3.43,10.39
	c1.4,6.46,2.56,12.98,3.48,19.53c1.42,10.1,2.61,20.23,3.81,30.36c0.64,5.38,1.11,10.78,1.63,16.17c0.85,8.81,1.84,17.61,2.48,26.43
	c0.59,8.12,0.85,16.26,1.13,24.4c0.27,7.81,0.42,15.62,0.55,23.44c0.07,4.23,0.03,8.46-0.07,12.68c-0.11,4.63-0.32,9.25-0.53,13.88
	c-0.08,1.67-0.32,3.33-0.47,4.99c-0.06,0.66-0.02,1.47,0.81,1.42c0.38-0.02,0.9-0.77,1.04-1.27c0.27-0.99,0.4-2.04,0.43-3.06
	c0.2-6.85,0.46-13.7,0.49-20.55c0.03-6.21-0.19-12.42-0.34-18.63c-0.17-6.93-0.32-13.86-0.63-20.79c-0.28-6.37-0.74-12.73-1.17-19.1
	c-0.32-4.69-0.65-9.39-1.12-14.06c-0.51-5.07-1.25-10.12-1.8-15.19c-0.45-4.12-0.66-8.27-1.17-12.38
	c-1.35-10.84-2.74-21.68-4.27-32.5c-0.7-4.97-1.66-9.91-2.72-14.81C802,284.45,800.73,279.96,799.55,275.27z M782.48,284.05
	c-2.03-0.28-2.63,0.36-1.99,2.24c0.41,1.2,1.07,2.33,1.36,3.55c1.24,5.2,2.48,10.4,3.53,15.64c1.09,5.46,2.07,10.96,2.9,16.47
	c0.71,4.72,1.14,9.49,1.72,14.24c1.39,11.24,2.83,22.47,4.18,33.72c0.63,5.3,1.19,10.61,1.59,15.93c0.59,7.88,0.97,15.77,1.49,23.65
	c0.7,10.58,1.52,21.16,1.18,31.79c-0.02,0.55-0.02,1.17,0.22,1.64c0.3,0.6,0.74,1.26,1.3,1.55c0.91,0.48,1.45-0.45,1.97-0.98
	c0.66-0.67,0.63-3.2-0.13-3.72c-0.82-0.55-0.9-1.23-0.96-2.03c-0.1-1.19-0.24-2.39-0.32-3.58c-0.61-9.88-1.19-19.76-1.83-29.64
	c-0.41-6.36-0.83-12.73-1.38-19.08c-0.56-6.51-1.19-13.01-1.96-19.5c-0.78-6.58-1.82-13.12-2.67-19.69
	c-0.97-7.51-1.72-15.06-2.83-22.55c-1.24-8.35-2.77-16.67-4.2-24.99c-0.2-1.17-0.65-2.3-0.89-3.47
	C783.97,291.52,783.24,287.79,782.48,284.05z M814.25,278.93c0.22,1.21,0.3,2.06,0.55,2.86c1.32,4.24,2.94,8.41,3.95,12.72
	c1.31,5.57,2.28,11.24,3.15,16.9c1.21,7.8,2.22,15.64,3.26,23.47c0.59,4.42,1.06,8.85,1.61,13.28c0.34,2.69,0.79,5.37,1.08,8.06
	c0.69,6.42,1.35,12.85,1.95,19.28c0.71,7.61,1.46,15.23,1.99,22.86c0.57,8.28,0.95,16.56,1.35,24.85
	c0.28,5.73,0.48,11.47,0.65,17.21c0.07,2.54-0.04,5.09-0.06,7.64c-0.01,1.31,1,2.17,1.92,1.54c0.48-0.33,0.91-1.17,0.87-1.75
	c-0.29-4.85-0.74-9.69-1.05-14.53c-0.41-6.44-0.72-12.89-1.12-19.34c-0.3-4.85-0.66-9.71-1.02-14.56c-0.08-1.03-0.38-2.04-0.44-3.07
	c-0.16-2.69-0.14-5.4-0.38-8.09c-0.57-6.43-1.21-12.86-1.88-19.29c-0.54-5.15-1.13-10.3-1.77-15.44c-0.48-3.87-1.14-7.72-1.6-11.6
	c-0.52-4.43-0.82-8.89-1.39-13.31c-0.63-4.9-1.45-9.78-2.23-14.66c-0.69-4.31-1.38-8.63-2.17-12.92c-0.49-2.66-1.33-5.26-1.73-7.92
	c-0.63-4.2-2.2-8.11-3.35-12.16C816.2,280.14,815.81,279.32,814.25,278.93z M828.39,271.38c-0.28,0.04-0.56,0.09-0.83,0.13
	c0.04,0.56,0,1.15,0.14,1.69c0.46,1.77,1.09,3.51,1.47,5.3c1.78,8.33,3.59,16.66,5.23,25.03c1.33,6.81,2.49,13.65,3.6,20.5
	c1.37,8.49,2.61,17.01,3.91,25.51c1.02,6.7,2.16,13.39,3.01,20.12c0.75,5.93,1.28,11.9,1.72,17.86c0.71,9.63,1.32,19.28,1.86,28.92
	c0.24,4.22,0.21,8.46,0.29,12.69c0.11,6.38,0.21,12.76,0.29,19.14c0.02,1.68-0.06,3.35-0.09,5.03c-0.02,0.85,0.1,1.59,1.44,1.67
	c0.12-0.78,0.33-1.53,0.34-2.29c0.02-4.23,0.05-8.45-0.04-12.68c-0.18-8.13-0.39-16.26-0.67-24.39c-0.09-2.47-0.51-4.92-0.66-7.38
	c-0.3-5.25-0.51-10.52-0.8-15.77c-0.08-1.42-0.37-2.83-0.48-4.25c-0.26-3.26-0.4-6.53-0.74-9.78c-0.35-3.41-0.83-6.81-1.33-10.2
	c-1.33-8.99-2.68-17.98-4.08-26.97c-0.95-6.15-2-12.28-2.99-18.42c-0.44-2.75-0.78-5.52-1.28-8.26c-0.75-4.14-1.59-8.27-2.39-12.4
	c-0.84-4.3-1.62-8.6-2.53-12.89c-0.95-4.51-1.99-9.01-3.04-13.5C829.37,274.32,828.84,272.86,828.39,271.38z M766.15,295.32
	c0.24,1.46,0.44,2.85,0.7,4.21c0.64,3.29,1.49,6.55,1.95,9.86c0.92,6.55,1.71,13.12,2.41,19.7c0.75,7.06,1.33,14.13,2.01,21.2
	c0.32,3.33,0.74,6.66,1.02,10c0.37,4.29,0.69,8.59,0.95,12.89c0.46,7.64,0.93,15.29,1.25,22.94c0.29,6.77,0.41,13.54,0.56,20.31
	c0.13,6.13,0.27,12.27,0.28,18.4c0.01,4.7-0.19,9.39-0.26,14.09c-0.01,0.65,0.17,1.3,0.28,2.14c1.43-0.45,2.15-0.99,2.07-2.29
	c-0.05-0.71,0.07-1.43,0.06-2.15c-0.29-12.91-0.53-25.82-0.91-38.73c-0.26-8.76-0.71-17.52-1.11-26.27
	c-0.16-3.67-0.32-7.33-0.62-10.99c-0.53-6.35-1.17-12.7-1.76-19.05c-0.27-2.94-0.49-5.88-0.82-8.81c-0.5-4.43-1.12-8.84-1.62-13.27
	c-0.54-4.74-0.83-9.52-1.53-14.24c-0.9-6.06-2.09-12.08-3.19-18.11C767.74,296.36,767.74,295.34,766.15,295.32z M866.87,451.12
	c1.7-0.81,1.56-1.87,1.55-2.9c-0.07-4.87,0.03-9.74-0.22-14.6c-0.59-11.46-1.28-22.92-2.05-34.37c-0.27-4.04-0.9-8.06-1.32-12.1
	c-0.48-4.68-0.8-9.37-1.39-14.03c-0.73-5.69-1.63-11.36-2.53-17.03c-1.15-7.25-2.3-14.49-3.57-21.72
	c-1.24-7.06-2.62-14.1-3.97-21.15c-1.08-5.64-2.16-11.27-3.34-16.89c-0.57-2.73-1.39-5.4-2.08-8.11c-1-3.89-1.98-7.79-2.99-11.76
	c-1.01,0-1.62,0.35-1.46,1.39c0.11,0.7,0.42,1.37,0.63,2.05c0.81,2.58,1.76,5.13,2.4,7.75c1.52,6.24,2.99,12.49,4.29,18.77
	c1.43,6.94,2.72,13.91,3.94,20.89c1.69,9.65,3.33,19.32,4.87,29c1.03,6.46,1.94,12.93,2.74,19.42c0.75,6.08,1.39,12.18,1.9,18.29
	c0.64,7.55,1.2,15.11,1.61,22.67c0.56,10.36,1.09,20.72,0.72,31.1C866.58,448.79,866.76,449.78,866.87,451.12z M752.48,301.05
	c0.2,0.74,0.39,1.42,0.57,2.09c0.66,2.45,1.64,4.86,1.93,7.35c1.06,9.27,1.97,18.57,2.78,27.87c0.92,10.49,1.79,20.99,2.47,31.51
	c0.71,11.14,1.26,22.29,1.7,33.45c0.38,9.56,0.5,19.13,0.75,28.69c0.06,2.23,0.15,4.45,0.36,6.67c0.07,0.78-0.04,2.06,1.16,2.04
	c1.49-0.03,1.02-1.46,1.01-2.25c-0.04-2.45-0.32-4.9-0.43-7.35c-0.26-5.57-0.46-11.15-0.72-16.73c-0.09-1.98-0.35-3.96-0.41-5.94
	c-0.1-3.5-0.04-7-0.18-10.5c-0.18-4.46-0.53-8.92-0.77-13.38c-0.28-5.25-0.43-10.51-0.82-15.76c-0.85-11.46-1.71-22.92-2.75-34.36
	c-0.77-8.5-1.79-16.98-2.8-25.45c-0.29-2.44-0.94-4.84-1.46-7.24C754.59,300.55,753.91,300.12,752.48,301.05z M883.6,441.8
	c0.28,0.03,0.56,0.06,0.85,0.09c0.15-0.52,0.44-1.05,0.43-1.57c-0.03-2.71,0.03-5.43-0.24-8.12c-0.6-6.11-1.56-12.18-2.03-18.29
	c-0.43-5.64-0.79-11.28-1.65-16.87c-0.27-1.73-0.13-3.51-0.36-5.24c-0.76-5.67-1.65-11.33-2.39-17.01
	c-1.33-10.11-2.72-20.2-5.15-30.14c-1.39-5.71-2.19-11.56-3.22-17.35c-0.61-3.45-1.34-6.89-1.69-10.37
	c-0.35-3.47-1.47-6.76-2.14-10.14c-0.87-4.39-1.72-8.82-3.14-13.13c-1.33-4.05-2.03-8.3-3-12.41c-1.74-0.17-2.06,0.1-1.68,1.22
	c0.57,1.64,1.16,3.27,1.68,4.93c0.81,2.59,1.67,5.16,2.31,7.79c1.14,4.72,2.23,9.45,3.17,14.21c1.53,7.74,2.93,15.5,4.37,23.26
	c1.38,7.44,2.81,14.87,4.1,22.32c1.26,7.31,2.46,14.63,3.49,21.97c0.74,5.29,1.14,10.63,1.71,15.94c0.53,4.91,1.15,9.81,1.64,14.73
	c0.59,5.95,1.13,11.9,1.6,17.86c0.36,4.52,0.58,9.06,0.89,13.59C883.23,439.99,883.45,440.89,883.6,441.8z M895.48,438.91
	c0.23,0.03,0.45,0.06,0.68,0.08c1.03-1.04,0.87-2.5,0.85-3.72c-0.09-4.62-0.29-9.24-0.66-13.84c-0.35-4.45-1.01-8.87-1.44-13.31
	c-0.43-4.51-0.64-9.05-1.13-13.56c-0.77-7.04-1.63-14.08-2.58-21.1c-0.99-7.42-2.09-14.83-3.21-22.23
	c-0.68-4.48-1.49-8.95-2.26-13.42c-0.63-3.68-1.26-7.36-1.9-11.04c-0.44-2.51-0.92-5.01-1.33-7.53c-0.21-1.25-0.23-2.54-0.45-3.79
	c-0.6-3.53-1.46-7.03-1.84-10.58c-0.77-7.11-2.8-13.86-5.43-20.45c-0.08-0.2-0.41-0.31-1.09-0.79c0.3,1.27,0.46,2.02,0.65,2.76
	c1.31,4.92,2.89,9.79,3.88,14.77c1.59,8.04,2.76,16.17,4.15,24.25c1.07,6.2,2.28,12.38,3.28,18.59c0.88,5.42,1.58,10.87,2.32,16.31
	c1.31,9.71,2.63,19.43,3.87,29.15c0.51,4.04,0.85,8.1,1.21,12.15c0.53,5.95,1.06,11.91,1.48,17.87c0.34,4.84,0.5,9.7,0.74,14.55
	C895.35,435.66,895.41,437.29,895.48,438.91z M741.76,309.57c-0.59,0.74-0.81,1.52-0.45,2.55c0.33,0.97,0.55,2,0.67,3.02
	c0.42,3.64,0.8,7.28,1.14,10.92c0.57,6.11,1.21,12.22,1.61,18.34c0.63,9.71,1.1,19.44,1.6,29.16c0.33,6.37,0.68,12.74,0.83,19.12
	c0.21,8.77,0.29,17.55,0.34,26.33c0.02,3.65-0.21,7.31-0.31,10.96c-0.03,1.04-0.06,2.08,0.05,3.11c0.04,0.36,0.47,0.79,0.82,0.94
	c0.19,0.08,0.8-0.31,0.88-0.58c0.3-1.06,0.63-2.16,0.64-3.24c0.01-2.55-0.19-5.1-0.24-7.65c-0.18-9.17-0.29-18.33-0.5-27.5
	c-0.17-7.18-0.41-14.36-0.69-21.54c-0.15-3.67-0.45-7.33-0.71-10.99c-0.26-3.66-0.56-7.31-0.8-10.96c-0.11-1.82-0.02-3.66-0.17-5.47
	c-0.44-5.24-0.94-10.47-1.44-15.7c-0.6-6.35-1.22-12.7-1.85-19.05C743.1,310.56,743.03,309.71,741.76,309.57z M907.03,427.12
	c-0.1,0.01-0.2,0.02-0.31,0.03c0,1.43-0.02,2.86,0,4.29c0.02,1.35,0.04,2.71,0.16,4.06c0.03,0.3,0.44,0.75,0.72,0.79
	c0.3,0.04,0.76-0.25,0.96-0.53c0.21-0.29,0.27-0.75,0.26-1.13c-0.06-2.47-0.04-4.96-0.27-7.41c-0.61-6.51-1.33-13-2-19.5
	c-0.48-4.68-0.94-9.36-1.46-14.03c-0.2-1.81-0.62-3.6-0.84-5.41c-0.55-4.58-0.96-9.17-1.58-13.74c-0.7-5.14-1.52-10.26-2.39-15.37
	c-0.81-4.79-1.67-9.57-2.65-14.32c-0.71-3.43-1.73-6.79-2.48-10.22c-0.33-1.54-0.13-3.2-0.51-4.72c-1.14-4.56-1.93-9.18-2.63-13.83
	c-0.74-4.96-1.93-9.85-2.98-14.76c-0.34-1.61-0.81-3.2-1.27-4.79c-0.15-0.52-0.4-1.05-0.76-1.45c-0.2-0.22-0.76-0.32-1.03-0.2
	c-0.29,0.13-0.57,0.58-0.59,0.92c-0.02,0.35,0.29,0.72,0.4,1.09c0.81,2.66,1.79,5.28,2.36,7.99c1.59,7.47,2.97,14.99,4.49,22.47
	c0.92,4.53,2.03,9.02,2.93,13.55c1.16,5.86,2.24,11.73,3.26,17.61c1.01,5.81,2.08,11.62,2.8,17.47c1.15,9.33,2.06,18.69,3.04,28.05
	C905.48,411.73,906.24,419.42,907.03,427.12z M896.47,288.73c-0.17,0.06-0.34,0.11-0.5,0.17c0.23,1.38,0.4,2.77,0.7,4.13
	c1.52,6.84,3.1,13.67,4.61,20.52c0.72,3.26,1.27,6.56,2.01,9.81c1.31,5.74,2.79,11.44,4.07,17.18c0.99,4.43,1.85,8.89,2.64,13.35
	c1.43,8.08,2.89,16.16,4.1,24.28c1.18,7.95,2.19,15.93,3.04,23.93c0.91,8.56,1.53,17.14,2.3,25.71c0.05,0.55,0.3,1.09,0.54,1.94
	c1.22-1.89,1.06-3.6,0.93-5.24c-0.27-3.72-0.59-7.44-1-11.14c-0.57-5.13-1.26-10.24-1.88-15.36c-0.69-5.77-1.3-11.55-2.04-17.31
	c-0.43-3.32-1.04-6.61-1.56-9.91c-1.94-12.3-4.27-24.52-7.11-36.64c-1-4.26-2.21-8.47-3.2-12.73c-0.85-3.71-1.47-7.48-2.28-11.2
	c-1.41-6.51-2.86-13.01-4.35-19.5C897.34,290.01,896.82,289.39,896.47,288.73z M736.05,426.81c1.19,0.04,1.41-0.51,1.44-1.21
	c0.08-1.59,0.25-3.19,0.23-4.78c-0.08-5.18-0.24-10.35-0.35-15.53c-0.12-5.89-0.15-11.78-0.36-17.67c-0.16-4.38-0.6-8.74-0.82-13.12
	c-0.47-9.15-0.81-18.31-1.31-27.46c-0.44-8.03-1.03-16.05-1.54-24.07c-0.04-0.66-0.04-1.42-0.87-1.44
	c-0.57-0.01-1.36,0.22-1.67,0.63c-0.28,0.38-0.16,1.17,0,1.72c0.35,1.3,1.11,2.54,1.21,3.84c0.5,6.18,0.84,12.37,1.24,18.56
	c0.17,2.63,0.39,5.25,0.5,7.88c0.19,4.53,0.28,9.07,0.46,13.6c0.46,11.95,1.03,23.89,1.39,35.85c0.21,6.94,0.09,13.88,0.15,20.83
	C735.74,425.23,735.94,426.04,736.05,426.81z M929.19,406.71c1.94-1.06,1.93-1.28,1.58-3.23c-0.75-4.15-1.37-8.32-2.07-12.48
	c-0.68-4-1.35-8-2.12-11.97c-0.74-3.82-1.66-7.61-2.4-11.43c-0.74-3.83-1.21-7.71-2.03-11.52c-1.75-8.09-3.62-16.16-5.49-24.23
	c-1.5-6.51-3.07-13-4.61-19.5c-0.13-0.54-0.27-1.08-0.38-1.63c-1.07-5.06-2.12-10.12-3.2-15.18c-0.1-0.45-0.25-1.04-0.57-1.26
	c-0.4-0.27-1.1-0.44-1.5-0.26c-0.33,0.15-0.47,0.85-0.56,1.33c-0.05,0.28,0.12,0.63,0.29,0.9c3.04,4.87,3.2,10.61,4.69,15.94
	c1.28,4.58,2.01,9.32,3.05,13.98c0.73,3.27,1.56,6.51,2.33,9.76c0.88,3.72,1.8,7.42,2.63,11.15c0.76,3.42,1.45,6.86,2.1,10.3
	c0.82,4.3,1.54,8.61,2.35,12.91c1.15,6.1,2.48,12.18,3.45,18.31c0.81,5.1,1.21,10.27,1.83,15.41
	C928.66,404.84,928.94,405.65,929.19,406.71z M725.73,350.01c0.06,0,0.11,0,0.17,0c0-3.82,0.03-7.63-0.04-11.45
	c-0.01-0.52-0.42-1.2-0.86-1.5c-0.33-0.23-1.19-0.15-1.46,0.13c-0.36,0.38-0.56,1.1-0.51,1.64c0.11,1.09,0.61,2.16,0.64,3.25
	c0.11,3.98,0.04,7.96,0.15,11.94c0.2,7.81,0.48,15.61,0.73,23.41c0.17,5.34,0.41,10.68,0.5,16.02c0.07,4.3-0.04,8.6-0.04,12.9
	c0,0.72-0.06,1.51,0.23,2.12c0.21,0.45,0.93,0.86,1.45,0.9c0.37,0.03,0.87-0.55,1.14-0.97c0.18-0.29,0.1-0.77,0.07-1.16
	c-0.31-4.05-0.73-8.09-0.94-12.14c-0.18-3.49-0.12-6.99-0.19-10.49c-0.07-3.11-0.15-6.22-0.29-9.33
	c-0.23-5.24-0.55-10.47-0.73-15.71C725.64,356.39,725.73,353.2,725.73,350.01z M927.94,301.65c-1.29,0.5-1.51,1.13-1.14,2.05
	c0.3,0.74,0.59,1.48,0.79,2.25c1.2,4.44,2.33,8.89,3.56,13.32c1.43,5.14,3.02,10.24,4.39,15.39c1.38,5.15,2.64,10.32,3.83,15.52
	c1.03,4.5,1.9,9.04,2.83,13.57c0.35,1.72,0.68,3.43,0.99,5.16c0.79,4.53,1.55,9.06,2.36,13.58c0.17,0.97,0.15,2.12,1.66,2.55
	c0.17-0.54,0.48-1.03,0.45-1.51c-0.06-1.11-0.23-2.21-0.45-3.3c-0.94-4.68-1.9-9.36-2.89-14.04c-1.24-5.9-2.46-11.81-3.8-17.69
	c-1.01-4.43-2.14-8.83-3.29-13.22c-1.25-4.77-2.53-9.52-3.88-14.26c-1.67-5.88-3.47-11.73-4.43-17.79
	C928.85,302.67,928.3,302.19,927.94,301.65z M917.6,297.09c-0.2,0.04-0.4,0.08-0.6,0.12c-0.05,0.37-0.2,0.76-0.12,1.1
	c6.82,31.25,14.4,62.34,20.18,93.81c0.03,0.17,0.3,0.29,0.7,0.66c0-0.72,0.06-1.15-0.01-1.56c-0.77-4.96-1.55-9.92-2.35-14.87
	c-0.25-1.57-0.52-3.14-0.86-4.7c-0.71-3.26-1.5-6.5-2.19-9.76c-0.79-3.74-1.47-7.5-2.28-11.23c-0.68-3.11-1.51-6.18-2.21-9.28
	c-1.07-4.74-2.04-9.5-3.16-14.23c-0.71-3.01-1.76-5.95-2.38-8.97c-1.1-5.38-1.93-10.81-3.02-16.19
	C918.96,300.3,918.18,298.71,917.6,297.09z M716.07,355.25c-0.22-0.02-0.44-0.04-0.65-0.06c-0.14,0.42-0.35,0.82-0.42,1.25
	c-0.87,5.28-0.96,10.6-0.73,15.93c0.42,9.46,0.92,18.91,1.41,28.37c0.03,0.63,0.18,1.3,0.46,1.84c0.36,0.7,0.9,1.43,1.88,1
	c0.88-0.38,1.52-1.09,1.11-2.09c-1.28-3.16-1.55-6.48-1.77-9.82c-0.59-8.98-1.55-17.93-1.21-26.95
	C716.28,361.57,716.11,358.4,716.07,355.25z M938.64,323.27c3.47,14.95,7.25,29.82,11.17,44.64c0.04,0.15,0.33,0.24,0.74,0.51
	c0.19-1.83,0.19-3.41-0.28-5.01c-1.2-4.11-2.38-8.22-3.47-12.36c-1.08-4.08-2.02-8.2-3.1-12.28c-0.55-2.07-1.27-4.1-1.88-6.16
	c-0.18-0.61-0.28-1.24-0.37-1.87C941.05,328.08,940.33,325.52,938.64,323.27z M947.26,326.75c-0.2,0.07-0.41,0.14-0.61,0.2
	c0.17,5.81,2.64,11.2,3.4,16.92c0.49,3.74,1.89,7.37,2.91,11.04c0.07,0.24,0.41,0.39,0.85,0.78c0.1-0.71,0.28-1.18,0.19-1.58
	c-2.01-8.84-4.05-17.67-6.11-26.5C947.81,327.3,947.47,327.04,947.26,326.75z"/>
<path d="M799.55,275.27c1.19,4.69,2.46,9.18,3.44,13.74c1.06,4.91,2.01,9.85,2.72,14.81c1.53,10.82,2.92,21.66,4.27,32.5
	c0.51,4.11,0.72,8.26,1.17,12.38c0.55,5.07,1.29,10.12,1.8,15.19c0.47,4.68,0.8,9.37,1.12,14.06c0.43,6.36,0.89,12.73,1.17,19.1
	c0.31,6.93,0.46,13.86,0.63,20.79c0.16,6.21,0.37,12.42,0.34,18.63c-0.03,6.85-0.29,13.7-0.49,20.55c-0.03,1.03-0.16,2.07-0.43,3.06
	c-0.14,0.51-0.66,1.25-1.04,1.27c-0.83,0.05-0.87-0.75-0.81-1.42c0.15-1.67,0.39-3.33,0.47-4.99c0.22-4.62,0.42-9.25,0.53-13.88
	c0.1-4.23,0.13-8.46,0.07-12.68c-0.13-7.81-0.28-15.63-0.55-23.44c-0.28-8.14-0.54-16.28-1.13-24.4
	c-0.64-8.83-1.63-17.63-2.48-26.43c-0.52-5.39-0.99-10.79-1.63-16.17c-1.2-10.13-2.39-20.26-3.81-30.36
	c-0.92-6.54-2.08-13.07-3.48-19.53c-0.77-3.55-2.2-6.95-3.43-10.39C797.43,276.06,797.64,275.63,799.55,275.27z"/>
<path d="M782.48,284.05c0.75,3.74,1.49,7.47,2.26,11.19c0.24,1.17,0.69,2.3,0.89,3.47c1.44,8.32,2.96,16.64,4.2,24.99
	c1.11,7.49,1.86,15.04,2.83,22.55c0.85,6.57,1.89,13.12,2.67,19.69c0.77,6.49,1.4,12.99,1.96,19.5c0.55,6.35,0.97,12.71,1.38,19.08
	c0.64,9.88,1.22,19.76,1.83,29.64c0.07,1.2,0.22,2.39,0.32,3.58c0.06,0.8,0.15,1.48,0.96,2.03c0.76,0.52,0.8,3.05,0.13,3.72
	c-0.52,0.53-1.06,1.46-1.97,0.98c-0.56-0.29-1-0.95-1.3-1.55c-0.23-0.47-0.23-1.09-0.22-1.64c0.33-10.62-0.49-21.2-1.18-31.79
	c-0.52-7.88-0.9-15.77-1.49-23.65c-0.4-5.32-0.96-10.63-1.59-15.93c-1.34-11.24-2.79-22.48-4.18-33.72
	c-0.59-4.74-1.01-9.51-1.72-14.24c-0.83-5.51-1.81-11-2.9-16.47c-1.05-5.24-2.29-10.44-3.53-15.64c-0.29-1.22-0.95-2.35-1.36-3.55
	C779.86,284.41,780.46,283.77,782.48,284.05z"/>
<path d="M814.25,278.93c1.56,0.39,1.95,1.21,2.18,2.02c1.15,4.04,2.71,7.96,3.35,12.16c0.4,2.67,1.24,5.27,1.73,7.92
	c0.79,4.29,1.48,8.61,2.17,12.92c0.78,4.88,1.59,9.76,2.23,14.66c0.57,4.42,0.86,8.88,1.39,13.31c0.46,3.88,1.12,7.73,1.6,11.6
	c0.64,5.14,1.23,10.29,1.77,15.44c0.67,6.42,1.31,12.85,1.88,19.29c0.24,2.69,0.22,5.39,0.38,8.09c0.06,1.03,0.36,2.04,0.44,3.07
	c0.37,4.85,0.72,9.7,1.02,14.56c0.4,6.44,0.71,12.9,1.12,19.34c0.31,4.85,0.76,9.69,1.05,14.53c0.03,0.58-0.39,1.42-0.87,1.75
	c-0.93,0.63-1.93-0.23-1.92-1.54c0.02-2.55,0.13-5.1,0.06-7.64c-0.17-5.74-0.37-11.48-0.65-17.21c-0.4-8.29-0.77-16.58-1.35-24.85
	c-0.53-7.63-1.28-15.24-1.99-22.86c-0.6-6.43-1.26-12.86-1.95-19.28c-0.29-2.69-0.75-5.37-1.08-8.06
	c-0.55-4.42-1.02-8.86-1.61-13.28c-1.04-7.83-2.06-15.66-3.26-23.47c-0.88-5.66-1.84-11.32-3.15-16.9
	c-1.01-4.31-2.64-8.48-3.95-12.72C814.55,280.99,814.48,280.14,814.25,278.93z"/>
<path d="M828.39,271.38c0.45,1.48,0.98,2.94,1.33,4.44c1.06,4.49,2.09,8.99,3.04,13.5c0.9,4.28,1.69,8.59,2.53,12.89
	c0.8,4.13,1.64,8.26,2.39,12.4c0.49,2.74,0.83,5.51,1.28,8.26c0.99,6.14,2.04,12.28,2.99,18.42c1.39,8.98,2.74,17.97,4.08,26.97
	c0.5,3.39,0.98,6.79,1.33,10.2c0.34,3.25,0.47,6.52,0.74,9.78c0.12,1.42,0.41,2.83,0.48,4.25c0.29,5.26,0.49,10.52,0.8,15.77
	c0.14,2.47,0.57,4.92,0.66,7.38c0.28,8.13,0.5,16.26,0.67,24.39c0.09,4.22,0.06,8.45,0.04,12.68c0,0.76-0.22,1.51-0.34,2.29
	c-1.34-0.08-1.46-0.82-1.44-1.67c0.04-1.68,0.11-3.35,0.09-5.03c-0.08-6.38-0.18-12.76-0.29-19.14c-0.07-4.23-0.05-8.47-0.29-12.69
	c-0.54-9.65-1.15-19.29-1.86-28.92c-0.44-5.96-0.96-11.93-1.72-17.86c-0.85-6.73-1.99-13.41-3.01-20.12
	c-1.29-8.51-2.53-17.02-3.91-25.51c-1.11-6.85-2.27-13.69-3.6-20.5c-1.63-8.36-3.44-16.69-5.23-25.03c-0.38-1.79-1.01-3.52-1.47-5.3
	c-0.14-0.54-0.1-1.12-0.14-1.69C827.83,271.47,828.11,271.43,828.39,271.38z"/>
<path d="M766.15,295.32c1.59,0.02,1.59,1.04,1.74,1.85c1.1,6.03,2.29,12.05,3.19,18.11c0.7,4.72,0.99,9.49,1.53,14.24
	c0.5,4.43,1.12,8.84,1.62,13.27c0.33,2.93,0.55,5.87,0.82,8.81c0.59,6.35,1.23,12.69,1.76,19.05c0.3,3.66,0.46,7.32,0.62,10.99
	c0.39,8.76,0.85,17.51,1.11,26.27c0.38,12.91,0.62,25.82,0.91,38.73c0.02,0.71-0.1,1.43-0.06,2.15c0.08,1.3-0.64,1.83-2.07,2.29
	c-0.11-0.84-0.29-1.49-0.28-2.14c0.07-4.7,0.27-9.39,0.26-14.09c-0.01-6.13-0.15-12.27-0.28-18.4c-0.15-6.77-0.27-13.55-0.56-20.31
	c-0.33-7.65-0.79-15.3-1.25-22.94c-0.26-4.3-0.59-8.6-0.95-12.89c-0.29-3.34-0.7-6.66-1.02-10c-0.68-7.07-1.26-14.14-2.01-21.2
	c-0.7-6.58-1.49-13.15-2.41-19.7c-0.46-3.31-1.31-6.57-1.95-9.86C766.58,298.16,766.39,296.78,766.15,295.32z"/>
<path d="M866.87,451.12c-0.11-1.34-0.29-2.33-0.26-3.32c0.37-10.38-0.17-20.74-0.72-31.1c-0.41-7.56-0.97-15.12-1.61-22.67
	c-0.52-6.11-1.15-12.21-1.9-18.29c-0.8-6.49-1.72-12.96-2.74-19.42c-1.54-9.68-3.18-19.34-4.87-29c-1.22-6.98-2.51-13.95-3.94-20.89
	c-1.3-6.29-2.77-12.54-4.29-18.77c-0.64-2.62-1.59-5.17-2.4-7.75c-0.21-0.68-0.53-1.35-0.63-2.05c-0.16-1.04,0.45-1.39,1.46-1.39
	c1.01,3.98,1.99,7.87,2.99,11.76c0.69,2.7,1.51,5.38,2.08,8.11c1.18,5.62,2.26,11.25,3.34,16.89c1.35,7.04,2.73,14.08,3.97,21.15
	c1.27,7.23,2.42,14.47,3.57,21.72c0.9,5.67,1.8,11.34,2.53,17.03c0.6,4.66,0.91,9.36,1.39,14.03c0.42,4.03,1.05,8.05,1.32,12.1
	c0.77,11.45,1.46,22.91,2.05,34.37c0.25,4.86,0.15,9.73,0.22,14.6C868.44,449.25,868.57,450.31,866.87,451.12z"/>
<path d="M752.48,301.05c1.43-0.93,2.11-0.5,2.37,0.7c0.52,2.41,1.17,4.8,1.46,7.24c1.01,8.48,2.03,16.95,2.8,25.45
	c1.04,11.44,1.9,22.9,2.75,34.36c0.39,5.24,0.54,10.51,0.82,15.76c0.24,4.46,0.58,8.92,0.77,13.38c0.14,3.5,0.08,7,0.18,10.5
	c0.06,1.98,0.31,3.96,0.41,5.94c0.26,5.57,0.46,11.15,0.72,16.73c0.11,2.45,0.4,4.9,0.43,7.35c0.01,0.8,0.48,2.22-1.01,2.25
	c-1.2,0.03-1.08-1.26-1.16-2.04c-0.21-2.21-0.3-4.44-0.36-6.67c-0.26-9.56-0.37-19.13-0.75-28.69c-0.44-11.16-0.99-22.31-1.7-33.45
	c-0.67-10.51-1.55-21.01-2.47-31.51c-0.81-9.3-1.72-18.59-2.78-27.87c-0.28-2.49-1.26-4.9-1.93-7.35
	C752.86,302.47,752.68,301.79,752.48,301.05z"/>
<path d="M883.6,441.8c-0.15-0.91-0.38-1.82-0.44-2.74c-0.32-4.53-0.53-9.06-0.89-13.59c-0.48-5.96-1.01-11.91-1.6-17.86
	c-0.49-4.91-1.11-9.82-1.64-14.73c-0.58-5.31-0.97-10.65-1.71-15.94c-1.03-7.34-2.23-14.66-3.49-21.97
	c-1.28-7.46-2.71-14.89-4.1-22.32c-1.44-7.76-2.84-15.52-4.37-23.26c-0.94-4.76-2.03-9.49-3.17-14.21c-0.64-2.63-1.5-5.21-2.31-7.79
	c-0.52-1.66-1.11-3.29-1.68-4.93c-0.39-1.12-0.06-1.39,1.68-1.22c0.97,4.11,1.66,8.37,3,12.41c1.42,4.31,2.27,8.74,3.14,13.13
	c0.67,3.38,1.79,6.67,2.14,10.14c0.35,3.48,1.08,6.92,1.69,10.37c1.03,5.79,1.83,11.65,3.22,17.35c2.43,9.94,3.82,20.03,5.15,30.14
	c0.74,5.68,1.64,11.33,2.39,17.01c0.23,1.73,0.09,3.52,0.36,5.24c0.87,5.6,1.22,11.23,1.65,16.87c0.47,6.11,1.43,12.19,2.03,18.29
	c0.27,2.69,0.21,5.41,0.24,8.12c0.01,0.52-0.28,1.05-0.43,1.57C884.17,441.87,883.88,441.84,883.6,441.8z"/>
<path d="M895.48,438.91c-0.07-1.62-0.13-3.25-0.21-4.87c-0.24-4.85-0.4-9.7-0.74-14.55c-0.42-5.96-0.95-11.92-1.48-17.87
	c-0.36-4.05-0.69-8.12-1.21-12.15c-1.23-9.72-2.55-19.44-3.87-29.15c-0.74-5.44-1.44-10.89-2.32-16.31
	c-1.01-6.21-2.21-12.39-3.28-18.59c-1.39-8.08-2.56-16.21-4.15-24.25c-0.98-4.99-2.57-9.85-3.88-14.77
	c-0.2-0.74-0.35-1.49-0.65-2.76c0.68,0.48,1.01,0.59,1.09,0.79c2.63,6.6,4.66,13.34,5.43,20.45c0.39,3.55,1.24,7.05,1.84,10.58
	c0.21,1.25,0.24,2.53,0.45,3.79c0.41,2.51,0.89,5.02,1.33,7.53c0.64,3.68,1.28,7.36,1.9,11.04c0.76,4.47,1.57,8.93,2.26,13.42
	c1.12,7.4,2.22,14.81,3.21,22.23c0.94,7.02,1.81,14.06,2.58,21.1c0.49,4.51,0.7,9.04,1.13,13.56c0.42,4.44,1.08,8.86,1.44,13.31
	c0.37,4.6,0.57,9.23,0.66,13.84c0.02,1.22,0.18,2.68-0.85,3.72C895.94,438.97,895.71,438.94,895.48,438.91z"/>
<path d="M741.76,309.57c1.26,0.14,1.34,0.99,1.42,1.77c0.63,6.35,1.25,12.7,1.85,19.05c0.5,5.23,1,10.46,1.44,15.7
	c0.15,1.82,0.06,3.65,0.17,5.47c0.23,3.66,0.54,7.31,0.8,10.96c0.26,3.66,0.56,7.32,0.71,10.99c0.29,7.18,0.53,14.36,0.69,21.54
	c0.21,9.17,0.32,18.33,0.5,27.5c0.05,2.55,0.25,5.1,0.24,7.65c-0.01,1.09-0.34,2.18-0.64,3.24c-0.08,0.27-0.69,0.66-0.88,0.58
	c-0.36-0.16-0.78-0.59-0.82-0.94c-0.12-1.03-0.08-2.07-0.05-3.11c0.1-3.66,0.33-7.31,0.31-10.96c-0.05-8.78-0.13-17.56-0.34-26.33
	c-0.15-6.38-0.51-12.75-0.83-19.12c-0.5-9.72-0.97-19.45-1.6-29.16c-0.4-6.12-1.04-12.23-1.61-18.34
	c-0.34-3.65-0.72-7.29-1.14-10.92c-0.12-1.02-0.34-2.05-0.67-3.02C740.96,311.09,741.17,310.31,741.76,309.57z"/>
<path d="M907.03,427.12c-0.78-7.7-1.55-15.39-2.36-23.09c-0.98-9.35-1.89-18.72-3.04-28.05c-0.72-5.85-1.79-11.66-2.8-17.47
	c-1.02-5.88-2.1-11.75-3.26-17.61c-0.9-4.53-2-9.02-2.93-13.55c-1.52-7.49-2.91-15-4.49-22.47c-0.57-2.71-1.55-5.33-2.36-7.99
	c-0.11-0.37-0.43-0.74-0.4-1.09c0.02-0.33,0.3-0.78,0.59-0.92c0.27-0.12,0.84-0.02,1.03,0.2c0.35,0.4,0.61,0.93,0.76,1.45
	c0.46,1.59,0.93,3.18,1.27,4.79c1.04,4.91,2.24,9.8,2.98,14.76c0.7,4.65,1.49,9.27,2.63,13.83c0.38,1.52,0.18,3.18,0.51,4.72
	c0.74,3.42,1.77,6.79,2.48,10.22c0.98,4.75,1.84,9.54,2.65,14.32c0.86,5.11,1.69,10.23,2.39,15.37c0.62,4.57,1.03,9.16,1.58,13.74
	c0.22,1.81,0.63,3.6,0.84,5.41c0.52,4.67,0.98,9.35,1.46,14.03c0.67,6.5,1.39,12.99,2,19.5c0.23,2.46,0.21,4.94,0.27,7.41
	c0.01,0.38-0.05,0.84-0.26,1.13c-0.2,0.28-0.66,0.57-0.96,0.53c-0.28-0.04-0.7-0.49-0.72-0.79c-0.12-1.35-0.14-2.71-0.16-4.06
	c-0.02-1.43,0-2.86,0-4.29C906.82,427.14,906.92,427.13,907.03,427.12z"/>
<path d="M896.47,288.73c0.35,0.66,0.87,1.28,1.03,1.98c1.49,6.49,2.94,12.99,4.35,19.5c0.8,3.72,1.42,7.49,2.28,11.2
	c0.98,4.26,2.2,8.47,3.2,12.73c2.84,12.12,5.17,24.34,7.11,36.64c0.52,3.3,1.14,6.59,1.56,9.91c0.74,5.76,1.35,11.54,2.04,17.31
	c0.61,5.12,1.3,10.24,1.88,15.36c0.41,3.7,0.73,7.42,1,11.14c0.12,1.65,0.29,3.35-0.93,5.24c-0.25-0.86-0.49-1.39-0.54-1.94
	c-0.77-8.57-1.39-17.16-2.3-25.71c-0.85-7.99-1.86-15.98-3.04-23.93c-1.21-8.12-2.67-16.2-4.1-24.28
	c-0.79-4.47-1.66-8.93-2.64-13.35c-1.28-5.74-2.75-11.45-4.07-17.18c-0.74-3.25-1.29-6.55-2.01-9.81
	c-1.51-6.85-3.09-13.68-4.61-20.52c-0.3-1.36-0.47-2.75-0.7-4.13C896.13,288.84,896.3,288.78,896.47,288.73z"/>
<path d="M736.05,426.81c-0.11-0.76-0.31-1.57-0.32-2.39c-0.06-6.94,0.06-13.89-0.15-20.83c-0.36-11.95-0.93-23.9-1.39-35.85
	c-0.17-4.53-0.27-9.07-0.46-13.6c-0.11-2.63-0.33-5.25-0.5-7.88c-0.4-6.19-0.74-12.38-1.24-18.56c-0.11-1.3-0.86-2.54-1.21-3.84
	c-0.15-0.55-0.28-1.35,0-1.72c0.31-0.41,1.1-0.64,1.67-0.63c0.82,0.02,0.82,0.78,0.87,1.44c0.51,8.02,1.1,16.04,1.54,24.07
	c0.5,9.15,0.85,18.31,1.31,27.46c0.22,4.38,0.67,8.74,0.82,13.12c0.21,5.89,0.24,11.78,0.36,17.67c0.11,5.18,0.27,10.35,0.35,15.53
	c0.02,1.59-0.15,3.18-0.23,4.78C737.45,426.3,737.24,426.84,736.05,426.81z"/>
<path d="M929.19,406.71c-0.25-1.05-0.53-1.87-0.63-2.7c-0.62-5.14-1.01-10.3-1.83-15.41c-0.97-6.13-2.31-12.2-3.45-18.31
	c-0.81-4.3-1.53-8.61-2.35-12.91c-0.65-3.44-1.35-6.88-2.1-10.3c-0.83-3.73-1.74-7.44-2.63-11.15c-0.78-3.25-1.61-6.5-2.33-9.76
	c-1.03-4.66-1.76-9.39-3.05-13.98c-1.49-5.33-1.65-11.06-4.69-15.94c-0.16-0.26-0.34-0.62-0.29-0.9c0.09-0.48,0.23-1.18,0.56-1.33
	c0.4-0.18,1.1-0.02,1.5,0.26c0.33,0.23,0.48,0.81,0.57,1.26c1.08,5.06,2.14,10.12,3.2,15.18c0.11,0.55,0.26,1.09,0.38,1.63
	c1.54,6.5,3.1,12.99,4.61,19.5c1.86,8.07,3.74,16.13,5.49,24.23c0.82,3.81,1.3,7.69,2.03,11.52c0.74,3.82,1.66,7.61,2.4,11.43
	c0.77,3.98,1.44,7.98,2.12,11.97c0.71,4.16,1.33,8.33,2.07,12.48C931.12,405.43,931.13,405.65,929.19,406.71z"/>
<path d="M725.73,350.01c0,3.19-0.09,6.38,0.02,9.57c0.18,5.24,0.51,10.47,0.73,15.71c0.13,3.11,0.22,6.22,0.29,9.33
	c0.08,3.5,0.01,7,0.19,10.49c0.21,4.05,0.62,8.09,0.94,12.14c0.03,0.39,0.11,0.88-0.07,1.16c-0.27,0.42-0.77,0.99-1.14,0.97
	c-0.52-0.04-1.24-0.45-1.45-0.9c-0.29-0.61-0.23-1.4-0.23-2.12c0.01-4.3,0.12-8.6,0.04-12.9c-0.09-5.34-0.33-10.68-0.5-16.02
	c-0.25-7.8-0.52-15.61-0.73-23.41c-0.1-3.98-0.03-7.96-0.15-11.94c-0.03-1.09-0.53-2.16-0.64-3.25c-0.05-0.54,0.14-1.26,0.51-1.64
	c0.27-0.28,1.13-0.35,1.46-0.13c0.44,0.3,0.85,0.98,0.86,1.5c0.07,3.82,0.04,7.63,0.04,11.45
	C725.85,350.01,725.79,350.01,725.73,350.01z"/>
<path d="M927.94,301.65c0.36,0.54,0.91,1.02,1,1.57c0.96,6.06,2.76,11.91,4.43,17.79c1.35,4.74,2.63,9.49,3.88,14.26
	c1.15,4.39,2.29,8.79,3.29,13.22c1.34,5.88,2.55,11.79,3.8,17.69c0.98,4.67,1.95,9.35,2.89,14.04c0.22,1.09,0.39,2.2,0.45,3.3
	c0.03,0.47-0.28,0.97-0.45,1.51c-1.51-0.43-1.49-1.58-1.66-2.55c-0.81-4.52-1.57-9.06-2.36-13.58c-0.3-1.72-0.63-3.44-0.99-5.16
	c-0.93-4.53-1.8-9.07-2.83-13.57c-1.19-5.19-2.46-10.37-3.83-15.52c-1.38-5.15-2.96-10.25-4.39-15.39
	c-1.23-4.43-2.37-8.88-3.56-13.32c-0.21-0.76-0.5-1.51-0.79-2.25C926.44,302.78,926.65,302.15,927.94,301.65z"/>
<path d="M917.6,297.09c0.58,1.63,1.36,3.21,1.7,4.88c1.08,5.38,1.91,10.81,3.02,16.19c0.62,3.03,1.67,5.96,2.38,8.97
	c1.11,4.73,2.08,9.49,3.16,14.23c0.7,3.1,1.54,6.18,2.21,9.28c0.81,3.73,1.49,7.5,2.28,11.23c0.69,3.26,1.48,6.5,2.19,9.76
	c0.34,1.56,0.61,3.13,0.86,4.7c0.8,4.95,1.58,9.91,2.35,14.87c0.06,0.41,0.01,0.85,0.01,1.56c-0.4-0.37-0.67-0.49-0.7-0.66
	c-5.78-31.48-13.36-62.56-20.18-93.81c-0.07-0.34,0.08-0.74,0.12-1.1C917.2,297.17,917.4,297.13,917.6,297.09z"/>
<path d="M716.07,355.25c0.04,3.16,0.2,6.32,0.09,9.48c-0.34,9.02,0.62,17.98,1.21,26.95c0.22,3.33,0.5,6.66,1.77,9.82
	c0.4,1-0.24,1.7-1.11,2.09c-0.98,0.43-1.52-0.3-1.88-1c-0.28-0.55-0.43-1.22-0.46-1.84c-0.49-9.45-1-18.91-1.41-28.37
	c-0.23-5.32-0.15-10.65,0.73-15.93c0.07-0.43,0.27-0.84,0.42-1.25C715.64,355.21,715.86,355.23,716.07,355.25z"/>
<path d="M938.64,323.27c1.68,2.25,2.41,4.8,2.81,7.48c0.09,0.63,0.19,1.26,0.37,1.87c0.61,2.06,1.33,4.08,1.88,6.16
	c1.08,4.08,2.01,8.2,3.1,12.28c1.1,4.14,2.28,8.25,3.47,12.36c0.47,1.61,0.47,3.19,0.28,5.01c-0.4-0.27-0.69-0.36-0.74-0.51
	C945.89,353.09,942.11,338.23,938.64,323.27z"/>
<path d="M947.26,326.75c0.21,0.29,0.55,0.55,0.62,0.87c2.06,8.83,4.1,17.66,6.11,26.5c0.09,0.4-0.1,0.87-0.19,1.58
	c-0.44-0.39-0.78-0.55-0.85-0.78c-1.02-3.67-2.41-7.3-2.91-11.04c-0.75-5.72-3.22-11.11-3.4-16.92
	C946.85,326.89,947.06,326.82,947.26,326.75z"/>
</svg>
