<svg id="Candy1" xmlns="http://www.w3.org/2000/svg" viewBox="0 0 217.09 118.45"><path d="M195.41,83.17c3.23-5.67,6.2-10.91,9.19-16.13,1.45-2.52,4.09-3,6.57-3.7,7.82-2.18,15.62-4.38,23.46-6.48a9.92,9.92,0,0,1,2.91.11c-.34.89-.66,1.78-1,2.66a7.64,7.64,0,0,1-.68,1,6,6,0,0,1,1.73-.14c.69.19,1.7.46,1.88.94a2.38,2.38,0,0,1-.66,2,23.52,23.52,0,0,1-3.48,2.21,16,16,0,0,0,1.8.14c1.07-.09,1.91.1,2.11,1.36s-.53,1.57-1.56,2c-2.57,1-5.07,2.09-7.6,3.16l.11.7c1.19.15,2.38.31,3.57.44a6.86,6.86,0,0,1,1.66.13,12.75,12.75,0,0,1,1.9,1.14c-.44.67-.72,1.58-1.34,2-1.78,1.16-3.69,2.12-5.55,3.17l.09.59h3.29a9.19,9.19,0,0,1,2.62,0c.7.21,1.25.94,1.87,1.44a7.45,7.45,0,0,1-1.53,1.45c-1.86.92-3.79,1.69-5.7,2.52l.23.83c1.28-.15,2.56-.26,3.83-.46,1.07-.16,2.2-.39,2.52,1s-.43,2-1.72,2.36A18.86,18.86,0,0,0,228.27,94a17.44,17.44,0,0,0,8.79-1.13c1.78-.67,2.94,0,2.65,1.58a2.7,2.7,0,0,1-1.26,1.43c-3.08,1.93-6.2,3.8-9.31,5.69l.24.83c1.9-.18,3.81-.31,5.71-.54,1-.13,2-.55,3-.59.49,0,1.41.46,1.44.78a2.23,2.23,0,0,1-.72,1.75c-2.43,1.64-5,3.1-7.43,4.73a36.69,36.69,0,0,0-3.21,2.65l.12.59H238c.6,1.91,0,2.82-1.33,3.49-2.56,1.29-5.1,2.62-7.59,4a23.71,23.71,0,0,0-2.73,2.11l.22.76c3.64,0,7.29.12,10.92-.07,1.22-.07,1.87.2,2.16,1.23.33,1.23-.49,1.58-1.52,1.94-3.19,1.12-6.33,2.37-9.5,3.56l.18,1c2.47,0,5,.34,7.39-.1,1.91-.36,3.21.62,4.74,1.1a1.74,1.74,0,0,1,.73,1.55,2.25,2.25,0,0,1-1.45,1.31c-8.16,1.32-15.69,4.63-23.39,7.43-1.27.46-1.87,1.88-3.62,1.92-1.09,0-2.14,1.62-3.33,2.62-5.69-2.34-11.5-4.83-17.41-7.09-2-.76-4.16-.88-6.22-1.4-.65-.16-1.61-.55-1.74-1-.56-2.06-1.93-2.27-3.69-2-4.75.71-9.52,1.36-14.27,2.1-6.37,1-12.71,2.15-19.08,3a85,85,0,0,1-11.37.93c-5.43,0-10.55,1.52-15.68,2.93-7.07,1.93-14,4.23-21.11,6.1-4.93,1.31-10,2.07-15,3.23-4.26,1-8.5,2.11-12.67,3.4a7.76,7.76,0,0,0-3.44,2.39c-3.12,3.71-6.3,7.38-7.71,12.23-.38,1.33-1.38,2.79-3.43,1.93a2.77,2.77,0,0,0-1.78.23c-1,.39-2,1-3.05,1.38-2.9,1-5.64,1.83-8.95.69-3-1-6.4-.69-9.61-1.11a3.24,3.24,0,0,1-2.16-1.3c-.43-.85.11-1.57,1.09-2.25,2.47-1.71,4.7-3.77,7-5.69l-.36-.83a50.61,50.61,0,0,1-5.37-.06,9.25,9.25,0,0,1-2.61-1.16,9.19,9.19,0,0,1,1.51-2.42c2.12-1.78,4.38-3.36,6.56-5.06a5.78,5.78,0,0,0,.87-1.31c-2.82-.53-5,.88-7.28,1.5-.94.25-1.89,1.44-2.75.27a9.21,9.21,0,0,1-.89-2.92c3.78-1,5.89-3.35,8-6.56-2.05-.22-3.74-.4-5.42-.6a7,7,0,0,1-2.06-.37c-1.82-.82-1.87-1.79-.55-3.27,2.56-2.89,5-5.87,7.61-8.94a4,4,0,0,0-4.51-.63,6.88,6.88,0,0,1-4.48-.4c-1.13-.42-.45-2.56,1.06-3.16,3.56-1.43,5.83-4.28,8.14-7.11.08-.1,0-.3.09-.74-2.7-1.21-5.45-2.54-8.28-3.67-1-.38-2.18-.31-2.15-1.72s.93-1.88,2.28-2.26a51.3,51.3,0,0,0,6-2.6c-2.74-2.86-4.58-5.74-8-7-.3-.11-.61-.2-.9-.33a2.31,2.31,0,0,1-1.34-3.15c.27-.58,2-1,2.83-.72,5.19,1.78,10.25,4,15.48,5.64a50.32,50.32,0,0,0,13.76,2.73c5.42.16,10.49-1.26,15.62-2.61,5.61-1.48,11.23-2.9,16.86-4.31,7.7-1.95,15.4-3.94,23.13-5.76,5.34-1.26,10.74-2.28,16.12-3.37s10.91-2.31,16.41-3.16c7.53-1.16,15.11-2,22.67-3,5.11-.68,10.21-1.6,15.35-2C187.15,82.91,191.29,83.17,195.41,83.17ZM42.57,132.76l0-.06c.83.93.69,1.94-.33,2.39a3.5,3.5,0,0,1-2.58-.1c-.74-.34-1.23-1.07-1.62-.16.82,1,1.5,2.46,2.13,2.44,3-.12,3.08,1.66,3,3.78,0,.12.17.26.28.37,1.23,1.12.43,1.92-.37,2.83-2.37-1.11-2.94-4.15-5.67-5.26.7,1.5,1.22,2.58,1.6,3.39,1.6,1.62,3.1,3.07,4.49,4.6.56.61,1.37,1.53,1.25,2.13-.48,2.26,0,5-2.75,6l1.63,4.19c1.29,0,2.11-.27,1.85-1.93-.09-.55.42-1.27.84-1.76.13-.15,1.15.09,1.22.32a6.37,6.37,0,0,1,.1,2c0,.48,0,1,0,1.45.43-.05.85-.12,1.27-.13a5.34,5.34,0,0,1,1.7.12,1.54,1.54,0,0,1,0,1.23c-.43.36-1.39.78-1.58.6-1.2-1.14-1.87,0-2.62.51a46.25,46.25,0,0,0-3.88,2.77c-1.22,1-2.34,2-3.43,3,2.09,1.47,3.94,2.75,5.79,4-.85-1.18-.41-3.16-2.42-3.64-.25-.07-.35-1.28-.28-1.93,0-.34.77-.91.95-.84a4.08,4.08,0,0,1,1.33,1.13c.31.34.44,1,.77,1.13,2.68.74,2.22,2.56,1.53,4.42,3.38,1.53,5.81-.37,8.58-1.92-1-.91-2.53-1.67-1.12-2.94,1.68-1.51,2.4.37,3.63,1.75l4.69-6.07a13.47,13.47,0,0,1-1.53-.6,11.3,11.3,0,0,1-1.07-.77c1.22-2.6,1.53-2.62,3.56-.46,1.57-2.09,3.1-4.2,4.71-6.25a3.41,3.41,0,0,1,1.61-1.28c2.9-.67,5.85-1.14,8.76-1.79,4.66-1,9.31-2.12,14-3.22,7-1.67,14.09-3.29,21.1-5.07,5.52-1.4,10.93-3.34,16.5-4.42,5.29-1,10.75-1.2,16.12-1.84,3.85-.47,7.71-1,11.53-1.66,4.62-.8,9.22-1.65,13.78-2.71,3.62-.84,7.56.08,10.93-2.1a1.62,1.62,0,0,1,1.34.6c.36,2.31,2.25,2.26,3.86,2.71a10.24,10.24,0,0,1,1.76.7c4.63,2.11,9.19,4.41,13.92,6.25,2,.77,4.37,1.89,6.48-.2.21-.21.78-.05,1.16-.12a31.66,31.66,0,0,0,4.16-.88c3.85-1.29,7.65-2.7,11.48-4.07l8-2.85c-.34-.52-.62-.61-.9-.61-3.11,0-6.21,0-9.32.18-1.21.05-2.05-.24-2.34-1.48s.45-1.75,1.52-2a7.28,7.28,0,0,0,1.39-.36c2.52-1.1,5-2.22,7.54-3.34l-.15-.71c-2.65,0-5.3,0-7.95,0a9.44,9.44,0,0,1-2.24-.64c.32-.9.39-2.11,1-2.63a63.34,63.34,0,0,1,5.36-3.59c1.73-1.15,3.45-2.32,5.17-3.48l-.12-.48c-2.5.16-5,.39-7.5.43-.73,0-1.87-.36-2.08-.86a2.53,2.53,0,0,1,.76-2.12,23.3,23.3,0,0,1,2.95-2c2.1-1.46,4.17-3,6.25-4.44a64.42,64.42,0,0,0-7.1.35c-.81,0-2.11-.34-2.37-.9-.5-1.08.47-1.7,1.45-2.32,2.5-1.57,4.87-3.36,7.3-5.06l-.3-.69c-2.35.21-4.69.5-7,.57a2.37,2.37,0,0,1-1.89-1,2.2,2.2,0,0,1,.67-2c1.52-1.08,3.22-1.92,4.84-2.87.76-.45,1.51-.92,2.26-1.38l-.25-.62a43.45,43.45,0,0,1-4.91.65,2.52,2.52,0,0,1-2-1c-.51-1,0-1.81,1.2-2.08a9.42,9.42,0,0,0,2.22-.82c1.42-.71,2.8-1.51,4.19-2.27l-.22-.49a41.48,41.48,0,0,1-4.7.36,2.67,2.67,0,0,1-2-1c-.55-1,.12-1.77,1.12-2.25,1.64-.79,3.29-1.56,4.86-2.47a6.68,6.68,0,0,0,1.42-1.56l-.36-.74a39.12,39.12,0,0,0-5.22,1c-1.48.49-2.6.6-3.61-1.07,2.5-3.62,7.21-3.9,10.24-6.83a30.11,30.11,0,0,0-5.7,1.33c-1.22.39-2.41.24-2.82-1s.66-1.76,1.78-1.93a4.87,4.87,0,0,0,.94-.17c2.24-.8,4.48-1.62,6.71-2.44l-.23-.76a23,23,0,0,1-3.49.3,5.84,5.84,0,0,1-1.93-1,11.72,11.72,0,0,1,1.25-1.46,9.37,9.37,0,0,1,1.56-.85l-.25-.46a8.52,8.52,0,0,0-.88.16c-5,1.51-9.91,3-14.87,4.54a21.24,21.24,0,0,0-13.54,11,77.58,77.58,0,0,1-5.66,9.14c-1.53,2.2-2.2,2.17-4.64,1.22a7.29,7.29,0,0,0-2.34-.35c-9.71-.44-19.16,1.85-28.73,2.91-5.36.59-10.67,1.69-16,2.59-5.65,1-11.31,1.86-17,2.93-3.67.69-7.3,1.62-11,2.45-5,1.15-10.1,2.23-15.12,3.48-5.79,1.44-11.52,3.14-17.31,4.54-6.88,1.66-13.86,2.93-20.69,4.77-2.48.67-4.72,1.41-7.34.79s-5.6-.9-8.38-1.42a34.77,34.77,0,0,1-5.46-1.32c-3-1.08-5.9-2.41-8.86-3.58a8.61,8.61,0,0,0-1.85-.29l-.28.67a62.47,62.47,0,0,0,5.52,4.42,2,2,0,0,1,1,2.56,20.34,20.34,0,0,0-.8,2,1.87,1.87,0,0,0,.47,1.43,1.35,1.35,0,0,0,1.26.1c.53-.27.89-1,1.42-1.12a5.43,5.43,0,0,1,2,.27,24.62,24.62,0,0,1-1.86,3.34c-.62.81-1.4.63-2.26-.09-1.21-1-2.64-.74-4-.11,1.56.74,3.2,1,4.73,1.62A2.78,2.78,0,0,1,40.66,120c.1.64-.59,1.44-1,2.11-.19.31-.6.49-.85.69l1.39,2.84-.44.64-3.67-.93c-.61.75-2.2,1.46-.23,2.81,1.09-1,2.16-1.47,3,.28.1.21.51.26.76.41.7.39,1.93.74,2,1.2.06.69-.71,1.45-1.1,2.14ZM36.1,160.48l.47.72,1.18-.71a6.82,6.82,0,0,1,1.52-.9c1.26-.33,1.28-.28.73-2Zm0-9.69.65.64c.44-1.65,3.59-.9,2.89-4.12Zm.6,19.39-.08.31.82.2.07-.27Z" transform="translate(-24.6 -56.77)"/><path d="M42.57,132.76l-2.11-.59c.39-.69,1.16-1.45,1.1-2.14,0-.46-1.27-.81-2-1.2-.25-.15-.66-.2-.76-.41-.84-1.75-1.91-1.27-3-.28-2-1.35-.38-2.06.23-2.81l3.67.93.44-.64-1.39-2.84c.25-.2.66-.38.85-.69.44-.67,1.13-1.47,1-2.11a2.78,2.78,0,0,0-1.61-1.72c-1.53-.59-3.17-.88-4.73-1.62,1.38-.63,2.81-.92,4,.11.86.72,1.64.9,2.26.09a24.62,24.62,0,0,0,1.86-3.34,5.43,5.43,0,0,0-2-.27c-.53.12-.89.85-1.42,1.12a1.35,1.35,0,0,1-1.26-.1,1.87,1.87,0,0,1-.47-1.43,20.34,20.34,0,0,1,.8-2,2,2,0,0,0-1-2.56,62.47,62.47,0,0,1-5.52-4.42l.28-.67a8.61,8.61,0,0,1,1.85.29c3,1.17,5.86,2.5,8.86,3.58A34.77,34.77,0,0,0,48,108.39c2.78.52,5.63.76,8.38,1.42s4.86-.12,7.34-.79c6.83-1.84,13.81-3.11,20.69-4.77,5.79-1.4,11.52-3.1,17.31-4.54,5-1.25,10.08-2.33,15.12-3.48,3.65-.83,7.28-1.76,11-2.45,5.64-1.07,11.3-2,17-2.93,5.34-.9,10.65-2,16-2.59,9.57-1.06,19-3.35,28.73-2.91a7.29,7.29,0,0,1,2.34.35c2.44,1,3.11,1,4.64-1.22a77.58,77.58,0,0,0,5.66-9.14,21.24,21.24,0,0,1,13.54-11c5-1.5,9.91-3,14.87-4.54a8.52,8.52,0,0,1,.88-.16l.25.46a9.37,9.37,0,0,0-1.56.85,11.72,11.72,0,0,0-1.25,1.46,5.84,5.84,0,0,0,1.93,1,23,23,0,0,0,3.49-.3l.23.76c-2.23.82-4.47,1.64-6.71,2.44a4.87,4.87,0,0,1-.94.17c-1.12.17-2.23.62-1.78,1.93s1.6,1.37,2.82,1a30.11,30.11,0,0,1,5.7-1.33c-3,2.93-7.74,3.21-10.24,6.83,1,1.67,2.13,1.56,3.61,1.07a39.12,39.12,0,0,1,5.22-1l.36.74a6.68,6.68,0,0,1-1.42,1.56c-1.57.91-3.22,1.68-4.86,2.47-1,.48-1.67,1.26-1.12,2.25a2.67,2.67,0,0,0,2,1,41.48,41.48,0,0,0,4.7-.36l.22.49c-1.39.76-2.77,1.56-4.19,2.27a9.42,9.42,0,0,1-2.22.82c-1.23.27-1.71,1.11-1.2,2.08a2.52,2.52,0,0,0,2,1,43.45,43.45,0,0,0,4.91-.65l.25.62c-.75.46-1.5.93-2.26,1.38-1.62,1-3.32,1.79-4.84,2.87a2.2,2.2,0,0,0-.67,2,2.37,2.37,0,0,0,1.89,1c2.35-.07,4.69-.36,7-.57l.3.69c-2.43,1.7-4.8,3.49-7.3,5.06-1,.62-2,1.24-1.45,2.32.26.56,1.56.93,2.37.9a64.42,64.42,0,0,1,7.1-.35c-2.08,1.48-4.15,3-6.25,4.44a23.3,23.3,0,0,0-2.95,2,2.53,2.53,0,0,0-.76,2.12c.21.5,1.35.87,2.08.86,2.5,0,5-.27,7.5-.43l.12.48c-1.72,1.16-3.44,2.33-5.17,3.48a63.34,63.34,0,0,0-5.36,3.59c-.63.52-.7,1.73-1,2.63a9.44,9.44,0,0,0,2.24.64c2.65.08,5.3,0,7.95,0l.15.71c-2.52,1.12-5,2.24-7.54,3.34a7.28,7.28,0,0,1-1.39.36c-1.07.23-1.79.75-1.52,2s1.13,1.53,2.34,1.48c3.11-.13,6.21-.14,9.32-.18.28,0,.56.09.9.61l-8,2.85c-3.83,1.37-7.63,2.78-11.48,4.07a31.66,31.66,0,0,1-4.16.88c-.38.07-.95-.09-1.16.12-2.11,2.09-4.51,1-6.48.2-4.73-1.84-9.29-4.14-13.92-6.25a10.24,10.24,0,0,0-1.76-.7c-1.61-.45-3.5-.4-3.86-2.71a1.62,1.62,0,0,0-1.34-.6c-3.37,2.18-7.31,1.26-10.93,2.1-4.56,1.06-9.16,1.91-13.78,2.71-3.82.67-7.68,1.19-11.53,1.66-5.37.64-10.83.81-16.12,1.84-5.57,1.08-11,3-16.5,4.42-7,1.78-14.06,3.4-21.1,5.07-4.64,1.1-9.29,2.19-14,3.22-2.91.65-5.86,1.12-8.76,1.79a3.41,3.41,0,0,0-1.61,1.28c-1.61,2-3.14,4.16-4.71,6.25-2-2.16-2.34-2.14-3.56.46a11.3,11.3,0,0,0,1.07.77,13.47,13.47,0,0,0,1.53.6l-4.69,6.07c-1.23-1.38-1.95-3.26-3.63-1.75-1.41,1.27.08,2,1.12,2.94-2.77,1.55-5.2,3.45-8.58,1.92.69-1.86,1.15-3.68-1.53-4.42-.33-.09-.46-.79-.77-1.13A4.08,4.08,0,0,0,43,165.1c-.18-.07-.91.5-.95.84-.07.65,0,1.86.28,1.93,2,.48,1.57,2.46,2.42,3.64-1.85-1.29-3.7-2.57-5.79-4,1.09-1,2.21-2.05,3.43-3a46.25,46.25,0,0,1,3.88-2.77c.75-.49,1.42-1.65,2.62-.51.19.18,1.15-.24,1.58-.6a1.54,1.54,0,0,0,0-1.23,5.34,5.34,0,0,0-1.7-.12c-.42,0-.84.08-1.27.13,0-.49,0-1,0-1.45a6.37,6.37,0,0,0-.1-2c-.07-.23-1.09-.47-1.22-.32-.42.49-.93,1.21-.84,1.76.26,1.66-.56,1.93-1.85,1.93l-1.63-4.19c2.77-1,2.27-3.76,2.75-6,.12-.6-.69-1.52-1.25-2.13-1.39-1.53-2.89-3-4.49-4.6-.38-.81-.9-1.89-1.6-3.39,2.73,1.11,3.3,4.15,5.67,5.26.8-.91,1.6-1.71.37-2.83-.11-.11-.29-.25-.28-.37.12-2.12,0-3.9-3-3.78-.63,0-1.31-1.46-2.13-2.44.39-.91.88-.18,1.62.16a3.5,3.5,0,0,0,2.58.1c1-.45,1.16-1.46.33-2.39.38.12.91.46,1.1.32a15.14,15.14,0,0,0,1.72-1.68L43.86,130a12,12,0,0,0-1.4,1.64C42.3,131.87,42.52,132.36,42.57,132.76ZM185.38,91.33c-.18-2-.8-2.59-2.87-2.31-3,.41-5.92,1-8.9,1.27-5.13.55-10.28,1-15.43,1.41-2,.17-4,.11-5.94.46-7,1.25-13.92,2.54-20.84,4-4.19.87-8.36,1.92-12.46,3.18-3.77,1.17-7.33,3.25-11.17,4a48.8,48.8,0,0,0-12,3.72,20.2,20.2,0,0,1-2,.78c-4.37,1.46-8.76,2.83-13.08,4.42a4.39,4.39,0,0,0-2.13,2.18,90.19,90.19,0,0,0-5.4,17.23c-1,4.38-2,8.73-3,13.11-.37,1.72.69,2.48,2.41,1.88a19.12,19.12,0,0,1,2.71-.9c4.76-.89,9.55-1.59,14.29-2.59,5.13-1.08,10.21-2.44,15.32-3.62,5.82-1.34,11.63-2.73,17.48-3.87,2.94-.58,5.75-2.56,9-1.09.29.14.86-.29,1.29-.48a11.74,11.74,0,0,1,1.88-.86c6.39-1.63,12.85-3,19.18-4.88,5.8-1.7,11.55-3.56,17.59-4.07a14.48,14.48,0,0,1,5.36.75c2,.61,3.09,0,3.24-2.18.13-1.82.41-3.63.64-5.44s.42-3.33.68-5c.49-3.06.94-6.13,1.54-9.16C183.56,99.25,184.5,95.29,185.38,91.33ZM54.27,163.14c2.74-.41,2.85-.85,1-3.24.79-1.2,1.24-2.29-.58-3-.37-.15-.59-.65-.93-.93s-.94-.87-1.42-.87-1,.67-1,1.1a2.69,2.69,0,0,0,.53,1.69A4.16,4.16,0,0,0,53.2,159C54.9,160,53.39,161.75,54.27,163.14Zm-8.44,2.45c.4.45.84,1.34,1.21,1.31a13.18,13.18,0,0,0,4-1c.39-.16.47-1.38.39-2.07,0-.24-1.12-.66-1.51-.5C48.63,163.94,47.4,164.72,45.83,165.59Zm16.22-39.75c-.59-.54-1.2-1.56-1.78-1.55-2.35.06-1.34,2.22-1.78,3.46-.11.32.62,1.25,1.12,1.41C60.46,129.42,61.76,127.49,62.05,125.84ZM50.12,149.26c.35-1.12.53-1.95-.95-2.14-.4-.05-.73-.48-1.14-.64a8.09,8.09,0,0,0-2-.61c-.11,0-.61,1-.45,1.29a3.8,3.8,0,0,0,1.59,1.44A15.86,15.86,0,0,0,50.12,149.26Zm.55-13.39c-.79-.56-1.23-1.14-1.68-1.14-1.15,0-2.39.35-2.34,1.77,0,.54,1.2,1.57,1.41,1.47A14,14,0,0,0,50.67,135.87Zm-7.16-7.65,1.79-2.06a7.24,7.24,0,0,0-2.15-1.44c-.41-.1-1,.78-1.59,1.21ZM56.4,151.45l-2.37-2c-.4.49-1.06,1-1.13,1.49-.12,1,.3,2,1.59,1.79C55,152.68,55.49,152.1,56.4,151.45Zm-.27-9.64-.09-.72a6.15,6.15,0,0,0-2.18-.62c-.62.07-1.18.74-1.76,1.14.69.5,1.34,1.32,2.07,1.4S55.47,142.24,56.13,141.81Zm0,14.68.57.68c1,0,2.41.83,2.85-.8.13-.48-1-1.28-1.5-1.94Zm5.49-8.21c-.72,1.12-1.48,1.78-1.46,2.42s.94,1.05,1.46,1.58a6.88,6.88,0,0,0,1.29-1.95C63,149.91,62.28,149.3,61.6,148.28ZM42.87,119.94l1.56-1.85c-.6-.51-1.16-1.27-1.84-1.4-.36-.07-1.22.94-1.3,1.53C41.24,118.64,42.13,119.18,42.87,119.94ZM56,130.78c-1.4-.84-2.56-.82-3.39.47-.14.22.39,1.22.79,1.38C54.85,133.2,55.58,132.36,56,130.78Zm-.3,6.45c1.43-.75,1.43-1.87.79-3a1.69,1.69,0,0,0-1.54.07C54,135.48,54.57,136.44,55.69,137.23Zm-7.55,4.53a9.2,9.2,0,0,0-2-1.59c-.21-.09-.81.76-1.24,1.18l2,1.8Zm4.3,26.87c-.79-.59-1.45-1.33-1.66-1.21a6.64,6.64,0,0,0-1.48,1.51c.43.37.91,1.08,1.27,1C51.14,169.86,51.62,169.25,52.44,168.63Zm5.73-23.09c-.59,1-1.17,1.62-1.12,2.13s.72,1,1.12,1.45c.51-.44,1.42-.87,1.42-1.31C59.59,147.22,58.9,146.63,58.17,145.54Zm-7.28-20.61c-.93-.6-1.48-1.23-2-1.19s-.89.77-1.34,1.19a5.92,5.92,0,0,0,1.64,1.24C49.52,126.27,50.06,125.58,50.89,124.93Zm8.54-7.19a7.94,7.94,0,0,0-1.15,2c-.05.24.93,1,1,.9a3.39,3.39,0,0,0,1.2-1.41C60.6,119,60,118.47,59.43,117.74Zm-11,36.8c.55-.76,1.17-1.25,1.11-1.64s-.73-.81-1.14-1.2c-.35.44-.88.85-1,1.35C47.36,153.36,47.92,153.81,48.45,154.54ZM52.38,136c-2.36,1.16-2.39,1.51-.25,3.34Zm-1.47-14.64a7.39,7.39,0,0,0-1.72-1c-.21,0-.86.62-.81.76a2.91,2.91,0,0,0,1,1.33C49.56,122.51,50.17,121.88,50.91,121.34Zm-1.7,11.2-1.4-1c-.25.36-.72.74-.68,1.06a1.28,1.28,0,0,0,.88.87C48.3,133.5,48.66,133,49.21,132.54Zm13.31,13.72.85,0v-1.69l-1,.05Z" transform="translate(-24.6 -56.77)" fill="#412312"/><path d="M36.1,160.48l3.9-2.93c.55,1.76.53,1.71-.73,2a6.82,6.82,0,0,0-1.52.9l-1.18.71Z" transform="translate(-24.6 -56.77)" fill="#603a17"/><path d="M36.08,150.79l3.54-3.48c.7,3.22-2.45,2.47-2.89,4.12Z" transform="translate(-24.6 -56.77)" fill="#603a17"/><path d="M185.38,91.33c-.88,4-1.82,7.92-2.62,11.9-.6,3-1,6.1-1.54,9.16-.26,1.65-.47,3.31-.68,5s-.51,3.62-.64,5.44c-.15,2.17-1.25,2.79-3.24,2.18a14.48,14.48,0,0,0-5.36-.75c-6,.51-11.79,2.37-17.59,4.07-6.33,1.86-12.79,3.25-19.18,4.88a11.74,11.74,0,0,0-1.88.86c-.43.19-1,.62-1.29.48-3.23-1.47-6,.51-9,1.09-5.85,1.14-11.66,2.53-17.48,3.87-5.11,1.18-10.19,2.54-15.32,3.62-4.74,1-9.53,1.7-14.29,2.59a19.12,19.12,0,0,0-2.71.9c-1.72.6-2.78-.16-2.41-1.88,1-4.38,2-8.73,3-13.11a90.19,90.19,0,0,1,5.4-17.23,4.39,4.39,0,0,1,2.13-2.18c4.32-1.59,8.71-3,13.08-4.42a20.2,20.2,0,0,0,2-.78,48.8,48.8,0,0,1,12-3.72c3.84-.7,7.4-2.78,11.17-4,4.1-1.26,8.27-2.31,12.46-3.18,6.92-1.45,13.88-2.74,20.84-4,1.94-.35,4-.29,5.94-.46,5.15-.45,10.3-.86,15.43-1.41,3-.31,5.93-.86,8.9-1.27C184.58,88.74,185.2,89.29,185.38,91.33Zm-52,38.87.65.65c1.14-.23,2.26-.46,3.4-.67a123.9,123.9,0,0,0,18.61-5c6.08-2.17,12.33-3.65,18.87-3.17a2.26,2.26,0,0,0,2.71-1.75,26.15,26.15,0,0,0,.71-2.77c1-6.19,1.47-12.46,3.57-18.47.71-2.06.34-4.49.48-6.85a13.56,13.56,0,0,0-1.88-.1c-3.47.45-6.92,1.06-10.41,1.38-5.68.52-11.39.9-17.09,1.26-3.32.2-6.06,1.29-7.58,4.45-1.18,2.43-2.4,4.86-3.35,7.38C139.09,114.38,136.25,122.29,133.36,130.2Zm-57.12,6.09c.86,1.22,1.53,2.18,2.23,3.16a2.75,2.75,0,0,1,.25-.64c.37-.5.77-1,1.16-1.46a8.41,8.41,0,0,1,1,1.63,29.69,29.69,0,0,1,.72,3.07l5.93-1.33c.7-1.1,1.26-2.53,1.64-2.48,1,.12,1.87.89,3,1.54l1.71-.52-.5-.23.66-3.12L97.33,137l-.06.65-2,1.42c1.39,0,2.76.25,3.11-1.79.26-1.51,1.4-1.37,2.59-.64a4,4,0,0,0,2.29.62,18.43,18.43,0,0,0,3.14-.78c1.22-2.8,2.33-5.3,3.42-7.81.44-1,.82-2.05,1.25-3.07,1.34-3.13,2.64-6.28,4-9.39,1.2-2.66,2.61-5.24,3.77-7.92,1-2.29,1.73-4.68,2.59-7l-.4-.4c-2.36.87-4.75,1.65-7.06,2.64-3.16,1.36-6.29,2.64-9.82,2.71a12.65,12.65,0,0,0-4.16,1c-7,2.67-13.91,5.42-20.78,8.12-.3,1-.55,2-.81,2.88-.48,1.69-1.83,3.27-.61,5.2.12.2-.43.87-.74,1.27s-.91.69-1,1.13c-.64,2.13-1.23,4.29-1.7,6.47-.3,1.34,0,1.53,1.69,1.27a3,3,0,0,0-.17-.68c-.46-.92-.51-1.79.66-2.08s1.54.47,1.6,1.52a2.87,2.87,0,0,0,.31,1.34c.76,1.24.06,1.74-1,2.12Zm34.15-.2c6.23-1.43,12-2.77,17.68-4,2.25-.5,3.17-2.3,3.9-4,1.25-3,2.14-6.11,3.2-9.18.91-2.62,1.72-5.29,2.78-7.86,2-4.74,4.1-9.43,6.29-14.45-1.12.1-2,.1-2.8.25-3.3.56-6.59,1.69-9.87,1.65-5.49-.07-8,3.07-9.79,7.47q-5.52,13.59-11,27.19A14.83,14.83,0,0,0,110.39,136.09Z" transform="translate(-24.6 -56.77)"/><path d="M54.27,163.14c-.88-1.39.63-3.16-1.07-4.17a4.16,4.16,0,0,1-1.35-1.1,2.69,2.69,0,0,1-.53-1.69c0-.43.66-1.1,1-1.1s1,.52,1.42.87.56.78.93.93c1.82.73,1.37,1.82.58,3C57.12,162.29,57,162.73,54.27,163.14Z" transform="translate(-24.6 -56.77)"/><path d="M45.83,165.59c1.57-.87,2.8-1.65,4.12-2.21.39-.16,1.48.26,1.51.5.08.69,0,1.91-.39,2.07a13.18,13.18,0,0,1-4,1C46.67,166.93,46.23,166,45.83,165.59Z" transform="translate(-24.6 -56.77)"/><path d="M62.05,125.84c-.29,1.65-1.59,3.58-2.44,3.32-.5-.16-1.23-1.09-1.12-1.41.44-1.24-.57-3.4,1.78-3.46C60.85,124.28,61.46,125.3,62.05,125.84Z" transform="translate(-24.6 -56.77)"/><path d="M50.12,149.26a15.86,15.86,0,0,1-2.95-.66,3.8,3.8,0,0,1-1.59-1.44c-.16-.26.34-1.31.45-1.29a8.09,8.09,0,0,1,2,.61c.41.16.74.59,1.14.64C50.65,147.31,50.47,148.14,50.12,149.26Z" transform="translate(-24.6 -56.77)"/><path d="M50.67,135.87a14,14,0,0,1-2.61,2.1c-.21.1-1.39-.93-1.41-1.47,0-1.42,1.19-1.77,2.34-1.77C49.44,134.73,49.88,135.31,50.67,135.87Z" transform="translate(-24.6 -56.77)"/><path d="M43.51,128.22l-1.95-2.29c.54-.43,1.18-1.31,1.59-1.21a7.24,7.24,0,0,1,2.15,1.44Z" transform="translate(-24.6 -56.77)"/><path d="M56.4,151.45c-.91.65-1.37,1.23-1.91,1.32C53.2,153,52.78,152,52.9,151c.07-.53.73-1,1.13-1.49Z" transform="translate(-24.6 -56.77)"/><path d="M56.13,141.81c-.66.43-1.35,1.26-2,1.2s-1.38-.9-2.07-1.4c.58-.4,1.14-1.07,1.76-1.14a6.15,6.15,0,0,1,2.18.62Z" transform="translate(-24.6 -56.77)"/><path d="M56.11,156.49,58,154.43c.54.66,1.63,1.46,1.5,1.94-.44,1.63-1.8.82-2.85.8Z" transform="translate(-24.6 -56.77)"/><path d="M61.6,148.28c.68,1,1.39,1.63,1.29,2.05a6.88,6.88,0,0,1-1.29,1.95c-.52-.53-1.44-1-1.46-1.58S60.88,149.4,61.6,148.28Z" transform="translate(-24.6 -56.77)"/><path d="M42.87,119.94c-.74-.76-1.63-1.3-1.58-1.72.08-.59.94-1.6,1.3-1.53.68.13,1.24.89,1.84,1.4Z" transform="translate(-24.6 -56.77)"/><path d="M56,130.78c-.41,1.58-1.14,2.42-2.6,1.85-.4-.16-.93-1.16-.79-1.38C53.43,130,54.59,129.94,56,130.78Z" transform="translate(-24.6 -56.77)"/><path d="M55.69,137.23c-1.12-.79-1.66-1.75-.75-2.93a1.69,1.69,0,0,1,1.54-.07C57.12,135.36,57.12,136.48,55.69,137.23Z" transform="translate(-24.6 -56.77)"/><path d="M42.57,132.76c0-.4-.27-.89-.11-1.16a12,12,0,0,1,1.4-1.64l1.48,1.38A15.14,15.14,0,0,1,43.62,133c-.19.14-.72-.2-1.1-.32Z" transform="translate(-24.6 -56.77)"/><path d="M48.14,141.76l-1.26,1.39-2-1.8c.43-.42,1-1.27,1.24-1.18A9.2,9.2,0,0,1,48.14,141.76Z" transform="translate(-24.6 -56.77)"/><path d="M52.44,168.63c-.82.62-1.3,1.23-1.87,1.32-.36.06-.84-.65-1.27-1a6.64,6.64,0,0,1,1.48-1.51C51,167.3,51.65,168,52.44,168.63Z" transform="translate(-24.6 -56.77)"/><path d="M58.17,145.54c.73,1.09,1.42,1.68,1.42,2.27,0,.44-.91.87-1.42,1.31-.4-.48-1.07-.94-1.12-1.45S57.58,146.58,58.17,145.54Z" transform="translate(-24.6 -56.77)"/><path d="M50.89,124.93c-.83.65-1.37,1.34-1.65,1.24a5.92,5.92,0,0,1-1.64-1.24c.45-.42.86-1.14,1.34-1.19S50,124.33,50.89,124.93Z" transform="translate(-24.6 -56.77)"/><path d="M59.43,117.74c.57.73,1.17,1.23,1.08,1.46a3.39,3.39,0,0,1-1.2,1.41c-.1.07-1.08-.66-1-.9A7.94,7.94,0,0,1,59.43,117.74Z" transform="translate(-24.6 -56.77)"/><path d="M48.45,154.54c-.53-.73-1.09-1.18-1-1.49.11-.5.64-.91,1-1.35.41.39,1.08.75,1.14,1.2S49,153.78,48.45,154.54Z" transform="translate(-24.6 -56.77)"/><path d="M52.38,136l-.25,3.34C50,137.49,50,137.14,52.38,136Z" transform="translate(-24.6 -56.77)"/><path d="M50.91,121.34c-.74.54-1.35,1.17-1.5,1.07a2.91,2.91,0,0,1-1-1.33c-.05-.14.6-.81.81-.76A7.39,7.39,0,0,1,50.91,121.34Z" transform="translate(-24.6 -56.77)"/><path d="M49.21,132.54c-.55.45-.91,1-1.2.93a1.28,1.28,0,0,1-.88-.87c0-.32.43-.7.68-1.06Z" transform="translate(-24.6 -56.77)"/><path d="M62.52,146.26l-.14-1.67,1-.05v1.69Z" transform="translate(-24.6 -56.77)"/><path d="M133.36,130.2c2.89-7.91,5.73-15.82,8.69-23.7.95-2.52,2.17-5,3.35-7.38,1.52-3.16,4.26-4.25,7.58-4.45,5.7-.36,11.41-.74,17.09-1.26,3.49-.32,6.94-.93,10.41-1.38a13.56,13.56,0,0,1,1.88.1c-.14,2.36.23,4.79-.48,6.85-2.1,6-2.55,12.28-3.57,18.47a26.15,26.15,0,0,1-.71,2.77,2.26,2.26,0,0,1-2.71,1.75c-6.54-.48-12.79,1-18.87,3.17a123.9,123.9,0,0,1-18.61,5c-1.14.21-2.26.44-3.4.67Z" transform="translate(-24.6 -56.77)" fill="#2d348b"/><path d="M76.24,136.29l1.27-.48c1-.38,1.73-.88,1-2.12a2.87,2.87,0,0,1-.31-1.34c-.06-1-.46-1.8-1.6-1.52s-1.12,1.16-.66,2.08a3,3,0,0,1,.17.68c-1.65.26-2,.07-1.69-1.27.47-2.18,1.06-4.34,1.7-6.47.13-.44.73-.73,1-1.13s.86-1.07.74-1.27c-1.22-1.93.13-3.51.61-5.2.26-.91.51-1.83.81-2.88,6.87-2.7,13.81-5.45,20.78-8.12a12.65,12.65,0,0,1,4.16-1c3.53-.07,6.66-1.35,9.82-2.71,2.31-1,4.7-1.77,7.06-2.64l.4.4c-.86,2.34-1.61,4.73-2.59,7-1.16,2.68-2.57,5.26-3.77,7.92-1.4,3.11-2.7,6.26-4,9.39-.43,1-.81,2-1.25,3.07-1.09,2.51-2.2,5-3.42,7.81a18.43,18.43,0,0,1-3.14.78,4,4,0,0,1-2.29-.62c-1.19-.73-2.33-.87-2.59.64-.35,2-1.72,1.78-3.11,1.79l2-1.42.06-.65-3.26-1.13L93.41,139l.5.23-1.71.52c-1.16-.65-2-1.42-3-1.54-.38-.05-.94,1.38-1.64,2.48l-5.93,1.33a29.69,29.69,0,0,0-.72-3.07,8.41,8.41,0,0,0-1-1.63c-.39.49-.79,1-1.16,1.46a2.75,2.75,0,0,0-.25.64C77.77,138.47,77.1,137.51,76.24,136.29Zm1.69-5a11.55,11.55,0,0,0,1.66-2.68c.07-.3-.89-.86-1.37-1.29a7.06,7.06,0,0,0-1.49,1.83C76.6,129.47,77.27,130.12,77.93,131.25Zm5.7,5.93c-.63.81-1.46,1.5-1.33,1.81a6.52,6.52,0,0,0,1.57,1.78c.47-.57,1.29-1.11,1.32-1.7S84.35,138,83.63,137.18Zm8.37-6V132l3.11,1.2.57-.72c-.53-.73-.94-1.71-1.67-2.1C93.62,130.17,92.69,130.9,92,131.19Zm-5.36,1.62a12.1,12.1,0,0,0-2-2c-.16-.1-1.37.9-1.29,1.16a3.61,3.61,0,0,0,1.36,1.85C84.93,134,85.72,133.3,86.64,132.81Zm12.24,1.54c-.78-.7-1.4-1.55-1.66-1.45a2.67,2.67,0,0,0-1.5,1.45c-.11.33.76,1.35,1.19,1.36S98,135,98.88,134.35Zm-14.49-.72c-.66.91-1.35,1.44-1.31,1.91a2,2,0,0,0,1.21,1.35c.29.11,1.29-.64,1.26-.91A9,9,0,0,0,84.39,133.63Zm4.6-1.71c-.66,1-1.32,1.52-1.22,1.84a5.92,5.92,0,0,0,1.31,1.65c.39-.38,1.11-.8,1.07-1.14A8.61,8.61,0,0,0,89,131.92Zm3.54-6.12c-.9-.84-1.38-1.64-1.81-1.61s-1,.74-1.37,1.27c-.08.13.56,1,.91,1A7.56,7.56,0,0,0,92.53,125.8Zm-8.63-6.15c-.85-.55-1.37-1.1-2-1.17-.31,0-.72.73-1.09,1.13a5.62,5.62,0,0,0,1.57,1.07C82.72,120.77,83.19,120.17,83.9,119.65Zm4.67-2.43c1.9-1,2-1.86,1.12-2.78-.23-.24-.92,0-1.41,0Zm-7.47,5.44c-.44.8-1,1.35-.9,1.77s.8.69,1.24,1c.3-.47.79-.93.84-1.43C82.31,123.7,81.69,123.31,81.1,122.66ZM84,129.51c0-.93.06-1.71.09-2.5-.56.12-1.39,0-1.63.39C81.68,128.53,82.43,129.07,84,129.51Z" transform="translate(-24.6 -56.77)" fill="#f08e21"/><path d="M110.39,136.09a14.83,14.83,0,0,1,.4-3q5.44-13.62,11-27.19c1.79-4.4,4.3-7.54,9.79-7.47,3.28,0,6.57-1.09,9.87-1.65.83-.15,1.68-.15,2.8-.25-2.19,5-4.32,9.71-6.29,14.45-1.06,2.57-1.87,5.24-2.78,7.86-1.06,3.07-1.95,6.2-3.2,9.18-.73,1.74-1.65,3.54-3.9,4C122.34,133.32,116.62,134.66,110.39,136.09Z" transform="translate(-24.6 -56.77)" fill="#bc292e"/><path d="M77.93,131.25c-.66-1.13-1.33-1.78-1.2-2.14a7.06,7.06,0,0,1,1.49-1.83c.48.43,1.44,1,1.37,1.29A11.55,11.55,0,0,1,77.93,131.25Z" transform="translate(-24.6 -56.77)"/><path d="M83.63,137.18c.72.82,1.58,1.38,1.56,1.89s-.85,1.13-1.32,1.7A6.52,6.52,0,0,1,82.3,139C82.17,138.68,83,138,83.63,137.18Z" transform="translate(-24.6 -56.77)"/><path d="M92,131.19c.69-.29,1.62-1,2-.79.73.39,1.14,1.37,1.67,2.1l-.57.72L92,132Z" transform="translate(-24.6 -56.77)"/><path d="M86.64,132.81c-.92.49-1.71,1.16-2,1A3.61,3.61,0,0,1,83.32,132c-.08-.26,1.13-1.26,1.29-1.16A12.1,12.1,0,0,1,86.64,132.81Z" transform="translate(-24.6 -56.77)"/><path d="M98.88,134.35c-.87.65-1.43,1.36-2,1.36s-1.3-1-1.19-1.36a2.67,2.67,0,0,1,1.5-1.45C97.48,132.8,98.1,133.65,98.88,134.35Z" transform="translate(-24.6 -56.77)"/><path d="M84.39,133.63A9,9,0,0,1,85.55,136c0,.27-1,1-1.26.91a2,2,0,0,1-1.21-1.35C83,135.07,83.73,134.54,84.39,133.63Z" transform="translate(-24.6 -56.77)"/><path d="M89,131.92a8.61,8.61,0,0,1,1.16,2.35c0,.34-.68.76-1.07,1.14a5.92,5.92,0,0,1-1.31-1.65C87.67,133.44,88.33,132.87,89,131.92Z" transform="translate(-24.6 -56.77)"/><path d="M92.53,125.8a7.56,7.56,0,0,1-2.27.69c-.35,0-1-.9-.91-1,.34-.53.87-1.24,1.37-1.27S91.63,125,92.53,125.8Z" transform="translate(-24.6 -56.77)"/><path d="M83.9,119.65c-.71.52-1.18,1.12-1.47,1a5.62,5.62,0,0,1-1.57-1.07c.37-.4.78-1.17,1.09-1.13C82.53,118.55,83.05,119.1,83.9,119.65Z" transform="translate(-24.6 -56.77)"/><path d="M88.57,117.22l-.29-2.79c.49,0,1.18-.23,1.41,0C90.6,115.36,90.47,116.25,88.57,117.22Z" transform="translate(-24.6 -56.77)"/><path d="M81.1,122.66c.59.65,1.21,1,1.18,1.36,0,.5-.54,1-.84,1.43-.44-.33-1.16-.62-1.24-1S80.66,123.46,81.1,122.66Z" transform="translate(-24.6 -56.77)"/><path d="M84,129.51c-1.6-.44-2.35-1-1.54-2.11.24-.35,1.07-.27,1.63-.39C84.09,127.8,84.06,128.58,84,129.51Z" transform="translate(-24.6 -56.77)"/></svg>