<svg id="Layer_1" data-name="Layer 1" xmlns="http://www.w3.org/2000/svg" viewBox="0 0 208.33 204.63"><path d="M921.76,344.78c.41,3,1.21,8.27,1.81,13.57.73,6.5,1.39,13,1.9,19.54.61,7.62.71,15.29,1.61,22.87.8,6.7,2.39,13.3,3.63,19.95,1,5.55,1.75,11.2,3.22,16.64,1.65,6.08,1.61,12.27,2.35,18.41a179.73,179.73,0,0,1,.92,18.39,18.46,18.46,0,0,0,1.38,5.73c1,2.7.12,4.41-2.7,4.4-4.79,0-9.29,1.25-13.84,2.52-1.62.45-3.45.18-5.18.26-3.74.18-7.49.68-11.2.5-5.88-.29-11.73-1-17.6-1.57q-3.31-.32-6.64-.59c-5.08-.42-10.18-.62-15.23-1.28a201.38,201.38,0,0,0-21.39-1.51,77.94,77.94,0,0,1-19.13-2.81c-1.45-.4-2.77-1.29-4.23-1.65a84.36,84.36,0,0,0-10.94-2.28,13.74,13.74,0,0,0-12,4.05,31.66,31.66,0,0,1-14.3,8.74,58,58,0,0,0-6.38,1.93c-3.72,1.46-7.41.39-11.1.09-4.45-.35-8-2.8-11.61-5.22-3-2-5.18-4.86-7.4-7.64a3.62,3.62,0,0,1-.46-2c0-3.16.2-6.34,0-9.48a95.34,95.34,0,0,0-1.64-13,154.12,154.12,0,0,1-3.12-19.78,31.61,31.61,0,0,0-1.14-5.11c-1.19-4.77-2.72-9.48-3.52-14.31-1-6-1.36-12.12-2.07-18.18-.38-3.31-1-6.59-1.35-9.91a88.17,88.17,0,0,1-.84-12.12c.14-3.85-.88-7.53-.92-11.33,0-4.46-.14-8.93-.33-13.39-.2-4.67-.49-9.33-.83-14-.19-2.66-.57-5.3-.83-8a3,3,0,0,1,.12-1.4c.77-1.95,1.45-3.88.57-6,1.51-3,.22-7.17,3.91-9.37.94-.57,1.39-1.9,2.15-2.81,3-3.6,6.52-6.26,11.51-6,1.26.06,2.5.46,3.75.48,3.33,0,6.68-.21,10,0,2.35.13,4.67.89,7,1.16a19.29,19.29,0,0,0,4.49-.13c5.22-.69,10.43-1.37,15.61-2.25,2.41-.41,4.71-1.36,7.09-1.94a43.42,43.42,0,0,1,7.49-1.51c4.25-.24,8.31-1.31,12.43-2.19,3-.64,6.09-1,9.12-1.58,6-1.11,11.86-2.47,17.84-3.38,5.18-.78,10.43-1.15,15.67-1.55,3.65-.28,7.33-.3,11-.45,4.61-.19,9.28,0,13.82-.71,3.49-.54,6.92-.14,10.37-.41,2.31-.17,4.61-.52,6.91-.49a3.61,3.61,0,0,1,2.76,1.29c.57,1.11-.2,2.27-1.41,2.91a3.28,3.28,0,0,0-1.74,3.41c.43,5.24.82,10.5,2.57,15.52.38,1.09.54,2.64,1.32,3.08s2.3-.05,3.48-.15c2.71-.23,3.76.33,5,2.74,2,4,4.11,7.93,6,12C921.67,332.21,922.34,337.25,921.76,344.78ZM774.61,486.14l-2.16-.14c0,.28.07.55.11.83l2.08-.73a3.23,3.23,0,0,0,3.75-2.29c.19-.68.18-1.59.63-2a3.24,3.24,0,0,1,2.25-.82c1.11.12.83,1.09.65,1.9a8.67,8.67,0,0,0,0,1.57c2.21-1.21,4.86.06,6.74-2.07-.74-1-1.25-2.34-2.21-3-2.93-2-3-1.93-.72-4.65a3.74,3.74,0,0,1,4.85-.36c1,.89.62,1.79-1.28,3.45,0,0,0,.14-.06.31l3,2.28c2.52-2.25,5-4.45,7.44-6.67a1.82,1.82,0,0,0,.31-.64,2.49,2.49,0,0,1,3.28-1.61,20.74,20.74,0,0,0,2.56.62c2.19.26,4.46.8,6-1.54.21-.32.83-.43,1.27-.51,1.18-.2,2.37-.32,3.55-.47,1.59-.2,2.43.6,2.26,2.21-.06.54-.22,1.07-.39,1.85,5.81,2.29,11.46,4.8,18,4.87.1-1.83.56-3.39,2.48-3.38,2.28,0,1.5,2.18,2,3.61l8.32.63c0-1.82.28-3.24,2.23-3.24,2.47,0,1.47,2.16,2,3.4,3.66.53,7.27,1.08,10.9,1.53a1.51,1.51,0,0,0,1.27-.71c.4-1.69,1.68-1.71,3-1.82l0,0,.51,2.94c2.56.27,5,1.33,7.79.55-.43-.86-.94-1.43-.94-2a8.31,8.31,0,0,0-1-4.18c-.59-1.13.7-2.32,2-2.07a6.28,6.28,0,0,1,1.12.41,11.15,11.15,0,0,1,2-1.84,2.14,2.14,0,0,1,2.78,1.52,1.83,1.83,0,0,1-1.64,2.59c-1.32.22-2.72.15-3.16,1.14.72,1.87,1.25,3.27,1.86,4.86,1.62-.66,1.66-4.23,4.58-2.75a13.77,13.77,0,0,1,1.84-3.18,10.72,10.72,0,0,1,2.85-1.59c-.56-.43-1.44-.8-1.8-1.46a2.67,2.67,0,0,1,.46-1.84c1,.08,2.51.07,3,.71A3.56,3.56,0,0,0,893.5,474a2,2,0,0,1,1.28,1.57,4.05,4.05,0,0,1-1.37,1.94c-.2.21-.76.05-1.16.07a2.93,2.93,0,0,0-3.15,2.83c-.28,1.79-.75,2.12-2.54,1.81-.38-.07-.77-.08-1.58-.16,3.33,2.26,5.32,1.61,6-1.62.27-1.22,1.15-2.26,2.08-1.47,1.67,1.41,4.51,2,4.18,5.22h4.81c-.12-1.71-.16-3.21-.35-4.68-.15-1.17.33-2.1,1.35-2.15a9.34,9.34,0,0,1,3.66.73c1,.41,1.24,1.3.54,2.36s-1.08,2-1.87,3.49a10.76,10.76,0,0,0,1.45-.47c1.69-1,3.29-1.57,5,.1a2.93,2.93,0,0,0,2,.41c5-.44,10.06-.42,14.91-2a8.14,8.14,0,0,0,1.54-.92l-.54-.25c.13-1-.09-2.56.45-2.89,1.77-1.1,2.11,1.22,3.54,2.16v-4.16c-1.52-.62-3.58-.79-3.31-3.09s2.1-.51,3.42-1.23c0-1.13.06-2.46,0-3.78-.25-5.16-.55-10.3-.81-15.45-.12-2.37-.07-4.76-.32-7.11-.27-2.6-.73-5.19-1.21-7.76-.79-4.22-1.67-8.43-2.5-12.65-1.52-7.73-3.21-15.44-4.49-23.21-.74-4.54-.82-9.19-1.2-13.79-.4-4.83-.82-9.65-1.22-14.47-.37-4.53-.53-9.09-1.12-13.59a139.45,139.45,0,0,1-1.43-20,23.06,23.06,0,0,0-2.94-12c-.87-1.52-1.57-3.15-2.53-4.61-1.54-2.36-2.39-5.31-6-5.71-1.6-.18-2.85-.57-4.1.73-.78.8-1.93,1.19-2.76.22-1.42-1.65-3.22-1.58-5.05-1.43-4.06.33-8.11.67-12.15,1.12-6.09.66-12.22.63-18.28,1.85-5.7,1.16-11.57,1.45-17.28,2.52-9.79,1.83-19.49,4.17-29.29,5.93-7.06,1.27-14.23,1.91-21.34,2.91-3.54.5-7,1.28-10.59,1.7-2.62.32-3.79,1.93-4.67,4.11a17.35,17.35,0,0,1-16.26,10.52,5.72,5.72,0,0,1-1.63-.3c-3.6-1.22-7.41-1.83-10.73-3.9a16,16,0,0,0-4.4-1.64,11.32,11.32,0,0,1-6.27-4.11c-2.26-3-4.21-6.16-6.31-9.25a13.73,13.73,0,0,0-1.14-1.28l-.55.22c.08.64.13,1.28.26,1.9a10.22,10.22,0,0,1,.48,1.8c.13,8.28.38,16.56.25,24.84-.06,4,1.69,6.58,4.69,9,5.63,4.57,12.63,4.95,19.11,6.95a1.87,1.87,0,0,0,.71,0c2.93-.34,5.88-.59,8.8-1.05,2.59-.41,5.14-1.09,7.72-1.61,1.58-.31,3.18-.54,4.78-.81,0-.55,0-.78-.08-1-.56-3.87-1.2-7.73-1.66-11.61-.14-1.21-.48-2.71,1.25-3.7,1.68,3.46,2.23,7.09,2.87,10.64,1.06,5.88,1.76,11.83,2.74,17.73.74,4.47,1.69,8.91,2.53,13.37.74,3.91,1.49,7.82,2.16,11.75q1.49,8.82,2.88,17.66c.41,2.6.57,5.24,1.09,7.81,1.07,5.38,2.3,10.73,3.46,16.09.57,2.61.47,5.47,2.86,7.4a1.37,1.37,0,0,1,.2,1.3c-.9,1.48-1.63,3.29-3,4.25a44,44,0,0,1-8.65,5c-3,1.26-6.26,1.78-9.38,2.72-3.38,1-6.78,1.87-10.33,1.51-5.63-.57-11.26-1.21-16.88-1.85-1.72-.19-2.22.4-1.72,2,.37,1.21.56,2.47,1,3.67.47,1.39,1.07,2.74,1.46,3.73l3.68.36c-1.11,2.41-.64,3.81,1.44,4.94,1.32.72,2.71,1.31,4.54,2.18a33.48,33.48,0,0,1,2.07-3.05c.55-.68,1.35-1.6,2-1.58s1.33,1,1.93,1.67c.45.47,1,1.52,1.19,1.45a4.14,4.14,0,0,0,2.41-1.39c.47-.87-.32-1.43-1.35-1.75a2.51,2.51,0,0,1-1.46-1.77c-.07-.59.67-1.75,1.16-1.81a3.48,3.48,0,0,1,2.24,1c.41.35.47,1.12.71,1.77a7.34,7.34,0,0,1,.93.1c2.2.49,2.44,1.16,1.17,3.06-.4.59-.55,1.34-1,1.9C776,484.75,775.28,485.42,774.61,486.14Zm-4.32-176.86a5.05,5.05,0,0,1,1.09-.53c3.22-.5,6.43-1.06,9.66-1.44,3.64-.42,7.31-.65,11-1q10.2-1,20.4-2c4.89-.5,9.77-1.34,14.67-1.56,5.89-.27,11.59-1.73,17.44-2.35,10.36-1.1,20.63-3,31-4.59,4.26-.65,8.52-1.28,12.79-1.86,3.27-.45,4.46.93,4.22,4.28a33.31,33.31,0,0,0,.33,5.89c.2,1.9.66,3.77.82,5.67.39,4.55.35,4.55,4.92,3.86l.24,0c1.58-.3,2.09-.95,1.64-2.52-1.47-5.16-1.7-10.48-2.14-15.78-.42-4.95-10.75-3.14-13.42-3.48a39.59,39.59,0,0,0-6-.42c-3.34.08-6.68.4-10,.57s-6.69.3-10,.44a8.54,8.54,0,0,1-1.43,0c-5.59-.69-10.93,1.08-16.37,1.76-4,.5-7.94,1.59-11.92,2.35-4.54.88-9.1,1.66-13.64,2.54a86.84,86.84,0,0,1-12.27,1.95c-3.2.17-6.31,1.57-9.51,2.22-4.45.91-8.93,1.64-13.4,2.43-3.21.56-6.41,1.21-9.65,1.57-2.91.33-5.91.05-8.78.54a129.23,129.23,0,0,0-13.74,3.09,12,12,0,0,0-6.29,4.77,17.42,17.42,0,0,0,5.14-.53c4.49-1.29,8.9-2.88,13.43-4a29.89,29.89,0,0,1,7.09-.57c.91,0,2.31-.05,2.51,1.75-9.36,1.18-18,4.51-26.75,7.56a12.33,12.33,0,0,0,2.54,1.95c1.41.89,3.1,1.55,4.13,2.77a69.08,69.08,0,0,1,4.83,7c.79,1.2,1.42,2.5,2.21,3.69a3.2,3.2,0,0,0,3.35,1.53c6.31-.43,12.39-2,18.54-3.19.61-.12,1.22-.88,1.59-1.49a5.14,5.14,0,0,1,4.15-2.82c4.84-.42,9.69-.79,14.52-1.36,5.94-.71,11.87-1.58,17.79-2.44,2.45-.35,4.88-.8,7.3-1.28,4.14-.83,8.26-1.74,12.39-2.58,1.32-.26,2.68-.38,4-.62,4.94-.87,9.88-1.77,14.83-2.63,4.09-.71,8.18-1.43,12.27-2.07,3.46-.54,6.93-1.11,10.41-1.41s6.84-.32,10.26-.36c1.58,0,2.3-.89,2.13-2.24-.52-4-1.12-8-1.87-12a2.53,2.53,0,0,0-2.78-2.16c-2,.17-4,.46-5.94.75-4.09.62-8.17,1.37-12.27,1.88-8.32,1-16.66,1.94-25,2.94-9.35,1.11-18.67,2.36-28,3.36s-18.59,1.66-27.87,2.6c-3.8.39-7.54,1.25-11.34,1.63C773.63,311.56,771.6,311.55,770.29,309.28Zm-29.78,73.26-1.09.51c2.82,18.42,3,37.19,8.17,55.34.52-.24,1.14-.58,1.8-.82,1-.36,2-.43,2.31.85a1.7,1.7,0,0,1-1.62,2.19c-.76.1-1.54.08-2.65.13.29,1.88.55,3.55.76,4.89,1.35.2,2.72,0,3.18.54,1,1.19,2,1.05,3.2.83.93-.19,1.86-.32,2.16.8.14.5-.05,1.47-.39,1.65-.77.4-2.31.84-2.53.54-1.35-1.86-3.25-1.05-5.3-1.63a25.66,25.66,0,0,0,1,3c.21.43.94,1.07,1.11,1,2.06-1.06,3.21.53,4.46,1.55,2.1-1.48,5-1.72,5.61-4.85.17-.85,2.33-.75,3.21.06s.85,1.59-.26,2.29-.7,1.6,0,2.38c1.49,1.56,3.67,1.84,6.3.68-.17-1-.43-2.09-.51-3.18,0-.55.16-1.57.39-1.61.7-.14,1.91-.16,2.14.24a2.31,2.31,0,0,0,3,1.25,2,2,0,0,1,1.64,1c.15.34-.47,1.15-.89,1.61a6.15,6.15,0,0,1-1.44.9l.25.51a19.69,19.69,0,0,0,9.8-3.78c-.67-1.13-1.82-2.29-1.58-2.81.6-1.32.16-2-.57-2.92a1.88,1.88,0,0,1,.19-1.87,2.49,2.49,0,0,1,2.09-.15c1.6.68,1.43,2.08,1,3.23.76,1.12,1.41,2.06,2.16,3.18l2.29-1.85c-1.46-.83-3.32-1.18-2.83-3.2.12-.5,1.1-1.06,1.72-1.11a2.46,2.46,0,0,1,1.85.88,13.58,13.58,0,0,1,1.15,2.89l3.5-1.12c-.1-1.61-.16-3.19-.32-4.75s-.64-2.53-2.41-2.74c-.78-.1-1.47-.92-2.55-1.64a20.26,20.26,0,0,0,2.57-1.73,2.46,2.46,0,0,0,.89-1.63c-.22-2.13-.58-4.25-1-6.35-.47-2.41-1.17-4.78-1.55-7.21-.81-5.25-1.41-10.54-2.21-15.79-.93-6.05-2-12.08-3-18.11a5.83,5.83,0,0,0-.53-1.33c-4.12.84-7.35,3.65-11.52,4-3.17.23-6.31.94-9.47.94-4.9,0-9.56-1.53-14.21-2.94a17.75,17.75,0,0,1-3.16-1.05C744.71,385,742.62,383.75,740.51,382.54Zm42.35-9.31c-2.56.3-4.7.48-6.81.81-7.27,1.14-14.39,2.51-21.89.5a75.39,75.39,0,0,1-14.56-5.78L737,367.42c.38,2.26.62,3.95.94,5.62a8.81,8.81,0,0,0,4.62,6.35,97.73,97.73,0,0,0,11.36,4.94c7.28,2.62,14.65,3,22-.06,2.46-1,4.91-2.13,7.3-3.34a2.11,2.11,0,0,0,.94-1.71C783.8,377.2,783.28,375.21,782.86,373.23ZM772,465.62l0,.19a49.33,49.33,0,0,0,5.18-.76c2.15-.54,4.2-1.75,6.35-1.92a14.51,14.51,0,0,0,6.69-2.24c.94-.59,1.73-1.66,2.73-1.88,3.36-.76,3.76-2.86,3.36-5.82-.29-2.15-.4-2.46-2.37-1.57-2.89,1.32-5.72,2.83-8.68,4-4.53,1.75-9.08,3.53-14.14,3a35.37,35.37,0,0,0-5.73,0,33,33,0,0,1-11.54-1.06,6.23,6.23,0,0,0-2.36-.12,1.58,1.58,0,0,0-1.08.75c-.37.7,1.31,4.61,2.14,4.85a68.44,68.44,0,0,0,9.66,2.47C765.4,466,768.7,465.62,772,465.62Zm-18.18-126c-.66-6.31-9.73-17.44-14.68-17.32-.5,2.31.59,4.17,1.73,6s2.19,3.32,3.29,5A14.48,14.48,0,0,0,753.78,339.62Zm25.61-2.95a5.46,5.46,0,0,0-1.27-.23c-6,1.06-11.68,3.79-17.92,3.89-.27,0-.76.48-.75.71a1.58,1.58,0,0,0,.6,1.16,13.82,13.82,0,0,0,2.47.84c5.8,1.68,10.85.3,15.17-3.83A15.86,15.86,0,0,0,779.39,336.67Zm-29.52-29.84c-4.13-.63-7.4,1.2-10.34,3.72-2.13,1.83-3.13,4.5-2.48,6.21C739.68,311.19,744.31,308.43,749.87,306.83Zm18.49,177.69-.67,0-1.2,2,2.27-.46C768.62,485.56,768.49,485,768.36,484.52Zm-7.65-29.45v-.45h-1.46v.45Z" transform="translate(-730.63 -286.71)"/><path d="M868.64,478.56c-1.3.11-2.58.13-3,1.82a1.51,1.51,0,0,1-1.27.71c-3.63-.45-7.24-1-10.9-1.53-.51-1.24.49-3.41-2-3.4-2,0-2.24,1.42-2.23,3.24l-8.32-.63c-.51-1.43.27-3.59-2-3.61-1.92,0-2.38,1.55-2.48,3.38-6.52-.07-12.17-2.58-18-4.87.17-.78.33-1.31.39-1.85.17-1.61-.67-2.41-2.26-2.21-1.18.15-2.37.27-3.55.47-.44.08-1.06.19-1.27.51-1.57,2.34-3.84,1.8-6,1.54a20.74,20.74,0,0,1-2.56-.62,2.49,2.49,0,0,0-3.28,1.61,1.82,1.82,0,0,1-.31.64c-2.45,2.22-4.92,4.42-7.44,6.67l-3-2.28c0-.17,0-.27.06-.31,1.9-1.66,2.23-2.56,1.28-3.45a3.74,3.74,0,0,0-4.85.36c-2.28,2.72-2.21,2.63.72,4.65,1,.66,1.47,2,2.21,3-1.88,2.13-4.53.86-6.74,2.07a8.67,8.67,0,0,1,0-1.57c.18-.81.46-1.78-.65-1.9a3.24,3.24,0,0,0-2.25.82c-.45.4-.44,1.31-.63,2a3.23,3.23,0,0,1-3.75,2.29l0,0a28.92,28.92,0,0,0,2-2.15c.42-.56.57-1.31,1-1.9,1.27-1.9,1-2.57-1.17-3.06a7.34,7.34,0,0,0-.93-.1c-.24-.65-.3-1.42-.71-1.77a3.48,3.48,0,0,0-2.24-1c-.49.06-1.23,1.22-1.16,1.81a2.51,2.51,0,0,0,1.46,1.77c1,.32,1.82.88,1.35,1.75a4.14,4.14,0,0,1-2.41,1.39c-.23.07-.74-1-1.19-1.45-.6-.64-1.27-1.66-1.93-1.67s-1.48.9-2,1.58a33.48,33.48,0,0,0-2.07,3.05c-1.83-.87-3.22-1.46-4.54-2.18-2.08-1.13-2.55-2.53-1.44-4.94l-3.68-.36c-.39-1-1-2.34-1.46-3.73-.4-1.2-.59-2.46-1-3.67-.5-1.62,0-2.21,1.72-2,5.62.64,11.25,1.28,16.88,1.85,3.55.36,6.95-.5,10.33-1.51,3.12-.94,6.4-1.46,9.38-2.72a44,44,0,0,0,8.65-5c1.32-1,2.05-2.77,3-4.25a1.37,1.37,0,0,0-.2-1.3c-2.39-1.93-2.29-4.79-2.86-7.4-1.16-5.36-2.39-10.71-3.46-16.09-.52-2.57-.68-5.21-1.09-7.81q-1.39-8.83-2.88-17.66c-.67-3.93-1.42-7.84-2.16-11.75-.84-4.46-1.79-8.9-2.53-13.37-1-5.9-1.68-11.85-2.74-17.73-.64-3.55-1.19-7.18-2.87-10.64-1.73,1-1.39,2.49-1.25,3.7.46,3.88,1.1,7.74,1.66,11.61,0,.23,0,.46.08,1-1.6.27-3.2.5-4.78.81-2.58.52-5.13,1.2-7.72,1.61-2.92.46-5.87.71-8.8,1.05a1.87,1.87,0,0,1-.71,0c-6.48-2-13.48-2.38-19.11-6.95-3-2.44-4.75-5-4.69-9,.13-8.28-.12-16.56-.25-24.84a10.22,10.22,0,0,0-.48-1.8c-.13-.62-.18-1.26-.26-1.9l.55-.22a13.73,13.73,0,0,1,1.14,1.28c2.1,3.09,4,6.29,6.31,9.25a11.32,11.32,0,0,0,6.27,4.11,16,16,0,0,1,4.4,1.64c3.32,2.07,7.13,2.68,10.73,3.9a5.72,5.72,0,0,0,1.63.3,17.35,17.35,0,0,0,16.26-10.52c.88-2.18,2-3.79,4.67-4.11,3.55-.42,7-1.2,10.59-1.7,7.11-1,14.28-1.64,21.34-2.91,9.8-1.76,19.5-4.1,29.29-5.93,5.71-1.07,11.58-1.36,17.28-2.52,6.06-1.22,12.19-1.19,18.28-1.85,4-.45,8.09-.79,12.15-1.12,1.83-.15,10.31.3,11.91.48,3.66.4,4.51,3.35,6,5.71,1,1.46,1.66,3.09,2.53,4.61a23.06,23.06,0,0,1,2.94,12,139.45,139.45,0,0,0,1.43,20c.59,4.5.75,9.06,1.12,13.59.4,4.82.82,9.64,1.22,14.47.38,4.6.46,9.25,1.2,13.79,1.28,7.77,3,15.48,4.49,23.21.83,4.22,1.71,8.43,2.5,12.65.48,2.57.94,5.16,1.21,7.76.25,2.35.2,4.74.32,7.11.26,5.15.56,10.29.81,15.45.07,1.32,0,2.65,0,3.78-1.32.72-3.16-1-3.42,1.23s1.79,2.47,3.31,3.09v4.16c-1.43-.94-1.77-3.26-3.54-2.16-.54.33-.32,1.89-.45,2.89l.54.25a8.14,8.14,0,0,1-1.54.92c-4.85,1.56-9.91,1.54-14.91,2a2.93,2.93,0,0,1-2-.41c-1.7-1.67-3.3-1.1-5-.1a10.76,10.76,0,0,1-1.45.47c.79-1.49,1.25-2.55,1.87-3.49s.51-1.95-.54-2.36a9.34,9.34,0,0,0-3.66-.73c-1,.05-1.5,1-1.35,2.15.19,1.47.23,3,.35,4.68h-4.81c.33-3.22-2.51-3.81-4.18-5.22-.93-.79-1.81.25-2.08,1.47-.71,3.23-2.7,3.88-6,1.62.81.08,1.2.09,1.58.16,1.79.31,2.26,0,2.54-1.81a2.93,2.93,0,0,1,3.15-2.83c.4,0,1,.14,1.16-.07a4.05,4.05,0,0,0,1.37-1.94A2,2,0,0,0,893.5,474a3.56,3.56,0,0,1-2.58-1.61c-.46-.64-1.93-.63-3-.71a2.67,2.67,0,0,0-.46,1.84c.36.66,1.24,1,1.8,1.46a10.72,10.72,0,0,0-2.85,1.59,13.77,13.77,0,0,0-1.84,3.18c-2.92-1.48-3,2.09-4.58,2.75-.61-1.59-1.14-3-1.86-4.86.44-1,1.84-.92,3.16-1.14a1.83,1.83,0,0,0,1.64-2.59,2.14,2.14,0,0,0-2.78-1.52,11.15,11.15,0,0,0-2,1.84,6.28,6.28,0,0,0-1.12-.41c-1.34-.25-2.63.94-2,2.07a8.31,8.31,0,0,1,1,4.18c0,.56.51,1.13.94,2-2.78.78-5.23-.28-7.79-.55l-.51-2.94a5.52,5.52,0,0,0,2.07.43c1.25-.27,3.22-.55,3.5-1.33.56-1.59-1.4-1.83-2.47-2.16s-3-.79-3.73-.21C866.68,476.2,868.22,477.45,868.64,478.56Zm-39-6.19c-2.14-.8-4.28.2-5.86-1.48-.2-.22-1.47.27-2,.73a1.89,1.89,0,0,0,0,1.65c1.94.8,4,1.44,6,2.09.16.05.49-.14.63-.3.73-.88,1.4-.53,2.3-.17,1.88.77,2.92,0,2.86-2.07a6.23,6.23,0,0,0-.57-2.28,2.23,2.23,0,0,0-3-1.28C828.6,469.79,828.83,471,829.61,472.37Zm33-2c.16-1.58-.17-2.78-1.76-3.31-1.31-.44-2.54-1.09-3.85-1.52-.44-.14-1,.12-1.5.2a5.42,5.42,0,0,0,.35,1.44,8.76,8.76,0,0,0,1.06,1.15c.73.89,1.44,1.81,2.46,3.1-.07,2.32.19,2.56,3.07,2.16a18.8,18.8,0,0,0,2.82-.42c.5-.15,1.29-.83,1.22-1.07a2.47,2.47,0,0,0-1.19-1.5A9.31,9.31,0,0,0,862.58,470.38Zm44.64-1.62c-1.17-.22-2.15-.68-3-.51-1.5.29-2.73.35-4-.76a2.13,2.13,0,0,0-2.13,0c-.4.39-.33,1.47-.15,2.17a2.87,2.87,0,0,0,1.23,1.36C901.92,472.81,904.49,472.17,907.22,468.76Zm16.3,11.38a22.92,22.92,0,0,0,3.25-1.6c.46-.32.61-1.07.9-1.63-.51-.27-1.08-.83-1.52-.75-2.29.43-4.49.87-6.45-1-.25-.24-1.48,0-1.74.42s-.22,1.69.09,1.85C919.89,478.37,922.37,477.89,923.52,480.14ZM821.67,466.76c0-1.88-2.72-3.62-4.36-2.94a1.92,1.92,0,0,0-1,2.74,13.27,13.27,0,0,0,2.85,2.75c1.11.79,1.94.28,2.23-1C821.54,467.74,821.6,467.19,821.67,466.76Zm92.12,3.7c-.22.23-1.16.74-1.22,1.34-.18,2,1.13,4,2.28,3.93s3.56-2,3.56-3S916.14,470.39,913.79,470.46Zm-72.13,1.36c1.65-.42,2.94-.85,4.26-1,1.15-.17,2.11-.42,2-1.78-.05-.93-1.6-1.61-2.75-1.29a15.83,15.83,0,0,0-3.3,1,3.63,3.63,0,0,0-1.44,1.91C840.37,470.89,841.31,471.5,841.66,471.82Zm-32.17-2.2a26.81,26.81,0,0,0,.45-3.07c0-1.46-1.18-1.86-2.24-2s-2.44-.14-2.8,1.48a2.18,2.18,0,0,0,1.42,2.66A26,26,0,0,0,809.49,469.62Zm35.31,6.49,4.54-.39c.16,0,.35,0,.47,0,.39-.23.88-.42,1.09-.78.13-.2-.1-.76-.32-1-.59-.66-5.2-1.37-5.89-.81a2.63,2.63,0,0,0-1.05,1.8C843.69,475.41,844.55,475.87,844.8,476.11Zm-78,2.16a44.59,44.59,0,0,0-2.9-3.79c-.21-.22-1.21.1-1.7.41a1.29,1.29,0,0,0-.29,1.23,19.59,19.59,0,0,0,2,3.19,1.56,1.56,0,0,0,1.44.36C765.86,479.47,766.2,478.87,766.78,478.27ZM797.41,471c-.77-1.07-1.27-2.54-2.09-2.75-1.48-.37-1.32,1.41-1.83,2.31a.39.39,0,0,0-.09.22,10,10,0,0,0,.65,2.36,1.46,1.46,0,0,0,1.42.22A16.2,16.2,0,0,0,797.41,471Zm111.65,2.23c-1.67.28-2.8.49-2.86,2a2.25,2.25,0,0,0,2.18,2.33c1.09,0,2.49-1.37,2.18-2.34A6.73,6.73,0,0,0,909.06,473.18Zm-34.61-11.51c1.48,1.17,3.68,1.61,4.58.76a2,2,0,0,0,.47-1.83,3.3,3.3,0,0,0-2-1.24A2.6,2.6,0,0,0,874.45,461.67Zm43.16,18.65-.06-.86a7.68,7.68,0,0,0-2.46-1.14c-1.14-.09-2.44.47-2.16,1.86.16.77,1.35,1.92,2,1.86C915.85,481.93,916.71,480.94,917.61,480.32Zm-82.89-21a27.75,27.75,0,0,0-2.92,1c-.89.41-1.06,1.08-.38,1.92,1.18,1.46,2.08,1.35,4-.63.33-.35.77-1.06.63-1.32C835.8,459.82,835.14,459.58,834.72,459.29Zm76.19,4.84,2.11-1.82c-.71-.74-1.3-1.83-2.16-2.13-1.09-.37-2,.53-2.12,1.7C908.53,463.29,909.53,463.62,910.91,464.13Zm-90.5-23a1.3,1.3,0,0,0-1.54,1.5c0,1,.22,2.36,1.58,2.18a4.1,4.1,0,0,0,2.54-1.66C823.44,442.5,821.75,441.17,820.41,441.16Zm52.94,20.27c-.24-1.46-.65-2-1.8-2-1.33,0-2.18.55-2.26,1.89a1.65,1.65,0,0,0,2,1.77C872.06,463,872.68,462,873.35,461.43Zm8-10.82,0-.75a6.31,6.31,0,0,0-1.81-1.05,1.85,1.85,0,0,0-2.27,1.6,1.14,1.14,0,0,0,1.34,1.49A12.54,12.54,0,0,0,881.37,450.61Zm5,9.91c-.82,1-1.65,1.62-1.65,2.2,0,1.29,1.19,1.65,2.21,1.5.59-.09,1.07-.87,1.6-1.34Zm-42.59-4c-.91.86-2,1.39-2,2-.13,1.39,1.24,1.53,2.21,1.43.71-.07,1.36-.74,2-1.15Zm76,13.51a11.65,11.65,0,0,0,3,0c.35-.09.67-1.2.57-1.77a1.77,1.77,0,0,0-1.34-1C920.59,467.15,920.11,468.22,919.84,470Zm-21.19-12.65c0-1.75-.87-2.34-2-2.3a1.88,1.88,0,0,0-1.36,1.19,1.65,1.65,0,0,0,1.79,2C897.69,458.21,898.26,457.59,898.65,457.36ZM830,460.21c.53-.93,1.14-1.5,1.09-2a1.73,1.73,0,0,0-2.18-1.6c-.49.09-1.27,1.17-1.21,1.25A22.23,22.23,0,0,0,830,460.21Zm98.4,8.72c-.85,1.07-1.73,1.71-1.8,2.41,0,.51,1,1.12,1.58,1.68a7.89,7.89,0,0,0,1.66-2C930,470.67,929.13,470,928.4,468.93Zm-99.51-15.52c.7-1.14,1.35-1.74,1.41-2.4a1.27,1.27,0,0,0-1.73-1.35c-.67.2-1.2.92-1.8,1.4ZM855,454.57c1.28,1.68,2.56,2.27,3.3,1.45a1.84,1.84,0,0,0,0-1.75C857.36,453,856.37,453.14,855,454.57Zm-94.43,22.64c-.61.88-1.22,1.37-1.28,1.92-.08.83.08,2,1.28,1.83.66-.1,1.67-1,1.69-1.5S761.37,478.2,760.57,477.21Zm23.78-8.32c-.58,1-1.28,1.61-1.2,2.13s1,1.45,1.41,1.35c.76-.18,1.38-.93,2.05-1.44Zm33.77-25a18.37,18.37,0,0,0-3-1.61c-.2-.07-1.06.84-1,1.25a1.8,1.8,0,0,0,2.13,1.73C816.74,445.24,817.15,444.67,818.12,443.92Zm43.62,34.71,1.54-1.83c-.67-.45-1.32-1.19-2-1.26-.42,0-1,1-1.43,1.49ZM808,460.86v-.66c-.6-.36-1.27-1.09-1.78-1s-1.17.91-1.75,1.42c.49.4,1,1.14,1.47,1.13A6,6,0,0,0,808,460.86ZM926,460.35c-.9-.64-1.54-1.4-1.91-1.29-.62.19-1.06.94-1.58,1.45.51.4,1,1.08,1.53,1.1S925.1,461,926,460.35Zm-145.74,14,1.71-1.48c-.43-.46-.93-1.34-1.27-1.29a2.9,2.9,0,0,0-1.57,1.26C779,472.94,779.75,473.65,780.27,474.32Zm27.1-20.15c-.79-.45-1.35-1-1.59-.88a6.2,6.2,0,0,0-1.4,1.32c.43.37.94,1.1,1.25,1C806.18,455.49,806.6,454.86,807.37,454.17Zm-51.11,17.4c.41.42.68.91.9.89s.69-.39,1-.61c-.2-.28-.38-.79-.59-.79A3.73,3.73,0,0,0,756.26,471.57Z" transform="translate(-730.63 -286.71)" fill="#090"/><path d="M770.29,309.28c1.31,2.27,3.34,2.28,5.15,2.1,3.8-.38,7.54-1.24,11.34-1.63,9.28-.94,18.59-1.62,27.87-2.6s18.68-2.25,28-3.36c8.33-1,16.67-1.9,25-2.94,4.1-.51,8.18-1.26,12.27-1.88,2-.29,3.95-.58,5.94-.75a2.53,2.53,0,0,1,2.78,2.16c.75,4,1.35,8,1.87,12,.17,1.35-.55,2.22-2.13,2.24-3.42,0-6.85.07-10.26.36s-6.95.87-10.41,1.41c-4.09.64-8.18,1.36-12.27,2.07-5,.86-9.89,1.76-14.83,2.63-1.34.24-2.7.36-4,.62-4.13.84-8.25,1.75-12.39,2.58-2.42.48-4.85.93-7.3,1.28-5.92.86-11.85,1.73-17.79,2.44-4.83.57-9.68.94-14.52,1.36a5.14,5.14,0,0,0-4.15,2.82c-.37.61-1,1.37-1.59,1.49-6.15,1.2-12.23,2.76-18.54,3.19a3.2,3.2,0,0,1-3.35-1.53c-.79-1.19-1.42-2.49-2.21-3.69a69.08,69.08,0,0,0-4.83-7c-1-1.22-2.72-1.88-4.13-2.77a12.33,12.33,0,0,1-2.54-1.95c8.79-3.05,17.39-6.38,26.75-7.56-.2-1.8-1.6-1.75-2.51-1.75a29.89,29.89,0,0,0-7.09.57c-4.53,1.15-8.94,2.74-13.43,4a17.42,17.42,0,0,1-5.14.53,12,12,0,0,1,6.29-4.77,129.23,129.23,0,0,1,13.74-3.09c2.87-.49,5.87-.21,8.78-.54,3.24-.36,6.44-1,9.65-1.57,4.47-.79,9-1.52,13.4-2.43,3.2-.65,6.31-2.05,9.51-2.22a86.84,86.84,0,0,0,12.27-1.95c4.54-.88,9.1-1.66,13.64-2.54,4-.76,7.91-1.85,11.92-2.35,5.44-.68,10.78-2.45,16.37-1.76a8.54,8.54,0,0,0,1.43,0c3.35-.14,6.69-.27,10-.44s6.68-.49,10-.57c2-.05,19-1.05,19.37,3.9.44,5.3.67,10.62,2.14,15.78.45,1.57-.06,2.22-1.64,2.52l-.24,0c-4.57.69-4.53.69-4.92-3.86-.16-1.9-.62-3.77-.82-5.67a33.31,33.31,0,0,1-.33-5.89c.24-3.35-1-4.73-4.22-4.28-4.27.58-8.53,1.21-12.79,1.86-10.32,1.56-20.59,3.49-31,4.59-5.85.62-11.55,2.08-17.44,2.35-4.9.22-9.78,1.06-14.67,1.56q-10.2,1-20.4,2c-3.65.35-7.32.58-11,1-3.23.38-6.44.94-9.66,1.44A5.05,5.05,0,0,0,770.29,309.28Zm88.83,3.52,0-.55a12.21,12.21,0,0,0-2-.26c-2.55,0-5.11.06-7.66.22-4.53.28-9.08.5-13.59,1q-10.08,1.18-20.12,2.79c-4.56.73-9.06,1.87-13.6,2.7-6.75,1.22-13.53,2.27-20.28,3.48-6,1.07-12.07,2.23-18.09,3.39a2.52,2.52,0,0,0-1.43.75,2.11,2.11,0,0,0-.51,1.63,2,2,0,0,0,1.53.79,9.85,9.85,0,0,0,2.33-.51c5.87-1.51,11.69-3.23,17.61-4.47,10.86-2.27,21.78-4.2,32.66-6.37,13-2.61,26.25-3.64,39.51-4.17C856.7,313.2,857.91,313,859.12,312.8Zm-54.94,1.37,0-.74a8.12,8.12,0,0,0-1-.38c-5.17-1.14-10.36-.65-15.44.29-6.78,1.27-13.47,3.05-20.21,4.6-3.86.89-7.74,1.74-11.59,2.68a2.93,2.93,0,0,0-2.61,2.4,12.31,12.31,0,0,0,2.21,0c2-.38,4-.83,6-1.3,4-.91,7.92-1.76,11.83-2.81,9.24-2.48,18.48-4.95,28.19-4.44A17,17,0,0,0,804.18,314.17Zm27.06-5c1.31,2.26,3,1.86,4.38,1.68,4.59-.56,9.15-1.27,13.71-2,2-.32,4-.91,6.07-1.14,5.39-.6,10.79-1.07,16.18-1.6,2.7-.26,5.4-.52,8.09-.85.44-.06.83-.5,1.24-.76-.28-.33-.52-.83-.87-.93a5.49,5.49,0,0,0-1.9-.09c-2,.15-4,.31-5.95.53L852,306.4q-8.18,1-16.36,2C834.27,308.55,832.91,308.88,831.24,309.2Z" transform="translate(-730.63 -286.71)" fill="#ffc"/><path d="M740.51,382.54c2.11,1.21,4.2,2.48,6.36,3.6a17.75,17.75,0,0,0,3.16,1.05c4.65,1.41,9.31,2.95,14.21,2.94,3.16,0,6.3-.71,9.47-.94,4.17-.31,7.4-3.12,11.52-4a5.83,5.83,0,0,1,.53,1.33c1,6,2,12.06,3,18.11.8,5.25,1.4,10.54,2.21,15.79.38,2.43,1.08,4.8,1.55,7.21.41,2.1.77,4.22,1,6.35a2.46,2.46,0,0,1-.89,1.63,20.26,20.26,0,0,1-2.57,1.73c1.08.72,1.77,1.54,2.55,1.64,1.77.21,2.26,1.3,2.41,2.74s.22,3.14.32,4.75l-3.5,1.12a13.58,13.58,0,0,0-1.15-2.89,2.46,2.46,0,0,0-1.85-.88c-.62.05-1.6.61-1.72,1.11-.49,2,1.37,2.37,2.83,3.2L787.63,450c-.75-1.12-1.4-2.06-2.16-3.18.44-1.15.61-2.55-1-3.23a2.49,2.49,0,0,0-2.09.15,1.88,1.88,0,0,0-.19,1.87c.73.94,1.17,1.6.57,2.92-.24.52.91,1.68,1.58,2.81a19.69,19.69,0,0,1-9.8,3.78l-.25-.51a6.15,6.15,0,0,0,1.44-.9c.42-.46,1-1.27.89-1.61a2,2,0,0,0-1.64-1,2.31,2.31,0,0,1-3-1.25c-.23-.4-1.44-.38-2.14-.24-.23,0-.43,1.06-.39,1.61.08,1.09.34,2.16.51,3.18-2.63,1.16-4.81.88-6.3-.68-.74-.78-1.22-1.62,0-2.38s1.18-1.44.26-2.29-3-.91-3.21-.06c-.61,3.13-3.51,3.37-5.61,4.85-1.25-1-2.4-2.61-4.46-1.55-.17.09-.9-.55-1.11-1a25.66,25.66,0,0,1-1-3c2,.58,4-.23,5.3,1.63.22.3,1.76-.14,2.53-.54.34-.18.53-1.15.39-1.65-.3-1.12-1.23-1-2.16-.8-1.17.22-2.21.36-3.2-.83-.46-.55-1.83-.34-3.18-.54-.21-1.34-.47-3-.76-4.89,1.11-.05,1.89,0,2.65-.13a1.7,1.7,0,0,0,1.62-2.19c-.27-1.28-1.32-1.21-2.31-.85-.66.24-1.28.58-1.8.82-5.21-18.15-5.35-36.92-8.17-55.34Zm35,61c-.29-.38-.61-1.18-1-1.24a5.11,5.11,0,0,0-2.38.41c-.81.31-1.48,1.09-2.29,1.25-1.39.28-1.64,1.07-1.45,2.23s1.19,2,2.21,1.48a31,31,0,0,0,4.53-3C775.32,444.5,775.33,444.08,775.52,443.53Zm-22-8.07.25-.35c.79-.07,1.58-.12,2.37-.22a1.58,1.58,0,0,0,1.43-2.06c-.17-1.15-1-1.32-2-1.09a10.52,10.52,0,0,0-2.5.77,6.39,6.39,0,0,0-1.38,1.41Zm11.76-.2c.92-1,1.92-1.65,2-2.41.2-1.28-1-1.73-2.08-1.72s-2.19.64-2,1.86C763.36,433.69,764.33,434.25,765.28,435.26Zm3.05,4.6c0-1.62-.74-2.26-2-2.28a1.66,1.66,0,0,0-1.85,1.74,2.2,2.2,0,0,0,2.15,2.11C767.82,441.33,768.37,440.67,768.33,439.86Zm-12.67.64c-1.11.87-2.14,1.28-2.36,2a1.35,1.35,0,0,0,1.59,1.76,3.32,3.32,0,0,0,2.05-1.41C757.13,442.52,756.3,441.59,755.66,440.5Zm19.71-7.65a10.84,10.84,0,0,0-1.82,2.61c-.08.29,1,1.33,1.46,1.27a2.42,2.42,0,0,0,1.76-1.36C776.89,434.83,776.1,434.07,775.37,432.85Zm-13.06,7.41c-.93-.85-1.4-1.59-2-1.73-.39-.09-1,.7-1.49,1.1a6.26,6.26,0,0,0,1.57,1.37C760.74,441.15,761.35,440.66,762.31,440.26ZM749.37,423.7c-1-.74-1.58-1.36-2.22-1.49-.35-.07-.85.71-1.29,1.11.52.46,1,1.1,1.58,1.32C747.79,424.77,748.38,424.21,749.37,423.7Z" transform="translate(-730.63 -286.71)" fill="#007300"/><path d="M782.86,373.23c.42,2,.94,4,1.22,6a2.11,2.11,0,0,1-.94,1.71c-2.39,1.21-4.84,2.31-7.3,3.34-7.3,3.06-14.67,2.68-22,.06a97.73,97.73,0,0,1-11.36-4.94,8.81,8.81,0,0,1-4.62-6.35c-.32-1.67-.56-3.36-.94-5.62l2.63,1.34a75.39,75.39,0,0,0,14.56,5.78c7.5,2,14.62.64,21.89-.5C778.16,373.71,780.3,373.53,782.86,373.23Z" transform="translate(-730.63 -286.71)" fill="#0d0639"/><path d="M772,465.62c-3.26,0-6.56.33-9.76-.1a68.44,68.44,0,0,1-9.66-2.47c-.83-.24-2.51-4.15-2.14-4.85a1.58,1.58,0,0,1,1.08-.75,6.23,6.23,0,0,1,2.36.12,33,33,0,0,0,11.54,1.06,35.37,35.37,0,0,1,5.73,0c5.06.51,9.61-1.27,14.14-3,3-1.14,5.79-2.65,8.68-4,2-.89,2.08-.58,2.37,1.57.4,3,0,5.06-3.36,5.82-1,.22-1.79,1.29-2.73,1.88a14.51,14.51,0,0,1-6.69,2.24c-2.15.17-4.2,1.38-6.35,1.92a49.33,49.33,0,0,1-5.18.76Z" transform="translate(-730.63 -286.71)" fill="#0d0639"/><path d="M753.78,339.62a14.48,14.48,0,0,1-9.66-6.35c-1.1-1.65-2.24-3.29-3.29-5s-2.23-3.69-1.73-6C744.05,322.18,753.12,333.31,753.78,339.62Z" transform="translate(-730.63 -286.71)" fill="#b22441"/><path d="M779.39,336.67a15.86,15.86,0,0,1-1.7,2.54c-4.32,4.13-9.37,5.51-15.17,3.83a13.82,13.82,0,0,1-2.47-.84,1.58,1.58,0,0,1-.6-1.16c0-.23.48-.71.75-.71,6.24-.1,11.9-2.83,17.92-3.89A5.46,5.46,0,0,1,779.39,336.67Z" transform="translate(-730.63 -286.71)" fill="#861b31"/><path d="M749.87,306.83c-5.56,1.6-10.19,4.36-12.82,9.93-.65-1.71.35-4.38,2.48-6.21C742.47,308,745.74,306.2,749.87,306.83Z" transform="translate(-730.63 -286.71)" fill="#861b31"/><path d="M768.36,484.52c.13.52.26,1,.4,1.57l-2.27.46,1.2-2Z" transform="translate(-730.63 -286.71)" fill="#fff"/><path d="M760.71,455.07h-1.46v-.45h1.46Z" transform="translate(-730.63 -286.71)" fill="#fff"/><path d="M774.64,486.1l-2.08.73c0-.28-.08-.55-.11-.83l2.16.14Z" transform="translate(-730.63 -286.71)" fill="#fff"/><path d="M829.61,472.37c-.78-1.42-1-2.58.38-3.11a2.23,2.23,0,0,1,3,1.28,6.23,6.23,0,0,1,.57,2.28c.06,2.05-1,2.84-2.86,2.07-.9-.36-1.57-.71-2.3.17-.14.16-.47.35-.63.3-2-.65-4-1.29-6-2.09a1.89,1.89,0,0,1,0-1.65c.51-.46,1.78-.95,2-.73C825.33,472.57,827.47,471.57,829.61,472.37Z" transform="translate(-730.63 -286.71)"/><path d="M862.58,470.38a9.31,9.31,0,0,1,2.68.23,2.47,2.47,0,0,1,1.19,1.5c.07.24-.72.92-1.22,1.07a18.8,18.8,0,0,1-2.82.42c-2.88.4-3.14.16-3.07-2.16-1-1.29-1.73-2.21-2.46-3.1a8.76,8.76,0,0,1-1.06-1.15,5.42,5.42,0,0,1-.35-1.44c.5-.08,1.06-.34,1.5-.2,1.31.43,2.54,1.08,3.85,1.52C862.41,467.6,862.74,468.8,862.58,470.38Z" transform="translate(-730.63 -286.71)"/><path d="M907.22,468.76c-2.73,3.41-5.3,4.05-8.06,2.27a2.87,2.87,0,0,1-1.23-1.36c-.18-.7-.25-1.78.15-2.17a2.13,2.13,0,0,1,2.13,0c1.26,1.11,2.49,1.05,4,.76C905.07,468.08,906.05,468.54,907.22,468.76Z" transform="translate(-730.63 -286.71)"/><path d="M923.52,480.14c-1.15-2.25-3.63-1.77-5.47-2.74-.31-.16-.38-1.42-.09-1.85s1.49-.66,1.74-.42c2,1.9,4.16,1.46,6.45,1,.44-.08,1,.48,1.52.75-.29.56-.44,1.31-.9,1.63A22.92,22.92,0,0,1,923.52,480.14Z" transform="translate(-730.63 -286.71)"/><path d="M821.67,466.76c-.07.43-.13,1-.25,1.52-.29,1.31-1.12,1.82-2.23,1a13.27,13.27,0,0,1-2.85-2.75,1.92,1.92,0,0,1,1-2.74C819,463.14,821.64,464.88,821.67,466.76Z" transform="translate(-730.63 -286.71)"/><path d="M913.79,470.46c2.35-.07,4.63,1.21,4.62,2.23s-2.31,3-3.56,3-2.46-2-2.28-3.93C912.63,471.2,913.57,470.69,913.79,470.46Z" transform="translate(-730.63 -286.71)"/><path d="M841.66,471.82c-.35-.32-1.29-.93-1.2-1.17a3.63,3.63,0,0,1,1.44-1.91,15.83,15.83,0,0,1,3.3-1c1.15-.32,2.7.36,2.75,1.29.08,1.36-.88,1.61-2,1.78C844.6,471,843.31,471.4,841.66,471.82Z" transform="translate(-730.63 -286.71)"/><path d="M868.64,478.56c-.42-1.11-2-2.36-.68-3.31.78-.58,2.54-.17,3.73.21s3,.57,2.47,2.16c-.28.78-2.25,1.06-3.5,1.33a5.52,5.52,0,0,1-2.07-.43Z" transform="translate(-730.63 -286.71)"/><path d="M809.49,469.62a26,26,0,0,1-3.17-.91,2.18,2.18,0,0,1-1.42-2.66c.36-1.62,1.69-1.6,2.8-1.48s2.29.52,2.24,2A26.81,26.81,0,0,1,809.49,469.62Z" transform="translate(-730.63 -286.71)"/><path d="M844.8,476.11c-.25-.24-1.11-.7-1.16-1.23a2.63,2.63,0,0,1,1.05-1.8c.69-.56,5.3.15,5.89.81.22.25.45.81.32,1-.21.36-.7.55-1.09.78-.12.07-.31,0-.47,0Z" transform="translate(-730.63 -286.71)"/><path d="M766.78,478.27c-.58.6-.92,1.2-1.42,1.4a1.56,1.56,0,0,1-1.44-.36,19.59,19.59,0,0,1-2-3.19,1.29,1.29,0,0,1,.29-1.23c.49-.31,1.49-.63,1.7-.41A44.59,44.59,0,0,1,766.78,478.27Z" transform="translate(-730.63 -286.71)"/><path d="M797.41,471a16.2,16.2,0,0,1-1.94,2.36,1.46,1.46,0,0,1-1.42-.22,10,10,0,0,1-.65-2.36.39.39,0,0,1,.09-.22c.51-.9.35-2.68,1.83-2.31C796.14,468.41,796.64,469.88,797.41,471Z" transform="translate(-730.63 -286.71)"/><path d="M909.06,473.18a6.73,6.73,0,0,1,1.5,1.95c.31,1-1.09,2.3-2.18,2.34a2.25,2.25,0,0,1-2.18-2.33C906.26,473.67,907.39,473.46,909.06,473.18Z" transform="translate(-730.63 -286.71)"/><path d="M874.45,461.67a2.6,2.6,0,0,1,3-2.31,3.3,3.3,0,0,1,2,1.24,2,2,0,0,1-.47,1.83C878.13,463.28,875.93,462.84,874.45,461.67Z" transform="translate(-730.63 -286.71)"/><path d="M917.61,480.32c-.9.62-1.76,1.61-2.71,1.72-.62.06-1.81-1.09-2-1.86-.28-1.39,1-1.95,2.16-1.86a7.68,7.68,0,0,1,2.46,1.14Z" transform="translate(-730.63 -286.71)"/><path d="M834.72,459.29c.42.29,1.08.53,1.32,1,.14.26-.3,1-.63,1.32-1.91,2-2.81,2.09-4,.63-.68-.84-.51-1.51.38-1.92A27.75,27.75,0,0,1,834.72,459.29Z" transform="translate(-730.63 -286.71)"/><path d="M910.91,464.13c-1.38-.51-2.38-.84-2.17-2.25.17-1.17,1-2.07,2.12-1.7.86.3,1.45,1.39,2.16,2.13Z" transform="translate(-730.63 -286.71)"/><path d="M820.41,441.16c1.34,0,3,1.34,2.58,2a4.1,4.1,0,0,1-2.54,1.66c-1.36.18-1.53-1.13-1.58-2.18A1.3,1.3,0,0,1,820.41,441.16Z" transform="translate(-730.63 -286.71)"/><path d="M873.35,461.43c-.67.57-1.29,1.52-2,1.63a1.65,1.65,0,0,1-2-1.77c.08-1.34.93-1.9,2.26-1.89C872.7,459.41,873.11,460,873.35,461.43Z" transform="translate(-730.63 -286.71)"/><path d="M881.37,450.61a12.54,12.54,0,0,1-2.76,1.29,1.14,1.14,0,0,1-1.34-1.49,1.85,1.85,0,0,1,2.27-1.6,6.31,6.31,0,0,1,1.81,1.05Z" transform="translate(-730.63 -286.71)"/><path d="M886.4,460.52l2.16,2.36c-.53.47-1,1.25-1.6,1.34-1,.15-2.22-.21-2.21-1.5C884.75,462.14,885.58,461.56,886.4,460.52Z" transform="translate(-730.63 -286.71)"/><path d="M843.81,456.5l2.23,2.29c-.68.41-1.33,1.08-2,1.15-1,.1-2.34,0-2.21-1.43C841.84,457.89,842.9,457.36,843.81,456.5Z" transform="translate(-730.63 -286.71)"/><path d="M919.84,470c.27-1.79.75-2.86,2.25-2.77a1.77,1.77,0,0,1,1.34,1c.1.57-.22,1.68-.57,1.77A11.65,11.65,0,0,1,919.84,470Z" transform="translate(-730.63 -286.71)"/><path d="M898.65,457.36c-.39.23-1,.85-1.54.86a1.65,1.65,0,0,1-1.79-2,1.88,1.88,0,0,1,1.36-1.19C897.78,455,898.62,455.61,898.65,457.36Z" transform="translate(-730.63 -286.71)"/><path d="M830,460.21a22.23,22.23,0,0,1-2.3-2.36c-.06-.08.72-1.16,1.21-1.25a1.73,1.73,0,0,1,2.18,1.6C831.14,458.71,830.53,459.28,830,460.21Z" transform="translate(-730.63 -286.71)"/><path d="M928.4,468.93c.73,1,1.57,1.74,1.44,2.09a7.89,7.89,0,0,1-1.66,2c-.57-.56-1.62-1.17-1.58-1.68C926.67,470.64,927.55,470,928.4,468.93Z" transform="translate(-730.63 -286.71)"/><path d="M828.89,453.41l-2.12-2.35c.6-.48,1.13-1.2,1.8-1.4A1.27,1.27,0,0,1,830.3,451C830.24,451.67,829.59,452.27,828.89,453.41Z" transform="translate(-730.63 -286.71)"/><path d="M855,454.57c1.37-1.43,2.36-1.56,3.29-.3a1.84,1.84,0,0,1,0,1.75C857.56,456.84,856.28,456.25,855,454.57Z" transform="translate(-730.63 -286.71)"/><path d="M760.57,477.21c.8,1,1.71,1.64,1.69,2.25s-1,1.4-1.69,1.5c-1.2.18-1.36-1-1.28-1.83C759.35,478.58,760,478.09,760.57,477.21Z" transform="translate(-730.63 -286.71)"/><path d="M784.35,468.89l2.26,2c-.67.51-1.29,1.26-2.05,1.44-.37.1-1.32-.8-1.41-1.35S783.77,469.85,784.35,468.89Z" transform="translate(-730.63 -286.71)"/><path d="M818.12,443.92c-1,.75-1.38,1.32-1.85,1.37a1.8,1.8,0,0,1-2.13-1.73c0-.41.82-1.32,1-1.25A18.37,18.37,0,0,1,818.12,443.92Z" transform="translate(-730.63 -286.71)"/><path d="M861.74,478.63l-1.92-1.6c.48-.53,1-1.53,1.43-1.49.71.07,1.36.81,2,1.26Z" transform="translate(-730.63 -286.71)"/><path d="M808,460.86a6,6,0,0,1-2.06.9c-.48,0-1-.73-1.47-1.13.58-.51,1.1-1.3,1.75-1.42s1.18.63,1.78,1Z" transform="translate(-730.63 -286.71)"/><path d="M926,460.35c-.91.62-1.45,1.27-2,1.26s-1-.7-1.53-1.1c.52-.51,1-1.26,1.58-1.45C924.47,459,925.11,459.71,926,460.35Z" transform="translate(-730.63 -286.71)"/><path d="M780.27,474.32c-.52-.67-1.23-1.38-1.13-1.51a2.9,2.9,0,0,1,1.57-1.26c.34-.05.84.83,1.27,1.29Z" transform="translate(-730.63 -286.71)"/><path d="M807.37,454.17c-.77.69-1.19,1.32-1.74,1.46-.31.08-.82-.65-1.25-1a6.2,6.2,0,0,1,1.4-1.32C806,453.18,806.58,453.72,807.37,454.17Z" transform="translate(-730.63 -286.71)"/><path d="M756.26,471.57a3.73,3.73,0,0,1,1.34-.51c.21,0,.39.51.59.79-.34.22-.67.58-1,.61S756.67,472,756.26,471.57Z" transform="translate(-730.63 -286.71)"/><path d="M859.12,312.8c-1.21.15-2.42.4-3.64.45-13.26.53-26.46,1.56-39.51,4.17-10.88,2.17-21.8,4.1-32.66,6.37-5.92,1.24-11.74,3-17.61,4.47a9.85,9.85,0,0,1-2.33.51,2,2,0,0,1-1.53-.79,2.11,2.11,0,0,1,.51-1.63,2.52,2.52,0,0,1,1.43-.75c6-1.16,12.05-2.32,18.09-3.39,6.75-1.21,13.53-2.26,20.28-3.48,4.54-.83,9-2,13.6-2.7q10-1.61,20.12-2.79c4.51-.53,9.06-.75,13.59-1,2.55-.16,5.11-.19,7.66-.22a12.21,12.21,0,0,1,2,.26Z" transform="translate(-730.63 -286.71)"/><path d="M804.18,314.17a17,17,0,0,1-2.64.28c-9.71-.51-18.95,2-28.19,4.44-3.91,1.05-7.88,1.9-11.83,2.81-2,.47-4,.92-6,1.3a12.31,12.31,0,0,1-2.21,0,2.93,2.93,0,0,1,2.61-2.4c3.85-.94,7.73-1.79,11.59-2.68,6.74-1.55,13.43-3.33,20.21-4.6,5.08-.94,10.27-1.43,15.44-.29a8.12,8.12,0,0,1,1,.38Z" transform="translate(-730.63 -286.71)"/><path d="M831.24,309.2c1.67-.32,3-.65,4.4-.82q8.18-1,16.36-2l20.19-2.34c2-.22,4-.38,5.95-.53a5.49,5.49,0,0,1,1.9.09c.35.1.59.6.87.93-.41.26-.8.7-1.24.76-2.69.33-5.39.59-8.09.85-5.39.53-10.79,1-16.18,1.6-2,.23-4,.82-6.07,1.14-4.56.71-9.12,1.42-13.71,2C834.22,311.06,832.55,311.46,831.24,309.2Z" transform="translate(-730.63 -286.71)"/><path d="M775.52,443.53c-.19.55-.2,1-.4,1.12a31,31,0,0,1-4.53,3c-1,.48-2-.22-2.21-1.48s.06-1.95,1.45-2.23c.81-.16,1.48-.94,2.29-1.25a5.11,5.11,0,0,1,2.38-.41C774.91,442.35,775.23,443.15,775.52,443.53Z" transform="translate(-730.63 -286.71)"/><path d="M753.52,435.46l-1.8-1.54a6.39,6.39,0,0,1,1.38-1.41,10.52,10.52,0,0,1,2.5-.77c1-.23,1.8-.06,2,1.09a1.58,1.58,0,0,1-1.43,2.06c-.79.1-1.58.15-2.37.22Z" transform="translate(-730.63 -286.71)"/><path d="M765.28,435.26c-.95-1-1.92-1.57-2-2.27-.2-1.22.81-1.85,2-1.86s2.28.44,2.08,1.72C767.2,433.61,766.2,434.22,765.28,435.26Z" transform="translate(-730.63 -286.71)"/><path d="M768.33,439.86c0,.81-.51,1.47-1.66,1.57a2.2,2.2,0,0,1-2.15-2.11,1.66,1.66,0,0,1,1.85-1.74C767.59,437.6,768.29,438.24,768.33,439.86Z" transform="translate(-730.63 -286.71)"/><path d="M755.66,440.5c.64,1.09,1.47,2,1.28,2.31a3.32,3.32,0,0,1-2.05,1.41,1.35,1.35,0,0,1-1.59-1.76C753.52,441.78,754.55,441.37,755.66,440.5Z" transform="translate(-730.63 -286.71)"/><path d="M775.37,432.85c.73,1.22,1.52,2,1.4,2.52a2.42,2.42,0,0,1-1.76,1.36c-.45.06-1.54-1-1.46-1.27A10.84,10.84,0,0,1,775.37,432.85Z" transform="translate(-730.63 -286.71)"/><path d="M762.31,440.26c-1,.4-1.57.89-1.93.74a6.26,6.26,0,0,1-1.57-1.37c.5-.4,1.1-1.19,1.49-1.1C760.91,438.67,761.38,439.41,762.31,440.26Z" transform="translate(-730.63 -286.71)"/><path d="M749.37,423.7c-1,.51-1.58,1.07-1.93.94-.61-.22-1.06-.86-1.58-1.32.44-.4.94-1.18,1.29-1.11C747.79,422.34,748.33,423,749.37,423.7Z" transform="translate(-730.63 -286.71)"/></svg>