<svg id="pandj_red" xmlns="http://www.w3.org/2000/svg" viewBox="0 0 117.43 115.34"><path d="M163.18,34.28c.22,1.7.68,4.67,1,7.65.42,3.67.79,7.34,1.08,11,.34,4.29.4,8.62.91,12.89.45,3.77,1.34,7.5,2,11.24.59,3.13,1,6.32,1.82,9.38.92,3.43.9,6.92,1.32,10.38a99.88,99.88,0,0,1,.52,10.37,10.29,10.29,0,0,0,.77,3.23c.55,1.52.07,2.48-1.52,2.48a28.77,28.77,0,0,0-7.8,1.42,14,14,0,0,1-2.92.15c-2.1.1-4.22.38-6.31.28-3.31-.17-6.61-.58-9.92-.89-1.25-.11-2.49-.23-3.74-.33-2.86-.24-5.74-.35-8.59-.72a115.61,115.61,0,0,0-12.06-.86A43.82,43.82,0,0,1,109,110.39c-.82-.23-1.56-.73-2.38-.93a46.94,46.94,0,0,0-6.17-1.28,7.69,7.69,0,0,0-6.73,2.28,17.89,17.89,0,0,1-8.07,4.93,31.58,31.58,0,0,0-3.59,1.08c-2.1.83-4.18.22-6.26.06-2.51-.2-4.52-1.58-6.54-3a19.15,19.15,0,0,1-4.17-4.31,1.92,1.92,0,0,1-.26-1.13c0-1.78.11-3.58,0-5.35a52.55,52.55,0,0,0-.93-7.31,85.89,85.89,0,0,1-1.75-11.15,19.31,19.31,0,0,0-.65-2.88c-.67-2.69-1.53-5.34-2-8.07-.56-3.39-.77-6.83-1.17-10.25-.21-1.86-.57-3.71-.76-5.58a49,49,0,0,1-.47-6.83c.08-2.18-.5-4.25-.52-6.39,0-2.52-.08-5-.19-7.55s-.28-5.26-.47-7.89c-.1-1.49-.32-3-.46-4.48a1.75,1.75,0,0,1,.06-.79,4.24,4.24,0,0,0,.33-3.36c.85-1.7.12-4,2.2-5.28.53-.32.78-1.07,1.21-1.59,1.69-2,3.68-3.52,6.49-3.39.71,0,1.41.26,2.11.27,1.88,0,3.77-.12,5.64,0,1.33.08,2.63.51,4,.66A10.74,10.74,0,0,0,80,10.83c2.94-.38,5.88-.76,8.8-1.26,1.35-.24,2.65-.77,4-1.1A23.91,23.91,0,0,1,97,7.62a47.16,47.16,0,0,0,7-1.23c1.7-.36,3.43-.57,5.14-.89,3.35-.63,6.69-1.4,10.06-1.91,2.92-.44,5.88-.65,8.83-.87,2.06-.16,4.13-.17,6.2-.26a67,67,0,0,0,7.78-.4c2-.3,3.91-.08,5.85-.23,1.3-.1,2.6-.29,3.9-.28a2,2,0,0,1,1.55.74c.32.62-.11,1.28-.79,1.63a1.84,1.84,0,0,0-1,1.93A35.18,35.18,0,0,0,153,14.6c.22.61.31,1.48.75,1.73s1.29,0,2-.08a2.32,2.32,0,0,1,2.81,1.54c1.14,2.24,2.32,4.47,3.38,6.75C163.13,27.2,163.5,30,163.18,34.28ZM80.23,114,79,113.89l.07.46,1.17-.41a1.81,1.81,0,0,0,2.11-1.29c.11-.38.1-.89.35-1.12a1.8,1.8,0,0,1,1.27-.46c.63.06.47.61.37,1.07a5,5,0,0,0,0,.89c1.24-.69,2.74,0,3.8-1.17a6.51,6.51,0,0,0-1.25-1.69c-1.65-1.14-1.69-1.09-.41-2.62a2.13,2.13,0,0,1,2.74-.21c.54.51.35,1-.72,2,0,0,0,.08,0,.17l1.68,1.29L94.33,107a1.09,1.09,0,0,0,.17-.36,1.41,1.41,0,0,1,1.85-.91,12.57,12.57,0,0,0,1.44.35c1.24.15,2.52.45,3.4-.87.12-.18.47-.24.72-.29.66-.11,1.33-.18,2-.26.89-.12,1.37.34,1.27,1.24,0,.31-.12.61-.21,1,3.27,1.29,6.46,2.7,10.13,2.74.06-1,.31-1.91,1.39-1.9,1.29,0,.85,1.22,1.14,2l4.69.36c0-1,.16-1.83,1.26-1.83,1.39,0,.83,1.22,1.11,1.92,2.07.3,4.1.61,6.15.86.22,0,.67-.21.71-.4.23-1,.95-1,1.68-1l0,0c.1.52.19,1,.29,1.66,1.44.15,2.82.75,4.39.31-.24-.49-.53-.81-.53-1.13a4.64,4.64,0,0,0-.54-2.35c-.33-.64.4-1.31,1.15-1.17a3.48,3.48,0,0,1,.64.24,5.63,5.63,0,0,1,1.14-1,1.19,1.19,0,0,1,1.56.85,1,1,0,0,1-.92,1.47c-.74.12-1.53.08-1.78.64l1.05,2.74c.91-.37.94-2.39,2.58-1.56a7.87,7.87,0,0,1,1-1.79,6.32,6.32,0,0,1,1.6-.89c-.31-.24-.81-.46-1-.83a1.45,1.45,0,0,1,.26-1c.58,0,1.41,0,1.67.4a2,2,0,0,0,1.46.9,1.18,1.18,0,0,1,.72.89,2.29,2.29,0,0,1-.77,1.1c-.12.11-.44,0-.66,0a1.67,1.67,0,0,0-1.78,1.6c-.15,1-.42,1.19-1.42,1-.22,0-.44,0-.9-.09,1.88,1.27,3,.91,3.4-.91.16-.7.65-1.28,1.17-.83,1,.79,2.54,1.12,2.36,2.94h2.71c-.07-1-.09-1.81-.2-2.64-.08-.66.19-1.18.77-1.21a5.12,5.12,0,0,1,2.06.41c.59.23.69.73.3,1.33s-.61,1.13-1,2a7.33,7.33,0,0,0,
.82-.27c.95-.56,1.85-.88,2.81.06a1.67,1.67,0,0,0,1.15.23c2.82-.25,5.68-.24,8.41-1.12a4.35,4.35,0,0,0,.87-.52l-.3-.14c.07-.56-.06-1.44.25-1.63,1-.61,1.18.7,2,1.22v-2.34c-.86-.35-2-.45-1.86-1.74s1.18-.29,1.93-.69c0-.65,0-1.4,0-2.14-.14-2.9-.31-5.81-.46-8.71-.07-1.33,0-2.68-.18-4S169,88,168.7,86.53c-.45-2.38-.94-4.75-1.41-7.13-.86-4.36-1.81-8.7-2.53-13.08-.42-2.56-.46-5.18-.68-7.78s-.46-5.43-.68-8.15c-.21-2.56-.3-5.12-.64-7.66a78.82,78.82,0,0,1-.8-11.28,13.08,13.08,0,0,0-1.66-6.75c-.49-.86-.89-1.77-1.42-2.6-.87-1.33-1.35-3-3.42-3.22-.9-.1-1.6-.32-2.31.41-.43.46-1.08.68-1.55.13a3,3,0,0,0-2.85-.81c-2.29.19-4.57.38-6.85.63-3.43.38-6.89.36-10.3,1.05-3.21.65-6.52.82-9.74,1.42-5.52,1-11,2.35-16.51,3.34-4,.71-8,1.08-12,1.64-2,.28-4,.72-6,1A3.14,3.14,0,0,0,84.71,30a9.76,9.76,0,0,1-9.16,5.93,3.56,3.56,0,0,1-.92-.17c-2-.69-4.17-1-6-2.2a8.79,8.79,0,0,0-2.48-.92,6.41,6.41,0,0,1-3.53-2.32c-1.28-1.67-2.37-3.48-3.55-5.21a7.53,7.53,0,0,0-.65-.73l-.31.13c0,.36.08.72.15,1.07a6.59,6.59,0,0,1,.27,1c.07,4.67.21,9.34.14,14a6,6,0,0,0,2.64,5.09c3.18,2.57,7.12,2.79,10.77,3.91a1.08,1.08,0,0,0,.4,0c1.66-.19,3.32-.33,5-.6,1.46-.23,2.9-.61,4.35-.9.9-.18,1.8-.31,2.7-.46,0-.31,0-.44,0-.57-.32-2.18-.68-4.35-.94-6.54-.08-.69-.27-1.53.7-2.09a22.2,22.2,0,0,1,1.62,6c.6,3.32,1,6.67,1.54,10,.42,2.52,1,5,1.43,7.54.42,2.21.84,4.41,1.22,6.62q.84,5,1.62,10c.23,1.46.33,3,.62,4.4.6,3,1.29,6,2,9.07.32,1.47.26,3.08,1.61,4.17a.76.76,0,0,1,.11.73,7.78,7.78,0,0,1-1.66,2.4,25.31,25.31,0,0,1-4.88,2.83,51.65,51.65,0,0,1-5.28,1.53,15,15,0,0,1-5.83.85c-3.17-.32-6.34-.68-9.51-1-1-.11-1.25.23-1,1.14.21.68.32,1.39.54,2.07s.6,1.54.83,2.1l2.07.2c-.62,1.36-.36,2.15.81,2.79.74.4,1.53.73,2.56,1.22.37-.55.72-1.17,1.17-1.72.31-.37.76-.89,1.14-.89s.75.59,1.09,1,.54.85.67.81a2.31,2.31,0,0,0,1.36-.78c.26-.49-.18-.8-.76-1a1.42,1.42,0,0,1-.83-1c0-.34.38-1,.66-1a1.89,1.89,0,0,1,1.26.54c.23.19.27.63.4,1a3.05,3.05,0,0,1,.52,0c1.25.28,1.38.66.66,1.73-.22.33-.31.75-.54,1.07S80.61,113.56,80.23,114ZM77.79,14.28a3.12,3.12,0,0,1,.62-.31c1.81-.28,3.62-.59,5.44-.81,2.06-.23,4.12-.36,6.18-.56q5.76-.54,11.5-1.12c2.76-.28,5.51-.75,8.27-.88,3.32-.15,6.54-1,9.83-1.32,5.84-.62,11.63-1.71,17.44-2.59,2.41-.36,4.81-.72,7.21-1.05,1.85-.25,2.52.53,2.39,2.42a18.54,18.54,0,0,0,.18,3.32c.11,1.07.37,2.12.47,3.19.22,2.57.19,2.57,2.77,2.18l.13,0c.89-.17,1.18-.53.93-1.42a45.28,45.28,0,0,1-1.21-8.89c-.24-2.8-6.06-1.77-7.56-2A22.23,22.23,0,0,0,139,4.22c-1.88,0-3.76.22-5.65.32s-3.77.17-5.65.25a4.39,4.39,0,0,1-.81,0c-3.15-.39-6.16.61-9.23,1-2.26.28-4.47.89-6.72,1.32-2.56.5-5.13.94-7.69,1.43a48.28,48.28,0,0,1-6.91,1.1c-1.8.1-3.56.89-5.36,1.25-2.51.52-5,.93-7.56,1.37-1.81.32-3.61.68-5.44.89-1.64.19-3.33,0-5,.3a75.9,75.9,0,0,0-7.74,1.74,6.85,6.85,0,0,0-3.55,2.69,9.57,9.57,0,0,0,2.9-.3c2.53-.72,5-1.62,7.57-2.27a17.16,17.16,0,0,1,4-.32c.51,0,1.3,0,1.41,1-5.27.66-10.12,2.54-15.08,4.26A7.26,7.26,0,0,0,64,21.35a9.53,9.53,0,0,1,2.32,1.56,40.42,40.42,0,0,1,2.73,4c.44.68.8,1.41,1.24,2.08a1.79,1.79,0,0,0,1.89.86A85.76,85.76,0,0,0,82.63,28c.35-.07.69-.5.9-.84a2.91,2.91,0,0,1,2.34-1.59c2.73-.24,5.46-.45,8.18-.77,3.35-.4,6.69-.89,10-1.37,1.38-.2,2.75-.45,4.12-.73,2.33-.46,4.65-1,7-1.45.74-.15,1.51-.22,2.26-.35,2.79-.49,5.57-1,8.36-1.48,2.31-.4,4.61-.81,6.92-1.17,1.95-.3,3.9-.62,5.87-.79s3.85-.18,5.78-.21c.89,0,1.3-.5,1.2-1.26-.29-2.26-.63-4.52-1-6.76A1.43,1.43,0,0,0,143,8c-1.12.1-2.24.26-3.35.42-2.31.35-4.6.77-6.92,1.06-4.69.59-9.39,1.1-14.08,1.66-5.27.62-10.53,1.33-15.8,1.89S92.32,14,87.09,14.54c-2.14.22-4.25.7-6.39.92A2.64,2.64,0,0,1,77.79,14.28ZM61,55.57l-.62.28c1.59,10.39,1.67,21,4.61,31.2.29-.13.64-.33,1-.46.55-.21,1.14-.24,1.29.48a.94.94,0,0,1-.9,1.23c-.44.06-.88,0-1.5.08l.43,2.75c.76.11,1.53,0,1.79.31a1.59,1.59,0,0,0,1.8.46c.53-.1,1-.17,1.22.45.08.29,0,.84-.22.93-.44.23-1.3.48-1.42.31-.76-1-1.84-.59-3-.92a14.51,14.51,0,0,0,.59,1.69c.11.24.52.6.62.55,1.16-.6,1.81.3,2.51.87,1.19-.83,2.82-1,3.17-2.73.09-.48,1.31-.43,1.8,0s.48.9-.14,1.29-.4.9,0,1.34c.84.88,2.07,1,3.55.39-.09-.58-.24-1.18-.28-1.8,0-.31.08-.88.21-.9.4-.08,1.08-.09,1.21.13a1.31,1.31,0,0,0,1.66.71,1.11,1.11,0,0,1,.93.55c.08.19-.26.65-.5.91a3.55,3.55,0,0,1-.82.51l.15.28a11.14,11.14,0,0,0,5.52-2.13c-.38-.64-1-1.29-.89-1.59.34-.74.09-1.11-.32-1.64a1.06,1.06,0,0,1,.1-1A1.43,1.43,0,0,1,85.79,90c.9.39.81,1.17.56,1.83l1.22,1.78,1.29-1c-.82-.47-1.87-.66-1.6-1.8.07-.28.62-.6,1-.63a1.4,1.4,0,0,1,1,.5,7.59,7.59,0,0,1,.64,1.63l2-.63c-.06-.91-.09-1.8-.18-2.68s-.37-1.43-1.36-1.55c-.44-.05-.83-.51-1.44-.92a10.42,10.42,0,0,0,1.45-1,1.36,1.36,0,0,0,.5-.91c-.12-1.2-.33-2.4-.56-3.58-.26-1.36-.66-2.7-.87-4.07C89,74,88.65,71,88.19,68c-.52-3.41-1.1-6.81-1.68-10.21a3.92,3.92,0,0,0-.29-.75c-2.33.48-4.15,2.06-6.5,2.24-1.78.13-3.56.53-5.34.53a27.9,27.9,0,0,1-8-1.66,10.72,10.72,0,0,1-1.79-.59C63.37,57,62.2,56.25,61,55.57Zm23.87-5.25c-1.44.17-2.65.27-3.84.46-4.1.64-8.11,1.41-12.34.28a42,42,0,0,1-8.2-3.26L59,47c.22,1.28.35,2.23.53,3.17a4.94,4.94,0,0,0,2.61,3.58,54.31,54.31,0,0,0,6.4,2.79,16.54,16.54,0,0,0,12.37,0c1.39-.58,2.77-1.2,4.12-1.88a1.19,1.19,0,0,0,.53-1C85.41,52.56,85.12,51.44,84.88,50.32ZM78.74,102.4v.1a25.66,25.66,0,0,0,2.92-.42A23.22,23.22,0,0,1,85.25,101,8.18,8.18,0,0,0,89,99.73c.53-.33,1-.93,1.54-1.06,1.9-.43,2.12-1.61,1.9-3.28-.17-1.21-.23-1.38-1.34-.88-1.63.74-3.22,1.59-4.89,2.24-2.56,1-5.12,2-8,1.7a19.35,19.35,0,0,0-3.23,0,18.81,18.81,0,0,1-6.51-.6,3.69,3.69,0,0,0-1.33-.07,1,1,0,0,0-.61.42A4.23,4.23,0,0,0,67.79,101a38.8,38.8,0,0,0,5.44,1.4A44,44,0,0,0,78.74,102.4Zm-10.25-71c-.37-3.55-5.48-9.82-8.28-9.76a4.49,4.49,0,0,0,1,3.38c.59,1,1.23,1.88,1.85,2.81A8.17,8.17,0,0,0,68.49,31.37Zm14.43-1.66a3.21,3.21,0,0,
0-.71-.13c-3.4.6-6.59,2.14-10.1,2.2-.15,0-.43.27-.42.4a.88.88,0,0,0,.33.65,7.58,7.58,0,0,0,1.39.47A8.29,8.29,0,0,0,82,31.14,8.58,8.58,0,0,0,82.92,29.71ZM66.29,12.89c-2.34-.35-4.18.68-5.83,2.1-1.2,1-1.77,2.54-1.4,3.5C60.54,15.35,63.15,13.79,66.29,12.89ZM76.7,113.05l-.37,0-.68,1.13,1.28-.26Zm-4.31-16.6V96.2h-.82v.25Z" transform="translate(-55.44 -1.55)"/><path d="M133.23,109.69c-.73.06-1.45.08-1.68,1,0,.19-.49.43-.71.4-2.05-.25-4.08-.56-6.15-.86-.28-.7.28-1.93-1.11-1.92-1.1,0-1.27.8-1.26,1.83l-4.69-.36c-.29-.81.15-2-1.14-2-1.08,0-1.33.87-1.39,1.9-3.67,0-6.86-1.45-10.13-2.74.09-.44.18-.74.21-1,.1-.9-.38-1.36-1.27-1.24-.67.08-1.34.15-2,.26-.25,0-.6.11-.72.29-.88,1.32-2.16,1-3.4.87a12.57,12.57,0,0,1-1.44-.35,1.41,1.41,0,0,0-1.85.91,1.09,1.09,0,0,1-.17.36l-4.19,3.76-1.68-1.29c0-.09,0-.15,0-.17,1.07-.94,1.26-1.44.72-2a2.13,2.13,0,0,0-2.74.21c-1.28,1.53-1.24,1.48.41,2.62a6.51,6.51,0,0,1,1.25,1.69c-1.06,1.2-2.56.48-3.8,1.17a5,5,0,0,1,0-.89c.1-.46.26-1-.37-1.07a1.8,1.8,0,0,0-1.27.46c-.25.23-.24.74-.35,1.12a1.81,1.81,0,0,1-2.11,1.29l0,0a16.17,16.17,0,0,0,1.13-1.21c.23-.32.32-.74.54-1.07.72-1.07.59-1.45-.66-1.73a3.05,3.05,0,0,0-.52,0c-.13-.37-.17-.81-.4-1a1.89,1.89,0,0,0-1.26-.54c-.28,0-.69.68-.66,1a1.42,1.42,0,0,0,.83,1c.58.18,1,.49.76,1a2.31,2.31,0,0,1-1.36.78c-.13,0-.42-.55-.67-.81s-.72-.94-1.09-1-.83.52-1.14.89c-.45.55-.8,1.17-1.17,1.72-1-.49-1.82-.82-2.56-1.22-1.17-.64-1.43-1.43-.81-2.79l-2.07-.2c-.23-.56-.57-1.32-.83-2.1s-.33-1.39-.54-2.07c-.28-.91,0-1.25,1-1.14,3.17.36,6.34.72,9.51,1a15,15,0,0,0,5.83-.85,51.65,51.65,0,0,0,5.28-1.53,25.31,25.31,0,0,0,4.88-2.83,7.78,7.78,0,0,0,1.66-2.4.76.76,0,0,0-.11-.73c-1.35-1.09-1.29-2.7-1.61-4.17-.66-3-1.35-6-2-9.07-.29-1.45-.39-2.94-.62-4.4q-.78-5-1.62-10c-.38-2.21-.8-4.41-1.22-6.62-.47-2.51-1-5-1.43-7.54-.55-3.32-.94-6.67-1.54-10a22.2,22.2,0,0,0-1.62-6c-1,.56-.78,1.4-.7,2.09.26,2.19.62,4.36.94,6.54,0,.13,0,.26,0,.57-.9.15-1.8.28-2.7.46-1.45.29-2.89.67-4.35.9-1.64.27-3.3.41-5,.6a1.08,1.08,0,0,1-.4,0c-3.65-1.12-7.59-1.34-10.77-3.91a6,6,0,0,1-2.64-5.09c.07-4.66-.07-9.33-.14-14a6.59,6.59,0,0,0-.27-1c-.07-.35-.1-.71-.15-1.07l.31-.13a7.53,7.53,0,0,1,.65.73c1.18,1.73,2.27,3.54,3.55,5.21a6.41,6.41,0,0,0,3.53,2.32,8.79,8.79,0,0,1,2.48.92c1.88,1.17,4,1.51,6,2.2a3.56,3.56,0,0,0,.92.17A9.76,9.76,0,0,0,84.71,30a3.14,3.14,0,0,1,2.64-2.32c2-.24,4-.68,6-1,4-.56,8.05-.93,12-1.64,5.52-1,11-2.31,16.51-3.34,3.22-.6,6.53-.77,9.74-1.42,3.41-.69,6.87-.67,10.3-1.05,2.28-.25,4.56-.44,6.85-.63,1-.08,5.81.17,6.71.27,2.07.23,2.55,1.89,3.42,3.22.53.83.93,1.74,1.42,2.6A13.08,13.08,0,0,1,162,31.45a78.82,78.82,0,0,0,.8,11.28c.34,2.54.43,5.1.64,7.66.22,2.72.46,5.43.68,8.15s.26,5.22.68,7.78c.72,4.38,1.67,8.72,2.53,13.08.47,2.38,1,4.75,1.41,7.13.27,1.45.53,2.91.68,4.37s.11,2.68.18,4c.15,2.9.32,5.81.46,8.71,0,.74,0,1.49,0,2.14-.75.4-1.79-.56-1.93.69s1,1.39,1.86,1.74v2.34c-.81-.52-1-1.83-2-1.22-.31.19-.18,1.07-.25,1.63l.3.14a4.35,4.35,0,0,1-.87.52c-2.73.88-5.59.87-8.41,1.12a1.67,1.67,0,0,1-1.15-.23c-1-.94-1.86-.62-2.81-.06a7.33,7.33,0,0,1-.82.27c.44-.84.7-1.44,1-2s.29-1.1-.3-1.33a5.12,5.12,0,0,0-2.06-.41c-.58,0-.85.55-.77,1.21.11.83.13,1.67.2,2.64h-2.71c.18-1.82-1.41-2.15-2.36-2.94-.52-.45-1,.13-1.17.83-.4,1.82-1.52,2.18-3.4.91.46,0,.68,0,.9.09,1,.17,1.27,0,1.42-1a1.67,1.67,0,0,1,1.78-1.6c.22,0,.54.08.66,0A2.29,2.29,0,0,0,148,108a1.18,1.18,0,0,0-.72-.89,2,2,0,0,1-1.46-.9c-.26-.36-1.09-.36-1.67-.4a1.45,1.45,0,0,0-.26,1c.2.37.7.59,1,.83a6.32,6.32,0,0,0-1.6.89,7.87,7.87,0,0,0-1,1.79c-1.64-.83-1.67,1.19-2.58,1.56l-1.05-2.74c.25-.56,1-.52,1.78-.64a1,1,0,0,0,.92-1.47,1.19,1.19,0,0,0-1.56-.85,5.63,5.63,0,0,0-1.14,1A3.48,3.48,0,0,0,138,107c-.75-.14-1.48.53-1.15,1.17a4.64,4.64,0,0,1,.54,2.35c0,.32.29.64.53,1.13-1.57.44-2.95-.16-4.39-.31-.1-.61-.19-1.14-.29-1.66a3.06,3.06,0,0,0,1.17.24c.71-.15,1.82-.31,2-.75.32-.89-.78-1-1.39-1.21s-1.66-.45-2.1-.12C132.13,108.37,133,109.07,133.23,109.69Zm-22-3.49c-1.2-.45-2.41.12-3.3-.83-.12-.12-.83.15-1.11.41a1.07,1.07,0,0,0,0,.93c1.1.45,2.23.81,3.35,1.18.1,0,.28-.08.36-.17.41-.49.79-.3,1.3-.09,1,.43,1.64,0,1.61-1.17a3.42,3.42,0,0,0-.33-1.29,1.25,1.25,0,0,0-1.67-.72C110.66,104.75,110.79,105.4,111.23,106.2Zm18.59-1.12c.09-.89-.1-1.56-1-1.86-.73-.25-1.43-.62-2.17-.86-.24-.08-.56.07-.84.11a2.74,2.74,0,0,0,.2.82,5,5,0,0,0,.59.64c.42.51.81,1,1.39,1.75,0,1.31.11,1.44,1.73,1.22a10.51,10.51,0,0,0,1.59-.24c.28-.09.73-.47.69-.6a1.44,1.44,0,0,0-.67-.85A5.42,5.42,0,0,0,129.82,105.08Zm25.16-.91a5.26,5.26,0,0,0-1.7-.29,2.33,2.33,0,0,1-2.25-.43,1.22,1.22,0,0,0-1.2,0c-.23.22-.19.83-.09,1.22a1.61,1.61,0,0,0,.7.77C152,106.45,153.44,106.09,155,104.17Zm9.19,6.41a13,13,0,0,0,1.83-.9c.26-.18.34-.6.51-.92-.29-.15-.61-.46-.86-.42-1.29.24-2.53.49-3.63-.58-.15-.14-.84,0-1,.24s-.12,1,.05,1C162.12,109.58,163.52,109.32,164.17,110.58ZM106.75,103a2,2,0,0,0-2.45-1.65,1.08,1.08,0,0,0-.55,1.54,7.89,7.89,0,0,0,1.61,1.55c.62.44,1.09.16,1.25-.58C106.68,103.59,106.72,103.28,106.75,103Zm51.93,2.09c-.12.13-.65.42-.68.75-.11,1.11.63,2.24,1.28,2.22s2-1.14,2-1.71S160,105.09,158.68,105.13Zm-40.66.76c.93-.23,1.66-.47,2.41-.58s1.18-.24,1.14-1c0-.52-.9-.9-1.55-.72a8.22,8.22,0,0,0-1.86.58,2,2,0,0,0-.81,1.07C117.3,105.37,117.83,105.71,118,105.89Zm-18.13-1.24a14.53,14.53,0,0,0,.26-1.73c0-.82-.67-1-1.27-1.11s-1.37-.08-1.58.83a1.22,1.22,0,0,0,.8,1.5A13.11,13.11,0,0,0,99.89,104.65Zm19.9,3.66,2.56-.22a.6.6,0,0,0,.27,0,1.65,1.65,0,0,0,.61-.44c.08-.11,0-.43-.18-.57-.33-.37-2.93-.77-3.32-.45a1.49,1.49,0,0,0-.59,1C119.17,107.92,119.65,108.18,119.79,108.31Zm-44,1.22a24.67,24.67,0,0,0-1.64-2.13c-.11-.13-.68,0-1,.22a.73.73,0,0,0-.16.7,11.63,11.63,0,0,0,1.14,1.8.88.88,0,0,0,.81.2C75.3,110.21,75.49,109.87,75.82,109.53Zm17.26-4.13c-.43-.6-.72-1.43-1.18-1.54-.83-.21-.74.79-1,1.29a.35.35,0,0,0-.05.13,5.81,5.81,0,0,0,.37,1.33.81.81,0,0,0,.8.12A8.63,8.63,0,0,0,93.08,105.4ZM156,106.66c-1,.16-1.58.28-1.62,1.1a1.29,1.29,0,0,0,1.23,1.32c.62,0,1.41-.77,1.23-1.32A3.85,3.85,0,0,0,156,106.66Zm-19.52-6.49c.84.66,2.08.91,2.59.43a1.12,1.12,0,0,0,.26-1,1.83,1.83,0,0,0-1.15-.7A1.47,1.47,0,0,0,136.5,100.17Zm24.33,10.52,0-.49a4.18,4.18,0,0,0-1.38-.64c-.65,0-1.38.26-1.22,1,.09.43.76,1.08,1.11,1C159.84,111.6,160.33,111,160.83,110.69ZM114.11,98.83c-.64.22-1.16.35-1.65.57s-.59.61-.21,1.09c.67.82,1.18.76,2.25-.36.19-.19.44-.59.36-.74S114.35,99,114.11,98.83Zm43,2.73,1.19-1c-.4-.41-.73-1-1.22-1.2s-1.1.3-1.2,1S156.28,101.27,157.06,101.56Zm-51-13a.73.73,0,0,0-.86.85c0,.59.12,1.33.89,1.22a2.27,2.27,0,0,0,1.43-.93C107.75,89.37,106.8,88.62,106,88.61ZM135.89,100c-.14-.82-.37-1.14-1-1.15s-1.23.31-1.27,1.07a.94.94,0,0,0,1.14,1C135.16,100.89,135.51,100.36,135.89,100Zm4.52-6.1v-.42a3.59,3.59,0,0,0-1-.6,1,1,0,0,0-1.28.9c-.12.56.25,1,.75.85A7.6,7.6,0,0,0,140.41,93.94Zm2.83,5.59c-.46.58-.93.91-.93,1.24,0,.72.67.93,1.25.84.33,0,.6-.49.9-.76Zm-24-2.27c-.52.48-1.11.78-1.14,1.13-.08.79.7.86,1.24.81s.77-.42,1.15-.65Zm42.85,7.61a6.87,6.87,0,0,0,1.7,0c.2-.06.39-.68.33-1a1,1,0,0,0-.76-.55C162.52,103.26,162.24,103.86,162.09,104.87Zm-11.94-7.13c0-1-.49-1.32-1.11-1.29a1,1,0,0,0-.77.67.94.94,0,0,0,1,1.11C149.61,98.22,149.93,97.87,150.15,97.74Zm-38.7,1.61c.3-.52.64-.85.62-1.14a1,1,0,0,0-1.23-.89c-.28.05-.72.65-.69.7A14.18,14.18,0,0,0,111.45,99.35Zm55.47,4.92c-.48.6-1,1-1,1.36s.57.62.88.94a4.49,4.49,0,0,0,.94-1.13C167.8,105.24,167.33,104.84,166.92,104.27Zm-56.1-8.75c.4-.65.77-1,.8-1.35a.71.71,0,0,0-1-.77c-.38.11-.68.52-1,.79Zm14.72.65c.73,1,1.45,1.28,1.86.82a1.05,1.05,0,0,0,0-1C126.88,95.29,126.31,95.36,125.54,96.17ZM72.31,108.93c-.34.5-.68.77-.71,1.08,0,.47,0,1.14.71,1,.38-.06,1-.54,1-.85S72.76,109.49,72.31,108.93Zm13.41-4.69c-.33.55-.72.91-.67,1.2s.58.82.79.77a3.94,3.94,0,0,0,1.15-.82Zm19-14.07a10.09,10.09,0,0,0-1.67-.91c-.12,0-.6.47-.58.7a1,1,0,0,0,1.2,1C104,90.91,104.21,90.59,104.76,90.17Zm24.58,19.56.87-1c-.38-.26-.74-.67-1.14-.71-.24,0-.54.54-.81.84ZM99,99.72v-.37c-.34-.21-.71-.62-1-.57s-.66.52-1,.8c.28.23.56.65.83.64A3.48,3.48,0,0,0,99,99.72Zm66.54-.29c-.51-.36-.87-.79-1.08-.73s-.59.53-.89.82c.29.22.57.61.86.62S165.06,99.78,165.57,99.43ZM83.42,107.3l1-.83c-.24-.26-.52-.76-.71-.73a1.69,1.69,0,0,0-.89.71C82.73,106.53,83.13,106.92,83.42,107.3ZM98.69,96c-.44-.26-.75-.57-.89-.5a3.48,3.48,0,0,0-.79.75c.24.2.53.61.71.57S98.26,96.33,98.69,96Zm-28.8,9.8c.23.24.38.52.5.51s.39-.23.59-.35c-.12-.16-.22-.44-.34-.45A2.12,2.12,0,0,0,69.89,105.75Z" transform="translate(-55.44 -1.55)" fill="#ca3333"/><path d="M77.79,14.28a2.64,2.64,0,0,0,2.91,1.18c2.14-.22,4.25-.7,6.39-.92,5.23-.53,10.48-.91,15.71-1.47s10.53-1.27,15.8-1.89c4.69-.56,9.39-1.07,14.08-1.66,2.32-.29,4.61-.71,6.92-1.06,1.11-.16,2.23-.32,3.35-.42a1.43,1.43,0,0,1,1.57,1.22c.42,2.24.76,4.5,1,6.76.1.76-.31,1.25-1.2,1.26-1.93,0-3.86,0-5.78.21s-3.92.49-5.87.79c-2.31.36-4.61.77-6.92,1.17-2.79.48-5.57,1-8.36,1.48-.75.13-1.52.2-2.26.35-2.33.47-4.65,1-7,1.45-1.37.28-2.74.53-4.12.73-3.34.48-6.68,1-10,1.37-2.72.32-5.45.53-8.18.77a2.91,2.91,0,0,0-2.34,1.59c-.21.34-.55.77-.9.84a85.76,85.76,0,0,1-10.45,1.79A1.79,1.79,0,0,1,70.29,29c-.44-.67-.8-1.4-1.24-2.08a40.42,40.42,0,0,0-2.73-4A9.53,9.53,0,0,0,64,21.35a7.26,7.26,0,0,1-1.44-1.1c5-1.72,9.81-3.6,15.08-4.26-.11-1-.9-1-1.41-1a17.16,17.16,0,0,0-4,.32c-2.55.65-5,1.55-7.57,2.27a9.57,9.57,0,0,1-2.9.3,6.85,6.85,0,0,1,3.55-2.69,75.9,75.9,0,0,1,7.74-1.74c1.62-.27,3.31-.11,5-.3,1.83-.21,3.63-.57,5.44-.89,2.52-.44,5-.85,7.56-1.37,1.8-.36,3.56-1.15,5.36-1.25a48.28,48.28,0,0,0,6.91-1.1c2.56-.49,5.13-.93,7.69-1.43,2.25-.43,4.46-1,6.72-1.32,3.07-.39,6.08-1.39,9.23-1a4.39,4.39,0,0,0,.81,0c1.88-.08,3.77-.15,5.65-.25s3.77-.28,5.65-.32c1.12,0,10.68-.6,10.92,2.2a45.28,45.28,0,0,0,1.21,8.89c.25.89,0,1.25-.93,1.42l-.13,0c-2.58.39-2.55.39-2.77-2.18-.1-1.07-.36-2.12-.47-3.19a18.54,18.54,0,0,1-.18-3.32c.13-1.89-.54-2.67-2.39-2.42-2.4.33-4.8.69-7.21,1.05-5.81.88-11.6,2-17.44,2.59-3.29.35-6.51,1.17-9.83,1.32-2.76.13-5.51.6-8.27.88q-5.75.58-11.5,1.12c-2.06.2-4.12.33-6.18.56-1.82.22-3.63.53-5.44.81A3.12,3.12,0,0,0,77.79,14.28Zm50.08,2V16a6.27,6.27,0,0,0-1.12-.15c-1.44,0-2.88,0-4.32.13-2.56.15-5.12.28-7.66.57q-5.69.67-11.34,1.58c-2.57.41-5.11,1.05-7.67,1.52-3.8.69-7.62,1.28-11.43,2-3.4.61-6.8,1.26-10.2,1.91a1.48,1.48,0,0,0-.8.42,1.16,1.16,0,0,0-.29.93,1.13,1.13,0,0,0,.86.44A5.69,5.69,0,0,0,75.21,25c3.3-.85,6.59-1.82,9.93-2.52,6.11-1.28,12.27-2.36,18.4-3.59a142.47,142.47,0,0,1,22.28-2.35C126.5,16.48,127.18,16.34,127.87,16.26ZM96.9,17l0-.41a3.23,3.23,0,0,0-.59-.22,21.78,21.78,0,0,0-8.7.16c-3.82.72-7.59,1.72-11.39,2.6-2.18.5-4.36,1-6.53,1.5A1.68,1.68,0,0,0,68.19,22a7.32,7.32,0,0,0,1.25,0c1.14-.22,2.28-.47,3.41-.73,2.23-.52,4.46-1,6.67-1.59,5.21-1.4,10.41-2.79,15.89-2.5A9.55,9.55,0,0,0,96.9,17Zm15.25-2.8a2,2,0,0,0,2.47.95c2.58-.32,5.16-.72,7.73-1.12,1.15-.18,2.27-.51,3.42-.64,3-.34,6.08-.61,9.12-.9,
1.52-.15,3-.3,4.56-.49.25,0,.47-.28.7-.43-.16-.18-.29-.46-.49-.52a3.49,3.49,0,0,0-1.07-.05c-1.12.09-2.24.18-3.36.3l-11.38,1.32c-3.07.36-6.15.73-9.22,1.11C113.86,13.86,113.09,14.05,112.15,14.23Z" transform="translate(-55.44 -1.55)" fill="#ffffca"/><path d="M61,55.57c1.19.68,2.36,1.4,3.58,2a10.72,10.72,0,0,0,1.79.59,27.9,27.9,0,0,0,8,1.66c1.78,0,3.56-.4,5.34-.53,2.35-.18,4.17-1.76,6.5-2.24a3.92,3.92,0,0,1,.29.75c.58,3.4,1.16,6.8,1.68,10.21.46,3,.79,5.94,1.25,8.9.21,1.37.61,2.71.87,4.07.23,1.18.44,2.38.56,3.58a1.36,1.36,0,0,1-.5.91,10.42,10.42,0,0,1-1.45,1c.61.41,1,.87,1.44.92,1,.12,1.27.74,1.36,1.55s.12,1.77.18,2.68l-2,.63a7.59,7.59,0,0,0-.64-1.63,1.4,1.4,0,0,0-1-.5c-.36,0-.91.35-1,.63-.27,1.14.78,1.33,1.6,1.8l-1.29,1-1.22-1.78c.25-.66.34-1.44-.56-1.83a1.43,1.43,0,0,0-1.18.09,1.06,1.06,0,0,0-.1,1c.41.53.66.9.32,1.64-.14.3.51,1,.89,1.59a11.14,11.14,0,0,1-5.52,2.13l-.15-.28a3.55,3.55,0,0,0,.82-.51c.24-.26.58-.72.5-.91a1.11,1.11,0,0,0-.93-.55,1.31,1.31,0,0,1-1.66-.71c-.13-.22-.81-.21-1.21-.13-.13,0-.24.59-.21.9,0,.62.19,1.22.28,1.8-1.48.65-2.71.49-3.55-.39-.42-.44-.69-.91,0-1.34s.66-.81.14-1.29-1.71-.51-1.8,0c-.35,1.76-2,1.9-3.17,2.73-.7-.57-1.35-1.47-2.51-.87-.1,0-.51-.31-.62-.55a14.51,14.51,0,0,1-.59-1.69c1.15.33,2.23-.13,3,.92.12.17,1-.08,1.42-.31.19-.09.3-.64.22-.93-.17-.62-.69-.55-1.22-.45a1.59,1.59,0,0,1-1.8-.46c-.26-.32-1-.2-1.79-.31l-.43-2.75c.62,0,1.06,0,1.5-.08a.94.94,0,0,0,.9-1.23c-.15-.72-.74-.69-1.29-.48-.38.13-.73.33-1,.46-2.94-10.23-3-20.81-4.61-31.2ZM80.74,90c-.16-.22-.34-.67-.57-.7a2.74,2.74,0,0,0-1.34.23c-.46.17-.84.61-1.3.71-.78.15-.92.6-.81,1.25s.67,1.11,1.24.83a17.69,17.69,0,0,0,2.56-1.69C80.63,90.5,80.64,90.26,80.74,90ZM68.34,85.4l.14-.2c.45,0,.89-.06,1.34-.12a.89.89,0,0,0,.8-1.16c-.09-.65-.57-.75-1.11-.62a5.85,5.85,0,0,0-1.4.43,3.49,3.49,0,0,0-.78.8ZM75,85.29c.52-.59,1.08-.94,1.15-1.36.11-.72-.55-1-1.18-1s-1.23.36-1.12,1C73.89,84.4,74.44,84.72,75,85.29Zm1.72,2.59c0-.91-.42-1.27-1.1-1.29a1,1,0,0,0-1,1,1.25,1.25,0,0,0,1.22,1.19C76.4,88.71,76.71,88.33,76.69,87.88Zm-7.14.36c-.63.49-1.21.72-1.33,1.1a.77.77,0,0,0,.89,1,1.83,1.83,0,0,0,1.16-.8C70.37,89.38,69.91,88.85,69.55,88.24Zm11.11-4.31a6.34,6.34,0,0,0-1,1.47c0,.16.57.75.83.71a1.38,1.38,0,0,0,1-.76C81.52,85,81.07,84.62,80.66,83.93ZM73.3,88.1c-.53-.47-.79-.89-1.14-1s-.55.39-.84.62a3.54,3.54,0,0,0,.89.77C72.41,88.61,72.75,88.33,73.3,88.1ZM66,78.77c-.6-.42-.9-.77-1.26-.84-.19,0-.48.4-.73.62.3.26.55.63.89.75S65.45,79.06,66,78.77Z" transform="translate(-55.44 -1.55)" fill="#972626"/><path d="M84.88,50.32c.24,1.12.53,2.24.69,3.38a1.19,1.19,0,0,1-.53,1c-1.35.68-2.73,1.3-4.12,1.88a16.54,16.54,0,0,1-12.37,0,54.31,54.31,0,0,1-6.4-2.79,4.94,4.94,0,0,1-2.61-3.58c-.18-.94-.31-1.89-.53-3.17l1.49.76a42,42,0,0,0,8.2,3.26c4.23,1.13,8.24.36,12.34-.28C82.23,50.59,83.44,50.49,84.88,50.32Z" transform="translate(-55.44 -1.55)" fill="#ffca00"/><path d="M78.74,102.4a44,44,0,0,1-5.51-.05,38.8,38.8,0,0,1-5.44-1.4,4.23,4.23,0,0,1-1.21-2.74,1,1,0,0,1,.61-.42,3.69,3.69,0,0,1,1.33.07,18.81,18.81,0,0,0,6.51.6,19.35,19.35,0,0,1,3.23,0c2.85.28,5.41-.72,8-1.7,1.67-.65,3.26-1.5,4.89-2.24,1.11-.5,1.17-.33,1.34.88.22,1.67,0,2.85-1.9,3.28-.56.13-1,.73-1.54,1.06A8.18,8.18,0,0,1,85.25,101a23.22,23.22,0,0,0-3.58,1.08,25.66,25.66,0,0,1-2.92.42Z" transform="translate(-55.44 -1.55)" fill="#0d844d"/><path d="M68.49,31.37A8.17,8.17,0,0,1,63,27.8c-.62-.93-1.26-1.86-1.85-2.81a4.49,4.49,0,0,1-1-3.38C63,21.55,68.12,27.82,68.49,31.37Z" transform="translate(-55.44 -1.55)" fill="#b02441"/><path d="M82.92,29.71a8.58,8.58,0,0,1-1,1.43,8.29,8.29,0,0,1-8.55,2.16A7.58,7.58,0,0,1,72,32.83a.88.88,0,0,1-.33-.65c0-.13.27-.4.42-.4,3.51-.06,6.7-1.6,10.1-2.2A3.21,3.21,0,0,1,82.92,29.71Z" transform="translate(-55.44 -1.55)" fill="#841b31"/><path d="M66.29,12.89c-3.14.9-5.75,2.46-7.23,5.6-.37-1,.2-2.47,1.4-3.5C62.11,13.57,64,12.54,66.29,12.89Z" transform="translate(-55.44 -1.55)" fill="#841b31"/><path d="M76.7,113.05l.23.89-1.28.26.68-1.13Z" transform="translate(-55.44 -1.55)" fill="#fff"/><path d="M72.39,96.45h-.82V96.2h.82Z" transform="translate(-55.44 -1.55)" fill="#fff"/><path d="M80.25,113.94l-1.17.41-.07-.46,1.22.07Z" transform="translate(-55.44 -1.55)" fill="#fff"/><path d="M111.23,106.2c-.44-.8-.57-1.45.22-1.75a1.25,1.25,0,0,1,1.67.72,3.42,3.42,0,0,1,.33,1.29c0,1.15-.56,1.6-1.61,1.17-.51-.21-.89-.4-1.3.09-.08.09-.26.2-.36.17-1.12-.37-2.25-.73-3.35-1.18a1.07,1.07,0,0,1,0-.93c.28-.26,1-.53,1.11-.41C108.82,106.32,110,105.75,111.23,106.2Z" transform="translate(-55.44 -1.55)"/><path d="M129.82,105.08a5.42,5.42,0,0,1,1.51.13,1.44,1.44,0,0,1,.67.85c0,.13-.41.51-.69.6a10.51,10.51,0,0,1-1.59.24c-1.62.22-1.77.09-1.73-1.22-.58-.73-1-1.24-1.39-1.75a5,5,0,0,1-.59-.64,2.74,2.74,0,0,1-.2-.82c.28,0,.6-.19.84-.11.74.24,1.44.61,2.17.86C129.72,103.52,129.91,104.19,129.82,105.08Z" transform="translate(-55.44 -1.55)"/><path d="M155,104.17c-1.54,1.92-3,2.28-4.54,1.28a1.61,1.61,0,0,1-.7-.77c-.1-.39-.14-1,.09-1.22a1.22,1.22,0,0,1,1.2,0,2.33,2.33,0,0,0,2.25.43A5.26,5.26,0,0,1,155,104.17Z" transform="translate(-55.44 -1.55)"/><path d="M164.17,110.58c-.65-1.26-2-1-3.09-1.54-.17-.09-.21-.8-.05-1s.84-.38,1-.24c1.1,1.07,2.34.82,3.63.58.25,0,.57.27.86.42-.17.32-.25.74-.51.92A13,13,0,0,1,164.17,110.58Z" transform="translate(-55.44 -1.55)"/><path d="M106.75,103c0,.24-.07.55-.14.86-.16.74-.63,1-1.25.58a7.89,7.89,0,0,1-1.61-1.55,1.08,1.08,0,0,1,.55-1.54A2,2,0,0,1,106.75,103Z" transform="translate(-55.44 -1.55)"/><path d="M158.68,105.13c1.33,0,2.61.68,2.61,1.26s-1.31,1.68-2,1.71-1.39-1.11-1.28-2.22C158,105.55,158.56,105.26,158.68,105.13Z" transform="translate(-55.44 -1.55)"/><path d="M118,105.89c-.19-.18-.72-.52-.67-.66a2,2,0,0,1,.81-1.07,8.22,8.22,0,0,1,1.86-.58c.65-.18,1.52.2,1.55.72,0,.77-.49.91-1.14,1S119,105.66,118,105.89Z" transform="translate(-55.44 -1.55)"/><path d="M133.23,109.69c-.23-.62-1.1-1.32-.38-1.86.44-.33,1.43-.1,2.1.12s1.71.32,1.39,1.21c-.15.44-1.26.6-2,.75a3.06,3.06,0,0,1-1.17-.24Z" transform="translate(-55.44 -1.55)"/><path d="M99.89,104.65a13.11,13.11,0,0,1-1.79-.51,1.22,1.22,0,0,1-.8-1.5c.21-.91,1-.9,1.58-.83s1.29.29,1.27,1.11A14.53,14.53,0,0,1,99.89,104.65Z" transform="translate(-55.44 -1.55)"/><path d="M119.79,108.31c-.14-.13-.62-.39-.65-.69a1.49,1.49,0,0,1,.59-1c.39-.32,3,.08,3.32.45.13.14.26.46.18.57a1.65,1.65,0,0,1-.61.44.6.6,0,0,1-.27,0Z" transform="translate(-55.44 -1.55)"/><path d="M75.82,109.53c-.33.34-.52.68-.81.79a.88.88,0,0,1-.81-.2,11.63,11.63,0,0,1-1.14-1.8.73.73,0,0,1,.16-.7c.28-.17.85-.35,1-.22A24.67,24.67,0,0,1,75.82,109.53Z" transform="translate(-55.44 -1.55)"/><path d="M93.08,105.4A8.63,8.63,0,0,1,92,106.73a.81.81,0,0,1-.8-.12,5.81,5.81,0,0,1-.37-1.33.35.35,0,0,1,.05-.13c.29-.5.2-1.5,1-1.29C92.36,104,92.65,104.8,93.08,105.4Z" transform="translate(-55.44 -1.55)"/><path d="M156,106.66a3.85,3.85,0,0,1,.84,1.1c.18.55-.61,1.3-1.23,1.32a1.29,1.29,0,0,1-1.23-1.32C154.44,106.94,155.07,106.82,156,106.66Z" transform="translate(-55.44 -1.55)"/><path d="M136.5,100.17a1.47,1.47,0,0,1,1.7-1.3,1.83,1.83,0,0,1,1.15.7,1.12,1.12,0,0,1-.26,1C138.58,101.08,137.34,100.83,136.5,100.17Z" transform="translate(-55.44 -1.55)"/><path d="M160.83,110.69c-.5.35-1,.91-1.52,1-.35,0-1-.61-1.11-1-.16-.79.57-1.1,1.22-1a4.18,4.18,0,0,1,1.38.64Z" transform="translate(-55.44 -1.55)"/><path d="M114.11,98.83c.24.16.61.3.75.56s-.17.55-.36.74c-1.07,1.12-1.58,1.18-2.25.36-.38-.48-.29-.85.21-1.09S113.47,99.05,114.11,98.83Z" transform="translate(-55.44 -1.55)"/><path d="M157.06,101.56c-.78-.29-1.34-.48-1.23-1.27s.59-1.16,1.2-1,.82.79,1.22,1.2Z" transform="translate(-55.44 -1.55)"/><path d="M106,88.61c.76,0,1.71.76,1.46,1.14a2.27,2.27,0,0,1-1.43.93c-.77.11-.87-.63-.89-1.22A.73.73,0,0,1,106,88.61Z" transform="translate(-55.44 -1.55)"/><path d="M135.89,100c-.38.32-.73.85-1.15.92a.94.94,0,0,1-1.14-1c0-.76.52-1.07,1.27-1.07S135.75,99.22,135.89,100Z" transform="translate(-55.44 -1.55)"/><path d="M140.41,93.94a7.6,7.6,0,0,1-1.56.73c-.5.1-.87-.29-.75-.85a1,1,0,0,1,1.28-.9,3.59,3.59,0,0,1,1,.6Z" transform="translate(-55.44 -1.55)"/><path d="M143.24,99.53l1.22,1.32c-.3.27-.57.71-.9.76-.58.09-1.25-.12-1.25-.84C142.31,100.44,142.78,100.11,143.24,99.53Z" transform="translate(-55.44 -1.55)"/><path d="M119.24,97.26l1.25,1.29c-.38.23-.75.61-1.15.65s-1.32,0-1.24-.81C118.13,98,118.72,97.74,119.24,97.26Z" transform="translate(-55.44 -1.55)"/><path d="M162.09,104.87c.15-1,.43-1.61,1.27-1.56a1,1,0,0,1,.76.55c.06.32-.13.94-.33,1A6.87,6.87,0,0,1,162.09,104.87Z" transform="translate(-55.44 -1.55)"/><path d="M150.15,97.74c-.22.13-.54.48-.87.49a.94.94,0,0,1-1-1.11,1,1,0,0,1,.77-.67C149.66,96.42,150.13,96.76,150.15,97.74Z" transform="translate(-55.44 -1.55)"/><path d="M111.45,99.35a14.18,14.18,0,0,1-1.3-1.33s.41-.65.69-.7a1,1,0,0,1,1.23.89C112.09,98.5,111.75,98.83,111.45,99.35Z" transform="translate(-55.44 -1.55)"/><path d="M166.92,104.27c.41.57.88,1,.81,1.17a4.49,4.49,0,0,1-.94,1.13c-.31-.32-.91-.66-.88-.94S166.44,104.87,166.92,104.27Z" transform="translate(-55.44 -1.55)"/><path d="M110.82,95.52l-1.19-1.33c.34-.27.64-.68,1-.79a.71.71,0,0,1,1,.77C111.59,94.54,111.22,94.87,110.82,95.52Z" transform="translate(-55.44 -1.55)"/><path d="M125.54,96.17c.77-.81,1.34-.88,1.86-.17a1.05,1.05,0,0,1,0,1C127,97.45,126.27,97.12,125.54,96.17Z" transform="translate(-55.44 -1.55)"/><path d="M72.31,108.93c.45.56,1,.93,1,1.27s-.58.79-1,.85c-.67.1-.76-.57-.71-1C71.63,109.7,72,109.43,72.31,108.93Z" transform="translate(-55.44 -1.55)"/><path d="M85.72,104.24,87,105.39a3.94,3.94,0,0,1-1.15.82c-.21.05-.74-.46-.79-.77S85.39,104.79,85.72,104.24Z" transform="translate(-55.44 -1.55)"/><path d="M104.76,90.17c-.55.42-.78.74-1.05.77a1,1,0,0,1-1.2-1c0-.23.46-.74.58-.7A10.09,10.09,0,0,1,104.76,90.17Z" transform="translate(-55.44 -1.55)"/><path d="M129.34,109.73l-1.08-.9c.27-.3.57-.86.81-.84.4,0,.76.45,1.14.71Z" transform="translate(-55.44 -1.55)"/><path d="M99,99.72a3.48,3.48,0,0,1-1.17.5c-.27,0-.55-.41-.83-.64.33-.28.62-.73,1-.8s.66.36,1,.57Z" transform="translate(-55.44 -1.55)"/><path d="M165.57,99.43c-.51.35-.82.72-1.11.71s-.57-.4-.86-.62c.3-.29.55-.71.89-.82S165.06,99.07,165.57,99.43Z" transform="translate(-55.44 -1.55)"/><path d="M83.42,107.3c-.29-.38-.69-.77-.64-.85a1.69,1.69,0,0,1,.89-.71c.19,0,.47.47.71.73Z" transform="translate(-55.44 -1.55)"/><path d="M98.69,96c-.43.38-.67.74-1,.82s-.47-.37-.71-.57a3.48,3.48,0,0,1,.79-.75C97.94,95.38,98.25,95.69,98.69,96Z" transform="translate(-55.44 -1.55)"/><path d="M69.89,105.75a2.12,2.12,0,0,1,.75-.29c.12,0,.22.29.34.45-.2.12-.39.33-.59.35S70.12,106,69.89,105.75Z" transform="translate(-55.44 -1.55)"/><path d="M127.87,16.26c-.69.08-1.37.22-2.05.25a142.47,142.47,0,0,0-22.28,2.35c-6.13,1.23-12.29,2.31-18.4,3.59-3.34.7-6.63,1.67-9.93,2.52a5.69,5.69,0,0,1-1.32.29,1.13,1.13,0,0,1-.86-.44,1.16,1.16,0,0,1,.29-.93,1.48,1.48,0,0,1,.8-.42c3.4-.65,6.8-1.3,10.2-1.91,3.81-.68,7.63-1.27,11.43-2,2.56-.47,5.1-1.11,7.67-1.52q5.65-.91,11.34-1.58c2.54-.29,5.1-.42,7.66-.57,1.44-.09,2.88-.11,4.32-.13a6.27,6.27,0,0,1,1.12.15Z" transform="translate(-55.44 -1.55)"/><path d="M96.9,17a9.55,9.55,0,0,1-1.49.16c-5.48-.29-10.68,1.1-15.89,2.5-2.21.59-4.44,1.07-6.67,1.59-1.13.26-2.27.51-3.41.73a7.32,7.32,0,0,1-1.25,0,1.68,1.68,0,0,1,1.48-1.36c2.17-.52,4.35-1,6.53-1.5,3.8-.88,7.57-1.88,11.39-2.6a21.78,21.78,0,0,1,8.7-.16,3.23,3.23,0,0,1,.59.22Z" transform="translate(-55.44 -1.55)"/><path d="M112.15,14.23c.94-.18,
1.71-.37,2.48-.47,3.07-.38,6.15-.75,9.22-1.11l11.38-1.32c1.12-.12,2.24-.21,3.36-.3a3.49,3.49,0,0,1,1.07.05c.2.06.33.34.49.52-.23.15-.45.4-.7.43-1.52.19-3,.34-4.56.49-3,.29-6.08.56-9.12.9-1.15.13-2.27.46-3.42.64-2.57.4-5.15.8-7.73,1.12A2,2,0,0,1,112.15,14.23Z" transform="translate(-55.44 -1.55)"/><path d="M80.74,90c-.1.31-.11.55-.22.63A17.69,17.69,0,0,1,78,92.27c-.57.28-1.13-.12-1.24-.83s0-1.1.81-1.25c.46-.1.84-.54,1.3-.71a2.74,2.74,0,0,1,1.34-.23C80.4,89.28,80.58,89.73,80.74,90Z" transform="translate(-55.44 -1.55)"/><path d="M68.34,85.4l-1-.87a3.49,3.49,0,0,1,.78-.8,5.85,5.85,0,0,1,1.4-.43c.54-.13,1,0,1.11.62a.89.89,0,0,1-.8,1.16c-.45.06-.89.08-1.34.12Z" transform="translate(-55.44 -1.55)"/><path d="M75,85.29c-.53-.57-1.08-.89-1.15-1.29-.11-.68.46-1,1.12-1s1.29.25,1.18,1C76.05,84.35,75.49,84.7,75,85.29Z" transform="translate(-55.44 -1.55)"/><path d="M76.69,87.88c0,.45-.29.83-.93.88a1.25,1.25,0,0,1-1.22-1.19,1,1,0,0,1,1-1C76.27,86.61,76.67,87,76.69,87.88Z" transform="translate(-55.44 -1.55)"/><path d="M69.55,88.24c.36.61.82,1.14.72,1.3a1.83,1.83,0,0,1-1.16.8.77.77,0,0,1-.89-1C68.34,89,68.92,88.73,69.55,88.24Z" transform="translate(-55.44 -1.55)"/><path d="M80.66,83.93c.41.69.86,1.11.79,1.42a1.38,1.38,0,0,1-1,.76c-.26,0-.87-.55-.83-.71A6.34,6.34,0,0,1,80.66,83.93Z" transform="translate(-55.44 -1.55)"/><path d="M73.3,88.1c-.55.23-.89.51-1.09.42a3.54,3.54,0,0,1-.89-.77c.29-.23.62-.67.84-.62S72.77,87.63,73.3,88.1Z" transform="translate(-55.44 -1.55)"/><path d="M66,78.77c-.56.29-.9.6-1.1.53s-.59-.49-.89-.75c.25-.22.54-.66.73-.62C65.11,78,65.41,78.35,66,78.77Z" transform="translate(-55.44 -1.55)"/><path d="M93.55,43a.88.88,0,0,1-.84-1.13.32.32,0,0,0,0-.19c-.54-1.37.15-2.48.73-3.62a.3.3,0,0,1,.07-.11,8.08,8.08,0,0,1,2.57-1.45,6.15,6.15,0,0,1,1.59-.21,17.17,17.17,0,0,1,2.13.25c.77.12,1.54.27,2.3.41a2.87,2.87,0,0,1,1.75,1.17,6,6,0,0,1,1,1.32,2.83,2.83,0,0,1-.38,2.45c-.4.68-.24.9.34,1.44s1.15,1,1.67,1.46a3.31,3.31,0,0,0,2.48.78c.59,0,1.18.1,1.77.17a4.49,4.49,0,0,1,2.58,1.63c1.25,1.24,1.73,2.9,2.58,4.36.36.63.67,1.29,1,1.91a5.36,5.36,0,0,1,.09,5,12.46,12.46,0,0,1-2,2.86c-.3.37-.34.55,0,.89a4.56,4.56,0,0,1,1.13,3.82c-.06.78-.69,1.29-1.5,1.65-1,.47-2.17.38-3.15.74a12,12,0,0,1-3.45.33,4.85,4.85,0,0,0-2.8,1.33,6.78,6.78,0,0,1-5.81,1.51c-.72-.13-1.41-.44-2.13-.64a1.46,1.46,0,0,0-.61.07,3.25,3.25,0,0,1-2.09.11,9.49,9.49,0,0,0-1.77-.41.83.83,0,0,0-.47.12c-.57.31-1.13.66-1.71,1a4.88,4.88,0,0,1-3.68,0c-.61-.18-.86-1.23-.69-2.16a2.71,2.71,0,0,1,1-1.67,2.7,2.7,0,0,0,.52-3.6,15.2,15.2,0,0,1-.95-2.57c-.13-.45-.3-.72-.79-.76a1.6,1.6,0,0,1-1.4-1,2.51,2.51,0,0,1,.71-3.32c.45-.36.9-.71,1.31-1.11a.65.65,0,0,0,.08-.54c-.22-.85-.43-1.71-.73-2.53A3.82,3.82,0,0,1,86.31,50a5.69,5.69,0,0,1,1.07-2c.91-1,2-1.86,3-2.78,0,0,.08,0,.11-.05a5,5,0,0,1,2.44-1.54C93.14,43.59,93.29,43.28,93.55,43ZM91.7,50.7a11,11,0,0,1,0,1.28,3.17,3.17,0,0,0,1.14,2.35,2.78,2.78,0,0,0,1.34.81,16.88,16.88,0,0,0,5.4.25,29.75,29.75,0,0,0,3.76-.61,7.07,7.07,0,0,0,4.16-2.45,3.41,3.41,0,0,0,.63-3.29,9.79,9.79,0,0,0-.49-1.31,4.5,4.5,0,0,0-2.31-2.61,5.24,5.24,0,0,1-2.13-1.63c-.6-.73-.17-1,.13-1.5l.05-.05a2.27,2.27,0,0,0,.38-2.11,3,3,0,0,0-2.11-2,19.62,19.62,0,0,0-2.87-.53,4.77,4.77,0,0,0-5,1.94,2.06,2.06,0,0,0,.63,3.09.68.68,0,0,1,.41.71,1.62,1.62,0,0,1-1.18,1.52A13.45,13.45,0,0,0,91,45.85c-1.66,1.19-3.33,2.46-3.88,4.6a6.57,6.57,0,0,0-.27,2,13.47,13.47,0,0,0,.58,2c.11.47.25.72.77.47a1.49,1.49,0,0,1,.62-.12A2.83,2.83,0,0,0,90.6,54,1,1,0,0,0,91,52.9a7.81,7.81,0,0,1,.21-4A19.15,19.15,0,0,1,93,45.69a.93.93,0,0,1,.6-.36c.09,0,.33.24.34.37a1,1,0,0,1-.2.66A5.9,5.9,0,0,0,91.7,50.7Zm-.26,3.48-.2.64c-.25.87-.41.93-1.31.82a4.91,4.91,0,0,0-1.57.13,5.52,5.52,0,0,0-2.91,2.09,1.66,1.66,0,0,0,0,1.71,1.37,1.37,0,0,0,1.53.69,8.21,8.21,0,0,0,1.92-.81c.59-.4,1.39-.18,1.89-.76,0-.07.46.11.64.24s-.08.34-.12.52a2,2,0,0,0-.1.47c0,.37.06.73.1,1.09a33.76,33.76,0,0,0,.48,3.35,6.66,6.66,0,0,0,1.85,3.32,9.17,9.17,0,0,0,1.85,1.45c.91.49,1.93.78,2.87,1.23a6.42,6.42,0,0,0,5.19-.17,3.13,3.13,0,0,0,.8-.62c1.12-.95,2.25-1.87,3.33-2.86a3.74,3.74,0,0,0,.78-1.23c.28-.67.46-1.37.69-2.06s.59-1.5.8-2.27c.12-.44-.08-1,.11-1.39a5.92,5.92,0,0,0,.5-2.34.62.62,0,0,1,.31-.49c.67-.26,1.37-.45,2.06-.68a3.45,3.45,0,0,0,.72-.27.74.74,0,0,0,.17-1.18,2.65,2.65,0,0,0-1.09-.46,4.87,4.87,0,0,0-2.43.43c-.23.08-.58.18-.72.07-.38-.3-.88-.53-1-1.12a1.83,1.83,0,0,0-.3-.56c-.67.51-1.26,1-1.91,1.44a10.58,10.58,0,0,1-3.67,1.29,16.71,16.71,0,0,1-2.69.49c-1.69,0-3.38,0-5.06-.09a3.29,3.29,0,0,1-2.54-1.18A8.58,8.58,0,0,0,91.44,54.18Zm16.66-7.69c.12.31.16.47.24.62a6.45,6.45,0,0,1,.61,4.94c-.14.46.43,1.54.83,1.59a8.19,8.19,0,0,0,1.4,0,22.19,22.19,0,0,1,2.29-.15,1.5,1.5,0,0,1,1,.61,4.33,4.33,0,0,1,.46,1.53c.11.55-.19.88-.72,1a6.34,6.34,0,0,0-1.5.52,2.4,2.4,0,0,0-1.37,1.62c-.27,1.2-.14,2.44-.67,3.62-.69,1.55-1,3.26-2.06,4.67-.21.28-.4.57-.68,1a7.61,7.61,0,0,0,1.09,0c.75-.13,1.5-.31,2.24-.47.9-.19,1.81-.32,2.69-.59a1.79,1.79,0,0,0,1.31-2.2,3.87,3.87,0,0,0-1.38-2.16,1,1,0,0,1-.19-.84,3.25,3.25,0,0,1,.55-.92c.55-.78,1.1-1.56,1.67-2.33.31-.41.65-.8.37-1.37,0-.07.06-.2.1-.3.59-1.3-.12-2.46-.58-3.54-.3-.73-1-1.33-1.27-2.16A8,8,0,0,0,113.32,49a18.75,18.75,0,0,0-2.11-2.07C110.31,46.13,109.25,46.47,108.1,46.49ZM90.44,59.72a9.38,9.38,0,0,1-1.06.61c-.51.22-1,.38-1.57.57-.27.09-.48.26-.28.57a7,7,0,0,1,.94,2.61.64.64,0,0,0,.11.3,2.94,2.94,0,0,1-.37,3.72,4.51,4.51,0,0,0-.84,1.57A1.65,1.65,0,0,0,87.56,71a1.71,1.71,0,0,0,1.8.35,19.83,19.83,0,0,0,2.19-1.15c.68-.4,1.32-.89,2.18-.59.09,0,.22-.06.49-.16l-.41-.27a3.86,3.86,0,0,1-1-.77A25.11,25.11,0,0,1,91.48,66a13,13,0,0,1-1-4.34A14,14,0,0,1,90.44,59.72Z" transform="translate(-55.44 -1.55)"/><path d="M149.68,82.64a3,3,0,0,1-2.12-.53,1.9,1.9,0,0,0-1-.35c-1.28,0-2.18-.87-3.23-1.41-1.56-.79-3.16-1.42-5-.74a6.5,6.5,0,0,1-3.33.34,3,3,0,0,0-2,.44c-.75.43-1.51.86-2.28,1.27-.48.26-1,.46-1.47.76a2.24,2.24,0,0,1-2.82-.3c-1-.81-2-1.65-3-2.51A2.1,2.1,0,0,0,121,79.4c-.8.65-1.54,1.39-2.31,2.08a1.49,1.49,0,0,1-.39.33c-.59.27-1.19.54-1.8.76a1.13,1.13,0,0,1-1.31-.42,4.14,4.14,0,0,1-1.15-2.24c-.1-.73-.45-1.44-.49-2.17-.07-1.51-1.26-1.6-2.26-1.87a3.36,3.36,0,0,1-2.44-2.65c-.36-1.75.48-3.1,1.25-4.5a4.61,4.61,0,0,0,.59-3.36,2,2,0,0,0-1.31-1.52,1.05,1.05,0,0,1-.54-.69.78.78,0,0,1,.31-.69,1,1,0,0,1,.82.07,1.83,1.83,0,0,0,2.08-.48,26.66,26.66,0,0,0,2-2.58,10.36,10.36,0,0,0,1-2,9.93,9.93,0,0,1,4.44-4.87,11.35,11.35,0,0,0,1-.84.84.84,0,0,1,.46-.19,24.48,24.48,0,0,1,5.34.43,7.52,7.52,0,0,1,1.9.72,2.28,2.28,0,0,0,2.08-.14c1.41-.55,2.82-1.12,4.27-1.54A7.63,7.63,0,0,1,138,51a9.48,9.48,0,0,1,5.08,2.55,8,8,0,0,1,2.14,3.68,22.78,22.78,0,0,1,.7,3.38,2.68,2.68,0,0,0,1.47,2.18,5.06,5.06,0,0,1,1.93,1.65,4.91,4.91,0,0,1,.66,4.45c-.25.77-.56,1.53-.84,2.29a1.92,1.92,0,0,0,.93,2.72c.71.41,1.51.7,2.24,1.09s1.59.89,2.35,1.39a1.64,1.64,0,0,1,.72,1.31,6.37,6.37,0,0,1-.23,3.1c-.13.29-.51.49-.8.68s-.39.06-.54.16a6,6,0,0,1-3.77,1A2.58,2.58,0,0,0,149.68,82.64ZM111,63.57c0,.1,0,.12,0,.14s.09.2.13.29a5.73,5.73,0,0,1-.32,5.25,14,14,0,0,0-1.06,2.45,2.78,2.78,0,0,0,2.68,3.51,2.8,2.8,0,0,1,1.49.62,1.41,1.41,0,0,1,.51.86c.14.82.17,1.65.25,2.48a3.3,3.3,0,0,0,.77,2c.32.35.74.62,1.19.36,1-.57,1.9-1.21,2.84-1.83.68-.44,1.32-.93,2-1.33a2,2,0,0,1,2.21.25,17.75,17.75,0,0,0,3.84,3.29,1,1,0,0,0,1.14,0c.81-.47,1.66-.87,2.49-1.3a7.05,7.05,0,0,0,1-.56,4.38,4.38,0,0,1,2.89-1,20,20,0,0,0,2.67-.2,9.42,9.42,0,0,1,2.59-.32,17.14,17.14,0,0,1,3.48,1.22c.59.24,1.09.69,1.68.93.91.35,1.86.6,2.79.89a5.73,5.73,0,0,0,4.92-.5,2.46,2.46,0,0,0,1.43-2.65c0-.15,0-.3,0-.45a1.54,1.54,0,0,0-.8-1.32c-.81-.46-1.68-.82-2.52-1.25a6.9,6.9,0,0,1-2.46-1.64,2.48,2.48,0,0,1-.47-2.57c.31-.86.78-1.68,1-2.56A4,4,0,0,0,147.81,64a12,12,0,0,1-2.55-2.21,1,1,0,0,1-.2-.56c0-.27.06-.55,0-.81-.2-1.09-.39-2.18-.66-3.25a5.68,5.68,0,0,0-.76-2,10.27,10.27,0,0,0-1.85-1.75,8.53,8.53,0,0,0-5-1.79,12.29,12.29,0,0,0-6.51,1.87,2.49,2.49,0,0,1-1.94.2c-1.54-.4-3.09-.79-4.66-1.07a5,5,0,0,0-3.41.52c-.55.32-1.06.72-1.59,1.09a7.66,7.66,0,0,0-3,3.94,10.16,10.16,0,0,1-3.26,4.49A9.54,9.54,0,0,1,111,63.57Z" transform="translate(-55.44 -1.55)"/><path d="M91.7,50.7a5.9,5.9,0,0,1,2-4.34,1,1,0,0,0,.2-.66c0-.13-.25-.39-.34-.37a.93.93,0,0,0-.6.36,19.15,19.15,0,0,0-1.79,3.23,7.81,7.81,0,0,0-.21,4A1,1,0,0,1,90.6,54a2.83,2.83,0,0,1-1.82.83,1.49,1.49,0,0,0-.62.12c-.52.25-.66,0-.77-.47a13.47,13.47,0,0,1-.58-2,6.57,6.57,0,0,1,.27-2c.55-2.14,2.22-3.41,3.88-4.6a13.45,13.45,0,0,1,2.75-1.25,1.62,1.62,0,0,0,1.18-1.52.68.68,0,0,0-.41-.71,2.06,2.06,0,0,1-.63-3.09,4.77,4.77,0,0,1,5-1.94,19.62,19.62,0,0,1,2.87.53,3,3,0,0,1,2.11,2,2.27,2.27,0,0,1-.38,2.11l-.05.05c-.3.47-.73.77-.13,1.5a5.24,5.24,0,0,0,2.13,1.63,4.5,4.5,0,0,1,2.31,2.61,9.79,9.79,0,0,1,.49,1.31,3.41,3.41,0,0,1-.63,3.29,7.07,7.07,0,0,1-4.16,2.45,29.75,29.75,0,0,1-3.76.61,16.88,16.88,0,0,1-5.4-.25,2.78,2.78,0,0,1-1.34-.81A3.17,3.17,0,0,1,91.75,52,11,11,0,0,0,91.7,50.7Z" transform="translate(-55.44 -1.55)" fill="#2d180d"/><path d="M91.44,54.18a8.58,8.58,0,0,1,1,.93,3.29,3.29,0,0,0,2.54,1.18c1.68.09,3.37.14,5.06.09a16.71,16.71,0,0,0,2.69-.49,10.58,10.58,0,0,0,3.67-1.29c.65-.42,1.24-.93,1.91-1.44a1.83,1.83,0,0,1,.3.56c.1.59.6.82,1,1.12.14.11.49,0,.72-.07a4.87,4.87,0,0,1,2.43-.43,2.65,2.65,0,0,1,1.09.46.74.74,0,0,1-.17,1.18,3.45,3.45,0,0,1-.72.27c-.69.23-1.39.42-2.06.68a.62.62,0,0,0-.31.49,5.92,5.92,0,0,1-.5,2.34c-.19.39,0,1-.11,1.39-.21.77-.54,1.51-.8,2.27s-.41,1.39-.69,2.06a3.74,3.74,0,0,1-.78,1.23c-1.08,1-2.21,1.91-3.33,2.86a3.13,3.13,0,0,1-.8.62,6.42,6.42,0,0,1-5.19.17c-.94-.45-2-.74-2.87-1.23a9.17,9.17,0,0,1-1.85-1.45,6.66,6.66,0,0,1-1.85-3.32A33.76,33.76,0,0,1,91.28,61c0-.36-.08-.72-.1-1.09a2,2,0,0,1,.1-.47c0-.18.18-.48.12-.52s-.59-.31-.64-.24c-.5.58-1.3.36-1.89.76a8.21,8.21,0,0,1-1.92.81,1.37,1.37,0,0,1-1.53-.69,1.66,1.66,0,0,1,0-1.71,5.52,5.52,0,0,1,2.91-2.09,4.91,4.91,0,0,1,1.57-.13c.9.11,1.06,0,1.31-.82Zm9.36,14v.06c1.14-.15,2.28-.31,3.42-.45.47-.06.7-.3.64-.77a.63.63,0,0,0-.9-.55,15.12,15.12,0,0,1-4.23.55,3.4,3.4,0,0,0-1.24.43.53.53,0,0,0-.21.47c0,.11.28.25.43.25C99.41,68.19,100.11,68.17,100.8,68.17ZM100.4,65a6.67,6.67,0,0,0,3.35-.9c.23-.17.51-.61.44-.81-.15-.43-.61-.3-.94-.17a4.77,4.77,0,0,1-3.27.49c-.2-.06-.61.22-.73.44s.16.56.37.7A2.12,2.12,0,0,0,100.4,65Zm5.87-5c-.19-.52-.47-1.15-.64-1.8-.11-.43-.28-.7-.72-.53a.78.78,0,0,0-.54,1c0,.23.13.45.18.68s.12.75.16,1.12a.94.94,0,0,0,.88.78C106,61.2,106.28,60.68,106.27,60Zm-9.63.08-.11,0a8.51,8.51,0,0,0,.25,1.24.77.77,0,0,0,1,.48c.16-.05.4-.34.37-.47A17.15,17.15,0,0,0,97.52,59c-.08-.2-.5-.27-.77-.39a4.22,4.22,0,0,0-.22.77A2.76,2.76,0,0,0,96.64,60.07Z" transform="translate(-55.44 -1.55)" fill="#c07f5e"/><path d="M108.1,46.49c1.15,0,2.21-.36,3.11.45A18.75,18.75,0,0,1,113.32,49a8,8,0,0,1,1.23,2.21c.3.83,1,1.43,1.27,2.16.46,1.08,1.17,2.24.58,3.54,0,.1-.13.23-.1.3.28.57-.06,1-.37,1.37-.57.77-1.12,1.55-1.67,2.33a3.25,3.25,0,0,0-.55.92,1,1,0,0,0,.19.84,3.87,3.87,0,0,1,1.38,2.16A1.79,1.79,0,0,1,114,67c-.88.27-1.79.4-2.69.59-.74.16-1.49.34-2.24.47a7.61,7.61,0,0,1-1.09,0c.28-.41.47-.7.68-1,1-1.41,1.37-3.12,2.06-4.67.53-1.18.4-2.42.67-3.62a2.4,2.4,0,0,1,1.37-1.62,6.34,6.34,0,0,1,1.5-.52c.53-.15.83-.48.72-1a4.33,4.33,0,0,0-.46-1.53,1.5,1.5,0,0,0-1-.61,22.19,22.19,0,0,0-2.29.15,8.19,8.19,0,0,1-1.4,0c-.4,0-1-1.13-.83-1.59a6.45,6.45,0,0,0-.61-4.94C108.26,47,108.22,46.8,108.1,46.49Z" transform="translate(-55.44 -1.55)" fill="#2d180d"/><path d="M90.44,59.72a14,14,0,0,0,0,1.94,13,13,0,0,0,1,4.34,25.11,25.11,0,0,0,1.34,2.44,3.86,3.86,0,0,0,1,.77l.41.27c-.27.1-.4.19-.49.16-.86-.3-1.5.19-2.18.59a19.83,19.83,0,0,1-2.19,1.15,1.71,1.71,0,0,1-1.8-.35,1.65,1.65,0,0,1-.19-1.36,4.51,4.51,0,0,1,.84-1.57,2.94,2.94,0,0,0,.37-3.72.64.64,0,0,1-.11-.3,7,7,0,0,0-.94-2.61c-.2-.31,0-.48.28-.57.52-.19,1.06-.35,1.57-.57A9.38,9.38,0,0,0,90.44,59.72Z" transform="translate(-55.44 -1.55)" fill="#2d180d"/><path d="M111,63.57a9.54,9.54,0,0,0,1.46-.87,10.16,10.16,0,0,0,3.26-4.49,7.66,7.66,0,0,1,3-3.94c.53-.37,1-.77,1.59-1.09a5,5,0,0,1,3.41-.52c1.57.28,3.12.67,4.66,1.07a2.49,2.49,0,0,0,1.94-.2,12.29,12.29,0,0,1,6.51-1.87,8.53,8.53,0,0,1,5,1.79,10.27,10.27,0,0,1,1.85,1.75,5.68,5.68,0,0,1,.76,2c.27,1.07.46,2.16.66,3.25.05.26,0,.54,0,.81a1,1,0,0,0,.2.56A12,12,0,0,0,147.81,64a4,4,0,0,1,1.51,4.67c-.22.88-.69,1.7-1,2.56a2.48,2.48,0,0,0,.47,2.57,6.9,6.9,0,0,0,2.46,1.64c.84.43,1.71.79,2.52,1.25a1.54,1.54,0,0,1,.8,1.32c0,.15,0,.3,0,.45a2.46,2.46,0,0,1-1.43,2.65,5.73,5.73,0,0,1-4.92.5c-.93-.29-1.88-.54-2.79-.89-.59-.24-1.09-.69-1.68-.93a17.14,17.14,0,0,0-3.48-1.22,9.42,9.42,0,0,0-2.59.32,20,20,0,0,1-2.67.2,4.38,4.38,0,0,0-2.89,1,7.05,7.05,0,0,1-1,.56c-.83.43-1.68.83-2.49,1.3a1,1,0,0,1-1.14,0,17.75,17.75,0,0,1-3.84-3.29,2,2,0,0,0-2.21-.25c-.7.4-1.34.89-2,1.33-.94.62-1.87,1.26-2.84,1.83-.45.26-.87,0-1.19-.36a3.3,3.3,0,0,1-.77-2c-.08-.83-.11-1.66-.25-2.48a1.41,1.41,0,0,0-.51-.86,2.8,2.8,0,0,0-1.49-.62,2.78,2.78,0,0,1-2.68-3.51,14,14,0,0,1,1.06-2.45A5.73,5.73,0,0,0,111.1,64c0-.09-.09-.19-.13-.29S111,63.67,111,63.57Zm13.15,4.94a3.44,3.44,0,0,1,.11.51c0,1.78,1,3.13,1.89,4.54a1.77,1.77,0,0,0,.54.43,21,21,0,0,1,2.12,1.4c1.33,1.15,2.79.89,4.24.5a5.82,5.82,0,0,0,2-1A15.25,15.25,0,0,0,136.86,73a5.27,5.27,0,0,0,1.64-3.77c0-.83,0-.84.92-.86a1.2,1.2,0,0,0,.38,0,10.13,10.13,0,0,0,3.43-1.5,8.67,8.67,0,0,0,1.7-1.61,1.63,1.63,0,0,0,.24-1.69,7.4,7.4,0,0,0-.8-1.23,1,1,0,0,0-.57-.37,6.62,6.62,0,0,0-1.33-.1c-.57,0-1.13.1-1.69.1a1.17,1.17,0,0,1-1.05-1.73.57.57,0,0,0,0-.51.69.69,0,0,0-.54-.18c-.5.07-1,.28-1.49.31-1.28.07-2.56.11-3.83.1a11.5,11.5,0,0,1-2.55-.26,9.11,9.11,0,0,1-3.3-1.3A8.58,8.58,0,0,1,125.9,56c-.11-.16-.34-.24-.52-.36-.08.18-.27.4-.22.54a9.25,9.25,0,0,0,.61,1.5,3.09,3.09,0,0,1,.17,2.7c-.28.72-1,1.19-1.12,2,0,.09-.13.16-.2.24-.56.63-1.11,1.26-2.1.92a.63.63,0,0,0-.38,0c-1,.38-2.08.74-3.1,1.17a1.1,1.1,0,0,0-.57.65c-.12,1-.2,2-.22,3.06a1.05,1.05,0,0,0,.94,1.06A5.55,5.55,0,0,0,123,69C123.37,68.85,123.71,68.7,124.11,68.51Z"
 transform="translate(-55.44 -1.55)" fill="#402619"/><path d="M100.8,68.17c-.69,0-1.39,0-2.09,0-.15,0-.41-.14-.43-.25a.53.53,0,0,1,.21-.47A3.4,3.4,0,0,1,99.73,67a15.12,15.12,0,0,0,4.23-.55.63.63,0,0,1,.9.55c.06.47-.17.71-.64.77-1.14.14-2.28.3-3.42.45Z" transform="translate(-55.44 -1.55)"/><path d="M100.4,65a2.12,2.12,0,0,1-.78-.25c-.21-.14-.44-.55-.37-.7s.53-.5.73-.44a4.77,4.77,0,0,0,3.27-.49c.33-.13.79-.26.94.17.07.2-.21.64-.44.81A6.67,6.67,0,0,1,100.4,65Z" transform="translate(-55.44 -1.55)"/><path d="M106.27,60c0,.69-.32,1.21-.68,1.22a.94.94,0,0,1-.88-.78c0-.37-.1-.75-.16-1.12s-.13-.45-.18-.68a.78.78,0,0,1,.54-1c.44-.17.61.1.72.53C105.8,58.84,106.08,59.47,106.27,60Z" transform="translate(-55.44 -1.55)"/><path d="M96.64,60.07a2.76,2.76,0,0,1-.11-.69,4.22,4.22,0,0,1,.22-.77c.27.12.69.19.77.39a17.15,17.15,0,0,1,.62,2.34c0,.13-.21.42-.37.47a.77.77,0,0,1-1-.48,8.51,8.51,0,0,1-.25-1.24Z" transform="translate(-55.44 -1.55)"/><path d="M124.11,68.51c-.4.19-.74.34-1.07.51a5.55,5.55,0,0,1-3.85.54,1.05,1.05,0,0,1-.94-1.06c0-1,.1-2,.22-3.06a1.1,1.1,0,0,1,.57-.65c1-.43,2.06-.79,3.1-1.17a.63.63,0,0,1,.38,0c1,.34,1.54-.29,2.1-.92.07-.08.19-.15.2-.24.08-.85.84-1.32,1.12-2a3.09,3.09,0,0,0-.17-2.7,9.25,9.25,0,0,1-.61-1.5c0-.14.14-.36.22-.54.18.12.41.2.52.36A8.58,8.58,0,0,0,128,58.31a9.11,9.11,0,0,0,3.3,1.3,11.5,11.5,0,0,0,2.55.26c1.27,0,2.55,0,3.83-.1.5,0,1-.24,1.49-.31a.69.69,0,0,1,.54.18.57.57,0,0,1,0,.51,1.17,1.17,0,0,0,1.05,1.73c.56,0,1.12-.1,1.69-.1a6.62,6.62,0,0,1,1.33.1,1,1,0,0,1,.57.37,7.4,7.4,0,0,1,.8,1.23,1.63,1.63,0,0,1-.24,1.69,8.67,8.67,0,0,1-1.7,1.61,10.13,10.13,0,0,1-3.43,1.5,1.2,1.2,0,0,1-.38,0c-.88,0-.95,0-.92.86A5.27,5.27,0,0,1,136.86,73,15.25,15.25,0,0,1,135,74.84a5.82,5.82,0,0,1-2,1c-1.45.39-2.91.65-4.24-.5a21,21,0,0,0-2.12-1.4,1.77,1.77,0,0,1-.54-.43c-.86-1.41-1.89-2.76-1.89-4.54A3.44,3.44,0,0,0,124.11,68.51ZM127,58.94a6,6,0,0,1-.1.72,18.88,18.88,0,0,1-.78,2.59c-.21.48-.74.8-1.07,1.24a2.3,2.3,0,0,1-1.8.77,13.92,13.92,0,0,0-2.25.39,5.18,5.18,0,0,0-1.4.77,1,1,0,0,0-.41.62c-.09.67-.1,1.36-.15,2a.6.6,0,0,0,.56.67,4.3,4.3,0,0,0,4.06-1.18,1,1,0,0,1,.75-.29.69.69,0,0,1,.58.8A6.27,6.27,0,0,0,126.11,72c1.07,1.68,2.87,2.33,4.53,3.17a.62.62,0,0,0,.38,0,10.71,10.71,0,0,0,2.56-.67A6,6,0,0,0,136,72.55a15.37,15.37,0,0,0,1.17-1.68,4.15,4.15,0,0,0,.25-3.17.8.8,0,0,1,.11-.73.92.92,0,0,1,.78-.07c.54.19,1,.58,1.64.43a6.61,6.61,0,0,0,1.37-.5c1.1-.58,2.31-1,2.83-2.35a.91.91,0,0,0-.24-1.19,3,3,0,0,0-3.1-.3c-.59.32-1.12.19-1.29-.21-.27-.67-.57-1.34-.93-2.16C134.76,61.11,130.78,61.1,127,58.94Z" transform="translate(-55.44 -1.55)"/><path d="M127,58.94c3.74,2.16,7.72,2.17,11.55,1.68.36.82.66,1.49.93,2.16.17.4.7.53,1.29.21a3,3,0,0,1,3.1.3.91.91,0,0,1,.24,1.19c-.52,1.33-1.73,1.77-2.83,2.35a6.61,6.61,0,0,1-1.37.5c-.61.15-1.1-.24-1.64-.43a.92.92,0,0,0-.78.07.8.8,0,0,0-.11.73,4.15,4.15,0,0,1-.25,3.17A15.37,15.37,0,0,1,136,72.55a6,6,0,0,1-2.42,1.94,10.71,10.71,0,0,1-2.56.67.62.62,0,0,1-.38,0c-1.66-.84-3.46-1.49-4.53-3.17A6.27,6.27,0,0,1,125,68.08a.69.69,0,0,0-.58-.8,1,1,0,0,0-.75.29,4.3,4.3,0,0,1-4.06,1.18.6.6,0,0,1-.56-.67c0-.68.06-1.37.15-2a1,1,0,0,1,.41-.62,5.18,5.18,0,0,1,1.4-.77,13.92,13.92,0,0,1,2.25-.39,2.3,2.3,0,0,0,1.8-.77c.33-.44.86-.76,1.07-1.24a18.88,18.88,0,0,0,.78-2.59A6,6,0,0,0,127,58.94Zm8.84,10.22a8.26,8.26,0,0,0-1.1,1c-1.09,1.38-2.67,1.42-4.2,1.48a4.62,4.62,0,0,1-1.57-.5c-.38-.13-.76-.27-1,.24s.06.79.6.92a7.54,7.54,0,0,0,3.27.35c.33-.07.72,0,1-.09a7.27,7.27,0,0,0,3-2A1.07,1.07,0,0,0,135.88,69.16Zm-3.31-4.89c0,.31,0,.68.51.72s.38-.39.46-.69a6.26,6.26,0,0,1,.43-1.19.65.65,0,0,1,.42-.32c.13,0,.29.23.35.39s.13.63.26.92a.71.71,0,0,0,.44.27c.07,0,.26-.18.26-.28A2.69,2.69,0,0,0,135,62a1,1,0,0,0-.9-.18A3,3,0,0,0,132.57,64.27Zm-2,.17a3.37,3.37,0,0,0-1.19-1.76,1,1,0,0,0-.84,0c-.84.48-1.64,1-1.62,2.16,0,.25.21.49.32.74a4.15,4.15,0,0,0,.43-.51,8.15,8.15,0,0,1,.8-1.26c.32-.36.7-.22.89.24.09.22.1.49.25.65a.75.75,0,0,0,.59.24C130.35,64.88,130.45,64.61,130.58,64.44Zm.26,3.69c-.09.07-.33.18-.39.35s-.1.62,0,.68a1.73,1.73,0,0,0,1.12.33,8.2,8.2,0,0,0,1.84-1,.65.65,0,0,0,.18-.59.69.69,0,0,0-.56-.27c-.18,0-.36.19-.53.31-.41.29-.77.83-1.34.25C131.13,68.16,131.05,68.17,130.84,68.13Z" transform="translate(-55.44 -1.55)" fill="#c07f5e"/><path d="M135.88,69.16a1.07,1.07,0,0,1,0,1.35,7.27,7.27,0,0,1-3,2c-.29.13-.68,0-1,.09a7.54,7.54,0,0,1-3.27-.35c-.54-.13-.78-.48-.6-.92s.59-.37,1-.24a4.62,4.62,0,0,0,1.57.5c1.53-.06,3.11-.1,4.2-1.48A8.26,8.26,0,0,1,135.88,69.16Z" transform="translate(-55.44 -1.55)"/><path d="M132.57,64.27a3,3,0,0,1,1.57-2.44,1,1,0,0,1,.9.18,2.69,2.69,0,0,1,.66,2.08c0,.1-.19.29-.26.28a.71.71,0,0,1-.44-.27c-.13-.29-.15-.62-.26-.92s-.22-.38-.35-.39a.65.65,0,0,0-.42.32,6.26,6.26,0,0,0-.43,1.19c-.08.3,0,.72-.46.69S132.53,64.58,132.57,64.27Z" transform="translate(-55.44 -1.55)"/><path d="M130.58,64.44c-.13.17-.23.44-.37.46a.75.75,0,0,1-.59-.24c-.15-.16-.16-.43-.25-.65-.19-.46-.57-.6-.89-.24a8.15,8.15,0,0,0-.8,1.26,4.15,4.15,0,0,1-.43.51c-.11-.25-.32-.49-.32-.74,0-1.12.78-1.68,1.62-2.16a1,1,0,0,1,.84,0A3.37,3.37,0,0,1,130.58,64.44Z" transform="translate(-55.44 -1.55)"/><path d="M130.84,68.13c.21,0,.29,0,.33.07.57.58.93,0,1.34-.25.17-.12.35-.3.53-.31a.69.69,0,0,1,.56.27.65.65,0,0,1-.18.59,8.2,8.2,0,0,1-1.84,1,1.73,1.73,0,0,1-1.12-.33c-.11-.06-.09-.47,0-.68S130.75,68.2,130.84,68.13Z" transform="translate(-55.44 -1.55)"/></svg>