<svg id="Layer_1" data-name="Layer 1" xmlns="http://www.w3.org/2000/svg" viewBox="0 0 609.08 598.26"><path d="M972.73,292.15c1.18,8.78,3.53,24.19,5.27,39.68,2.15,19,4.06,38.05,5.57,57.12,1.76,22.28,2.08,44.71,4.71,66.88,2.33,19.58,7,38.88,10.61,58.31,3,16.24,5.12,32.74,9.42,48.65,4.8,17.77,4.7,35.87,6.87,53.83s2.36,35.81,2.66,53.77c.1,5.62,2.11,11.36,4,16.77,2.81,7.87.36,12.87-7.88,12.86-14,0-27.17,3.63-40.46,7.35-4.75,1.33-10.09.53-15.16.77-10.92.53-21.88,2-32.75,1.45-17.17-.83-34.29-3-51.43-4.58-6.47-.6-12.94-1.2-19.42-1.73-14.84-1.22-29.77-1.82-44.52-3.73a589.5,589.5,0,0,0-62.55-4.44,228.44,228.44,0,0,1-55.94-8.2c-4.24-1.18-8.1-3.77-12.35-4.81-10.59-2.58-21.21-5.55-32-6.69C634.36,674,622.55,677,612.5,687.26c-11.61,11.84-25.39,21.09-41.83,25.56-6.26,1.7-12.62,3.25-18.63,5.63-10.87,4.29-21.68,1.13-32.46.28-13-1-23.43-8.18-33.94-15.28-8.87-6-15.17-14.2-21.63-22.34-1.14-1.43-1.32-3.89-1.35-5.89-.12-9.24.57-18.54-.15-27.72-1-12.71-2.08-25.54-4.8-38a449.46,449.46,0,0,1-9.11-57.84c-.43-5-2.1-10-3.33-14.92-3.48-13.95-8-27.72-10.31-41.85-2.91-17.57-4-35.44-6-53.16-1.13-9.68-3-19.27-3.95-29-1.21-11.78-2.89-23.67-2.46-35.44.42-11.27-2.58-22-2.7-33.13-.15-13.05-.4-26.1-.95-39.14-.58-13.65-1.44-27.29-2.43-40.92-.56-7.76-1.66-15.49-2.43-23.24a8.91,8.91,0,0,1,.34-4.09c2.25-5.68,4.25-11.33,1.68-17.45,4.42-8.83.64-20.95,11.43-27.4,2.75-1.65,4.07-5.56,6.29-8.22,8.77-10.51,19.06-18.28,33.65-17.61,3.67.17,7.3,1.35,11,1.39,9.74.12,19.52-.6,29.23-.06,6.89.39,13.65,2.61,20.54,3.39a54.51,54.51,0,0,0,13.13-.38c15.24-2,30.49-4,45.64-6.57,7-1.2,13.76-4,20.72-5.67,7.24-1.77,14.53-4,21.89-4.41,12.44-.72,24.31-3.84,36.35-6.4,8.81-1.88,17.79-3,26.65-4.62,17.4-3.27,34.69-7.24,52.18-9.88,15.15-2.29,30.49-3.37,45.79-4.55,10.69-.82,21.43-.87,32.15-1.31,13.48-.56,27.13,0,40.39-2.09,10.22-1.57,20.25-.41,30.33-1.18,6.74-.51,13.48-1.53,20.22-1.45,2.8,0,6.94,1.65,8.05,3.79,1.66,3.23-.58,6.64-4.11,8.49-4,2.11-5.43,5.82-5.09,10,1.24,15.33,2.38,30.7,7.51,45.39,1.1,3.17,1.58,7.71,3.85,9,2.49,1.42,6.71-.15,10.18-.45,7.92-.67,11,1,14.57,8,5.9,11.64,12,23.18,17.51,35C972.46,255.42,974.42,270.13,972.73,292.15ZM542.49,705.44l-6.32-.41c.11.81.23,1.62.34,2.43l6.07-2.13c5.16.79,9.7-2,11-6.69.55-2,.53-4.64,1.82-5.83a9.51,9.51,0,0,1,6.59-2.4c3.24.35,2.44,3.2,1.9,5.58a23.93,23.93,0,0,0,0,4.59c6.45-3.55,14.21.15,19.69-6.06-2.16-3-3.66-6.84-6.45-8.77-8.57-5.93-8.77-5.65-2.12-13.6,3.12-3.74,10.73-4.3,14.2-1,2.78,2.6,1.79,5.22-3.75,10.07-.13.12-.1.42-.19.9l8.67,6.69c7.35-6.57,14.57-13,21.75-19.51a5.22,5.22,0,0,0,.9-1.88c1.78-4.46,5.08-5.8,9.59-4.69a61.72,61.72,0,0,0,7.48,1.82c6.4.75,13,2.31,17.64-4.52.62-.92,2.41-1.27,3.72-1.49,3.44-.57,6.91-.94,10.37-1.38,4.64-.59,7.1,1.78,6.6,6.46-.17,1.58-.64,3.14-1.12,5.43,17,6.67,33.5,14,52.56,14.23.3-5.36,1.62-9.93,7.24-9.89,6.67,0,4.38,6.37,5.88,10.55l24.34,1.86c0-5.33.8-9.47,6.51-9.49,7.21,0,4.31,6.32,5.8,10,10.69,1.54,21.25,3.15,31.85,4.47,1.19.15,3.49-1.11,3.72-2.08,1.16-4.94,4.92-5,8.7-5.32l-.13-.12,1.49,8.59c7.47.79,14.63,3.89,22.76,1.63-1.24-2.53-2.75-4.19-2.73-5.85A24.56,24.56,0,0,0,836,675.33c-1.73-3.31,2-6.78,6-6a18.2,18.2,0,0,1,3.29,1.2c2.21-2.08,3.79-4.27,5.92-5.4,3-1.6,7.2,1,8.12,4.45,1.1,4.2-.4,6.85-4.8,7.58-3.83.65-7.93.44-9.22,3.34,2.09,5.47,3.65,9.55,5.44,14.21,4.72-1.93,4.86-12.39,13.39-8.06,1.87-3.39,3-6.94,5.37-9.29s5.77-3.29,8.34-4.65c-1.65-1.25-4.22-2.34-5.26-4.27-.68-1.27,1-5.41,1.34-5.38,3,.23,7.34.2,8.69,2.09a10.3,10.3,0,0,0,7.55,4.69c1.56.28,3.9,3.17,3.72,4.6-.26,2.06-2.33,4-4,5.68-.61.6-2.24.14-3.4.2-5.54.25-8.36,2.78-9.22,8.27-.82,5.24-2.19,6.2-7.41,5.29-1.11-.2-2.24-.24-4.62-.47,9.74,6.61,15.55,4.71,17.63-4.72.79-3.59,3.35-6.61,6.06-4.32,4.9,4.14,13.19,5.85,12.23,15.28h14.06c-.35-5-.46-9.39-1-13.7-.44-3.41,1-6.13,4-6.27a26.65,26.65,0,0,1,10.68,2.12c3.07,1.21,3.62,3.81,1.59,6.9-1.82,2.76-3.15,5.84-5.45,10.21a30.09,30.09,0,0,0,4.22-1.38c4.94-2.92,9.63-4.59,14.6.3,1.23,1.21,4,1.38,6,1.2,14.61-1.29,29.42-1.24,43.59-5.79,1.63-.53,3-1.78,4.52-2.7l-1.57-.74c.37-2.91-.27-7.47,1.31-8.44,5.16-3.2,6.14,3.58,10.35,6.32V675.49c-4.46-1.84-10.47-2.32-9.68-9,.76-6.47,6.14-1.49,10-3.59,0-3.33.16-7.21,0-11.08-.74-15.06-1.61-30.11-2.37-45.17-.36-6.93-.21-13.9-.93-20.79-.79-7.59-2.15-15.15-3.56-22.67-2.3-12.35-4.86-24.66-7.29-37-4.46-22.6-9.4-45.13-13.14-67.85-2.18-13.28-2.38-26.88-3.5-40.34-1.18-14.1-2.41-28.2-3.56-42.3-1.09-13.24-1.55-26.56-3.29-39.71-2.56-19.44-4.44-38.84-4.18-58.51.16-12.2-2.38-24.14-8.59-35-2.55-4.45-4.6-9.21-7.39-13.49-4.5-6.89-7-15.51-17.7-16.69-4.68-.52-8.32-1.65-12,2.14-2.27,2.35-5.64,3.48-8.08.64-4.15-4.83-9.41-4.62-14.77-4.18-11.85,1-23.7,2-35.52,3.27-17.79,2-35.73,1.85-53.44,5.43-16.66,3.37-33.81,4.23-50.53,7.36-28.62,5.36-57,12.17-85.63,17.33-20.64,3.71-41.59,5.6-62.38,8.52-10.35,1.45-20.59,3.74-31,5-7.67.91-11.08,5.65-13.67,12-7.61,18.66-26.93,31.13-47.52,30.76a16.09,16.09,0,0,1-4.79-.89c-10.53-3.56-21.65-5.33-31.36-11.38-3.82-2.38-8.45-3.66-12.87-4.81a33.13,33.13,0,0,1-18.33-12c-6.61-8.66-12.29-18-18.43-27a37,37,0,0,0-3.35-3.75l-1.6.66c.24,1.85.39,3.72.76,5.55s1.37,3.5,1.4,5.26c.38,24.21,1.11,48.42.74,72.61-.18,11.82,4.93,19.24,13.72,26.38C460.58,364.45,481,365.57,500,371.41a5.24,5.24,0,0,0,2.09.06c8.58-1,17.2-1.71,25.72-3.07,7.58-1.2,15-3.19,22.57-4.69,4.63-.93,9.31-1.6,14-2.39-.12-1.6-.13-2.28-.23-2.95-1.65-11.3-3.51-22.58-4.85-33.93-.42-3.56-1.43-7.93,3.63-10.82,4.92,10.12,6.54,20.73,8.41,31.1,3.1,17.2,5.13,34.59,8,51.83,2.17,13.09,5,26.06,7.42,39.1,2.16,11.44,4.35,22.88,6.29,34.35q4.39,25.8,8.43,51.65c1.2,7.58,1.69,15.29,3.18,22.81,3.14,15.73,6.73,31.38,10.14,47.06,1.66,7.63,1.36,16,8.36,21.64a4,4,0,0,1,.57,3.78c-2.62,4.35-4.76,9.64-8.63,12.45a130.06,130.06,0,0,1-25.29,14.67c-8.7,3.68-18.3,5.18-27.42,7.93-9.87,3-19.81,5.47-30.21,4.42-16.46-1.66-32.89-3.54-49.33-5.39-5-.57-6.5,1.17-5,5.9,1.08,3.53,1.66,7.22,2.82,10.72,1.36,4.07,3.12,8,4.27,10.91l10.74,1.06c-3.22,7-1.86,11.12,4.21,14.43,3.87,2.1,7.95,3.82,13.28,6.36a104,104,0,0,1,6.06-8.91c1.62-2,4-4.66,5.92-4.62s3.89,3,5.67,4.89c1.31,1.36,2.79,4.44,3.46,4.24,2.59-.77,5.91-2,7-4.07,1.38-2.54-.93-4.17-4-5.1a7.4,7.4,0,0,1-4.27-5.19c-.19-1.73,2-5.1,3.39-5.29,2.07-.27,4.74,1.31,6.56,2.82,1.2,1,1.37,3.26,2.08,5.16a22.3,22.3,0,0,1,2.7.3c6.45,1.43,7.14,3.39,3.42,9-1.15,1.71-1.6,3.91-2.83,5.53A79,79,0,0,1,542.49,705.44ZM529.86,188.38c1.6-.81,2.36-1.45,3.19-1.58,9.41-1.46,18.79-3.1,28.24-4.19,10.66-1.24,21.37-1.91,32.05-2.92,19.89-1.89,39.77-3.77,59.64-5.8,14.31-1.46,28.55-3.91,42.89-4.56,17.24-.78,33.9-5,51-6.86,30.29-3.22,60.33-8.86,90.49-13.44q18.67-2.84,37.39-5.43c9.57-1.31,13.07,2.71,12.36,12.53-.41,5.68.35,11.49,1,17.2.58,5.55,1.93,11,2.41,16.58,1.14,13.3,1,13.31,14.36,11.28.24,0,.47,0,.7-.08,4.64-.87,6.12-2.77,4.81-7.36-4.32-15.09-5-30.65-6.27-46.13-1.23-14.5-31.42-9.2-39.22-10.2a116.74,116.74,0,0,0-17.4-1.22c-9.78.22-19.53,1.16-29.3,1.67s-19.56.87-29.35,1.28a25.43,25.43,0,0,1-4.18.09c-16.35-2-32,3.17-47.87,5.16-11.71,1.47-23.21,4.63-34.83,6.87-13.28,2.56-26.61,4.85-39.89,7.42-11.89,2.3-23.59,5.08-35.87,5.71-9.35.48-18.47,4.58-27.81,6.49-13,2.65-26.1,4.8-39.18,7.08-9.39,1.64-18.75,3.54-28.21,4.61-8.51,1-17.27.15-25.67,1.58a380.36,380.36,0,0,0-40.18,9c-7.39,2.1-13.49,7.24-18.38,14a49.94,49.94,0,0,0,15-1.55c13.14-3.76,26-8.43,39.26-11.78,6.64-1.68,13.81-1.61,20.74-1.65,2.67,0,6.75-.17,7.32,5.09-27.35,3.45-52.49,13.21-78.19,22.11a35.88,35.88,0,0,0,7.44,5.7c4.1,2.62,9.05,4.53,12.06,8.09,5.34,6.34,9.57,13.64,14.13,20.62,2.29,3.51,4.14,7.31,6.46,10.8s4.82,4.79,9.78,4.46c18.44-1.25,36.22-5.81,54.21-9.32,1.79-.34,3.58-2.57,4.66-4.35,2.83-4.68,6.43-7.78,12.12-8.26,14.16-1.22,28.34-2.29,42.45-4,17.38-2.07,34.7-4.62,52-7.12,7.14-1,14.26-2.34,21.34-3.76,12.09-2.42,24.13-5.08,36.21-7.52,3.88-.79,7.84-1.13,11.74-1.82,14.47-2.54,28.91-5.18,43.38-7.7,12-2.09,23.9-4.18,35.88-6,10.12-1.58,20.25-3.24,30.43-4.12,9.95-.86,20-.93,30-1.06,4.64-.06,6.73-2.6,6.23-6.54-1.5-11.74-3.26-23.46-5.46-35.08a7.4,7.4,0,0,0-8.13-6.33c-5.81.51-11.6,1.34-17.37,2.21-12,1.79-23.87,4-35.87,5.5-24.33,3-48.71,5.67-73.06,8.57-27.32,3.25-54.6,6.91-82,9.82-27.12,2.88-54.34,4.86-81.47,7.62-11.1,1.12-22.06,3.64-33.16,4.76C539.64,195,533.69,195,529.86,188.38ZM442.79,402.55,439.61,404c8.25,53.86,8.64,108.75,23.89,161.82,1.52-.7,3.34-1.7,5.27-2.41,2.88-1.05,6-1.24,6.74,2.48.7,3.37-.95,6-4.72,6.42-2.24.27-4.52.23-7.75.38.85,5.49,1.6,10.38,2.2,14.3,3.95.56,8,0,9.3,1.56,2.89,3.49,5.95,3.09,9.36,2.42,2.72-.53,5.45-.91,6.33,2.34.4,1.47-.15,4.32-1.15,4.83-2.26,1.16-6.74,2.48-7.38,1.59-4-5.43-9.52-3.07-15.52-4.77,1.25,3.7,1.88,6.36,3.06,8.75.61,1.25,2.73,3.11,3.22,2.86,6-3.1,9.39,1.55,13.06,4.52,6.14-4.31,14.62-5,16.4-14.17.49-2.48,6.81-2.2,9.38.18s2.47,4.64-.76,6.7c-3.45,2.2-2,4.66.13,6.94,4.33,4.57,10.72,5.39,18.4,2-.5-3-1.24-6.13-1.47-9.31-.12-1.61.44-4.58,1.12-4.71,2.06-.39,5.59-.45,6.27.71,2.17,3.67,4.51,4.61,8.6,3.65,1.4-.33,4.14,1.4,4.8,2.86.46,1-1.35,3.38-2.6,4.73-1.08,1.17-2.78,1.77-4.21,2.63l.74,1.47c10.62-.87,20-4.95,28.65-11-2-3.31-5.32-6.7-4.62-8.23,1.76-3.84.47-5.77-1.66-8.53-.87-1.13-.5-4.71.54-5.46a7.26,7.26,0,0,1,6.11-.44c4.68,2,4.19,6.07,2.9,9.45,2.24,3.28,4.12,6,6.33,9.28l6.68-5.41C583,592,577.55,591,579,585.09c.36-1.48,3.23-3.12,5-3.26a7.1,7.1,0,0,1,5.4,2.58c1.59,2.25,2.15,5.21,3.36,8.45L603,589.59c-.31-4.72-.46-9.32-.94-13.89-.44-4.21-1.88-7.4-7-8-2.28-.27-4.31-2.67-7.47-4.78,3.43-2.25,5.74-3.38,7.53-5.07,1.28-1.2,2.75-3.24,2.6-4.76-.63-6.22-1.7-12.42-2.9-18.57-1.37-7-3.43-14-4.53-21.06-2.36-15.37-4.12-30.82-6.47-46.19-2.7-17.68-5.74-35.31-8.72-52.94a17.4,17.4,0,0,0-1.54-3.89c-12,2.47-21.49,10.68-33.69,11.58-9.24.69-18.45,2.76-27.67,2.76-14.32,0-27.95-4.48-41.54-8.6-3.12-.94-6.41-1.59-9.25-3.07C455.07,409.8,449,406.09,442.79,402.55Zm123.83-27.2c-7.49.87-13.73,1.38-19.91,2.35-21.26,3.33-42.09,7.34-64,1.45-15.07-4-28.89-10-42.56-16.87-2-1-3.92-2-7.68-3.95,1.09,6.62,1.8,11.55,2.74,16.45,1.59,8.26,6.3,14.86,13.5,18.55a281.75,281.75,0,0,0,33.21,14.45c21.28,7.66,42.83,8.76,64.17-.17,7.22-3,14.38-6.22,21.36-9.75a6.22,6.22,0,0,0,2.75-5C569.37,386.94,567.86,381.13,566.62,375.35ZM534.75,645.44l.09.56c5.06-.7,10.22-1,15.14-2.21,6.28-1.57,12.28-5.13,18.58-5.61a42.45,42.45,0,0,0,19.54-6.57c2.76-1.7,5.06-4.84,8-5.5,9.85-2.21,11-8.34,9.85-17-.84-6.29-1.19-7.2-6.92-4.59-8.48,3.84-16.73,8.27-25.4,11.61-13.25,5.1-26.56,10.3-41.35,8.81a103.85,103.85,0,0,0-16.73.06c-11.43.71-22.68.19-33.74-3.1a18.15,18.15,0,0,0-6.9-.34,4.7,4.7,0,0,0-3.17,2.17c-1.08,2.08,3.82,13.51,6.25,14.2,9.36,2.67,18.67,6,28.24,7.23C515.57,646.41,525.22,645.44,534.75,645.44ZM481.58,277.06c-1.91-18.45-28.42-51-42.92-50.64-1.44,6.75,1.75,12.21,5.08,17.54,3.08,4.93,6.39,9.71,9.61,14.55C460,268.44,469.1,274.5,481.58,277.06Zm74.89-8.62c-2.41-.46-3.11-.79-3.72-.68-17.61,3.1-34.14,11.1-52.38,11.38-.79,0-2.23,1.41-2.19,2.08.09,1.2.8,2.89,1.75,3.38a42.09,42.09,0,0,0,7.22,2.47c17,4.92,31.72.86,44.34-11.2C553.35,274.09,554.45,271.51,556.47,268.44Zm-86.3-87.25c-12.09-1.82-21.66,3.51-30.23,10.87-6.22,5.35-9.16,13.17-7.24,18.16C440.39,193.94,453.9,185.88,470.17,181.19Zm54,519.51-1.93.08c-.85,1.41-1.7,2.82-3.52,5.87l6.63-1.35C525,703.76,524.6,702.23,524.21,700.7Zm-22.36-86.08V613.3h-4.27c0,.44,0,.88,0,1.32Z" transform="translate(-413.92 -122.38)"/><path d="M817.4,683.29c-3.78.3-7.54.38-8.7,5.32-.23,1-2.53,2.23-3.72,2.08-10.6-1.32-21.16-2.93-31.85-4.47-1.49-3.64,1.41-10-5.8-10-5.71,0-6.55,4.16-6.51,9.49l-24.34-1.86c-1.5-4.18.79-10.5-5.88-10.55-5.62,0-6.94,4.53-7.24,9.89C704.3,683,687.77,675.67,670.8,669c.48-2.29,1-3.85,1.12-5.43.5-4.68-2-7.05-6.6-6.46-3.46.44-6.93.81-10.37,1.38-1.31.22-3.1.57-3.72,1.49-4.59,6.83-11.24,5.27-17.64,4.52a61.72,61.72,0,0,1-7.48-1.82c-4.51-1.11-7.81.23-9.59,4.69a5.22,5.22,0,0,1-.9,1.88c-7.18,6.49-14.4,12.94-21.75,19.51l-8.67-6.69c.09-.48.06-.78.19-.9,5.54-4.85,6.53-7.47,3.75-10.07-3.47-3.25-11.08-2.69-14.2,1-6.65,8-6.45,7.67,2.12,13.6,2.79,1.93,4.29,5.72,6.45,8.77-5.48,6.21-13.24,2.51-19.69,6.06a23.93,23.93,0,0,1,0-4.59c.54-2.38,1.34-5.23-1.9-5.58a9.51,9.51,0,0,0-6.59,2.4c-1.29,1.19-1.27,3.83-1.82,5.83-1.28,4.71-5.82,7.48-11,6.69l-.08.1a78.9,78.9,0,0,0,5.84-6.31c1.23-1.62,1.68-3.82,2.83-5.53,3.72-5.57,3-7.53-3.42-9a22.3,22.3,0,0,0-2.7-.3c-.71-1.9-.88-4.16-2.08-5.16-1.82-1.51-4.49-3.09-6.56-2.82-1.44.19-3.58,3.56-3.39,5.29a7.4,7.4,0,0,0,4.27,5.19c3,.93,5.33,2.56,4,5.1-1.14,2.09-4.46,3.3-7,4.07-.67.2-2.15-2.88-3.46-4.24-1.78-1.86-3.74-4.86-5.67-4.89s-4.3,2.66-5.92,4.62a104,104,0,0,0-6.06,8.91c-5.33-2.54-9.41-4.26-13.28-6.36-6.07-3.31-7.43-7.4-4.21-14.43l-10.74-1.06c-1.15-2.9-2.91-6.84-4.27-10.91-1.16-3.5-1.74-7.19-2.82-10.72-1.46-4.73,0-6.47,5-5.9,16.44,1.85,32.87,3.73,49.33,5.39,10.4,1.05,20.34-1.45,30.21-4.42,9.12-2.75,18.72-4.25,27.42-7.93a130.06,130.06,0,0,0,25.29-14.67c3.87-2.81,6-8.1,8.63-12.45a4,4,0,0,0-.57-3.78c-7-5.65-6.7-14-8.36-21.64-3.41-15.68-7-31.33-10.14-47.06-1.49-7.52-2-15.23-3.18-22.81Q597.35,495.81,593,470c-1.94-11.47-4.13-22.91-6.29-34.35-2.45-13-5.25-26-7.42-39.1-2.86-17.24-4.89-34.63-8-51.83-1.87-10.37-3.49-21-8.41-31.1-5.06,2.89-4,7.26-3.63,10.82,1.34,11.35,3.2,22.63,4.85,33.93.1.67.11,1.35.23,2.95-4.68.79-9.36,1.46-14,2.39-7.54,1.5-15,3.49-22.57,4.69-8.52,1.36-17.14,2.09-25.72,3.07a5.24,5.24,0,0,1-2.09-.06c-18.93-5.84-39.39-7-55.84-20.31-8.79-7.14-13.9-14.56-13.72-26.38.37-24.19-.36-48.4-.74-72.61,0-1.76-1-3.48-1.4-5.26s-.52-3.7-.76-5.55l1.6-.66a37,37,0,0,1,3.35,3.75c6.14,9,11.82,18.38,18.43,27a33.13,33.13,0,0,0,18.33,12c4.42,1.15,9,2.43,12.87,4.81,9.71,6.05,20.83,7.82,31.36,11.38a16.09,16.09,0,0,0,4.79.89c20.59.37,39.91-12.1,47.52-30.76,2.59-6.36,6-11.1,13.67-12,10.37-1.23,20.61-3.52,31-5,20.79-2.92,41.74-4.81,62.38-8.52,28.65-5.16,57-12,85.63-17.33,16.72-3.13,33.87-4,50.53-7.36,17.71-3.58,35.65-3.48,53.44-5.43,11.82-1.29,23.67-2.31,35.52-3.27,5.36-.44,30.15.88,34.83,1.4,10.71,1.18,13.2,9.8,17.7,16.69,2.79,4.28,4.84,9,7.39,13.49,6.21,10.86,8.75,22.8,8.59,35-.26,19.67,1.62,39.07,4.18,58.51,1.74,13.15,2.2,26.47,3.29,39.71,1.15,14.1,2.38,28.2,3.56,42.3,1.12,13.46,1.32,27.06,3.5,40.34,3.74,22.72,8.68,45.25,13.14,67.85,2.43,12.33,5,24.64,7.29,37,1.41,7.52,2.77,15.08,3.56,22.67.72,6.89.57,13.86.93,20.79.76,15.06,1.63,30.11,2.37,45.17.19,3.87,0,7.75,0,11.08-3.86,2.1-9.24-2.88-10,3.59-.79,6.72,5.22,7.2,9.68,9v12.15c-4.21-2.74-5.19-9.52-10.35-6.32-1.58,1-.94,5.53-1.31,8.44l1.57.74c-1.5.92-2.89,2.17-4.52,2.7-14.17,4.55-29,4.5-43.59,5.79-2,.18-4.75,0-6-1.2-5-4.89-9.66-3.22-14.6-.3a30.09,30.09,0,0,1-4.22,1.38c2.3-4.37,3.63-7.45,5.45-10.21,2-3.09,1.48-5.69-1.59-6.9a26.65,26.65,0,0,0-10.68-2.12c-3,.14-4.39,2.86-4,6.27.55,4.31.66,8.68,1,13.7H901.11c1-9.43-7.33-11.14-12.23-15.28-2.71-2.29-5.27.73-6.06,4.32-2.08,9.43-7.89,11.33-17.63,4.72,2.38.23,3.51.27,4.62.47,5.22.91,6.59-.05,7.41-5.29.86-5.49,3.68-8,9.22-8.27,1.16-.06,2.79.4,3.4-.2,1.66-1.65,3.73-3.62,4-5.68.18-1.43-2.16-4.32-3.72-4.6a10.3,10.3,0,0,1-7.55-4.69c-1.35-1.89-5.66-1.86-8.69-2.09-.38,0-2,4.11-1.34,5.38,1,1.93,3.61,3,5.26,4.27-2.57,1.36-6.08,2.38-8.34,4.65s-3.5,5.9-5.37,9.29c-8.53-4.33-8.67,6.13-13.39,8.06-1.79-4.66-3.35-8.74-5.44-14.21,1.29-2.9,5.39-2.69,9.22-3.34,4.4-.73,5.9-3.38,4.8-7.58-.92-3.48-5.1-6-8.12-4.45-2.13,1.13-3.71,3.32-5.92,5.4a18.2,18.2,0,0,0-3.29-1.2c-3.91-.74-7.69,2.73-6,6a24.56,24.56,0,0,1,2.81,12.21c0,1.66,1.49,3.32,2.73,5.85-8.13,2.26-15.29-.84-22.76-1.63-.55-3.17-1-5.88-1.5-8.59,2,.47,4.22,1.64,6.06,1.25,3.66-.78,9.41-1.61,10.22-3.88,1.66-4.64-4.08-5.34-7.2-6.32-3.49-1.1-8.65-2.32-10.93-.61C811.67,676.4,816.19,680,817.4,683.29ZM703.28,665.18c-6.23-2.32-12.48.6-17.1-4.33-.6-.64-4.31.8-5.79,2.15-.83.75-.57,4.54.09,4.81,5.67,2.34,11.54,4.21,17.38,6.11.48.15,1.43-.39,1.84-.88,2.14-2.55,4.1-1.55,6.73-.48,5.49,2.24,8.53-.08,8.35-6.06a17.87,17.87,0,0,0-1.67-6.66c-1.69-3.69-5-5.16-8.69-3.75C700.35,657.65,701,661,703.28,665.18Zm96.41-5.82c.48-4.62-.5-8.1-5.14-9.68-3.82-1.29-7.44-3.18-11.27-4.43-1.26-.41-2.91.36-4.38.59.31,1.42.35,3,1,4.21s2.14,2.18,3.1,3.35c2.15,2.61,4.21,5.29,7.19,9.07-.2,6.78.57,7.48,9,6.32,2.77-.38,5.62-.45,8.26-1.25,1.46-.43,3.76-2.42,3.57-3.11a7.33,7.33,0,0,0-3.47-4.4C805.52,659.19,803,659.57,799.69,659.36Zm130.53-4.74c-3.43-.64-6.31-2-8.83-1.49-4.39.85-8,1-11.68-2.21-1.25-1.1-5.09-1.07-6.21,0s-1,4.32-.45,6.34c.42,1.56,2.12,3,3.6,4C914.72,666.47,922.22,664.61,930.22,654.62Zm47.66,33.28c3.81-1.81,6.9-2.87,9.48-4.67,1.34-.93,1.79-3.14,2.65-4.78-1.5-.77-3.16-2.41-4.47-2.17-6.69,1.24-13.13,2.53-18.84-3-.73-.71-4.33.11-5.1,1.24s-.62,4.92.26,5.39C967.26,682.72,974.49,681.33,977.88,687.9ZM680.07,648.79c-.07-5.51-7.94-10.59-12.74-8.6-3,1.26-4.83,5.44-2.84,8a39.84,39.84,0,0,0,8.35,8c3.24,2.3,5.68.81,6.51-3C679.69,651.64,679.87,650,680.07,648.79Zm269.34,10.82c-.64.67-3.39,2.16-3.55,3.9-.55,5.77,3.28,11.61,6.65,11.49,3.65-.13,10.41-5.88,10.42-8.87S956.28,659.4,949.41,659.61Zm-210.89,4c4.83-1.21,8.6-2.47,12.48-3,3.36-.49,6.15-1.22,5.92-5.21-.15-2.71-4.68-4.7-8-3.77s-6.73,1.44-9.65,3c-1.92,1-3.47,3.45-4.23,5.59C734.76,660.86,737.5,662.63,738.52,663.57Zm-94-6.43a77.7,77.7,0,0,0,1.32-9c.13-4.26-3.46-5.44-6.55-5.76-3.27-.35-7.14-.41-8.2,4.31-.88,3.88,1,6.36,4.16,7.77C637.87,655.66,640.85,656.13,644.48,657.14Zm103.22,19L761,675c.47,0,1,.09,1.38-.12,1.15-.67,2.56-1.25,3.2-2.27.36-.6-.3-2.23-1-3-1.71-1.91-15.2-4-17.21-2.35-1.54,1.24-3.22,3.58-3.06,5.27S747,675.42,747.7,676.12Zm-228.1,6.33c-3-4.07-5.45-7.83-8.47-11.08-.61-.66-3.54.29-5,1.17-.78.48-1.29,2.72-.83,3.61a57.1,57.1,0,0,0,5.92,9.34,4.61,4.61,0,0,0,4.21,1C516.92,686,517.92,684.19,519.6,682.45ZM609.17,661c-2.26-3.14-3.74-7.43-6.14-8-4.31-1.09-3.85,4.12-5.35,6.73-.11.2-.28.46-.24.64.55,2.35.8,4.86,1.89,6.92.41.79,3.39,1.27,4.15.63C605.48,666.26,606.9,663.9,609.17,661Zm326.43,6.52c-4.91.81-8.19,1.43-8.39,5.71-.17,3.64,3,7,6.37,6.84s7.31-4,6.38-6.86C939.2,670.89,936.81,669.06,935.6,667.56ZM834.38,633.91c4.34,3.42,10.76,4.7,13.42,2.22,1.19-1.12,2.07-4.34,1.35-5.34a9.44,9.44,0,0,0-6-3.63C838.42,626.63,835.4,629.21,834.38,633.91Zm126.2,54.53-.17-2.53c-2.39-1.18-4.72-3.14-7.19-3.33-3.33-.26-7.15,1.36-6.31,5.44.46,2.25,4,5.62,5.74,5.43C955.44,693.15,958,690.25,960.58,688.44ZM718.25,626.93a87.69,87.69,0,0,0-8.56,3c-2.59,1.22-3.09,3.16-1.11,5.61,3.45,4.27,6.1,4,11.67-1.83,1-1,2.26-3.09,1.86-3.85C721.38,628.5,719.48,627.78,718.25,626.93ZM941,641.09l6.17-5.33c-2.08-2.15-3.81-5.34-6.33-6.2-3.18-1.09-5.69,1.53-6.2,5C934,638.63,937,639.61,941,641.09ZM676.39,573.94c-2.74-.22-4.63,1.2-4.49,4.39s.64,6.91,4.61,6.36a12,12,0,0,0,7.44-4.85C685.26,577.87,680.32,574,676.39,573.94Zm154.8,59.26c-.7-4.25-1.92-5.9-5.28-5.93-3.89,0-6.36,1.6-6.59,5.53s3,5.61,5.91,5.17C827.41,637.64,829.22,634.88,831.19,633.2Zm23.43-31.65-.06-2.17c-1.75-1.07-3.39-2.72-5.28-3.07-3.43-.64-5.93,1.25-6.64,4.67-.6,2.87,1.31,4.9,3.92,4.36C849.38,604.77,851.94,602.87,854.62,601.55Zm14.7,29c-2.37,3-4.81,4.73-4.82,6.44,0,3.77,3.49,4.82,6.46,4.37,1.73-.26,3.14-2.55,4.7-3.92ZM744.83,618.79c-2.67,2.52-5.77,4.06-5.93,5.87-.37,4.08,3.65,4.47,6.46,4.2,2.08-.21,4-2.18,6-3.37Zm222.26,39.5c3.17.06,6.17.6,8.84-.1,1-.27,2-3.5,1.68-5.16-.21-1.18-2.5-2.74-3.94-2.83C969.3,649.93,967.88,653,967.09,658.29Zm-61.93-37c-.09-5.11-2.57-6.83-5.78-6.7-1.43,0-3.75,2.08-4,3.47-.53,3.5,1.87,5.77,5.23,5.75C902.33,623.8,904,622,905.16,621.29Zm-200.74,8.36c1.56-2.73,3.34-4.4,3.21-5.9-.31-3.48-3.07-5.26-6.37-4.66-1.43.26-3.73,3.4-3.55,3.65A71.4,71.4,0,0,0,704.42,629.65Zm287.7,25.49c-2.48,3.12-5.06,5-5.24,7.05-.13,1.48,3,3.25,4.6,4.88,1.71-1.91,4-3.6,4.85-5.84C996.72,660.21,994.27,658.11,992.12,655.14ZM701.19,609.76c2.06-3.34,3.95-5.1,4.13-7,.29-3.09-2.31-4.73-5.05-4-2,.57-3.53,2.67-5.27,4.09Zm76.35,3.39c3.73,4.92,7.47,6.62,9.63,4.22.88-1,.84-4,0-5.11C784.45,608.59,781.53,609,777.54,613.15Zm-276.1,66.18c-1.79,2.57-3.56,4-3.72,5.61-.24,2.44.22,5.9,3.72,5.36,1.95-.3,4.9-2.79,4.95-4.37C506.44,684.13,503.78,682.24,501.44,679.33ZM571,655c-1.7,2.83-3.74,4.72-3.5,6.23s3,4.24,4.12,4c2.21-.54,4-2.72,6-4.23Zm98.75-73c-3.84-2.21-6.12-3.87-8.67-4.72-.58-.2-3.09,2.46-3,3.66.27,3.44,2.8,5.41,6.25,5C665.67,585.86,666.87,584.19,669.72,582ZM797.23,683.5l4.51-5.36c-2-1.33-3.85-3.48-5.93-3.69-1.24-.12-2.78,2.8-4.19,4.36ZM640,631.53c0-.64,0-1.27,0-1.91-1.75-1.06-3.71-3.2-5.21-2.92-1.9.35-3.43,2.68-5.11,4.15,1.44,1.18,2.89,3.34,4.31,3.31C636,634.12,638,632.49,640,631.53ZM985.16,630c-2.65-1.86-4.52-4.08-5.61-3.75-1.8.54-3.1,2.74-4.61,4.25,1.49,1.14,2.94,3.13,4.46,3.19S982.47,631.86,985.16,630ZM559.05,670.89l5-4.31c-1.25-1.35-2.71-3.94-3.71-3.78-1.74.29-3.47,2.09-4.6,3.68C555.45,666.87,557.53,668.92,559.05,670.89ZM638.27,612c-2.29-1.33-3.94-2.91-4.63-2.57-1.61.79-2.76,2.52-4.1,3.87,1.24,1.07,2.74,3.2,3.65,3C634.79,615.84,636,614,638.27,612ZM488.86,662.84c1.19,1.25,2,2.67,2.61,2.61,1-.09,2-1.14,3-1.79-.58-.82-1.13-2.29-1.75-2.32C491.66,661.3,490.54,662.13,488.86,662.84Z" transform="translate(-413.92 -122.38)" fill="#fc3"/><path d="M529.86,188.38c3.83,6.62,9.78,6.66,15.06,6.12,11.1-1.12,22.06-3.64,33.16-4.76,27.13-2.76,54.35-4.74,81.47-7.62,27.36-2.91,54.64-6.57,82-9.82,24.35-2.9,48.73-5.53,73.06-8.57,12-1.5,23.91-3.71,35.87-5.5,5.77-.87,11.56-1.7,17.37-2.21a7.4,7.4,0,0,1,8.13,6.33c2.2,11.62,4,23.34,5.46,35.08.5,3.94-1.59,6.48-6.23,6.54-10,.13-20,.2-30,1.06-10.18.88-20.31,2.54-30.43,4.12-12,1.87-23.93,4-35.88,6-14.47,2.52-28.91,5.16-43.38,7.7-3.9.69-7.86,1-11.74,1.82-12.08,2.44-24.12,5.1-36.21,7.52-7.08,1.42-14.2,2.73-21.34,3.76-17.33,2.5-34.65,5.05-52,7.12-14.11,1.68-28.29,2.75-42.45,4-5.69.48-9.29,3.58-12.12,8.26-1.08,1.78-2.87,4-4.66,4.35-18,3.51-35.77,8.07-54.21,9.32-5,.33-7.51-1-9.78-4.46s-4.17-7.29-6.46-10.8c-4.56-7-8.79-14.28-14.13-20.62-3-3.56-8-5.47-12.06-8.09a35.88,35.88,0,0,1-7.44-5.7c25.7-8.9,50.84-18.66,78.19-22.11-.57-5.26-4.65-5.11-7.32-5.09-6.93,0-14.1,0-20.74,1.65-13.23,3.35-26.12,8-39.26,11.78a49.94,49.94,0,0,1-15,1.55c4.89-6.72,11-11.86,18.38-14a380.36,380.36,0,0,1,40.18-9c8.4-1.43,17.16-.61,25.67-1.58,9.46-1.07,18.82-3,28.21-4.61,13.08-2.28,26.18-4.43,39.18-7.08,9.34-1.91,18.46-6,27.81-6.49,12.28-.63,24-3.41,35.87-5.71,13.28-2.57,26.61-4.86,39.89-7.42,11.62-2.24,23.12-5.4,34.83-6.87,15.92-2,31.52-7.17,47.87-5.16a25.43,25.43,0,0,0,4.18-.09c9.79-.41,19.57-.77,29.35-1.28s19.52-1.45,29.3-1.67c5.79-.14,55.39-3.08,56.62,11.42,1.31,15.48,2,31,6.27,46.13,1.31,4.59-.17,6.49-4.81,7.36-.23,0-.46,0-.7.08-13.35,2-13.22,2-14.36-11.28-.48-5.55-1.83-11-2.41-16.58-.61-5.71-1.37-11.52-1-17.2.71-9.82-2.79-13.84-12.36-12.53Q856,146.17,837.34,149c-30.16,4.58-60.2,10.22-90.49,13.44-17.08,1.82-33.74,6.08-51,6.86-14.34.65-28.58,3.1-42.89,4.56-19.87,2-39.75,3.91-59.64,5.8-10.68,1-21.39,1.68-32.05,2.92-9.45,1.09-18.83,2.73-28.24,4.19C532.22,186.93,531.46,187.57,529.86,188.38Zm259.72,10.26-.05-1.61a39.9,39.9,0,0,0-5.8-.76c-7.47.11-15,.2-22.4.66-13.25.82-26.54,1.46-39.72,3q-29.49,3.47-58.84,8.16c-13.33,2.14-26.47,5.48-39.77,7.89-19.73,3.56-39.54,6.66-59.28,10.17-17.66,3.14-35.27,6.54-52.89,9.94a7.36,7.36,0,0,0-4.17,2.17c-1,1.28-2,3.58-1.49,4.79s2.89,2.27,4.47,2.29c2.26,0,4.54-.92,6.8-1.5,17.16-4.39,34.18-9.44,51.5-13.06,31.74-6.63,63.68-12.27,95.48-18.62,38.15-7.62,76.75-10.63,115.52-12.2C782.5,199.82,786,199.09,789.58,198.64Zm-160.63,4c0-.72-.06-1.43-.1-2.15a22.53,22.53,0,0,0-3-1.12c-15.1-3.34-30.29-1.9-45.13.86-19.84,3.69-39.41,8.9-59.1,13.44-11.29,2.61-22.63,5.07-33.89,7.81-3.31.81-6.64,2.1-7.63,7,2.51,0,4.55.31,6.47-.06,5.92-1.12,11.8-2.43,17.67-3.8,11.55-2.68,23.16-5.16,34.6-8.22,27-7.25,54-14.46,82.42-13C623.78,203.6,626.38,203,629,202.66Zm79.1-14.52c3.84,6.59,8.73,5.42,12.83,4.91,13.4-1.64,26.74-3.72,40.08-5.8,5.94-.92,11.78-2.66,17.75-3.33,15.74-1.76,31.53-3.13,47.3-4.67,7.89-.78,15.78-1.52,23.64-2.5,1.29-.16,2.43-1.46,3.65-2.23-.85-.94-1.54-2.41-2.56-2.7a16.35,16.35,0,0,0-5.55-.27c-5.81.44-11.63.91-17.41,1.56q-29.52,3.34-59,6.83c-15.95,1.88-31.9,3.77-47.83,5.78C716.91,186.23,713,187.2,708.05,188.14Z" transform="translate(-413.92 -122.38)" fill="#ffc"/><path d="M442.79,402.55c6.19,3.54,12.28,7.25,18.6,10.53,2.84,1.48,6.13,2.13,9.25,3.07,13.59,4.12,27.22,8.62,41.54,8.6,9.22,0,18.43-2.07,27.67-2.76,12.2-.9,21.65-9.11,33.69-11.58a17.4,17.4,0,0,1,1.54,3.89c3,17.63,6,35.26,8.72,52.94,2.35,15.37,4.11,30.82,6.47,46.19,1.1,7.08,3.16,14,4.53,21.06,1.2,6.15,2.27,12.35,2.9,18.57.15,1.52-1.32,3.56-2.6,4.76-1.79,1.69-4.1,2.82-7.53,5.07,3.16,2.11,5.19,4.51,7.47,4.78,5.16.63,6.6,3.82,7,8,.48,4.57.63,9.17.94,13.89l-10.24,3.27c-1.21-3.24-1.77-6.2-3.36-8.45a7.1,7.1,0,0,0-5.4-2.58c-1.82.14-4.69,1.78-5,3.26-1.42,5.9,4,6.91,8.28,9.33l-6.68,5.41c-2.21-3.25-4.09-6-6.33-9.28,1.29-3.38,1.78-7.46-2.9-9.45a7.26,7.26,0,0,0-6.11.44c-1,.75-1.41,4.33-.54,5.46,2.13,2.76,3.42,4.69,1.66,8.53-.7,1.53,2.66,4.92,4.62,8.23-8.65,6.09-18,10.17-28.65,11l-.74-1.47c1.43-.86,3.13-1.46,4.21-2.63,1.25-1.35,3.06-3.72,2.6-4.73-.66-1.46-3.4-3.19-4.8-2.86-4.09,1-6.43,0-8.6-3.65-.68-1.16-4.21-1.1-6.27-.71-.68.13-1.24,3.1-1.12,4.71.23,3.18,1,6.33,1.47,9.31-7.68,3.39-14.07,2.57-18.4-2-2.17-2.28-3.58-4.74-.13-6.94,3.23-2.06,3.44-4.21.76-6.7s-8.89-2.66-9.38-.18c-1.78,9.14-10.26,9.86-16.4,14.17-3.67-3-7-7.62-13.06-4.52-.49.25-2.61-1.61-3.22-2.86-1.18-2.39-1.81-5-3.06-8.75,6,1.7,11.56-.66,15.52,4.77.64.89,5.12-.43,7.38-1.59,1-.51,1.55-3.36,1.15-4.83-.88-3.25-3.61-2.87-6.33-2.34-3.41.67-6.47,1.07-9.36-2.42-1.34-1.61-5.35-1-9.3-1.56-.6-3.92-1.35-8.81-2.2-14.3,3.23-.15,5.51-.11,7.75-.38,3.77-.45,5.42-3.05,4.72-6.42-.78-3.72-3.86-3.53-6.74-2.48-1.93.71-3.75,1.71-5.27,2.41-15.25-53.07-15.64-108-23.89-161.82ZM545.15,580.87c-.86-1.11-1.76-3.45-3-3.62a14.73,14.73,0,0,0-7,1.18c-2.37.92-4.33,3.2-6.71,3.68-4,.82-4.79,3.11-4.24,6.49.6,3.71,3.49,5.74,6.46,4.34,4.75-2.24,8.93-5.71,13.25-8.8C544.58,583.71,544.61,582.48,545.15,580.87Zm-64.33-23.61c.25-.33.5-.67.74-1,2.31-.21,4.63-.34,6.93-.65,3.51-.47,4.66-2.83,4.18-6-.5-3.38-2.95-3.87-5.76-3.21a31.19,31.19,0,0,0-7.29,2.25c-1.62.85-2.71,2.71-4,4.12Zm34.4-.56c2.69-3,5.6-4.85,5.94-7.05.58-3.74-2.81-5.06-6.1-5s-6.38,1.87-5.79,5.42C509.61,552.1,512.44,553.74,515.22,556.7Zm8.92,13.44c-.12-4.73-2.18-6.61-5.72-6.68-3.3-.07-5.25,1.8-5.43,5.09-.18,3.1,3.26,6.44,6.31,6.18C522.64,574.45,524.26,572.49,524.14,570.14Zm-37,1.87c-3.24,2.55-6.26,3.75-6.91,5.72-1,3.07,1.5,5.62,4.64,5.17a9.75,9.75,0,0,0,6-4.13C491.38,577.92,489,575.2,487.1,572Zm57.63-22.38c-2.62,3.53-4.68,5.38-5.33,7.65-.24.85,3,3.89,4.27,3.71,2-.27,4.74-2.26,5.14-4S546.84,553.21,544.73,549.63Zm-38.19,21.68c-2.72-2.49-4.1-4.65-5.88-5-1.15-.26-2.88,2-4.36,3.19,1.51,1.41,2.82,3.29,4.6,4C501.93,573.91,503.73,572.47,506.54,571.31Zm-37.82-48.42c-3.07-2.18-4.65-4-6.51-4.35-1-.2-2.5,2.07-3.77,3.23,1.51,1.35,2.84,3.23,4.61,3.87C464.08,526,465.82,524.38,468.72,522.89Z" transform="translate(-413.92 -122.38)" fill="#fc3"/><path d="M566.62,375.35c1.24,5.78,2.75,11.59,3.57,17.5a6.22,6.22,0,0,1-2.75,5c-7,3.53-14.14,6.73-21.36,9.75-21.34,8.93-42.89,7.83-64.17.17a281.75,281.75,0,0,1-33.21-14.45c-7.2-3.69-11.91-10.29-13.5-18.55-.94-4.9-1.65-9.83-2.74-16.45,3.76,1.93,5.71,2.95,7.68,3.95,13.67,6.91,27.49,12.83,42.56,16.87,21.92,5.89,42.75,1.88,64-1.45C552.89,376.73,559.13,376.22,566.62,375.35Z" transform="translate(-413.92 -122.38)" fill="#93c"/><path d="M534.75,645.44c-9.53,0-19.18,1-28.55-.27-9.57-1.26-18.88-4.56-28.24-7.23-2.43-.69-7.33-12.12-6.25-14.2a4.7,4.7,0,0,1,3.17-2.17,18.15,18.15,0,0,1,6.9.34c11.06,3.29,22.31,3.81,33.74,3.1a103.85,103.85,0,0,1,16.73-.06c14.79,1.49,28.1-3.71,41.35-8.81,8.67-3.34,16.92-7.77,25.4-11.61,5.73-2.61,6.08-1.7,6.92,4.59,1.15,8.65,0,14.78-9.85,17-2.91.66-5.21,3.8-8,5.5a42.45,42.45,0,0,1-19.54,6.57c-6.3.48-12.3,4-18.58,5.61-4.92,1.23-10.08,1.51-15.14,2.21Z" transform="translate(-413.92 -122.38)" fill="#909"/><path d="M481.58,277.06c-12.48-2.56-21.61-8.62-28.23-18.55-3.22-4.84-6.53-9.62-9.61-14.55-3.33-5.33-6.52-10.79-5.08-17.54C453.16,226.09,479.67,258.61,481.58,277.06Z" transform="translate(-413.92 -122.38)" fill="#b22441"/><path d="M556.47,268.44c-2,3.07-3.12,5.65-5,7.43-12.62,12.06-27.38,16.12-44.34,11.2a42.09,42.09,0,0,1-7.22-2.47c-.95-.49-1.66-2.18-1.75-3.38,0-.67,1.4-2.07,2.19-2.08,18.24-.28,34.77-8.28,52.38-11.38C553.36,267.65,554.06,268,556.47,268.44Z" transform="translate(-413.92 -122.38)" fill="#861b31"/><path d="M470.17,181.19c-16.27,4.69-29.78,12.75-37.47,29-1.92-5,1-12.81,7.24-18.16C448.51,184.7,458.08,179.37,470.17,181.19Z" transform="translate(-413.92 -122.38)" fill="#861b31"/><path d="M524.21,700.7c.39,1.53.79,3.06,1.18,4.6l-6.63,1.35c1.82-3,2.67-4.46,3.52-5.87Z" transform="translate(-413.92 -122.38)" fill="#fff"/><path d="M501.85,614.62h-4.28c0-.44,0-.88,0-1.32h4.27Z" transform="translate(-413.92 -122.38)" fill="#fff"/><path d="M542.58,705.33l-6.07,2.13c-.11-.81-.23-1.62-.34-2.43l6.32.41Z" transform="translate(-413.92 -122.38)" fill="#fff"/><path d="M703.28,665.18c-2.25-4.15-2.93-7.53,1.14-9.09,3.66-1.41,7,.06,8.69,3.75a17.87,17.87,0,0,1,1.67,6.66c.18,6-2.86,8.3-8.35,6.06-2.63-1.07-4.59-2.07-6.73.48-.41.49-1.36,1-1.84.88-5.84-1.9-11.71-3.77-17.38-6.11-.66-.27-.92-4.06-.09-4.81,1.48-1.35,5.19-2.79,5.79-2.15C690.8,665.78,697.05,662.86,703.28,665.18Z" transform="translate(-413.92 -122.38)"/><path d="M799.69,659.36c3.3.21,5.83-.17,7.85.67a7.33,7.33,0,0,1,3.47,4.4c.19.69-2.11,2.68-3.57,3.11-2.64.8-5.49.87-8.26,1.25-8.4,1.16-9.17.46-9-6.32-3-3.78-5-6.46-7.19-9.07-1-1.17-2.38-2.06-3.1-3.35s-.71-2.79-1-4.21c1.47-.23,3.12-1,4.38-.59,3.83,1.25,7.45,3.14,11.27,4.43C799.19,651.26,800.17,654.74,799.69,659.36Z" transform="translate(-413.92 -122.38)"/><path d="M930.22,654.62c-8,10-15.5,11.85-23.57,6.65-1.48-1-3.18-2.43-3.6-4-.54-2-.72-5.2.45-6.34s5-1.12,6.21,0c3.68,3.23,7.29,3.06,11.68,2.21C923.91,652.64,926.79,654,930.22,654.62Z" transform="translate(-413.92 -122.38)"/><path d="M977.88,687.9c-3.39-6.57-10.62-5.18-16-8-.88-.47-1.11-4.14-.26-5.39s4.37-2,5.1-1.24c5.71,5.55,12.15,4.26,18.84,3,1.31-.24,3,1.4,4.47,2.17-.86,1.64-1.31,3.85-2.65,4.78C984.78,685,981.69,686.09,977.88,687.9Z" transform="translate(-413.92 -122.38)"/><path d="M680.07,648.79c-.2,1.24-.38,2.85-.72,4.43-.83,3.84-3.27,5.33-6.51,3a39.84,39.84,0,0,1-8.35-8c-2-2.57-.18-6.75,2.84-8C672.13,638.2,680,643.28,680.07,648.79Z" transform="translate(-413.92 -122.38)"/><path d="M949.41,659.61c6.87-.21,13.53,3.52,13.52,6.52s-6.77,8.74-10.42,8.87c-3.37.12-7.2-5.72-6.65-11.49C946,661.77,948.77,660.28,949.41,659.61Z" transform="translate(-413.92 -122.38)"/><path d="M738.52,663.57c-1-.94-3.76-2.71-3.51-3.41.76-2.14,2.31-4.55,4.23-5.59,2.92-1.57,6.4-2.1,9.65-3s7.88,1.06,8,3.77c.23,4-2.56,4.72-5.92,5.21C747.12,661.1,743.35,662.36,738.52,663.57Z" transform="translate(-413.92 -122.38)"/><path d="M817.4,683.29c-1.21-3.25-5.73-6.89-2-9.68,2.28-1.71,7.44-.49,10.93.61,3.12,1,8.86,1.68,7.2,6.32-.81,2.27-6.56,3.1-10.22,3.88-1.84.39-4-.78-6.06-1.25Z" transform="translate(-413.92 -122.38)"/><path d="M644.48,657.14c-3.63-1-6.61-1.48-9.27-2.66-3.17-1.41-5-3.89-4.16-7.77,1.06-4.72,4.93-4.66,8.2-4.31,3.09.32,6.68,1.5,6.55,5.76A77.7,77.7,0,0,1,644.48,657.14Z" transform="translate(-413.92 -122.38)"/><path d="M747.7,676.12c-.73-.7-3.24-2-3.37-3.58s1.52-4,3.06-5.27c2-1.63,15.5.44,17.21,2.35.66.75,1.32,2.38,1,3-.64,1-2,1.6-3.2,2.27-.36.21-.91.08-1.38.12Z" transform="translate(-413.92 -122.38)"/><path d="M519.6,682.45c-1.68,1.74-2.68,3.5-4.15,4.08a4.61,4.61,0,0,1-4.21-1,57.1,57.1,0,0,1-5.92-9.34c-.46-.89.05-3.13.83-3.61,1.44-.88,4.37-1.83,5-1.17C514.15,674.62,516.6,678.38,519.6,682.45Z" transform="translate(-413.92 -122.38)"/><path d="M609.17,661c-2.27,2.86-3.69,5.22-5.69,6.89-.76.64-3.74.16-4.15-.63-1.09-2.06-1.34-4.57-1.89-6.92,0-.18.13-.44.24-.64,1.5-2.61,1-7.82,5.35-6.73C605.43,653.61,606.91,657.9,609.17,661Z" transform="translate(-413.92 -122.38)"/><path d="M935.6,667.56c1.21,1.5,3.6,3.33,4.36,5.69.93,2.86-3.17,6.73-6.38,6.86s-6.54-3.2-6.37-6.84C927.41,669,930.69,668.37,935.6,667.56Z" transform="translate(-413.92 -122.38)"/><path d="M834.38,633.91c1-4.7,4-7.28,8.8-6.75a9.44,9.44,0,0,1,6,3.63c.72,1-.16,4.22-1.35,5.34C845.14,638.61,838.72,637.33,834.38,633.91Z" transform="translate(-413.92 -122.38)"/><path d="M960.58,688.44c-2.63,1.81-5.14,4.71-7.93,5-1.79.19-5.28-3.18-5.74-5.43-.84-4.08,3-5.7,6.31-5.44,2.47.19,4.8,2.15,7.19,3.33Z" transform="translate(-413.92 -122.38)"/><path d="M718.25,626.93c1.23.85,3.13,1.57,3.86,2.92.4.76-.87,2.82-1.86,3.85-5.57,5.8-8.22,6.1-11.67,1.83-2-2.45-1.48-4.39,1.11-5.61A87.69,87.69,0,0,1,718.25,626.93Z" transform="translate(-413.92 -122.38)"/><path d="M941,641.09c-4-1.48-7-2.46-6.36-6.56.51-3.44,3-6.06,6.2-5,2.52.86,4.25,4.05,6.33,6.2Z" transform="translate(-413.92 -122.38)"/><path d="M676.39,573.94c3.93,0,8.87,3.93,7.56,5.9a12,12,0,0,1-7.44,4.85c-4,.55-4.48-3.31-4.61-6.36S673.65,573.72,676.39,573.94Z" transform="translate(-413.92 -122.38)"/><path d="M831.19,633.2c-2,1.68-3.78,4.44-6,4.77-2.91.44-6.14-1.2-5.91-5.17s2.7-5.57,6.59-5.53C829.27,627.3,830.49,629,831.19,633.2Z" transform="translate(-413.92 -122.38)"/><path d="M854.62,601.55c-2.68,1.32-5.24,3.22-8.06,3.79-2.61.54-4.52-1.49-3.92-4.36.71-3.42,3.21-5.31,6.64-4.67,1.89.35,3.53,2,5.28,3.07Z" transform="translate(-413.92 -122.38)"/><path d="M869.32,630.55l6.34,6.89c-1.56,1.37-3,3.66-4.7,3.92-3,.45-6.48-.6-6.46-4.37C864.51,635.28,867,633.58,869.32,630.55Z" transform="translate(-413.92 -122.38)"/><path d="M744.83,618.79l6.5,6.7c-2,1.19-3.89,3.16-6,3.37-2.81.27-6.83-.12-6.46-4.2C739.06,622.85,742.16,621.31,744.83,618.79Z" transform="translate(-413.92 -122.38)"/><path d="M967.09,658.29c.79-5.25,2.21-8.36,6.58-8.09,1.44.09,3.73,1.65,3.94,2.83.29,1.66-.66,4.89-1.68,5.16C973.26,658.89,970.26,658.35,967.09,658.29Z" transform="translate(-413.92 -122.38)"/><path d="M905.16,621.29c-1.15.69-2.83,2.51-4.52,2.52-3.36,0-5.76-2.25-5.23-5.75.22-1.39,2.54-3.42,4-3.47C902.59,614.46,905.07,616.18,905.16,621.29Z" transform="translate(-413.92 -122.38)"/><path d="M704.42,629.65a71.4,71.4,0,0,1-6.71-6.91c-.18-.25,2.12-3.39,3.55-3.65,3.3-.6,6.06,1.18,6.37,4.66C707.76,625.25,706,626.92,704.42,629.65Z" transform="translate(-413.92 -122.38)"/><path d="M992.12,655.14c2.15,3,4.6,5.07,4.21,6.09-.85,2.24-3.14,3.93-4.85,5.84-1.65-1.63-4.73-3.4-4.6-4.88C987.06,660.12,989.64,658.26,992.12,655.14Z" transform="translate(-413.92 -122.38)"/><path d="M701.19,609.76,695,602.89c1.74-1.42,3.29-3.52,5.27-4.09,2.74-.78,5.34.86,5.05,4C705.14,604.66,703.25,606.42,701.19,609.76Z" transform="translate(-413.92 -122.38)"/><path d="M777.54,613.15c4-4.2,6.91-4.56,9.61-.89.86,1.16.9,4.13,0,5.11C785,619.77,781.27,618.07,777.54,613.15Z" transform="translate(-413.92 -122.38)"/><path d="M501.44,679.33c2.34,2.91,5,4.8,4.95,6.6-.05,1.58-3,4.07-4.95,4.37-3.5.54-4-2.92-3.72-5.36C497.88,683.34,499.65,681.9,501.44,679.33Z" transform="translate(-413.92 -122.38)"/><path d="M571,655l6.61,6c-2,1.51-3.78,3.69-6,4.23-1.08.27-3.86-2.37-4.12-4S569.27,657.83,571,655Z" transform="translate(-413.92 -122.38)"/><path d="M669.72,582c-2.85,2.18-4.05,3.85-5.41,4-3.45.36-6-1.61-6.25-5-.1-1.2,2.41-3.86,3-3.66C663.6,578.14,665.88,579.8,669.72,582Z" transform="translate(-413.92 -122.38)"/><path d="M797.23,683.5l-5.61-4.69c1.41-1.56,3-4.48,4.19-4.36,2.08.21,4,2.36,5.93,3.69Z" transform="translate(-413.92 -122.38)"/><path d="M640,631.53c-2,1-4,2.59-6,2.63-1.42,0-2.87-2.13-4.31-3.31,1.68-1.47,3.21-3.8,5.11-4.15,1.5-.28,3.46,1.86,5.21,2.92C640,630.26,640,630.89,640,631.53Z" transform="translate(-413.92 -122.38)"/><path d="M985.16,630c-2.69,1.83-4.26,3.74-5.76,3.69s-3-2.05-4.46-3.19c1.51-1.51,2.81-3.71,4.61-4.25C980.64,626,982.51,628.17,985.16,630Z" transform="translate(-413.92 -122.38)"/><path d="M559.05,670.89c-1.52-2-3.6-4-3.32-4.41,1.13-1.59,2.86-3.39,4.6-3.68,1-.16,2.46,2.43,3.71,3.78Z" transform="translate(-413.92 -122.38)"/><path d="M638.27,612c-2.25,2-3.48,3.86-5.08,4.27-.91.23-2.41-1.9-3.65-3,1.34-1.35,2.49-3.08,4.1-3.87C634.33,609.07,636,610.65,638.27,612Z" transform="translate(-413.92 -122.38)"/><path d="M488.86,662.84c1.68-.71,2.8-1.54,3.89-1.5.62,0,1.17,1.5,1.75,2.32-1,.65-2,1.7-3,1.79C490.82,665.51,490.05,664.09,488.86,662.84Z" transform="translate(-413.92 -122.38)"/><path d="M789.58,198.64c-3.55.45-7.08,1.18-10.64,1.32-38.77,1.57-77.37,4.58-115.52,12.2-31.8,6.35-63.74,12-95.48,18.62-17.32,3.62-34.34,8.67-51.5,13.06-2.26.58-4.54,1.52-6.8,1.5-1.58,0-3.95-1.07-4.47-2.29s.47-3.51,1.49-4.79a7.36,7.36,0,0,1,4.17-2.17c17.62-3.4,35.23-6.8,52.89-9.94,19.74-3.51,39.55-6.61,59.28-10.17,13.3-2.41,26.44-5.75,39.77-7.89q29.33-4.69,58.84-8.16c13.18-1.54,26.47-2.18,39.72-3,7.45-.46,14.93-.55,22.4-.66a39.9,39.9,0,0,1,5.8.76Z" transform="translate(-413.92 -122.38)"/><path d="M629,202.66c-2.57.29-5.17.94-7.72.81-28.4-1.47-55.39,5.74-82.42,13-11.44,3.06-23,5.54-34.6,8.22-5.87,1.37-11.75,2.68-17.67,3.8-1.92.37-4,.06-6.47.06,1-4.94,4.32-6.23,7.63-7,11.26-2.74,22.6-5.2,33.89-7.81,19.69-4.54,39.26-9.75,59.1-13.44,14.84-2.76,30-4.2,45.13-.86a22.53,22.53,0,0,1,3,1.12C628.89,201.23,628.92,201.94,629,202.66Z" transform="translate(-413.92 -122.38)"/><path d="M708.05,188.14c4.9-.94,8.86-1.91,12.89-2.42,15.93-2,31.88-3.9,47.83-5.78q29.49-3.47,59-6.83c5.78-.65,11.6-1.12,17.41-1.56a16.35,16.35,0,0,1,5.55.27c1,.29,1.71,1.76,2.56,2.7-1.22.77-2.36,2.07-3.65,2.23-7.86,1-15.75,1.72-23.64,2.5-15.77,1.54-31.56,2.91-47.3,4.67-6,.67-11.81,2.41-17.75,3.33-13.34,2.08-26.68,4.16-40.08,5.8C716.78,193.56,711.89,194.73,708.05,188.14Z" transform="translate(-413.92 -122.38)"/><path d="M545.15,580.87c-.54,1.61-.57,2.84-1.17,3.27-4.32,3.09-8.5,6.56-13.25,8.8-3,1.4-5.86-.63-6.46-4.34-.55-3.38.19-5.67,4.24-6.49,2.38-.48,4.34-2.76,6.71-3.68a14.73,14.73,0,0,1,7-1.18C543.39,577.42,544.29,579.76,545.15,580.87Z" transform="translate(-413.92 -122.38)"/><path d="M480.82,557.26l-5.24-4.5c1.33-1.41,2.42-3.27,4-4.12a31.19,31.19,0,0,1,7.29-2.25c2.81-.66,5.26-.17,5.76,3.21.48,3.17-.67,5.53-4.18,6-2.3.31-4.62.44-6.93.65C481.32,556.59,481.07,556.93,480.82,557.26Z" transform="translate(-413.92 -122.38)"/><path d="M515.22,556.7c-2.78-3-5.61-4.6-6-6.66-.59-3.55,2.36-5.4,5.79-5.42s6.68,1.29,6.1,5C520.82,551.85,517.91,553.66,515.22,556.7Z" transform="translate(-413.92 -122.38)"/><path d="M524.14,570.14c.12,2.35-1.5,4.31-4.84,4.59-3,.26-6.49-3.08-6.31-6.18.18-3.29,2.13-5.16,5.43-5.09C522,563.53,524,565.41,524.14,570.14Z" transform="translate(-413.92 -122.38)"/><path d="M487.1,572c1.85,3.19,4.28,5.91,3.75,6.76a9.75,9.75,0,0,1-6,4.13c-3.14.45-5.66-2.1-4.64-5.17C480.84,575.76,483.86,574.56,487.1,572Z" transform="translate(-413.92 -122.38)"/><path d="M544.73,549.63c2.11,3.58,4.44,5.79,4.08,7.37s-3.18,3.72-5.14,4c-1.32.18-4.51-2.86-4.27-3.71C540.05,555,542.11,553.16,544.73,549.63Z" transform="translate(-413.92 -122.38)"/><path d="M506.54,571.31c-2.81,1.16-4.61,2.6-5.64,2.17-1.78-.74-3.09-2.62-4.6-4,1.48-1.15,3.21-3.45,4.36-3.19C502.44,566.66,503.82,568.82,506.54,571.31Z" transform="translate(-413.92 -122.38)"/><path d="M468.72,522.89c-2.9,1.49-4.64,3.12-5.67,2.75-1.77-.64-3.1-2.52-4.61-3.87,1.27-1.16,2.76-3.43,3.77-3.23C464.07,518.91,465.65,520.71,468.72,522.89Z" transform="translate(-413.92 -122.38)"/><path d="M929.64,572a15.41,15.41,0,0,1-10.78-2.48A9.48,9.48,0,0,0,914,567.9c-6.51,0-11.11-4.19-16.47-6.8-7.94-3.87-16.11-6.91-25.14-3.29a32.69,32.69,0,0,1-16.78,2.07,14.89,14.89,0,0,0-9.86,2.4q-5.65,3.39-11.38,6.64c-2.43,1.37-5,2.43-7.37,4-5.15,3.39-9.87,2.16-14.29-1.21-5.25-4-10.37-8.16-15.43-12.41-3.36-2.83-9.28-3.57-12.58-.8-4,3.37-7.67,7.15-11.49,10.74a8.41,8.41,0,0,1-1.9,1.7c-3,1.42-6,2.81-9,4-2.65,1.05-4.79,0-6.67-2a20.92,20.92,0,0,1-6-11.23c-.62-3.68-2.43-7.22-2.69-10.89-.53-7.65-6.55-7.95-11.63-9.24a16.88,16.88,0,0,1-12.54-13.12c-2-8.81,2.12-15.71,5.83-22.87,2.79-5.39,4.25-10.92,2.66-17-1-3.75-3-6.24-6.76-7.53a5.42,5.42,0,0,1-2.81-3.46,4,4,0,0,1,1.52-3.52,5.35,5.35,0,0,1,4.16.31c3,1.45,7.7.61,10.43-2.66a137.23,137.23,0,0,0,10.13-13.21c2-3.11,3.25-6.79,4.58-10.31,4.21-11.09,12.06-18.88,21.94-25,1.88-1.16,3.34-3,5.09-4.39a4.17,4.17,0,0,1,2.31-.95c9-.13,18.1-.23,27,1.63a40.79,40.79,0,0,1,9.69,3.42c3.82,1.9,7,.58,10.46-.86,7-2.94,14.12-5.95,21.4-8.23,5.58-1.74,11.49-1.31,17.33-.47a48.11,48.11,0,0,1,25.9,12.35c5.56,5,9,11.42,11.15,18.39a112.27,112.27,0,0,1,3.86,17A13.58,13.58,0,0,0,916.29,472a25.59,25.59,0,0,1,9.88,8.16c4.78,6.86,6.25,14.35,3.77,22.42-1.21,3.92-2.65,7.77-4,11.64-2.25,6.34-.95,10.36,5,13.63,3.66,2,7.68,3.37,11.41,5.28,4.1,2.1,8.14,4.35,12,6.81a8.39,8.39,0,0,1,3.78,6.52c.55,5.29,1.16,10.63-.9,15.67-.61,1.48-2.5,2.51-4,3.54-.74.52-2,.33-2.7.87-5.65,4.28-12.18,5.21-19,5.28A15.67,15.67,0,0,0,929.64,572ZM732.27,479.48a4.6,4.6,0,0,0,0,.74c.23.49.48,1,.7,1.46,4,9,3.54,17.78-1.1,26.53a72.41,72.41,0,0,0-5.13,12.46c-2.8,9.13,6,18.4,13.9,17.48,2.41-.28,5.28,1.56,7.58,3a6.94,6.94,0,0,1,2.68,4.26c.75,4.11,1,8.32,1.49,12.49.42,3.73,1.42,7.25,4.05,10.06,1.66,1.78,3.85,3.09,6.07,1.73,4.85-3,9.47-6.3,14.17-9.52,3.36-2.29,6.57-4.84,10.08-6.89S796,552,798,554.33c5.59,6.58,12.57,11.48,19.69,16.19a5,5,0,0,0,5.75,0c4.07-2.42,8.33-4.51,12.49-6.77a30.8,30.8,0,0,0,5-2.95,22,22,0,0,1,14.5-5.35,107.69,107.69,0,0,0,13.48-1.31c4.37-.58,8.9-2.53,13-1.87,6.07,1,11.91,3.57,17.72,5.82,3,1.16,5.56,3.42,8.56,4.54,4.61,1.71,9.42,2.86,14.15,4.26,8.71,2.58,16.95,1.86,24.83-3,5.17-3.2,8-7.31,7-13.53a21.69,21.69,0,0,1-.25-2.26,7.81,7.81,0,0,0-4.18-6.59c-4.15-2.25-8.59-4-12.82-6.06-4.5-2.22-9.24-4.05-12.62-8.08-3.25-3.87-4.28-8.17-2.64-12.92,1.52-4.38,3.78-8.56,4.85-13,2.3-9.58-.14-18.7-8.12-23.43a61.37,61.37,0,0,1-13.1-10.91,5.14,5.14,0,0,1-1-2.81c-.16-1.35.25-2.78,0-4.09-1.11-5.47-2.19-10.95-3.66-16.32-.94-3.41-1.93-7.11-4-9.83-2.56-3.35-6.14-6-9.52-8.65-7.42-5.78-16.12-8.2-25.35-8.58-12-.5-22.5,4.49-32.65,10.09a12.69,12.69,0,0,1-9.81,1.2c-7.82-1.87-15.68-3.67-23.61-4.95a25,25,0,0,0-17.17,3c-2.77,1.65-5.29,3.74-7.91,5.63-7.11,5.15-12.31,11.74-14.93,20.18-2.91,9.38-8.87,16.63-16,23C737.46,476.83,734.73,478,732.27,479.48Z" transform="translate(-413.92 -122.38)"/><path d="M732.27,479.48c2.46-1.49,5.19-2.65,7.28-4.52,7.14-6.37,13.1-13.62,16-23,2.62-8.44,7.82-15,14.93-20.18,2.62-1.89,5.14-4,7.91-5.63a25,25,0,0,1,17.17-3c7.93,1.28,15.79,3.08,23.61,4.95a12.69,12.69,0,0,0,9.81-1.2c10.15-5.6,20.64-10.59,32.65-10.09,9.23.38,17.93,2.8,25.35,8.58,3.38,2.65,7,5.3,9.52,8.65,2.08,2.72,3.07,6.42,4,9.83,1.47,5.37,2.55,10.85,3.66,16.32.26,1.31-.15,2.74,0,4.09a5.14,5.14,0,0,0,1,2.81A61.37,61.37,0,0,0,918.34,478c8,4.73,10.42,13.85,8.12,23.43-1.07,4.47-3.33,8.65-4.85,13-1.64,4.75-.61,9,2.64,12.92,3.38,4,8.12,5.86,12.62,8.08,4.23,2.1,8.67,3.81,12.82,6.06a7.81,7.81,0,0,1,4.18,6.59,21.69,21.69,0,0,0,.25,2.26c1,6.22-1.79,10.33-7,13.53-7.88,4.87-16.12,5.59-24.83,3-4.73-1.4-9.54-2.55-14.15-4.26-3-1.12-5.57-3.38-8.56-4.54-5.81-2.25-11.65-4.84-17.72-5.82-4.13-.66-8.66,1.29-13,1.87a107.69,107.69,0,0,1-13.48,1.31,22,22,0,0,0-14.5,5.35,30.8,30.8,0,0,1-5,2.95c-4.16,2.26-8.42,4.35-12.49,6.77a5,5,0,0,1-5.75,0c-7.12-4.71-14.1-9.61-19.69-16.19-2-2.3-7.7-3.07-11.17-1.05s-6.72,4.6-10.08,6.89c-4.7,3.22-9.32,6.56-14.17,9.52-2.22,1.36-4.41,0-6.07-1.73-2.63-2.81-3.63-6.33-4.05-10.06-.48-4.17-.74-8.38-1.49-12.49a6.94,6.94,0,0,0-2.68-4.26c-2.3-1.44-5.17-3.28-7.58-3-7.93.92-16.7-8.35-13.9-17.48a72.41,72.41,0,0,1,5.13-12.46c4.64-8.75,5.08-17.51,1.1-26.53-.22-.49-.47-1-.7-1.46A4.6,4.6,0,0,1,732.27,479.48Zm66.88,23.67a15.49,15.49,0,0,1,.56,2.6c.18,9,5.52,15.66,10,22.71a8.62,8.62,0,0,0,2.78,2.15c3.62,2.29,7.58,4.16,10.84,6.86,6.8,5.64,14.16,4.19,21.41,2.07a29,29,0,0,0,9.8-5.46,76.85,76.85,0,0,0,9.4-9.68c4.72-5.48,8.32-11.45,7.91-19.18-.23-4.22.1-4.27,4.56-4.44a7.31,7.31,0,0,0,1.92-.28c6-1.95,12.12-3.9,17.14-7.91a44.41,44.41,0,0,0,8.43-8.34c1.65-2.29,2.64-5.55,1.08-8.53a38.5,38.5,0,0,0-4.17-6.13,5.27,5.27,0,0,0-2.92-1.8,34.6,34.6,0,0,0-6.75-.41c-2.84.09-5.67.62-8.52.67a5.92,5.92,0,0,1-5.47-8.64,2.85,2.85,0,0,0,0-2.54,3.54,3.54,0,0,0-2.74-.88c-2.54.42-5,1.51-7.54,1.7-6.43.5-12.87.85-19.31.88a60.41,60.41,0,0,1-12.9-1c-5.83-1.25-11.43-2.67-16.79-6.29-4.75-3.21-7.82-7.11-10.94-11.43-.58-.8-1.74-1.19-2.63-1.77-.4.92-1.33,2-1.09,2.74a43.77,43.77,0,0,0,3.22,7.52,15.66,15.66,0,0,1,1.16,13.62c-1.37,3.68-5.16,6.12-5.49,10.4,0,.44-.64.84-1,1.24-2.76,3.24-5.49,6.49-10.52,4.87a3.13,3.13,0,0,0-1.92.19c-5.2,2-10.43,4-15.53,6.26a5.16,5.16,0,0,0-2.78,3.33,147.85,147.85,0,0,0-.84,15.46c0,2.92,2,4.73,4.86,5.28a28.28,28.28,0,0,0,19.36-3.1C795.43,505,797.15,504.15,799.15,503.15Z" transform="translate(-413.92 -122.38)" fill="#402619"/><path d="M799.15,503.15c-2,1-3.72,1.81-5.39,2.72A28.28,28.28,0,0,1,774.4,509c-2.83-.55-4.86-2.36-4.86-5.28a147.85,147.85,0,0,1,.84-15.46,5.16,5.16,0,0,1,2.78-3.33c5.1-2.27,10.33-4.23,15.53-6.26a3.13,3.13,0,0,1,1.92-.19c5,1.62,7.76-1.63,10.52-4.87.34-.4,1-.8,1-1.24.33-4.28,4.12-6.72,5.49-10.4a15.66,15.66,0,0,0-1.16-13.62,43.77,43.77,0,0,1-3.22-7.52c-.24-.72.69-1.82,1.09-2.74.89.58,2.05,1,2.63,1.77,3.12,4.32,6.19,8.22,10.94,11.43,5.36,3.62,11,5,16.79,6.29a60.41,60.41,0,0,0,12.9,1c6.44,0,12.88-.38,19.31-.88,2.54-.19,5-1.28,7.54-1.7a3.54,3.54,0,0,1,2.74.88,2.85,2.85,0,0,1,0,2.54,5.92,5.92,0,0,0,5.47,8.64c2.85-.05,5.68-.58,8.52-.67a34.6,34.6,0,0,1,6.75.41,5.27,5.27,0,0,1,2.92,1.8,38.5,38.5,0,0,1,4.17,6.13c1.56,3,.57,6.24-1.08,8.53a44.41,44.41,0,0,1-8.43,8.34c-5,4-11.11,6-17.14,7.91a7.31,7.31,0,0,1-1.92.28c-4.46.17-4.79.22-4.56,4.44.41,7.73-3.19,13.7-7.91,19.18a76.85,76.85,0,0,1-9.4,9.68,29,29,0,0,1-9.8,5.46c-7.25,2.12-14.61,3.57-21.41-2.07-3.26-2.7-7.22-4.57-10.84-6.86a8.62,8.62,0,0,1-2.78-2.15c-4.5-7.05-9.84-13.74-10-22.71A15.49,15.49,0,0,0,799.15,503.15ZM813,454.57a31.43,31.43,0,0,1-.46,3.65c-1.13,4.41-1.95,9-3.67,13.14-1,2.43-3.68,4.11-5.31,6.35-2.29,3.13-5.54,3.63-9,4.09A69.44,69.44,0,0,0,783.24,484a25.77,25.77,0,0,0-7,4,5.11,5.11,0,0,0-2,3.18c-.39,3.42-.39,6.88-.54,10.32a3,3,0,0,0,2.84,3.33c7.8,1.15,14.76-.33,20.41-6.32a5.06,5.06,0,0,1,3.74-1.57,3.51,3.51,0,0,1,3,4c-.45,7.21,2,13.6,5.84,19.48,5.52,8.4,14.7,11.49,23.17,15.57a3,3,0,0,0,1.92.12c4.33-1.1,9-1.54,12.85-3.62,4.52-2.48,9.13-5.34,12-10.05,1.81-2.94,4.39-5.49,5.73-8.6,2.19-5.09,3-10.48,1-16-.41-1.08-.23-3.1.49-3.69a4.75,4.75,0,0,1,4-.46c2.72.94,5.24,2.82,8.29,2a30.34,30.34,0,0,0,6.88-2.65c5.51-3,11.57-5.36,14.07-12.13,1-2.64.59-4.35-1.32-6-3.85-3.33-11.12-3.73-15.71-1.18-3,1.65-5.64,1.05-6.51-.95-1.47-3.36-3-6.69-4.9-10.83C852.17,464.76,832.11,465.08,813,454.57Z" transform="translate(-413.92 -122.38)"/><path d="M813,454.57c19.1,10.51,39.16,10.19,58.49,7.33,1.88,4.14,3.43,7.47,4.9,10.83.87,2,3.55,2.6,6.51.95,4.59-2.55,11.86-2.15,15.71,1.18,1.91,1.65,2.29,3.36,1.32,6-2.5,6.77-8.56,9.1-14.07,12.13a30.34,30.34,0,0,1-6.88,2.65c-3,.82-5.57-1.06-8.29-2a4.75,4.75,0,0,0-4,.46c-.72.59-.9,2.61-.49,3.69,2.08,5.53,1.23,10.92-1,16-1.34,3.11-3.92,5.66-5.73,8.6-2.9,4.71-7.51,7.57-12,10.05-3.81,2.08-8.52,2.52-12.85,3.62a3,3,0,0,1-1.92-.12c-8.47-4.08-17.65-7.17-23.17-15.57-3.86-5.88-6.29-12.27-5.84-19.48a3.51,3.51,0,0,0-3-4,5.06,5.06,0,0,0-3.74,1.57c-5.65,6-12.61,7.47-20.41,6.32a3,3,0,0,1-2.84-3.33c.15-3.44.15-6.9.54-10.32a5.11,5.11,0,0,1,2-3.18,25.77,25.77,0,0,1,7-4,69.44,69.44,0,0,1,11.32-2.18c3.47-.46,6.72-1,9-4.09,1.63-2.24,4.31-3.92,5.31-6.35,1.72-4.17,2.54-8.73,3.67-13.14A31.43,31.43,0,0,0,813,454.57Zm45.62,50.76c-2,1.79-4,3.18-5.46,5.06-5.39,7.09-13.33,7.46-21,7.89-2.61.15-5.34-1.45-8-2.34-1.95-.65-3.87-1.32-4.87,1.27-.86,2.25.36,4,3.11,4.6,5.44,1.22,10.85,2.67,16.53,1.44,1.67-.36,3.66.16,5.11-.54,5.5-2.64,10.88-5.45,14.71-10.58C860.51,509.73,860,507.88,858.63,505.33Zm-17.22-24.41c-.16,1.6.29,3.46,2.66,3.59s1.89-2,2.24-3.52a33.33,33.33,0,0,1,2.1-6.05,3,3,0,0,1,2.09-1.65c.62,0,1.44,1.13,1.76,1.92.61,1.49.74,3.19,1.42,4.63a3.44,3.44,0,0,0,2.28,1.3c.33.07,1.28-.93,1.25-1.4-.19-3.8-.41-7.77-3.53-10.44-1.06-.9-3.58-1.48-4.55-.85C844.83,471.21,841.73,475,841.41,480.92Zm-10,1.08c-1.63-3.52-2.91-6.95-6.17-8.8a5,5,0,0,0-4.28-.12c-4.14,2.52-8.16,5.43-8,11.06,0,1.26,1.1,2.48,1.7,3.72a27.47,27.47,0,0,0,2.13-2.6c1.33-2.14,2.24-4.63,3.88-6.47s3.56-1.14,4.54,1.14c.46,1.09.58,2.46,1.32,3.26a3.9,3.9,0,0,0,3,1.15C830.28,484.23,830.78,482.85,831.4,482Zm1.67,18.59c-.44.38-1.63.93-1.94,1.8-.37,1.06-.42,3.16.12,3.44,1.74.92,4.13,2.11,5.7,1.56,3.28-1.14,6.27-3.22,9.2-5.19a3.2,3.2,0,0,0,.82-3,3.44,3.44,0,0,0-2.83-1.3c-.92,0-1.81,1-2.66,1.62-2,1.48-3.79,4.23-6.73,1.36C834.57,500.71,834.13,500.77,833.07,500.59Z" transform="translate(-413.92 -122.38)" fill="#c27f5e"/><path d="M858.63,505.33c1.4,2.55,1.88,4.4.1,6.8-3.83,5.13-9.21,7.94-14.71,10.58-1.45.7-3.44.18-5.11.54-5.68,1.23-11.09-.22-16.53-1.44-2.75-.62-4-2.35-3.11-4.6,1-2.59,2.92-1.92,4.87-1.27,2.64.89,5.37,2.49,8,2.34,7.72-.43,15.66-.8,21-7.89C854.6,508.51,856.66,507.12,858.63,505.33Z" transform="translate(-413.92 -122.38)"/><path d="M841.41,480.92c.32-5.9,3.42-9.71,7.72-12.47,1-.63,3.49-.05,4.55.85,3.12,2.67,3.34,6.64,3.53,10.44,0,.47-.92,1.47-1.25,1.4a3.44,3.44,0,0,1-2.28-1.3c-.68-1.44-.81-3.14-1.42-4.63-.32-.79-1.14-1.9-1.76-1.92a3,3,0,0,0-2.09,1.65,33.33,33.33,0,0,0-2.1,6.05c-.35,1.53.18,3.65-2.24,3.52S841.25,482.52,841.41,480.92Z" transform="translate(-413.92 -122.38)"/><path d="M831.4,482c-.62.85-1.12,2.23-1.82,2.34a3.9,3.9,0,0,1-3-1.15c-.74-.8-.86-2.17-1.32-3.26-1-2.28-2.92-3-4.54-1.14s-2.55,4.33-3.88,6.47a27.47,27.47,0,0,1-2.13,2.6c-.6-1.24-1.66-2.46-1.7-3.72-.21-5.63,3.81-8.54,8-11.06a5,5,0,0,1,4.28.12C828.49,475.05,829.77,478.48,831.4,482Z" transform="translate(-413.92 -122.38)"/><path d="M833.07,500.59c1.06.18,1.5.12,1.68.3,2.94,2.87,4.69.12,6.73-1.36.85-.63,1.74-1.57,2.66-1.62a3.44,3.44,0,0,1,2.83,1.3,3.2,3.2,0,0,1-.82,3c-2.93,2-5.92,4.05-9.2,5.19-1.57.55-4-.64-5.7-1.56-.54-.28-.49-2.38-.12-3.44C831.44,501.52,832.63,501,833.07,500.59Z" transform="translate(-413.92 -122.38)"/><path d="M662.9,319.26c-4.6-.69-5.51-3.34-5.08-6.84a2.33,2.33,0,0,0-.18-1.16c-3.34-8.32.91-15.12,4.42-22.06a1.74,1.74,0,0,1,.44-.64c4.93-3.44,9.64-7.38,15.63-8.84a37.63,37.63,0,0,1,9.64-1.26,105.7,105.7,0,0,1,13,1.51c4.7.71,9.36,1.62,14,2.5s7.87,3.56,10.62,7.12c2,2.65,4.8,5,6,8,2,5.14.34,10.22-2.33,14.9-2.39,4.17-1.43,5.52,2.07,8.76,3.34,3.09,7,5.8,10.21,8.94,4.44,4.4,9.59,4.49,15,4.7,3.61.15,7.22.61,10.82,1.06,6.77.85,11.08,5.37,15.67,9.93,7.6,7.55,10.54,17.66,15.71,26.53,2.22,3.82,4.07,7.84,6.36,11.61,6.1,10,4.54,20.6.58,30.42-2.58,6.41-7.74,11.85-12.14,17.42-1.78,2.24-2,3.38.08,5.43,6.59,6.39,7.47,14.91,6.87,23.24-.34,4.77-4.21,7.84-9.11,10-6.29,2.83-13.2,2.28-19.16,4.48-7.13,2.63-14.09,1.48-21,2s-12.24,4.08-17,8.13c-10.45,8.82-22.25,11.45-35.32,9.15-4.41-.77-8.61-2.68-13-3.85a8.16,8.16,0,0,0-3.74.42c-4.2,1-8.22,2.47-12.72.66-3.38-1.35-7.12-1.86-10.74-2.53a4.91,4.91,0,0,0-2.87.77c-3.5,1.87-6.87,4-10.43,5.76-7.46,3.67-15.05,2-22.4-.22-3.68-1.1-5.19-7.53-4.2-13.17a16.45,16.45,0,0,1,5.8-10.14c6.94-6,7.5-13.84,3.19-21.95-2.59-4.86-4.2-10.3-5.79-15.62-.81-2.74-1.82-4.35-4.85-4.6a9.83,9.83,0,0,1-8.5-5.93c-3.77-7.7-2.38-14.8,4.32-20.2,2.71-2.19,5.49-4.32,8-6.73.64-.61.7-2.29.43-3.32-1.33-5.16-2.59-10.37-4.41-15.36-2.13-5.87.33-11.06,2.07-16.2,1.48-4.37,3.48-9,6.52-12.31,5.55-6.09,12-11.31,18.16-16.89.19-.17.54-.16.7-.34a29.71,29.71,0,0,1,14.85-9.35C660.43,322.88,661.33,321,662.9,319.26Zm-11.24,46.91a69.79,69.79,0,0,1,.3,7.77c-.4,6.15,3.35,10.34,6.95,14.33a17,17,0,0,0,8.11,4.91c10.82,2.69,21.93,2.39,32.92,1.52A183.47,183.47,0,0,0,722.81,391c10-2.1,18.63-6.71,25.33-14.86,5.08-6.17,5.78-12.78,3.8-20a52.29,52.29,0,0,0-3-8c-3.08-6.67-6.63-12.86-14.05-15.84A32,32,0,0,1,722,322.26c-3.65-4.42-1.06-6.26.8-9.13.07-.11.18-.19.25-.3,2.51-4,4.09-7.83,2.34-12.84-2.26-6.44-7-10.11-12.85-11.95-5.6-1.75-11.59-2.29-17.44-3.19-12.34-1.91-22.69,1.26-30.3,11.81-4.64,6.43-3.11,15.36,3.8,18.82a4.1,4.1,0,0,1,2.5,4.31c-.11,4.83-2.95,7.49-7.18,9.24-5.68,2.35-11.88,4.06-16.76,7.58-10.08,7.29-20.21,15-23.58,28-1,4.05-2,8.38-1.63,12.48s2.48,8.11,3.48,12.24c.69,2.81,1.54,4.37,4.73,2.86a8.07,8.07,0,0,1,3.78-.74c4.6.25,7.81-2.71,11.07-5.07,1.91-1.37,3.06-3.64,2.36-6.86a47.54,47.54,0,0,1,1.28-24.22c2.25-7.44,7.4-13.06,10.89-19.7.59-1.1,2.32-1.87,3.66-2.17.53-.11,2,1.45,2.05,2.29a5.73,5.73,0,0,1-1.23,4C656.69,347.07,651.46,355.32,651.66,366.17Zm-1.6,21.15c-.46,1.51-.84,2.69-1.18,3.89-1.54,5.33-2.51,5.66-8,5a29.35,29.35,0,0,0-9.54.77c-7.63,1.71-12.84,7.05-17.68,12.73-2,2.4-2.06,7.48-.22,10.4,2.17,3.42,6,5.36,9.31,4.21,4-1.39,8.27-2.62,11.71-5s8.43-1.05,11.47-4.63c.34-.4,2.79.67,3.94,1.51.33.24-.49,2-.76,3.12a11.15,11.15,0,0,0-.59,2.91c.08,2.21.33,4.42.62,6.62.89,6.8,1.3,13.72,2.87,20.36a40.57,40.57,0,0,0,11.3,20.19c3.45,3.29,7.12,6.6,11.26,8.84,5.54,3,11.73,4.79,17.46,7.48,10.77,5.05,21.22,2.83,31.59-1,1.84-.68,3.3-2.42,4.87-3.76,6.79-5.76,13.68-11.39,20.23-17.41a21.75,21.75,0,0,0,4.77-7.49c1.7-4,2.77-8.33,4.21-12.49,1.59-4.62,3.57-9.14,4.84-13.84.72-2.69-.45-6.06.66-8.44a35.34,35.34,0,0,0,3.05-14.25,4,4,0,0,1,1.89-3c4.12-1.56,8.38-2.74,12.57-4.09a28.8,28.8,0,0,0,4.38-1.65c2.63-1.37,3.36-5.45,1-7.18a16.56,16.56,0,0,0-6.62-2.83c-5.18-1-10,1-14.8,2.62-1.4.47-3.56,1.11-4.39.44-2.33-1.87-5.38-3.25-6-6.85-.23-1.38-1.4-2.61-1.84-3.37-4,3.08-7.64,6.2-11.61,8.73-6.78,4.33-14.51,6.27-22.31,7.86-5.46,1.11-10.92,2.8-16.42,3-10.24.33-20.54,0-30.78-.56-5.89-.33-11.46-2.1-15.42-7.18C654.38,391,652.26,389.4,650.06,387.32Zm101.38-46.81c.73,1.91,1,2.89,1.46,3.78,4.84,9.59,7,19.48,3.73,30.1-.85,2.79,2.6,9.37,5,9.67a49.58,49.58,0,0,0,8.53.21c4.65-.24,9.32-1.16,13.92-.89a9,9,0,0,1,6.2,3.72c1.65,2.67,2.26,6.09,2.85,9.27.62,3.35-1.16,5.39-4.4,6.3s-6.4,1.59-9.15,3.18c-3.8,2.19-7.07,4.49-8.3,9.85-1.68,7.27-.88,14.83-4.09,22-4.23,9.44-6.25,19.87-12.57,28.42-1.27,1.71-2.42,3.52-4.1,6,2.81,0,4.77.27,6.63-.06,4.57-.8,9.09-1.89,13.63-2.85,5.45-1.17,11-2,16.33-3.58,6.23-1.91,9.35-7.1,8-13.41-1.21-5.61-4.26-9.53-8.38-13.16-1.1-1-1.59-3.54-1.2-5.08.53-2,2.14-3.82,3.4-5.62,3.33-4.75,6.65-9.51,10.11-14.15,1.9-2.55,4-4.87,2.28-8.39-.2-.41.34-1.21.61-1.8,3.56-7.9-.74-14.95-3.51-21.54-1.87-4.47-6-8.1-7.77-13.15a47.52,47.52,0,0,0-7.5-13.45c-3.72-4.65-8.36-8.62-12.83-12.63C764.94,338.36,758.48,340.39,751.44,340.51ZM644,421a64.47,64.47,0,0,1-6.49,3.74c-3.1,1.32-6.36,2.26-9.54,3.42-1.65.6-2.91,1.64-1.73,3.51a41.21,41.21,0,0,1,5.72,15.9,4.84,4.84,0,0,0,.7,1.81c5.25,8.16,3.31,15.46-2.26,22.65a27.94,27.94,0,0,0-5.13,9.51c-.68,2.58-.44,6.71,1.18,8.3A10.33,10.33,0,0,0,637.41,492a110.53,110.53,0,0,0,13.31-7c4.15-2.41,8-5.41,13.32-3.53.51.18,1.29-.42,3-1-1.26-.8-1.93-1.18-2.54-1.63-2.05-1.52-4.69-2.68-6-4.7a151.11,151.11,0,0,1-8.17-14.82c-4.17-8.28-5-17.41-6.21-26.41C643.58,428.86,644,424.74,644,421Z" transform="translate(-413.92 -122.38)"/><path d="M651.66,366.17c-.2-10.85,5-19.1,12.32-26.46a5.73,5.73,0,0,0,1.23-4c0-.84-1.52-2.4-2.05-2.29-1.34.3-3.07,1.07-3.66,2.17-3.49,6.64-8.64,12.26-10.89,19.7a47.54,47.54,0,0,0-1.28,24.22c.7,3.22-.45,5.49-2.36,6.86-3.26,2.36-6.47,5.32-11.07,5.07a8.07,8.07,0,0,0-3.78.74c-3.19,1.51-4-.05-4.73-2.86-1-4.13-3.14-8.09-3.48-12.24s.58-8.43,1.63-12.48c3.37-13,13.5-20.74,23.58-28,4.88-3.52,11.08-5.23,16.76-7.58,4.23-1.75,7.07-4.41,7.18-9.24a4.1,4.1,0,0,0-2.5-4.31c-6.91-3.46-8.44-12.39-3.8-18.82,7.61-10.55,18-13.72,30.3-11.81,5.85.9,11.84,1.44,17.44,3.19,5.88,1.84,10.59,5.51,12.85,11.95,1.75,5,.17,8.88-2.34,12.84-.07.11-.18.19-.25.3-1.86,2.87-4.45,4.71-.8,9.13a32,32,0,0,0,12.93,9.95c7.42,3,11,9.17,14.05,15.84a52.29,52.29,0,0,1,3,8c2,7.25,1.28,13.86-3.8,20-6.7,8.15-15.3,12.76-25.33,14.86a183.47,183.47,0,0,1-22.87,3.74c-11,.87-22.1,1.17-32.92-1.52a17,17,0,0,1-8.11-4.91c-3.6-4-7.35-8.18-6.95-14.33A69.79,69.79,0,0,0,651.66,366.17Z" transform="translate(-413.92 -122.38)" fill="#2d180d"/><path d="M650.06,387.32c2.2,2.08,4.32,3.65,5.88,5.65,4,5.08,9.53,6.85,15.42,7.18,10.24.58,20.54.89,30.78.56,5.5-.18,11-1.87,16.42-3,7.8-1.59,15.53-3.53,22.31-7.86,4-2.53,7.57-5.65,11.61-8.73.44.76,1.61,2,1.84,3.37.59,3.6,3.64,5,6,6.85.83.67,3,0,4.39-.44,4.83-1.61,9.62-3.58,14.8-2.62a16.56,16.56,0,0,1,6.62,2.83c2.33,1.73,1.6,5.81-1,7.18a28.8,28.8,0,0,1-4.38,1.65c-4.19,1.35-8.45,2.53-12.57,4.09a4,4,0,0,0-1.89,3,35.34,35.34,0,0,1-3.05,14.25c-1.11,2.38.06,5.75-.66,8.44-1.27,4.7-3.25,9.22-4.84,13.84-1.44,4.16-2.51,8.45-4.21,12.49a21.75,21.75,0,0,1-4.77,7.49c-6.55,6-13.44,11.65-20.23,17.41-1.57,1.34-3,3.08-4.87,3.76-10.37,3.87-20.82,6.09-31.59,1-5.73-2.69-11.92-4.47-17.46-7.48-4.14-2.24-7.81-5.55-11.26-8.84A40.57,40.57,0,0,1,652,449.27c-1.57-6.64-2-13.56-2.87-20.36-.29-2.2-.54-4.41-.62-6.62a11.15,11.15,0,0,1,.59-2.91c.27-1.09,1.09-2.88.76-3.12-1.15-.84-3.6-1.91-3.94-1.51-3,3.58-7.91,2.19-11.47,4.63s-7.69,3.58-11.71,5c-3.31,1.15-7.14-.79-9.31-4.21-1.84-2.92-1.83-8,.22-10.4,4.84-5.68,10.05-11,17.68-12.73a29.35,29.35,0,0,1,9.54-.77c5.51.63,6.48.3,8-5C649.22,390,649.6,388.83,650.06,387.32Zm57,85.17,0,.32c7-.91,13.89-1.86,20.85-2.72,2.84-.36,4.25-1.8,3.84-4.69s-2.44-4.35-5.44-3.33c-8.39,2.87-17,2.92-25.74,3.33-2.57.13-5.16,1.46-7.57,2.61a3.24,3.24,0,0,0-1.28,2.88c.16.7,1.69,1.49,2.64,1.53C698.57,472.58,702.82,472.49,707.06,472.49Zm-2.43-19.37c7.63-.77,14.56-1.35,20.35-5.51,1.43-1,3.12-3.69,2.7-4.91-.91-2.61-3.71-1.81-5.76-1-6.41,2.54-12.69,5.16-19.9,2.95-1.18-.36-3.72,1.35-4.42,2.73-.45.86,1,3.37,2.24,4.25C701.32,452.68,703.47,452.8,704.63,453.12Zm35.72-30.4c-1.17-3.18-2.88-7-3.93-11-.69-2.64-1.68-4.26-4.39-3.25a4.82,4.82,0,0,0-3.27,5.9c.3,1.4.82,2.76,1.07,4.17.41,2.26.74,4.54,1,6.82a5.74,5.74,0,0,0,5.36,4.76C738.39,430.05,740.39,426.87,740.35,422.72Zm-58.66.46-.62.11c.47,2.53.64,5.17,1.5,7.56.95,2.67,3.41,3.62,6,2.9,1-.27,2.41-2,2.25-2.84a97.37,97.37,0,0,0-3.8-14.22c-.45-1.22-3-1.64-4.65-2.43a25.73,25.73,0,0,0-1.33,4.73A17.06,17.06,0,0,0,681.69,423.18Z" transform="translate(-413.92 -122.38)" fill="#c27f5e"/><path d="M751.44,340.51c7-.12,13.5-2.15,18.93,2.73,4.47,4,9.11,8,12.83,12.63a47.52,47.52,0,0,1,7.5,13.45c1.82,5.05,5.9,8.68,7.77,13.15,2.77,6.59,7.07,13.64,3.51,21.54-.27.59-.81,1.39-.61,1.8,1.71,3.52-.38,5.84-2.28,8.39-3.46,4.64-6.78,9.4-10.11,14.15-1.26,1.8-2.87,3.59-3.4,5.62-.39,1.54.1,4.11,1.2,5.08,4.12,3.63,7.17,7.55,8.38,13.16,1.35,6.31-1.77,11.5-8,13.41-5.31,1.62-10.88,2.41-16.33,3.58-4.54,1-9.06,2.05-13.63,2.85-1.86.33-3.82.06-6.63.06,1.68-2.47,2.83-4.28,4.1-6,6.32-8.55,8.34-19,12.57-28.42,3.21-7.17,2.41-14.73,4.09-22,1.23-5.36,4.5-7.66,8.3-9.85,2.75-1.59,6-2.31,9.15-3.18s5-2.95,4.4-6.3c-.59-3.18-1.2-6.6-2.85-9.27a9,9,0,0,0-6.2-3.72c-4.6-.27-9.27.65-13.92.89a49.58,49.58,0,0,1-8.53-.21c-2.45-.3-5.9-6.88-5-9.67,3.25-10.62,1.11-20.51-3.73-30.1C752.45,343.4,752.17,342.42,751.44,340.51Z" transform="translate(-413.92 -122.38)" fill="#2d180d"/><path d="M644,421c0,3.7-.43,7.82.08,11.82,1.16,9,2,18.13,6.21,26.41a151.11,151.11,0,0,0,8.17,14.82c1.31,2,3.95,3.18,6,4.7.61.45,1.28.83,2.54,1.63-1.68.61-2.46,1.21-3,1-5.29-1.88-9.17,1.12-13.32,3.53a110.53,110.53,0,0,1-13.31,7,10.33,10.33,0,0,1-10.95-2.12c-1.62-1.59-1.86-5.72-1.18-8.3a27.94,27.94,0,0,1,5.13-9.51c5.57-7.19,7.51-14.49,2.26-22.65a4.84,4.84,0,0,1-.7-1.81,41.21,41.21,0,0,0-5.72-15.9c-1.18-1.87.08-2.91,1.73-3.51,3.18-1.16,6.44-2.1,9.54-3.42A64.47,64.47,0,0,0,644,421Z" transform="translate(-413.92 -122.38)" fill="#2d180d"/><path d="M707.06,472.49c-4.24,0-8.49.09-12.73-.07-1,0-2.48-.83-2.64-1.53A3.24,3.24,0,0,1,693,468c2.41-1.15,5-2.48,7.57-2.61,8.69-.41,17.35-.46,25.74-3.33,3-1,5,.48,5.44,3.33s-1,4.33-3.84,4.69c-7,.86-13.9,1.81-20.85,2.72Z" transform="translate(-413.92 -122.38)"/><path d="M704.63,453.12c-1.16-.32-3.31-.44-4.79-1.5-1.24-.88-2.69-3.39-2.24-4.25.7-1.38,3.24-3.09,4.42-2.73,7.21,2.21,13.49-.41,19.9-2.95,2.05-.8,4.85-1.6,5.76,1,.42,1.22-1.27,3.88-2.7,4.91C719.19,451.77,712.26,452.35,704.63,453.12Z" transform="translate(-413.92 -122.38)"/><path d="M740.35,422.72c0,4.15-2,7.33-4.17,7.41a5.74,5.74,0,0,1-5.36-4.76c-.25-2.28-.58-4.56-1-6.82-.25-1.41-.77-2.77-1.07-4.17a4.82,4.82,0,0,1,3.27-5.9c2.71-1,3.7.61,4.39,3.25C737.47,415.72,739.18,419.54,740.35,422.72Z" transform="translate(-413.92 -122.38)"/><path d="M681.69,423.18a17.06,17.06,0,0,1-.62-4.19,25.73,25.73,0,0,1,1.33-4.73c1.61.79,4.2,1.21,4.65,2.43a97.37,97.37,0,0,1,3.8,14.22c.16.8-1.27,2.57-2.25,2.84-2.62.72-5.08-.23-6-2.9-.86-2.39-1-5-1.5-7.56Z" transform="translate(-413.92 -122.38)"/></svg>