<?xml version="1.0" encoding="utf-8"?>
<!-- Generator: Adobe Illustrator 24.1.0, SVG Export Plug-In . SVG Version: 6.00 Build 0)  -->
<svg version="1.1" xmlns="http://www.w3.org/2000/svg" xmlns:xlink="http://www.w3.org/1999/xlink" x="0px" y="0px"
	 viewBox="0 0 1366 768" style="enable-background:new 0 0 1366 768;" xml:space="preserve">
<style type="text/css">
	.st0{fill:#009900;}
	.st1{fill:#FFFFCC;}
	.st2{fill:#007300;}
	.st3{fill:#0D0639;}
	.st4{fill:#B22441;}
	.st5{fill:#861B31;}
	.st6{fill:#FFFFFF;}
	.st7{fill:#333300;}
	.st8{fill:#FF9966;}
	.st9{fill:#FFFF33;}
</style>
<g id="Layer_1">
	<g>
		<path d="M956.94,266.34c1.15,8.55,3.44,23.56,5.14,38.64c2.09,18.51,3.95,37.06,5.42,55.63c1.72,21.7,2.02,43.55,4.59,65.14
			c2.27,19.07,6.79,37.87,10.33,56.79c2.96,15.82,4.99,31.89,9.17,47.38c4.68,17.31,4.58,34.94,6.69,52.43
			c2.1,17.48,2.3,34.87,2.6,52.36c0.09,5.48,2.06,11.07,3.94,16.33c2.74,7.66,0.35,12.53-7.68,12.53
			c-13.64-0.01-26.46,3.54-39.4,7.16c-4.63,1.29-9.83,0.51-14.77,0.75c-10.64,0.51-21.31,1.93-31.89,1.42
			c-16.73-0.82-33.4-2.92-50.09-4.47c-6.3-0.58-12.61-1.16-18.91-1.68c-14.46-1.19-28.99-1.77-43.36-3.64
			c-20.25-2.63-40.52-3.85-60.92-4.32c-18.43-0.42-36.67-3.05-54.48-7.99c-4.13-1.15-7.89-3.67-12.03-4.68
			c-10.31-2.52-20.66-5.41-31.16-6.51c-12.72-1.34-24.22,1.56-34.01,11.54c-11.31,11.53-24.73,20.54-40.74,24.89
			c-6.1,1.66-12.28,3.17-18.14,5.48c-10.59,4.18-21.12,1.11-31.62,0.28c-12.67-1-22.82-7.97-33.05-14.88
			c-8.64-5.83-14.77-13.83-21.07-21.76c-1.11-1.4-1.29-3.8-1.31-5.74c-0.12-9,0.56-18.05-0.15-27c-0.98-12.38-2.03-24.88-4.68-36.96
			c-4.09-18.64-7.23-37.33-8.87-56.33c-0.42-4.9-2.04-9.71-3.25-14.53c-3.39-13.58-7.76-27-10.04-40.76
			c-2.84-17.11-3.87-34.52-5.88-51.78c-1.1-9.42-2.89-18.77-3.85-28.2c-1.17-11.48-2.81-23.05-2.39-34.51
			c0.4-10.98-2.52-21.46-2.64-32.27c-0.14-12.71-0.39-25.42-0.93-38.11c-0.56-13.29-1.4-26.58-2.36-39.85
			c-0.55-7.56-1.62-15.08-2.37-22.63c-0.13-1.31-0.14-2.8,0.33-3.99c2.19-5.53,4.14-11.03,1.64-16.99
			c4.31-8.6,0.63-20.4,11.13-26.69c2.68-1.6,3.97-5.41,6.13-8c8.54-10.24,18.56-17.8,32.77-17.15c3.57,0.16,7.11,1.31,10.67,1.36
			c9.49,0.12,19.01-0.59,28.47-0.06c6.71,0.37,13.29,2.54,20,3.3c4.2,0.48,8.57,0.19,12.78-0.37c14.84-1.95,29.7-3.89,44.45-6.41
			c6.84-1.17,13.41-3.87,20.18-5.52c7.05-1.72,14.15-3.88,21.32-4.3c12.11-0.7,23.67-3.73,35.41-6.23
			c8.58-1.83,17.32-2.88,25.95-4.5c16.94-3.18,33.78-7.05,50.81-9.62c14.75-2.23,29.7-3.28,44.6-4.43
			c10.41-0.8,20.87-0.85,31.31-1.28c13.13-0.54,26.43-0.04,39.34-2.03c9.96-1.53,19.72-0.4,29.54-1.15
			c6.57-0.5,13.13-1.5,19.69-1.41c2.73,0.03,6.77,1.6,7.84,3.69c1.62,3.15-0.56,6.47-4,8.27c-3.94,2.06-5.28,5.67-4.95,9.72
			c1.21,14.93,2.32,29.9,7.31,44.21c1.08,3.09,1.55,7.51,3.76,8.77c2.43,1.39,6.54-0.14,9.91-0.43c7.71-0.66,10.72,0.93,14.19,7.79
			c5.74,11.33,11.7,22.57,17.05,34.08C956.68,230.56,958.58,244.89,956.94,266.34z M537.93,668.84c-2.05-0.13-4.1-0.26-6.16-0.4
			c0.11,0.79,0.22,1.58,0.33,2.37c1.97-0.69,3.94-1.39,5.92-2.08c5.02,0.77,9.44-1.93,10.69-6.52c0.53-1.95,0.51-4.52,1.77-5.67
			c1.59-1.45,4.33-2.57,6.41-2.34c3.16,0.34,2.38,3.12,1.85,5.43c-0.27,1.19-0.05,2.49-0.05,4.47c6.28-3.46,13.84,0.15,19.17-5.9
			c-2.11-2.97-3.56-6.66-6.28-8.54c-8.35-5.78-8.54-5.51-2.07-13.25c3.04-3.64,10.45-4.2,13.83-1.03c2.71,2.54,1.75,5.09-3.65,9.81
			c-0.13,0.11-0.09,0.41-0.18,0.88c2.56,1.97,5.21,4.02,8.44,6.52c7.15-6.41,14.19-12.68,21.17-19.01c0.46-0.42,0.63-1.19,0.88-1.82
			c1.74-4.34,4.95-5.66,9.34-4.57c2.43,0.6,4.83,1.48,7.29,1.77c6.23,0.73,12.7,2.26,17.18-4.4c0.61-0.9,2.35-1.24,3.63-1.45
			c3.34-0.56,6.72-0.92,10.09-1.35c4.52-0.58,6.92,1.73,6.43,6.29c-0.17,1.54-0.62,3.06-1.09,5.29
			c16.53,6.49,32.63,13.65,51.19,13.85c0.29-5.22,1.58-9.66,7.05-9.63c6.5,0.05,4.27,6.2,5.73,10.27c7.85,0.6,15.62,1.2,23.71,1.82
			c-0.04-5.19,0.78-9.23,6.34-9.25c7.02-0.03,4.19,6.16,5.65,9.7c10.42,1.5,20.7,3.07,31.02,4.36c1.16,0.14,3.4-1.09,3.63-2.03
			c1.13-4.81,4.79-4.88,8.47-5.18l-0.13-0.12c0.46,2.64,0.92,5.28,1.46,8.37c7.27,0.77,14.25,3.79,22.16,1.58
			c-1.21-2.46-2.68-4.08-2.66-5.69c0.04-4.25-0.69-7.99-2.73-11.89c-1.69-3.23,2-6.61,5.8-5.89c1.27,0.24,2.46,0.89,3.2,1.17
			c2.16-2.03,3.69-4.15,5.77-5.26c2.93-1.56,7.01,0.94,7.9,4.33c1.08,4.09-0.39,6.67-4.67,7.39c-3.74,0.62-7.73,0.42-8.98,3.25
			c2.04,5.33,3.56,9.3,5.3,13.84c4.59-1.88,4.73-12.06,13.04-7.85c1.82-3.29,2.94-6.75,5.23-9.04c2.2-2.21,5.62-3.2,8.12-4.53
			c-1.61-1.21-4.11-2.28-5.12-4.15c-0.67-1.24,0.94-5.27,1.3-5.25c2.95,0.23,7.15,0.2,8.46,2.04c2.08,2.9,4.05,3.98,7.35,4.57
			c1.52,0.27,3.81,3.09,3.63,4.48c-0.26,2-2.27,3.93-3.89,5.53c-0.59,0.58-2.18,0.14-3.31,0.19c-5.4,0.25-8.14,2.71-8.98,8.05
			c-0.8,5.11-2.13,6.05-7.22,5.15c-1.08-0.19-2.19-0.23-4.5-0.45c9.48,6.44,15.14,4.59,17.17-4.6c0.77-3.5,3.26-6.44,5.91-4.2
			c4.77,4.03,12.84,5.7,11.91,14.88c4.9,0,9.26,0,13.69,0c-0.34-4.89-0.45-9.15-0.98-13.34c-0.43-3.32,0.93-5.97,3.85-6.11
			c3.45-0.16,7.14,0.78,10.4,2.07c2.99,1.18,3.53,3.71,1.55,6.72c-1.77,2.69-3.07,5.69-5.31,9.95c2.57-0.83,3.43-0.94,4.11-1.35
			c4.8-2.84,9.38-4.47,14.22,0.29c1.2,1.17,3.89,1.34,5.82,1.17c14.23-1.25,28.65-1.21,42.45-5.64c1.59-0.51,2.94-1.73,4.41-2.63
			c-0.51-0.24-1.03-0.48-1.54-0.72c0.37-2.84-0.26-7.27,1.28-8.22c5.03-3.12,5.99,3.49,10.08,6.16c0-4.59,0-8.15,0-11.83
			c-4.35-1.79-10.2-2.26-9.43-8.81c0.74-6.3,5.97-1.45,9.74-3.49c0-3.24,0.16-7.03-0.03-10.79c-0.72-14.67-1.57-29.33-2.31-43.99
			c-0.34-6.75-0.2-13.54-0.9-20.25c-0.77-7.4-2.09-14.76-3.46-22.08c-2.25-12.03-4.74-24.02-7.11-36.03
			c-4.34-22.01-9.16-43.95-12.79-66.08c-2.12-12.93-2.32-26.18-3.41-39.28c-1.14-13.73-2.34-27.46-3.47-41.2
			c-1.06-12.89-1.51-25.86-3.2-38.67c-2.49-18.94-4.33-37.83-4.07-56.98c0.16-11.89-2.32-23.52-8.37-34.09
			c-2.48-4.33-4.47-8.97-7.2-13.13c-4.38-6.71-6.81-15.11-17.24-16.26c-4.56-0.5-8.11-1.61-11.67,2.08
			c-2.22,2.3-5.49,3.39-7.87,0.63c-4.05-4.7-9.17-4.51-14.39-4.08c-11.54,0.94-23.08,1.93-34.59,3.19
			c-17.33,1.9-34.8,1.8-52.05,5.29c-16.22,3.28-32.93,4.12-49.21,7.17c-27.88,5.22-55.49,11.85-83.4,16.87
			c-20.1,3.61-40.5,5.46-60.74,8.3c-10.08,1.41-20.05,3.64-30.16,4.84c-7.47,0.89-10.79,5.5-13.32,11.69
			c-7.41,18.18-26.22,30.32-46.28,29.96c-1.56-0.03-3.18-0.36-4.66-0.86c-10.26-3.47-21.09-5.19-30.55-11.09
			c-3.72-2.31-8.23-3.56-12.53-4.68c-7.35-1.91-13.44-5.92-17.85-11.7c-6.44-8.43-11.97-17.55-17.95-26.33
			c-0.91-1.34-2.17-2.44-3.27-3.66c-0.52,0.21-1.04,0.43-1.55,0.64c0.24,1.81,0.38,3.63,0.74,5.41c0.35,1.73,1.33,3.41,1.36,5.13
			c0.37,23.57,1.09,47.15,0.72,70.71c-0.18,11.51,4.8,18.74,13.36,25.69c16.02,13.01,35.95,14.1,54.39,19.78
			c0.63,0.19,1.36,0.13,2.03,0.05c8.36-0.95,16.75-1.66,25.05-2.98c7.38-1.18,14.64-3.11,21.98-4.57c4.51-0.9,9.07-1.56,13.63-2.32
			c-0.12-1.56-0.13-2.22-0.23-2.87c-1.61-11.01-3.42-22-4.72-33.04c-0.41-3.47-1.39-7.73,3.53-10.54
			c4.79,9.86,6.37,20.18,8.19,30.29c3.02,16.75,5,33.68,7.78,50.48c2.11,12.74,4.84,25.38,7.23,38.08
			c2.1,11.14,4.23,22.28,6.13,33.46c2.85,16.75,5.56,33.52,8.21,50.3c1.16,7.39,1.64,14.9,3.1,22.22
			c3.05,15.32,6.55,30.56,9.87,45.83c1.62,7.43,1.32,15.57,8.14,21.08c0.74,0.6,1.07,2.83,0.56,3.68c-2.55,4.23-4.63,9.39-8.4,12.12
			c-7.66,5.56-15.94,10.61-24.63,14.29c-8.47,3.59-17.82,5.05-26.7,7.72c-9.62,2.89-19.3,5.33-29.42,4.31
			c-16.03-1.62-32.04-3.45-48.05-5.25c-4.89-0.55-6.33,1.14-4.91,5.74c1.06,3.44,1.62,7.04,2.75,10.44
			c1.32,3.96,3.03,7.8,4.15,10.63c4.3,0.42,7.18,0.71,10.46,1.03c-3.14,6.85-1.82,10.83,4.1,14.05c3.77,2.05,7.73,3.73,12.93,6.2
			c1.85-2.78,3.63-5.93,5.9-8.69c1.57-1.91,3.85-4.53,5.77-4.5c1.88,0.03,3.78,2.95,5.52,4.76c1.28,1.33,2.72,4.33,3.37,4.13
			c2.53-0.75,5.76-1.93,6.87-3.97c1.34-2.47-0.9-4.06-3.85-4.96c-1.82-0.56-3.94-3.17-4.15-5.06c-0.19-1.68,1.9-4.97,3.3-5.15
			c2.02-0.26,4.62,1.28,6.39,2.74c1.18,0.98,1.34,3.17,2.03,5.03c0.87,0.09,1.77,0.09,2.62,0.29c6.29,1.4,6.96,3.31,3.33,8.73
			c-1.11,1.67-1.56,3.81-2.76,5.39C541.95,664.9,539.85,666.8,537.93,668.84z M525.63,165.27c1.56-0.79,2.3-1.41,3.11-1.53
			c9.16-1.43,18.3-3.02,27.5-4.09c10.38-1.2,20.81-1.85,31.22-2.84c19.36-1.84,38.73-3.67,58.08-5.65
			c13.93-1.42,27.81-3.81,41.77-4.44c16.78-0.76,33.01-4.91,49.65-6.68c29.51-3.14,58.76-8.63,88.13-13.08
			c12.13-1.84,24.27-3.63,36.42-5.29c9.32-1.28,12.72,2.64,12.03,12.2c-0.4,5.54,0.35,11.19,0.93,16.75
			c0.57,5.41,1.88,10.74,2.35,16.15c1.11,12.95,0.99,12.96,13.99,10.98c0.22-0.03,0.46-0.04,0.68-0.08c4.52-0.85,5.96-2.7,4.68-7.16
			c-4.2-14.7-4.83-29.86-6.11-44.93c-1.19-14.12-30.6-8.95-38.19-9.92c-5.61-0.72-11.31-1.33-16.95-1.2
			c-9.52,0.22-19.02,1.13-28.54,1.63c-9.52,0.5-19.05,0.84-28.58,1.25c-1.36,0.06-2.74,0.25-4.07,0.08
			c-15.92-1.96-31.12,3.08-46.62,5.02c-11.41,1.43-22.6,4.51-33.93,6.69c-12.93,2.49-25.92,4.72-38.85,7.22
			c-11.58,2.24-22.97,4.95-34.93,5.56c-9.11,0.46-17.99,4.46-27.09,6.32c-12.66,2.58-25.42,4.67-38.16,6.9
			c-9.14,1.6-18.27,3.45-27.48,4.49c-8.29,0.94-16.82,0.15-25,1.54c-13.17,2.24-26.29,5.12-39.13,8.77
			c-7.2,2.05-13.14,7.05-17.9,13.59c5.09,0.12,10-0.19,14.63-1.51c12.8-3.66,25.35-8.21,38.24-11.47
			c6.47-1.64,13.44-1.57,20.19-1.61c2.6-0.02,6.58-0.16,7.13,4.96c-26.63,3.36-51.12,12.86-76.15,21.53
			c2.4,2.54,4.85,4.01,7.25,5.55c3.99,2.55,8.82,4.42,11.74,7.88c5.21,6.17,9.32,13.28,13.76,20.08c2.23,3.42,4.03,7.11,6.29,10.51
			c2.21,3.34,4.7,4.67,9.53,4.34c17.96-1.21,35.28-5.66,52.8-9.07c1.74-0.34,3.48-2.51,4.53-4.24c2.76-4.55,6.27-7.57,11.8-8.05
			c13.79-1.19,27.6-2.23,41.34-3.86c16.93-2.02,33.8-4.5,50.67-6.93c6.96-1,13.89-2.28,20.79-3.66c11.77-2.36,23.49-4.95,35.26-7.33
			c3.78-0.76,7.64-1.1,11.44-1.77c14.09-2.47,28.15-5.04,42.24-7.5c11.64-2.03,23.27-4.07,34.95-5.89
			c9.85-1.54,19.72-3.15,29.64-4.01c9.69-0.84,19.46-0.9,29.2-1.03c4.52-0.06,6.55-2.53,6.06-6.37
			c-1.46-11.43-3.18-22.84-5.32-34.16c-0.7-3.68-3.6-6.54-7.92-6.16c-5.66,0.5-11.29,1.31-16.91,2.15
			c-11.65,1.75-23.25,3.89-34.94,5.35c-23.7,2.96-47.44,5.53-71.15,8.35c-26.61,3.17-53.17,6.74-79.82,9.57
			c-26.42,2.81-52.92,4.73-79.35,7.42c-10.81,1.1-21.48,3.55-32.29,4.64C535.15,171.76,529.36,171.72,525.63,165.27z M440.83,373.86
			c-1.03,0.48-2.06,0.96-3.1,1.44c8.03,52.45,8.41,105.91,23.26,157.6c1.47-0.68,3.25-1.66,5.13-2.35c2.81-1.02,5.8-1.21,6.56,2.42
			c0.68,3.28-0.92,5.82-4.59,6.25c-2.19,0.26-4.41,0.22-7.55,0.36c0.82,5.35,1.56,10.11,2.15,13.93c3.84,0.55,7.75-0.04,9.05,1.53
			c2.82,3.39,5.8,3,9.12,2.35c2.65-0.52,5.31-0.88,6.17,2.28c0.39,1.43-0.15,4.2-1.12,4.7c-2.2,1.13-6.56,2.41-7.19,1.55
			c-3.85-5.3-9.26-2.99-15.12-4.65c1.22,3.61,1.84,6.19,2.98,8.52c0.6,1.22,2.66,3.03,3.14,2.78c5.88-3.02,9.14,1.52,12.72,4.41
			c5.98-4.2,14.24-4.9,15.98-13.8c0.47-2.42,6.63-2.14,9.13,0.18c2.61,2.42,2.41,4.51-0.74,6.52c-3.36,2.14-1.99,4.53,0.13,6.76
			c4.22,4.45,10.45,5.25,17.93,1.95c-0.49-2.9-1.21-5.97-1.44-9.07c-0.11-1.57,0.43-4.46,1.1-4.59c2-0.39,5.44-0.44,6.1,0.69
			c2.12,3.58,4.4,4.49,8.38,3.56c1.36-0.32,4.03,1.37,4.67,2.79c0.45,0.98-1.32,3.29-2.53,4.61c-1.05,1.14-2.71,1.73-4.1,2.56
			c0.24,0.48,0.48,0.96,0.72,1.43c10.35-0.85,19.48-4.82,27.9-10.76c-1.91-3.22-5.17-6.52-4.49-8.01c1.71-3.75,0.46-5.62-1.62-8.31
			c-0.85-1.1-0.48-4.59,0.53-5.31c1.41-1.01,4.25-1.16,5.95-0.43c4.56,1.94,4.08,5.91,2.82,9.21c2.18,3.19,4,5.87,6.16,9.03
			c2.11-1.71,4.12-3.33,6.51-5.27c-4.15-2.36-9.45-3.34-8.07-9.09c0.35-1.44,3.14-3.04,4.92-3.17c1.74-0.13,4.25,1.08,5.26,2.51
			c1.54,2.18,2.09,5.07,3.27,8.23c3-0.96,6.13-1.96,9.97-3.19c-0.3-4.6-0.45-9.08-0.91-13.53c-0.43-4.09-1.83-7.2-6.86-7.81
			c-2.22-0.27-4.19-2.6-7.27-4.66c3.34-2.19,5.59-3.29,7.33-4.93c1.25-1.18,2.68-3.16,2.53-4.64c-0.62-6.06-1.65-12.1-2.82-18.09
			c-1.34-6.86-3.35-13.61-4.41-20.51c-2.31-14.96-4.02-30.01-6.3-44.98c-2.63-17.22-5.59-34.39-8.49-51.56
			c-0.25-1.47-1.11-2.83-1.5-3.78c-11.72,2.41-20.93,10.39-32.81,11.28c-9.01,0.67-17.97,2.68-26.96,2.69
			c-13.95,0.01-27.22-4.37-40.46-8.38c-3.03-0.92-6.24-1.55-9.01-2.99C452.79,380.92,446.86,377.3,440.83,373.86z M561.43,347.36
			c-7.3,0.85-13.38,1.35-19.39,2.29c-20.71,3.24-40.99,7.15-62.35,1.41c-14.67-3.94-28.13-9.71-41.45-16.44
			c-1.92-0.97-3.82-1.96-7.48-3.84c1.06,6.44,1.75,11.25,2.67,16.02c1.55,8.05,6.14,14.47,13.14,18.07
			c10.45,5.36,21.3,10.1,32.35,14.08c20.73,7.45,41.72,8.53,62.5-0.17c7.03-2.94,14-6.06,20.8-9.5c1.41-0.72,2.89-3.35,2.68-4.87
			C564.11,358.65,562.64,352.99,561.43,347.36z M530.39,610.41c0.03,0.18,0.06,0.36,0.09,0.54c4.92-0.68,9.95-0.95,14.74-2.15
			c6.12-1.53,11.96-5,18.09-5.47c7.14-0.55,13.21-2.8,19.03-6.39c2.69-1.66,4.92-4.72,7.77-5.36c9.59-2.15,10.71-8.13,9.58-16.55
			c-0.82-6.12-1.16-7.01-6.74-4.47c-8.26,3.75-16.29,8.06-24.73,11.31c-12.91,4.97-25.86,10.04-40.27,8.58
			c-5.38-0.54-10.88-0.27-16.3,0.07c-11.13,0.68-22.09,0.18-32.86-3.02c-2.1-0.62-4.5-0.57-6.71-0.33
			c-1.12,0.12-2.57,1.11-3.09,2.12c-1.05,2.02,3.72,13.15,6.09,13.83c9.11,2.6,18.18,5.81,27.5,7.04
			C511.71,611.35,521.11,610.41,530.39,610.41z M478.61,251.64c-1.86-17.96-27.68-49.64-41.8-49.32c-1.41,6.58,1.7,11.89,4.95,17.08
			c2.99,4.8,6.22,9.46,9.36,14.17C457.57,243.24,466.46,249.15,478.61,251.64z M551.55,243.24c-2.35-0.45-3.03-0.77-3.63-0.66
			c-17.14,3.02-33.25,10.81-51.01,11.08c-0.77,0.01-2.18,1.38-2.13,2.03c0.08,1.17,0.77,2.82,1.7,3.29c2.19,1.11,4.65,1.71,7.03,2.4
			c16.52,4.79,30.89,0.84,43.19-10.9C548.51,248.75,549.58,246.23,551.55,243.24z M467.5,158.27c-11.78-1.77-21.1,3.42-29.44,10.59
			c-6.06,5.21-8.92,12.82-7.06,17.69C438.49,170.68,451.65,162.84,467.5,158.27z M520.13,664.22c-0.63,0.03-1.26,0.06-1.88,0.08
			c-0.82,1.37-1.65,2.75-3.43,5.71c3.17-0.64,4.82-0.98,6.46-1.31C520.89,667.21,520.51,665.71,520.13,664.22z M498.35,580.39
			c0-0.43,0-0.86,0.01-1.29c-1.39,0-2.77,0-4.16,0c0,0.43,0,0.86-0.01,1.29C495.57,580.39,496.96,580.39,498.35,580.39z"/>
		<path class="st0" d="M805.66,647.27c-3.68,0.3-7.34,0.37-8.47,5.18c-0.22,0.95-2.47,2.18-3.63,2.03
			c-10.32-1.29-20.6-2.86-31.02-4.36c-1.45-3.54,1.37-9.73-5.65-9.7c-5.56,0.02-6.39,4.06-6.34,9.25
			c-8.09-0.62-15.86-1.21-23.71-1.82c-1.46-4.07,0.77-10.22-5.73-10.27c-5.47-0.04-6.76,4.41-7.05,9.63
			c-18.56-0.21-34.66-7.36-51.19-13.85c0.47-2.24,0.92-3.75,1.09-5.29c0.49-4.56-1.91-6.86-6.43-6.29
			c-3.37,0.43-6.75,0.78-10.09,1.35c-1.28,0.21-3.02,0.55-3.63,1.45c-4.47,6.65-10.95,5.13-17.18,4.4
			c-2.47-0.29-4.86-1.17-7.29-1.77c-4.39-1.09-7.6,0.23-9.34,4.57c-0.25,0.63-0.41,1.4-0.88,1.82c-6.99,6.33-14.02,12.6-21.17,19.01
			c-3.24-2.5-5.89-4.54-8.44-6.52c0.09-0.47,0.05-0.77,0.18-0.88c5.4-4.72,6.36-7.28,3.65-9.81c-3.38-3.16-10.79-2.61-13.83,1.03
			c-6.47,7.74-6.28,7.47,2.07,13.25c2.71,1.88,4.17,5.57,6.28,8.54c-5.34,6.04-12.89,2.44-19.17,5.9c0-1.98-0.22-3.28,0.05-4.47
			c0.52-2.32,1.31-5.09-1.85-5.43c-2.08-0.23-4.82,0.89-6.41,2.34c-1.26,1.15-1.24,3.72-1.77,5.67c-1.25,4.59-5.67,7.29-10.69,6.52
			l-0.08,0.1c1.92-2.03,4.01-3.93,5.69-6.14c1.2-1.58,1.64-3.72,2.76-5.39c3.63-5.42,2.96-7.33-3.33-8.73
			c-0.86-0.19-1.76-0.2-2.62-0.29c-0.69-1.86-0.86-4.05-2.03-5.03c-1.77-1.47-4.37-3.01-6.39-2.74c-1.39,0.18-3.48,3.47-3.3,5.15
			c0.21,1.89,2.33,4.5,4.15,5.06c2.94,0.9,5.19,2.49,3.85,4.96c-1.11,2.03-4.34,3.22-6.87,3.97c-0.65,0.19-2.09-2.8-3.37-4.13
			c-1.73-1.81-3.64-4.73-5.52-4.76c-1.92-0.03-4.19,2.59-5.77,4.5c-2.27,2.75-4.05,5.91-5.9,8.69c-5.2-2.47-9.17-4.15-12.93-6.2
			c-5.92-3.22-7.24-7.2-4.1-14.05c-3.28-0.32-6.16-0.61-10.46-1.03c-1.12-2.83-2.83-6.66-4.15-10.63
			c-1.14-3.41-1.69-7.01-2.75-10.44c-1.42-4.6,0.02-6.3,4.91-5.74c16.01,1.8,32.02,3.63,48.05,5.25c10.13,1.02,19.8-1.41,29.42-4.31
			c8.88-2.67,18.23-4.13,26.7-7.72c8.69-3.68,16.97-8.73,24.63-14.29c3.77-2.73,5.85-7.89,8.4-12.12c0.51-0.85,0.18-3.08-0.56-3.68
			c-6.82-5.51-6.52-13.64-8.14-21.08c-3.32-15.27-6.82-30.51-9.87-45.83c-1.46-7.32-1.93-14.83-3.1-22.22
			c-2.65-16.78-5.36-33.55-8.21-50.3c-1.9-11.18-4.03-22.31-6.13-33.46c-2.39-12.7-5.11-25.34-7.23-38.08
			c-2.79-16.79-4.77-33.73-7.78-50.48c-1.82-10.11-3.4-20.43-8.19-30.29c-4.93,2.81-3.94,7.07-3.53,10.54
			c1.31,11.05,3.12,22.03,4.72,33.04c0.09,0.65,0.11,1.31,0.23,2.87c-4.56,0.77-9.12,1.42-13.63,2.32
			c-7.34,1.47-14.6,3.4-21.98,4.57c-8.3,1.32-16.69,2.03-25.05,2.98c-0.67,0.08-1.41,0.14-2.03-0.05
			c-18.44-5.69-38.37-6.78-54.39-19.78c-8.56-6.95-13.53-14.18-13.36-25.69c0.36-23.56-0.35-47.14-0.72-70.71
			c-0.03-1.71-1.01-3.39-1.36-5.13c-0.36-1.78-0.5-3.6-0.74-5.41c0.52-0.21,1.04-0.43,1.55-0.64c1.1,1.21,2.35,2.32,3.27,3.66
			c5.98,8.78,11.51,17.9,17.95,26.33c4.41,5.78,10.51,9.8,17.85,11.7c4.31,1.12,8.82,2.36,12.53,4.68
			c9.46,5.89,20.29,7.62,30.55,11.09c1.49,0.5,3.1,0.84,4.66,0.86c20.05,0.36,38.87-11.78,46.28-29.96
			c2.52-6.19,5.85-10.81,13.32-11.69c10.1-1.2,20.07-3.43,30.16-4.84c20.24-2.84,40.65-4.69,60.74-8.3
			c27.91-5.02,55.52-11.65,83.4-16.87c16.28-3.05,32.98-3.89,49.21-7.17c17.25-3.48,34.72-3.39,52.05-5.29
			c11.51-1.26,23.05-2.25,34.59-3.19c5.22-0.43,29.36,0.87,33.92,1.37c10.43,1.15,12.85,9.55,17.24,16.26
			c2.72,4.17,4.72,8.8,7.2,13.13c6.05,10.58,8.53,22.2,8.37,34.09c-0.26,19.15,1.58,38.04,4.07,56.98
			c1.69,12.81,2.14,25.78,3.2,38.67c1.13,13.74,2.33,27.47,3.47,41.2c1.09,13.1,1.29,26.35,3.41,39.28
			c3.63,22.13,8.45,44.06,12.79,66.08c2.37,12.01,4.86,24,7.11,36.03c1.37,7.32,2.69,14.68,3.46,22.08c0.7,6.71,0.56,13.5,0.9,20.25
			c0.74,14.67,1.6,29.32,2.31,43.99c0.18,3.76,0.03,7.55,0.03,10.79c-3.76,2.04-8.99-2.81-9.74,3.49c-0.77,6.55,5.08,7.02,9.43,8.81
			c0,3.68,0,7.24,0,11.83c-4.1-2.66-5.05-9.28-10.08-6.16c-1.54,0.95-0.91,5.39-1.28,8.22c0.51,0.24,1.03,0.48,1.54,0.72
			c-1.46,0.89-2.82,2.12-4.41,2.63c-13.8,4.43-28.22,4.39-42.45,5.64c-1.93,0.17-4.63,0-5.82-1.17c-4.84-4.76-9.42-3.13-14.22-0.29
			c-0.69,0.41-1.55,0.52-4.11,1.35c2.24-4.26,3.54-7.26,5.31-9.95c1.98-3,1.44-5.54-1.55-6.72c-3.26-1.29-6.96-2.23-10.4-2.07
			c-2.92,0.14-4.27,2.78-3.85,6.11c0.54,4.2,0.65,8.45,0.98,13.34c-4.42,0-8.78,0-13.69,0c0.93-9.18-7.14-10.85-11.91-14.88
			c-2.65-2.23-5.14,0.7-5.91,4.2c-2.02,9.18-7.69,11.03-17.17,4.6c2.31,0.23,3.42,0.26,4.5,0.45c5.09,0.89,6.42-0.04,7.22-5.15
			c0.84-5.34,3.58-7.81,8.98-8.05c1.13-0.05,2.72,0.39,3.31-0.19c1.62-1.61,3.64-3.53,3.89-5.53c0.18-1.39-2.1-4.21-3.63-4.48
			c-3.3-0.59-5.27-1.67-7.35-4.57c-1.32-1.84-5.51-1.81-8.46-2.04c-0.37-0.03-1.97,4.01-1.3,5.25c1.01,1.87,3.52,2.94,5.12,4.15
			c-2.51,1.33-5.92,2.32-8.12,4.53c-2.29,2.29-3.41,5.75-5.23,9.04c-8.31-4.21-8.45,5.97-13.04,7.85c-1.74-4.54-3.26-8.51-5.3-13.84
			c1.25-2.83,5.25-2.62,8.98-3.25c4.28-0.72,5.75-3.29,4.67-7.39c-0.89-3.39-4.97-5.89-7.9-4.33c-2.08,1.1-3.61,3.23-5.77,5.26
			c-0.74-0.28-1.93-0.93-3.2-1.17c-3.8-0.72-7.49,2.66-5.8,5.89c2.04,3.9,2.77,7.64,2.73,11.89c-0.01,1.61,1.46,3.23,2.66,5.69
			c-7.92,2.21-14.9-0.81-22.16-1.58c-0.54-3.09-1-5.73-1.46-8.37c1.98,0.45,4.1,1.6,5.9,1.21c3.56-0.76,9.16-1.57,9.95-3.77
			c1.62-4.52-3.97-5.2-7.01-6.16c-3.4-1.07-8.42-2.26-10.65-0.59C800.09,640.55,804.48,644.11,805.66,647.27z M694.53,629.63
			c-6.07-2.26-12.16,0.58-16.66-4.21c-0.59-0.62-4.19,0.78-5.63,2.09c-0.81,0.74-0.55,4.43,0.08,4.69
			c5.53,2.27,11.24,4.1,16.93,5.95c0.47,0.15,1.39-0.38,1.79-0.86c2.09-2.48,4-1.51,6.56-0.46c5.35,2.18,8.31-0.08,8.13-5.91
			c-0.07-2.19-0.71-4.48-1.62-6.48c-1.65-3.59-4.9-5.03-8.47-3.66C691.67,622.29,692.33,625.59,694.53,629.63z M788.42,623.96
			c0.47-4.5-0.49-7.89-5.01-9.42c-3.72-1.26-7.24-3.1-10.97-4.32c-1.23-0.4-2.84,0.35-4.27,0.57c0.31,1.38,0.34,2.92,1,4.1
			c0.7,1.26,2.08,2.12,3.02,3.27c2.09,2.54,4.09,5.15,6.99,8.83c-0.19,6.61,0.56,7.28,8.74,6.16c2.69-0.37,5.47-0.44,8.04-1.21
			c1.42-0.43,3.66-2.36,3.47-3.03c-0.47-1.66-1.85-3.65-3.38-4.28C794.1,623.8,791.64,624.17,788.42,623.96z M915.54,619.35
			c-3.34-0.63-6.14-1.93-8.6-1.45c-4.27,0.83-7.79,0.99-11.37-2.15c-1.22-1.07-4.96-1.04-6.05,0.02c-1.14,1.11-0.96,4.2-0.43,6.18
			c0.41,1.51,2.06,2.94,3.51,3.88C900.45,630.89,907.75,629.08,915.54,619.35z M961.95,651.76c3.72-1.77,6.72-2.8,9.24-4.55
			c1.31-0.91,1.75-3.06,2.58-4.66c-1.46-0.75-3.07-2.35-4.35-2.12c-6.52,1.21-12.78,2.46-18.35-2.94c-0.71-0.69-4.22,0.1-4.97,1.2
			c-0.83,1.22-0.61,4.8,0.25,5.25C951.62,646.71,958.66,645.36,961.95,651.76z M671.92,613.67c-0.07-5.37-7.73-10.32-12.41-8.38
			c-2.94,1.22-4.7,5.29-2.76,7.8c2.29,2.96,5.08,5.69,8.13,7.84c3.16,2.24,5.53,0.78,6.34-2.96
			C671.55,616.44,671.73,614.88,671.92,613.67z M934.23,624.21c-0.63,0.65-3.31,2.1-3.46,3.79c-0.53,5.62,3.2,11.31,6.48,11.19
			c3.56-0.13,10.14-5.73,10.15-8.64C947.41,627.64,940.93,624,934.23,624.21z M728.84,628.07c4.71-1.18,8.38-2.41,12.16-2.95
			c3.27-0.47,5.99-1.19,5.77-5.08c-0.15-2.64-4.56-4.57-7.82-3.66c-3.17,0.88-6.56,1.4-9.4,2.93c-1.88,1.01-3.38,3.36-4.13,5.44
			C725.18,625.42,727.85,627.15,728.84,628.07z M637.26,621.8c0.49-3.15,1.19-5.94,1.28-8.74c0.12-4.15-3.37-5.29-6.37-5.62
			c-3.19-0.34-6.96-0.4-7.99,4.2c-0.85,3.78,0.97,6.19,4.05,7.56C630.82,620.36,633.73,620.82,637.26,621.8z M737.79,640.29
			c5.28-0.45,9.11-0.78,12.94-1.1c0.45-0.04,0.99,0.08,1.34-0.12c1.12-0.65,2.49-1.21,3.11-2.21c0.36-0.58-0.28-2.17-0.93-2.9
			c-1.67-1.86-14.8-3.88-16.76-2.29c-1.5,1.21-3.13,3.48-2.98,5.13C734.63,638.3,737.08,639.6,737.79,640.29z M515.64,646.45
			c-2.93-3.96-5.32-7.63-8.25-10.79c-0.59-0.64-3.45,0.28-4.86,1.14c-0.75,0.46-1.25,2.65-0.81,3.51c1.65,3.18,3.54,6.29,5.77,9.1
			c0.73,0.92,2.99,1.45,4.1,1.01C513.02,649.86,514,648.15,515.64,646.45z M602.87,625.6c-2.21-3.06-3.64-7.23-5.98-7.82
			c-4.2-1.06-3.75,4.02-5.21,6.55c-0.11,0.19-0.28,0.45-0.23,0.63c0.54,2.28,0.77,4.73,1.83,6.74c0.4,0.77,3.3,1.23,4.04,0.61
			C599.27,630.68,600.66,628.39,602.87,625.6z M920.78,631.95c-4.78,0.79-7.97,1.39-8.17,5.56c-0.17,3.54,2.96,6.78,6.21,6.65
			c3.13-0.12,7.11-3.9,6.21-6.68C924.28,635.19,921.96,633.41,920.78,631.95z M822.2,599.17c4.22,3.33,10.48,4.58,13.07,2.16
			c1.16-1.09,2.02-4.22,1.32-5.2c-1.24-1.73-3.7-3.3-5.81-3.53C826.14,592.09,823.19,594.6,822.2,599.17z M945.11,652.29
			c-0.05-0.82-0.11-1.65-0.16-2.47c-2.33-1.14-4.6-3.06-7-3.24c-3.24-0.25-6.96,1.33-6.15,5.3c0.45,2.18,3.84,5.47,5.59,5.28
			C940.1,656.87,942.55,654.04,945.11,652.29z M709.1,592.38c-3.24,1.11-5.9,1.76-8.33,2.91c-2.53,1.19-3.02,3.08-1.08,5.47
			c3.36,4.16,5.94,3.87,11.36-1.78c0.96-1,2.21-3.02,1.81-3.76C712.16,593.91,710.3,593.21,709.1,592.38z M926.04,606.17
			c2-1.73,4.01-3.46,6.01-5.19c-2.03-2.1-3.71-5.21-6.16-6.04c-3.1-1.06-5.54,1.49-6.03,4.84
			C919.26,603.77,922.1,604.73,926.04,606.17z M668.34,540.77c-2.67-0.21-4.51,1.17-4.38,4.28c0.13,2.97,0.63,6.73,4.5,6.19
			c2.65-0.37,5.75-2.47,7.25-4.72C676.98,544.6,672.17,540.8,668.34,540.77z M819.1,598.49c-0.68-4.14-1.87-5.75-5.14-5.78
			c-3.79-0.04-6.2,1.56-6.42,5.39c-0.22,3.87,2.92,5.47,5.76,5.03C815.41,602.8,817.18,600.12,819.1,598.49z M841.91,567.66
			c-0.02-0.71-0.03-1.41-0.05-2.12c-1.71-1.04-3.31-2.65-5.15-2.99c-3.34-0.62-5.78,1.22-6.47,4.55c-0.58,2.8,1.28,4.77,3.82,4.25
			C836.81,570.79,839.31,568.95,841.91,567.66z M856.24,595.9c-2.31,2.95-4.69,4.6-4.7,6.27c-0.02,3.67,3.4,4.69,6.3,4.26
			c1.68-0.25,3.06-2.48,4.57-3.82C860.7,600.76,859,598.91,856.24,595.9z M734.99,584.45c-2.6,2.45-5.62,3.95-5.77,5.71
			c-0.36,3.97,3.55,4.36,6.29,4.09c2.03-0.2,3.88-2.12,5.82-3.28C739.5,589.1,737.68,587.23,734.99,584.45z M951.45,622.92
			c3.09,0.05,6.01,0.58,8.61-0.1c0.99-0.26,1.92-3.41,1.64-5.03c-0.2-1.15-2.43-2.67-3.84-2.75
			C953.6,614.78,952.22,617.81,951.45,622.92z M891.14,586.89c-0.09-4.98-2.5-6.65-5.63-6.53c-1.39,0.05-3.66,2.03-3.86,3.39
			c-0.52,3.4,1.82,5.62,5.09,5.59C888.38,589.33,890.02,587.55,891.14,586.89z M695.64,595.03c1.52-2.66,3.25-4.28,3.12-5.75
			c-0.3-3.38-2.99-5.12-6.2-4.53c-1.39,0.25-3.64,3.31-3.46,3.55C690.73,590.45,692.82,592.26,695.64,595.03z M975.83,619.86
			c-2.42,3.03-4.93,4.85-5.11,6.86c-0.13,1.44,2.88,3.16,4.49,4.76c1.66-1.86,3.89-3.51,4.72-5.69
			C980.3,624.79,977.92,622.75,975.83,619.86z M692.49,575.66c2.01-3.26,3.85-4.97,4.03-6.83c0.28-3.01-2.25-4.61-4.92-3.85
			c-1.93,0.55-3.43,2.6-5.13,3.98C688.06,570.75,689.66,572.52,692.49,575.66z M766.84,578.96c3.64,4.79,7.27,6.45,9.38,4.11
			c0.86-0.95,0.82-3.85-0.02-4.98C773.57,574.52,770.73,574.87,766.84,578.96z M497.95,643.41c-1.74,2.5-3.47,3.9-3.63,5.46
			c-0.24,2.37,0.21,5.74,3.63,5.22c1.89-0.29,4.77-2.72,4.82-4.25C502.82,648.08,500.23,646.25,497.95,643.41z M565.67,619.72
			c-1.66,2.75-3.65,4.59-3.41,6.07c0.25,1.56,2.96,4.12,4.01,3.87c2.15-0.53,3.92-2.65,5.84-4.12
			C570.28,623.88,568.45,622.23,565.67,619.72z M661.84,548.63c-3.74-2.15-5.96-3.76-8.44-4.59c-0.57-0.19-3.01,2.39-2.92,3.57
			c0.27,3.35,2.73,5.27,6.09,4.92C657.89,552.38,659.06,550.75,661.84,548.63z M786.02,647.47c1.87-2.22,3.14-3.72,4.4-5.22
			c-1.91-1.3-3.75-3.39-5.77-3.59c-1.21-0.12-2.71,2.73-4.08,4.24C782.11,644.2,783.66,645.5,786.02,647.47z M632.88,596.86
			c0-0.62-0.01-1.24-0.01-1.86c-1.71-1.04-3.61-3.12-5.08-2.85c-1.85,0.34-3.34,2.61-4.98,4.05c1.4,1.15,2.82,3.25,4.2,3.22
			C628.98,599.38,630.93,597.79,632.88,596.86z M969.04,595.4c-2.58-1.82-4.4-3.98-5.46-3.66c-1.75,0.53-3.01,2.67-4.48,4.13
			c1.45,1.11,2.86,3.06,4.34,3.11C964.9,599.04,966.43,597.18,969.04,595.4z M554.06,635.19c2.08-1.8,3.47-3,4.86-4.2
			c-1.22-1.31-2.64-3.84-3.61-3.68c-1.7,0.28-3.38,2.03-4.48,3.58C550.55,631.27,552.57,633.27,554.06,635.19z M631.21,577.82
			c-2.23-1.3-3.84-2.83-4.51-2.5c-1.57,0.77-2.69,2.45-3.99,3.76c1.2,1.04,2.67,3.12,3.55,2.89
			C627.82,581.58,629.02,579.78,631.21,577.82z M485.7,627.35c1.16,1.22,1.91,2.6,2.54,2.55c1.03-0.09,1.97-1.11,2.95-1.74
			c-0.57-0.8-1.1-2.23-1.7-2.26C488.43,625.85,487.34,626.66,485.7,627.35z"/>
		<path class="st1" d="M525.63,165.27c3.73,6.45,9.52,6.49,14.67,5.97c10.81-1.09,21.48-3.55,32.29-4.64
			c26.43-2.68,52.94-4.61,79.35-7.42c26.64-2.83,53.21-6.4,79.82-9.57c23.71-2.82,47.46-5.39,71.15-8.35
			c11.69-1.46,23.28-3.61,34.94-5.35c5.62-0.84,11.25-1.65,16.91-2.15c4.32-0.38,7.23,2.48,7.92,6.16
			c2.14,11.32,3.85,22.73,5.32,34.16c0.49,3.84-1.55,6.31-6.06,6.37c-9.74,0.13-19.51,0.19-29.2,1.03
			c-9.92,0.86-19.79,2.47-29.64,4.01c-11.67,1.82-23.31,3.86-34.95,5.89c-14.09,2.46-28.16,5.03-42.24,7.5
			c-3.8,0.67-7.66,1-11.44,1.77c-11.77,2.38-23.49,4.97-35.26,7.33c-6.9,1.38-13.83,2.66-20.79,3.66
			c-16.87,2.44-33.74,4.92-50.67,6.93c-13.74,1.64-27.55,2.68-41.34,3.86c-5.54,0.48-9.04,3.49-11.8,8.05
			c-1.05,1.74-2.79,3.9-4.53,4.24c-17.52,3.41-34.84,7.86-52.8,9.07c-4.83,0.33-7.32-1.01-9.53-4.34c-2.25-3.4-4.06-7.1-6.29-10.51
			c-4.44-6.8-8.56-13.91-13.76-20.08c-2.92-3.46-7.75-5.33-11.74-7.88c-2.4-1.54-4.84-3.01-7.25-5.55
			c25.03-8.67,49.52-18.18,76.15-21.53c-0.55-5.13-4.53-4.98-7.13-4.96c-6.75,0.04-13.73-0.03-20.19,1.61
			c-12.89,3.26-25.45,7.81-38.24,11.47c-4.62,1.32-9.54,1.63-14.63,1.51c4.76-6.54,10.71-11.54,17.9-13.59
			c12.84-3.65,25.96-6.53,39.13-8.77c8.18-1.39,16.71-0.6,25-1.54c9.21-1.05,18.33-2.89,27.48-4.49c12.73-2.23,25.5-4.31,38.16-6.9
			c9.1-1.86,17.98-5.85,27.09-6.32c11.96-0.61,23.35-3.32,34.93-5.56c12.93-2.5,25.91-4.73,38.85-7.22
			c11.32-2.18,22.52-5.27,33.93-6.69c15.5-1.94,30.69-6.99,46.62-5.02c1.33,0.16,2.71-0.03,4.07-0.08
			c9.53-0.41,19.06-0.75,28.58-1.25c9.52-0.5,19.02-1.41,28.54-1.63c5.64-0.13,53.95-3,55.14,11.12c1.28,15.08,1.9,30.24,6.11,44.93
			c1.28,4.46-0.17,6.32-4.68,7.16c-0.22,0.04-0.45,0.04-0.68,0.08c-13.01,1.98-12.88,1.97-13.99-10.98
			c-0.46-5.41-1.78-10.74-2.35-16.15c-0.58-5.56-1.33-11.22-0.93-16.75c0.69-9.57-2.71-13.48-12.03-12.2
			c-12.15,1.67-24.29,3.45-36.42,5.29c-29.37,4.46-58.62,9.95-88.13,13.08c-16.63,1.77-32.86,5.92-49.65,6.68
			c-13.96,0.63-27.84,3.02-41.77,4.44c-19.35,1.98-38.71,3.81-58.08,5.65c-10.4,0.99-20.84,1.64-31.22,2.84
			c-9.2,1.07-18.34,2.66-27.5,4.09C527.92,163.86,527.19,164.48,525.63,165.27z M778.57,175.27c-0.02-0.52-0.03-1.04-0.05-1.56
			c-1.88-0.26-3.77-0.77-5.64-0.74c-7.28,0.11-14.56,0.19-21.82,0.64c-12.9,0.8-25.85,1.42-38.68,2.92
			c-19.15,2.25-38.27,4.9-57.31,7.95c-12.99,2.08-25.78,5.34-38.73,7.68c-19.21,3.47-38.51,6.49-57.73,9.91
			c-17.2,3.06-34.36,6.37-51.51,9.67c-1.47,0.28-3.19,1.02-4.06,2.12c-0.99,1.24-1.95,3.49-1.45,4.66c0.51,1.19,2.82,2.21,4.35,2.23
			c2.2,0.03,4.42-0.89,6.62-1.46c16.71-4.28,33.29-9.19,50.16-12.72c30.91-6.46,62.02-11.95,92.99-18.13
			c37.15-7.42,74.75-10.35,112.51-11.88C771.68,176.41,775.12,175.71,778.57,175.27z M622.14,179.18c-0.03-0.7-0.06-1.4-0.09-2.09
			c-0.98-0.37-1.94-0.87-2.95-1.09c-14.71-3.25-29.51-1.85-43.95,0.84c-19.33,3.6-38.38,8.67-57.55,13.09
			c-11,2.54-22.04,4.94-33.01,7.61c-3.22,0.78-6.47,2.04-7.43,6.86c2.44,0,4.43,0.3,6.3-0.06c5.76-1.1,11.49-2.37,17.21-3.7
			c11.25-2.61,22.55-5.03,33.7-8.01c26.32-7.05,52.6-14.08,80.26-12.65C617.1,180.09,619.63,179.46,622.14,179.18z M699.17,165.04
			c3.74,6.42,8.5,5.28,12.49,4.79c13.05-1.6,26.04-3.62,39.03-5.65c5.79-0.9,11.47-2.6,17.28-3.25c15.34-1.72,30.71-3.04,46.07-4.55
			c7.68-0.75,15.36-1.48,23.02-2.43c1.26-0.16,2.37-1.42,3.55-2.17c-0.82-0.91-1.49-2.35-2.49-2.63c-1.69-0.48-3.61-0.4-5.4-0.26
			c-5.66,0.43-11.32,0.88-16.96,1.52c-19.16,2.17-38.32,4.4-57.47,6.65c-15.53,1.83-31.06,3.67-46.58,5.63
			C707.8,163.18,703.94,164.13,699.17,165.04z"/>
		<path class="st2" d="M440.83,373.86c6.02,3.44,11.95,7.06,18.11,10.25c2.77,1.44,5.98,2.07,9.01,2.99
			c13.24,4.01,26.51,8.39,40.46,8.38c8.98-0.01,17.95-2.03,26.96-2.69c11.88-0.88,21.08-8.87,32.81-11.28
			c0.39,0.95,1.25,2.32,1.5,3.78c2.9,17.18,5.86,34.34,8.49,51.56c2.29,14.97,4,30.02,6.3,44.98c1.06,6.9,3.07,13.65,4.41,20.51
			c1.17,5.99,2.21,12.02,2.82,18.09c0.15,1.47-1.28,3.46-2.53,4.64c-1.74,1.64-3.99,2.74-7.33,4.93c3.08,2.06,5.05,4.39,7.27,4.66
			c5.02,0.61,6.43,3.72,6.86,7.81c0.47,4.45,0.61,8.93,0.91,13.53c-3.83,1.23-6.97,2.23-9.97,3.19c-1.18-3.16-1.73-6.04-3.27-8.23
			c-1.01-1.44-3.53-2.64-5.26-2.51c-1.77,0.13-4.57,1.73-4.92,3.17c-1.38,5.74,3.92,6.73,8.07,9.09c-2.39,1.93-4.39,3.56-6.51,5.27
			c-2.16-3.17-3.99-5.84-6.16-9.03c1.25-3.3,1.73-7.27-2.82-9.21c-1.7-0.73-4.54-0.58-5.95,0.43c-1.01,0.73-1.38,4.22-0.53,5.31
			c2.08,2.69,3.33,4.56,1.62,8.31c-0.68,1.49,2.58,4.79,4.49,8.01c-8.42,5.93-17.55,9.91-27.9,10.76c-0.24-0.48-0.48-0.95-0.72-1.43
			c1.39-0.83,3.05-1.42,4.1-2.56c1.21-1.32,2.98-3.62,2.53-4.61c-0.64-1.42-3.31-3.1-4.67-2.79c-3.98,0.93-6.26,0.02-8.38-3.56
			c-0.67-1.13-4.1-1.07-6.1-0.69c-0.66,0.13-1.21,3.01-1.1,4.59c0.23,3.1,0.95,6.16,1.44,9.07c-7.48,3.3-13.71,2.5-17.93-1.95
			c-2.11-2.22-3.49-4.62-0.13-6.76c3.15-2.01,3.35-4.1,0.74-6.52c-2.5-2.32-8.66-2.6-9.13-0.18c-1.73,8.9-9.99,9.6-15.98,13.8
			c-3.57-2.89-6.84-7.42-12.72-4.41c-0.48,0.25-2.54-1.57-3.14-2.78c-1.14-2.33-1.76-4.91-2.98-8.52
			c5.85,1.66,11.27-0.64,15.12,4.65c0.62,0.86,4.98-0.42,7.19-1.55c0.97-0.5,1.51-3.27,1.12-4.7c-0.86-3.17-3.51-2.8-6.17-2.28
			c-3.32,0.65-6.3,1.04-9.12-2.35c-1.3-1.57-5.21-0.98-9.05-1.53c-0.59-3.82-1.32-8.58-2.15-13.93c3.14-0.14,5.36-0.1,7.55-0.36
			c3.67-0.44,5.27-2.97,4.59-6.25c-0.76-3.63-3.75-3.44-6.56-2.42c-1.88,0.69-3.66,1.66-5.13,2.35
			c-14.85-51.69-15.23-105.15-23.26-157.6C438.77,374.82,439.8,374.34,440.83,373.86z M540.52,547.52c-0.84-1.09-1.72-3.36-2.9-3.52
			c-2.18-0.3-4.65,0.32-6.78,1.14c-2.3,0.89-4.21,3.12-6.53,3.58c-3.95,0.8-4.67,3.03-4.14,6.33c0.59,3.61,3.41,5.59,6.3,4.22
			c4.62-2.18,8.69-5.56,12.9-8.57C539.96,550.29,539.99,549.09,540.52,547.52z M477.87,524.53c0.24-0.33,0.48-0.66,0.72-0.98
			c2.25-0.21,4.51-0.33,6.74-0.64c3.42-0.46,4.54-2.75,4.08-5.85c-0.49-3.29-2.88-3.77-5.61-3.12c-2.42,0.57-4.94,1.06-7.1,2.19
			c-1.58,0.83-2.64,2.64-3.93,4.02C474.47,521.61,476.17,523.07,477.87,524.53z M511.37,523.98c2.62-2.96,5.45-4.72,5.78-6.87
			c0.56-3.64-2.73-4.92-5.94-4.9c-3.34,0.02-6.21,1.82-5.64,5.28C505.9,519.5,508.67,521.1,511.37,523.98z M520.06,537.07
			c-0.11-4.61-2.12-6.44-5.57-6.51c-3.21-0.07-5.11,1.75-5.29,4.96c-0.17,3.02,3.18,6.27,6.14,6.02
			C518.6,541.26,520.17,539.36,520.06,537.07z M483.98,538.89c-3.16,2.49-6.1,3.65-6.73,5.58c-0.99,2.99,1.47,5.47,4.52,5.03
			c2.18-0.32,4.67-2.14,5.86-4.02C488.15,544.65,485.79,542,483.98,538.89z M540.11,517.1c-2.55,3.43-4.56,5.24-5.19,7.44
			c-0.24,0.83,2.87,3.79,4.16,3.61c1.91-0.26,4.62-2.2,5.01-3.88C544.44,522.73,542.17,520.59,540.11,517.1z M502.92,538.21
			c-2.65-2.42-3.99-4.53-5.73-4.92c-1.12-0.25-2.81,1.99-4.25,3.11c1.47,1.37,2.74,3.2,4.48,3.92
			C498.43,540.74,500.18,539.34,502.92,538.21z M466.08,491.05c-2.98-2.12-4.52-3.88-6.34-4.23c-0.98-0.19-2.43,2.02-3.67,3.14
			c1.47,1.32,2.76,3.15,4.48,3.77C461.56,494.09,463.26,492.5,466.08,491.05z"/>
		<path class="st3" d="M561.43,347.36c1.2,5.63,2.68,11.29,3.47,17.05c0.21,1.52-1.26,4.16-2.68,4.87
			c-6.79,3.44-13.77,6.56-20.8,9.5c-20.78,8.7-41.77,7.62-62.5,0.17c-11.05-3.97-21.9-8.72-32.35-14.08
			c-7.01-3.59-11.59-10.02-13.14-18.07c-0.92-4.77-1.61-9.58-2.67-16.02c3.66,1.88,5.56,2.87,7.48,3.84
			c13.32,6.73,26.78,12.5,41.45,16.44c21.35,5.73,41.64,1.83,62.35-1.41C548.05,348.71,554.14,348.21,561.43,347.36z"/>
		<path class="st3" d="M530.39,610.41c-9.28,0-18.68,0.94-27.8-0.26c-9.32-1.23-18.39-4.44-27.5-7.04
			c-2.37-0.68-7.15-11.81-6.09-13.83c0.52-1,1.97-2,3.09-2.12c2.21-0.24,4.61-0.29,6.71,0.33c10.77,3.2,21.73,3.71,32.86,3.02
			c5.42-0.33,10.92-0.61,16.3-0.07c14.4,1.46,27.36-3.61,40.27-8.58c8.44-3.25,16.48-7.56,24.73-11.31
			c5.58-2.53,5.92-1.65,6.74,4.47c1.13,8.42,0.01,14.4-9.58,16.55c-2.84,0.64-5.07,3.7-7.77,5.36c-5.83,3.59-11.89,5.84-19.03,6.39
			c-6.13,0.47-11.97,3.93-18.09,5.47c-4.79,1.2-9.82,1.47-14.74,2.15C530.45,610.77,530.42,610.59,530.39,610.41z"/>
		<path class="st4" d="M478.61,251.64c-12.15-2.49-21.04-8.4-27.49-18.07c-3.14-4.71-6.36-9.37-9.36-14.17
			c-3.24-5.2-6.35-10.51-4.95-17.08C450.93,202,476.75,233.67,478.61,251.64z"/>
		<path class="st5" d="M551.55,243.24c-1.96,2.99-3.03,5.5-4.85,7.24c-12.29,11.75-26.67,15.7-43.19,10.9
			c-2.38-0.69-4.84-1.29-7.03-2.4c-0.93-0.47-1.62-2.12-1.7-3.29c-0.05-0.65,1.36-2.02,2.13-2.03c17.76-0.28,33.87-8.06,51.01-11.08
			C548.52,242.48,549.2,242.8,551.55,243.24z"/>
		<path class="st5" d="M467.5,158.27c-15.85,4.57-29.01,12.41-36.5,28.28c-1.87-4.87,0.99-12.48,7.06-17.69
			C446.41,161.69,455.72,156.5,467.5,158.27z"/>
		<path class="st6" d="M520.13,664.22c0.38,1.49,0.77,2.99,1.15,4.48c-1.64,0.33-3.29,0.67-6.46,1.31c1.78-2.96,2.6-4.34,3.43-5.71
			C518.87,664.28,519.5,664.25,520.13,664.22z"/>
		<path class="st6" d="M498.35,580.39c-1.39,0-2.77,0-4.16,0c0-0.43,0-0.86,0.01-1.29c1.39,0,2.77,0,4.16,0
			C498.35,579.53,498.35,579.96,498.35,580.39z"/>
		<path class="st6" d="M538.02,668.73c-1.97,0.69-3.94,1.39-5.92,2.08c-0.11-0.79-0.22-1.58-0.33-2.37c2.05,0.13,4.1,0.26,6.16,0.39
			C537.94,668.83,538.02,668.73,538.02,668.73z"/>
		<path d="M694.53,629.63c-2.2-4.04-2.86-7.34,1.1-8.86c3.57-1.37,6.82,0.06,8.47,3.66c0.92,2,1.56,4.3,1.62,6.48
			c0.18,5.83-2.78,8.09-8.13,5.91c-2.56-1.04-4.47-2.02-6.56,0.46c-0.4,0.48-1.32,1.01-1.79,0.86c-5.69-1.85-11.4-3.67-16.93-5.95
			c-0.64-0.26-0.89-3.96-0.08-4.69c1.44-1.31,5.05-2.71,5.63-2.09C682.37,630.21,688.46,627.37,694.53,629.63z"/>
		<path d="M788.42,623.96c3.22,0.21,5.68-0.16,7.64,0.66c1.52,0.64,2.91,2.62,3.38,4.28c0.19,0.67-2.05,2.61-3.47,3.03
			c-2.57,0.77-5.35,0.84-8.04,1.21c-8.19,1.13-8.93,0.45-8.74-6.16c-2.9-3.68-4.9-6.29-6.99-8.83c-0.94-1.15-2.32-2.01-3.02-3.27
			c-0.66-1.19-0.69-2.72-1-4.1c1.43-0.22,3.04-0.97,4.27-0.57c3.73,1.22,7.25,3.06,10.97,4.32
			C787.93,616.07,788.89,619.46,788.42,623.96z"/>
		<path d="M915.54,619.35c-7.79,9.73-15.09,11.54-22.95,6.47c-1.45-0.93-3.1-2.37-3.51-3.88c-0.53-1.98-0.71-5.07,0.43-6.18
			c1.09-1.06,4.84-1.09,6.05-0.02c3.59,3.15,7.1,2.98,11.37,2.15C909.4,617.42,912.2,618.72,915.54,619.35z"/>
		<path d="M961.95,651.76c-3.3-6.4-10.33-5.05-15.6-7.81c-0.86-0.45-1.08-4.03-0.25-5.25c0.75-1.1,4.25-1.9,4.97-1.2
			c5.56,5.4,11.82,4.15,18.35,2.94c1.27-0.24,2.89,1.36,4.35,2.12c-0.83,1.59-1.27,3.75-2.58,4.66
			C968.68,648.96,965.67,649.99,961.95,651.76z"/>
		<path d="M671.92,613.67c-0.19,1.2-0.37,2.77-0.7,4.31c-0.81,3.74-3.18,5.19-6.34,2.96c-3.05-2.16-5.84-4.89-8.13-7.84
			c-1.94-2.5-0.18-6.57,2.76-7.8C664.19,603.35,671.85,608.3,671.92,613.67z"/>
		<path d="M934.23,624.21c6.69-0.21,13.17,3.43,13.16,6.35c-0.01,2.91-6.59,8.51-10.15,8.64c-3.28,0.12-7.01-5.58-6.48-11.19
			C930.93,626.31,933.6,624.86,934.23,624.21z"/>
		<path d="M728.84,628.07c-0.99-0.92-3.66-2.64-3.42-3.33c0.74-2.08,2.25-4.43,4.13-5.44c2.84-1.53,6.22-2.05,9.4-2.93
			c3.26-0.91,7.67,1.03,7.82,3.66c0.22,3.89-2.5,4.61-5.77,5.08C737.22,625.66,733.55,626.89,728.84,628.07z"/>
		<path d="M805.66,647.27c-1.18-3.16-5.58-6.71-1.94-9.43c2.23-1.66,7.25-0.47,10.65,0.59c3.04,0.95,8.63,1.63,7.01,6.16
			c-0.79,2.21-6.38,3.02-9.95,3.77c-1.8,0.38-3.93-0.76-5.9-1.21C805.54,647.15,805.66,647.27,805.66,647.27z"/>
		<path d="M637.26,621.8c-3.54-0.98-6.44-1.44-9.03-2.59c-3.08-1.37-4.9-3.78-4.05-7.56c1.04-4.6,4.81-4.54,7.99-4.2
			c3.01,0.32,6.5,1.46,6.37,5.62C638.46,615.86,637.75,618.64,637.26,621.8z"/>
		<path d="M737.79,640.29c-0.71-0.69-3.15-1.99-3.29-3.49c-0.15-1.65,1.49-3.92,2.98-5.13c1.96-1.59,15.09,0.43,16.76,2.29
			c0.65,0.73,1.29,2.32,0.93,2.9c-0.62,1-2,1.56-3.11,2.21c-0.35,0.2-0.89,0.09-1.34,0.12
			C746.89,639.51,743.06,639.84,737.79,640.29z"/>
		<path d="M515.64,646.45c-1.64,1.7-2.62,3.42-4.05,3.98c-1.11,0.44-3.38-0.1-4.1-1.01c-2.22-2.8-4.12-5.91-5.77-9.1
			c-0.45-0.86,0.06-3.05,0.81-3.51c1.41-0.86,4.26-1.78,4.86-1.14C510.32,638.82,512.71,642.49,515.64,646.45z"/>
		<path d="M602.87,625.6c-2.21,2.79-3.59,5.08-5.54,6.71c-0.74,0.62-3.64,0.16-4.04-0.61c-1.06-2.01-1.3-4.46-1.83-6.74
			c-0.04-0.18,0.12-0.44,0.23-0.63c1.46-2.54,1.01-7.61,5.21-6.55C599.23,618.37,600.66,622.54,602.87,625.6z"/>
		<path d="M920.78,631.95c1.18,1.46,3.51,3.25,4.25,5.54c0.9,2.78-3.08,6.56-6.21,6.68c-3.25,0.12-6.37-3.11-6.21-6.65
			C912.81,633.34,916,632.74,920.78,631.95z"/>
		<path d="M822.2,599.17c0.99-4.57,3.94-7.08,8.57-6.57c2.11,0.23,4.57,1.81,5.81,3.53c0.71,0.98-0.15,4.11-1.32,5.2
			C832.68,603.75,826.43,602.5,822.2,599.17z"/>
		<path d="M945.11,652.29c-2.56,1.75-5.01,4.58-7.72,4.88c-1.75,0.19-5.14-3.1-5.59-5.28c-0.81-3.97,2.91-5.55,6.15-5.3
			c2.4,0.18,4.67,2.1,7,3.24C945,650.64,945.05,651.46,945.11,652.29z"/>
		<path d="M709.1,592.38c1.19,0.83,3.05,1.52,3.76,2.84c0.4,0.74-0.85,2.75-1.81,3.76c-5.42,5.65-8,5.94-11.36,1.78
			c-1.93-2.39-1.44-4.28,1.08-5.47C703.2,594.15,705.86,593.49,709.1,592.38z"/>
		<path d="M926.04,606.17c-3.94-1.44-6.78-2.4-6.19-6.39c0.5-3.35,2.93-5.9,6.03-4.84c2.46,0.84,4.14,3.94,6.16,6.04
			C930.04,602.71,928.04,604.44,926.04,606.17z"/>
		<path d="M668.34,540.77c3.83,0.03,8.64,3.82,7.37,5.74c-1.49,2.26-4.59,4.35-7.25,4.72c-3.87,0.54-4.37-3.22-4.5-6.19
			C663.82,541.94,665.66,540.56,668.34,540.77z"/>
		<path d="M819.1,598.49c-1.92,1.63-3.68,4.32-5.81,4.64c-2.84,0.43-5.98-1.17-5.76-5.03c0.22-3.83,2.63-5.43,6.42-5.39
			C817.23,592.74,818.42,594.34,819.1,598.49z"/>
		<path d="M841.91,567.66c-2.6,1.28-5.1,3.13-7.85,3.69c-2.54,0.52-4.4-1.45-3.82-4.25c0.69-3.32,3.13-5.17,6.47-4.55
			c1.84,0.34,3.44,1.95,5.15,2.99C841.88,566.25,841.89,566.96,841.91,567.66z"/>
		<path d="M856.24,595.9c2.77,3.01,4.47,4.86,6.17,6.71c-1.51,1.34-2.89,3.56-4.57,3.82c-2.9,0.44-6.32-0.58-6.3-4.26
			C851.54,600.51,853.92,598.85,856.24,595.9z"/>
		<path d="M734.99,584.45c2.69,2.77,4.51,4.65,6.33,6.52c-1.93,1.15-3.79,3.08-5.82,3.28c-2.74,0.27-6.65-0.12-6.29-4.09
			C729.37,588.41,732.39,586.9,734.99,584.45z"/>
		<path d="M951.45,622.92c0.77-5.11,2.15-8.15,6.41-7.88c1.4,0.09,3.63,1.6,3.84,2.75c0.28,1.62-0.64,4.77-1.64,5.03
			C957.46,623.51,954.54,622.97,951.45,622.92z"/>
		<path d="M891.14,586.89c-1.12,0.67-2.76,2.44-4.4,2.45c-3.28,0.02-5.61-2.19-5.09-5.59c0.21-1.36,2.47-3.33,3.86-3.39
			C888.63,580.24,891.05,581.91,891.14,586.89z"/>
		<path d="M695.64,595.03c-2.82-2.77-4.91-4.58-6.54-6.73c-0.18-0.24,2.07-3.29,3.46-3.55c3.21-0.58,5.9,1.15,6.2,4.53
			C698.88,590.74,697.16,592.37,695.64,595.03z"/>
		<path d="M975.83,619.86c2.09,2.89,4.48,4.94,4.1,5.93c-0.83,2.18-3.06,3.82-4.72,5.69c-1.61-1.6-4.61-3.31-4.49-4.76
			C970.9,624.7,973.41,622.89,975.83,619.86z"/>
		<path d="M692.49,575.66c-2.82-3.14-4.42-4.91-6.02-6.69c1.69-1.38,3.2-3.43,5.13-3.98c2.67-0.76,5.2,0.83,4.92,3.85
			C696.34,570.69,694.49,572.4,692.49,575.66z"/>
		<path d="M766.84,578.96c3.89-4.09,6.73-4.44,9.37-0.87c0.83,1.13,0.87,4.03,0.02,4.98C774.12,585.41,770.48,583.75,766.84,578.96z
			"/>
		<path d="M497.95,643.41c2.27,2.83,4.87,4.67,4.82,6.42c-0.05,1.54-2.92,3.96-4.82,4.25c-3.41,0.52-3.86-2.84-3.63-5.22
			C494.48,647.32,496.21,645.92,497.95,643.41z"/>
		<path d="M565.67,619.72c2.78,2.51,4.61,4.16,6.44,5.82c-1.92,1.47-3.69,3.59-5.84,4.12c-1.05,0.26-3.75-2.3-4.01-3.87
			C562.02,624.31,564.01,622.47,565.67,619.72z"/>
		<path d="M661.84,548.63c-2.78,2.13-3.95,3.75-5.27,3.89c-3.36,0.35-5.82-1.57-6.09-4.92c-0.09-1.17,2.35-3.76,2.92-3.57
			C655.88,544.86,658.1,546.48,661.84,548.63z"/>
		<path d="M786.02,647.47c-2.36-1.98-3.91-3.27-5.46-4.57c1.37-1.51,2.87-4.36,4.08-4.24c2.02,0.2,3.86,2.3,5.77,3.59
			C789.15,643.75,787.89,645.25,786.02,647.47z"/>
		<path d="M632.88,596.86c-1.95,0.93-3.9,2.52-5.87,2.56c-1.38,0.03-2.8-2.07-4.2-3.22c1.64-1.44,3.13-3.7,4.98-4.05
			c1.46-0.27,3.37,1.81,5.08,2.85C632.87,595.62,632.88,596.24,632.88,596.86z"/>
		<path d="M969.04,595.4c-2.61,1.78-4.14,3.64-5.6,3.59c-1.48-0.05-2.9-1.99-4.34-3.11c1.47-1.46,2.73-3.6,4.48-4.13
			C964.65,591.42,966.47,593.58,969.04,595.4z"/>
		<path d="M554.06,635.19c-1.48-1.92-3.51-3.92-3.24-4.3c1.1-1.55,2.78-3.3,4.48-3.58c0.98-0.16,2.39,2.36,3.61,3.68
			C557.53,632.19,556.14,633.4,554.06,635.19z"/>
		<path d="M631.21,577.82c-2.19,1.97-3.39,3.76-4.95,4.16c-0.88,0.22-2.35-1.85-3.55-2.89c1.3-1.31,2.42-2.99,3.99-3.76
			C627.38,574.98,628.98,576.52,631.21,577.82z"/>
		<path d="M485.7,627.35c1.64-0.69,2.73-1.5,3.79-1.45c0.6,0.03,1.14,1.46,1.7,2.26c-0.98,0.63-1.93,1.65-2.95,1.74
			C487.61,629.95,486.86,628.57,485.7,627.35z"/>
		<path d="M778.57,175.27c-3.45,0.44-6.89,1.15-10.36,1.29c-37.76,1.53-75.36,4.46-112.51,11.88
			c-30.97,6.19-62.08,11.67-92.99,18.13c-16.87,3.53-33.45,8.44-50.16,12.72c-2.2,0.56-4.42,1.48-6.62,1.46
			c-1.53-0.02-3.84-1.03-4.35-2.23c-0.5-1.18,0.46-3.42,1.45-4.66c0.88-1.1,2.6-1.84,4.06-2.12c17.16-3.3,34.31-6.61,51.51-9.67
			c19.22-3.42,38.52-6.44,57.73-9.91c12.95-2.34,25.74-5.6,38.73-7.68c19.04-3.05,38.16-5.7,57.31-7.95
			c12.83-1.5,25.77-2.12,38.68-2.92c7.26-0.45,14.54-0.53,21.82-0.64c1.88-0.03,3.76,0.48,5.64,0.74
			C778.54,174.22,778.55,174.74,778.57,175.27z"/>
		<path d="M622.14,179.18c-2.51,0.28-5.04,0.92-7.52,0.79c-27.66-1.43-53.94,5.6-80.26,12.65c-11.15,2.99-22.45,5.4-33.7,8.01
			c-5.72,1.33-11.45,2.61-17.21,3.7c-1.87,0.36-3.86,0.06-6.3,0.06c0.96-4.81,4.21-6.07,7.43-6.86c10.97-2.67,22.01-5.07,33.01-7.61
			c19.17-4.42,38.23-9.5,57.55-13.09c14.45-2.69,29.24-4.09,43.95-0.84c1.02,0.22,1.97,0.72,2.95,1.09
			C622.07,177.78,622.1,178.48,622.14,179.18z"/>
		<path d="M699.17,165.04c4.77-0.91,8.63-1.86,12.55-2.35c15.52-1.96,31.05-3.8,46.58-5.63c19.15-2.25,38.31-4.48,57.47-6.65
			c5.64-0.64,11.3-1.09,16.96-1.52c1.8-0.14,3.71-0.22,5.4,0.26c1,0.28,1.67,1.71,2.49,2.63c-1.18,0.75-2.3,2.02-3.55,2.17
			c-7.66,0.95-15.34,1.68-23.02,2.43c-15.36,1.51-30.74,2.84-46.07,4.55c-5.81,0.65-11.49,2.34-17.28,3.25
			c-12.99,2.03-25.99,4.05-39.03,5.65C707.67,170.32,702.91,171.46,699.17,165.04z"/>
		<path d="M540.52,547.52c-0.53,1.57-0.56,2.77-1.14,3.18c-4.21,3.01-8.28,6.39-12.9,8.57c-2.89,1.37-5.71-0.61-6.3-4.22
			c-0.54-3.29,0.19-5.53,4.14-6.33c2.32-0.47,4.23-2.69,6.53-3.58c2.12-0.82,4.6-1.44,6.78-1.14
			C538.8,544.16,539.69,546.43,540.52,547.52z"/>
		<path d="M477.87,524.53c-1.7-1.46-3.4-2.92-5.1-4.38c1.29-1.37,2.35-3.19,3.93-4.02c2.16-1.13,4.69-1.61,7.1-2.19
			c2.73-0.65,5.12-0.17,5.61,3.12c0.46,3.09-0.66,5.39-4.08,5.85c-2.24,0.3-4.5,0.43-6.74,0.64
			C478.35,523.87,478.11,524.2,477.87,524.53z"/>
		<path d="M511.37,523.98c-2.7-2.88-5.47-4.48-5.8-6.49c-0.57-3.46,2.3-5.26,5.64-5.28c3.21-0.02,6.5,1.26,5.94,4.9
			C516.82,519.26,513.99,521.02,511.37,523.98z"/>
		<path d="M520.06,537.07c0.11,2.29-1.46,4.19-4.72,4.47c-2.96,0.25-6.31-3-6.14-6.02c0.18-3.2,2.07-5.02,5.29-4.96
			C517.94,530.64,519.95,532.46,520.06,537.07z"/>
		<path d="M483.98,538.89c1.8,3.11,4.17,5.76,3.65,6.58c-1.19,1.88-3.68,3.71-5.86,4.02c-3.05,0.44-5.51-2.04-4.52-5.03
			C477.89,542.54,480.83,541.38,483.98,538.89z"/>
		<path d="M540.11,517.1c2.06,3.49,4.33,5.63,3.97,7.17c-0.39,1.68-3.1,3.62-5.01,3.88c-1.29,0.18-4.39-2.78-4.16-3.61
			C535.55,522.34,537.56,520.53,540.11,517.1z"/>
		<path d="M502.92,538.21c-2.75,1.13-4.49,2.53-5.49,2.12c-1.74-0.72-3.01-2.55-4.48-3.92c1.44-1.12,3.13-3.37,4.25-3.11
			C498.93,533.68,500.27,535.79,502.92,538.21z"/>
		<path d="M466.08,491.05c-2.82,1.45-4.52,3.04-5.52,2.68c-1.72-0.62-3.01-2.45-4.48-3.77c1.24-1.12,2.69-3.33,3.67-3.14
			C461.56,487.17,463.1,488.93,466.08,491.05z"/>
	</g>
</g>
<g id="Layer_2">
	<path d="M927.32,470.27c0.22,2.29,0.72,4.59,0.57,6.86c-0.1,1.51-0.75,3.62-1.85,4.25c-1.15,0.66-3.16,0-4.75-0.31
		c-1.34-0.26-2.96-1.6-3.88-1.18c-16.62,7.48-34.4,8.06-52.11,9.14c-15.82,0.96-31.65,1.89-47.46,3.05
		c-3.54,0.26-6.99,1.6-10.53,2.17c-11.47,1.85-22.96,3.56-34.44,5.36c-9.06,1.42-18.09,3.02-27.16,4.32
		c-11.21,1.6-22.35,3.57-33.86,1.98c-7.2-0.99-14.67,0.03-21.89-0.91c-4.79-0.62-9.31-3.21-14.01-4.72
		c-6.21-1.99-12.49-3.77-18.73-5.69c-2.96-0.91-6.01-1.71-8.77-3.06c-1.11-0.55-2.12-2.41-2.22-3.74
		c-0.57-7.57-0.67-15.18-1.26-22.76c-1.04-13.33-2.22-26.65,0.42-39.91c1.76-8.85,3.2-17.85,5.98-26.39
		c3.02-9.29,7.14-18.27,11.28-27.15c4.92-10.56,9.79-21.23,15.82-31.16c3.45-5.69,8.43-11.16,14.01-14.72
		c13.13-8.36,26.67-16.3,40.73-22.95c15.72-7.43,32.08-13.6,48.42-19.6c6.02-2.21,12.79-2.37,19.22-3.42
		c4.43-0.73,8.88-1.3,13.29-2.08c12.68-2.26,24.34,0.88,35.8,6.13c13.42,6.15,21.85,17.77,31.62,27.94
		c6.04,6.28,9.99,13.79,13.25,21.87c3.48,8.64,8.22,16.76,11.72,25.39c5.26,12.95,8.42,26.47,10.02,40.4
		c1.8,15.67,4.05,31.3,6.09,46.94c0.7,5.41,1.09,10.88,2.11,16.23c0.51,2.64,2.15,5.07,3.28,7.59
		C927.77,470.18,927.55,470.23,927.32,470.27z M651.89,485.91c7.4,2.17,14.67,4.29,21.93,6.44c6.11,1.81,12.09,4.43,18.33,5.34
		c16.83,2.46,33.67,3.11,50.54-0.74c8.91-2.04,18.12-2.72,27.19-4.06c11.63-1.73,23.21-3.93,34.89-5.18
		c18.29-1.95,36.64-3.26,54.96-4.87c8.51-0.75,17.06-1.25,25.52-2.42c5.76-0.79,11.64-0.89,17.08-4.13
		c3.84-2.29,8.74-2.77,13.16-4.1c3.03-0.91,4.09-2.69,3.37-6.03c-1.11-5.13-1.96-10.35-2.39-15.57c-0.76-9.15-0.5-18.41-1.77-27.47
		c-2.06-14.76-4.59-29.48-7.73-44.05c-1.95-9.09-4.43-18.3-8.36-26.66c-6.06-12.88-11.99-25.98-21.01-37.27
		c-8.46-10.59-18.25-19.88-30.08-26.33c-12.09-6.6-25.18-7.14-39.1-5.54c-25.65,2.95-48.76,12.52-71.71,23.24
		c-12.73,5.95-24.85,12.81-36.66,20.49c-10.55,6.86-17.85,16.1-23.33,26.85c-6.3,12.35-12.28,24.96-17.12,37.94
		c-4.12,11.06-7.58,22.62-9.29,34.27C647.4,445.91,649.27,465.9,651.89,485.91z"/>
	<path class="st7" d="M651.89,485.91c-2.62-20.01-4.5-40-1.59-59.86c1.71-11.64,5.17-23.21,9.29-34.27
		c4.84-12.98,10.82-25.59,17.12-37.94c5.48-10.74,12.78-19.98,23.33-26.85c11.81-7.68,23.93-14.54,36.66-20.49
		c22.95-10.73,46.06-20.3,71.71-23.24c13.92-1.6,27.01-1.06,39.1,5.54c11.82,6.46,21.61,15.74,30.08,26.33
		c9.02,11.29,14.95,24.39,21.01,37.27c3.93,8.36,6.41,17.58,8.36,26.66c3.13,14.57,5.67,29.29,7.73,44.05
		c1.27,9.06,1.01,18.33,1.77,27.47c0.43,5.22,1.29,10.45,2.39,15.57c0.72,3.33-0.34,5.11-3.37,6.03c-4.41,1.33-9.32,1.82-13.16,4.1
		c-5.44,3.24-11.32,3.33-17.08,4.13c-8.46,1.16-17,1.67-25.52,2.42c-18.32,1.61-36.68,2.92-54.96,4.87
		c-11.68,1.25-23.26,3.45-34.89,5.18c-9.07,1.35-18.28,2.03-27.19,4.06c-16.86,3.86-33.71,3.21-50.54,0.74
		c-6.24-0.91-12.22-3.53-18.33-5.34C666.56,490.2,659.3,488.08,651.89,485.91z M786.51,361.63c-0.54,13.53,9.7,24.18,22.3,24.79
		c6.79,0.33,13.69-0.33,20.47-1.09c10.62-1.19,21.25-2.51,31.75-4.41c6.42-1.16,15.63-12.07,16.29-17.98
		c0.94-8.48,0.59-16.88-2-25.04c-2.87-9.03-8.58-15.54-18.38-16.32c-6.24-0.5-12.62,0.88-18.95,1.18
		c-14.8,0.69-27.97,5.74-39.41,15.01C791.12,343.83,786.72,351.75,786.51,361.63z M722.74,329.17c-9.97-0.1-17.31,0.92-23.69,5.64
		c-2.38,1.76-4.57,3.64-2.77,6.97c1.25,2.3-0.18,3.23-1.65,4.59c-4.2,3.91-8.35,7.89-12.22,12.11c-7.45,8.12-6.7,17.31-2.59,26.53
		c3.12,7,7.48,13.41,15.82,14.33c9.72,1.08,19.74,0.38,27.93-5.28c9.49-6.57,18.05-14.29,21.36-26.39
		c2.32-8.48,1.7-16.65,0.21-25.02c-1-5.66-4.16-9.51-9.58-10.98C730.64,330.33,725.52,329.69,722.74,329.17z M773.06,456.49
		c0.34,0.52,0.68,1.04,1.02,1.56c-3.6,3.03-7.31,5.95-10.74,9.16c-1.06,1-2.15,3.05-1.8,4.17c0.38,1.21,2.32,2.39,3.77,2.7
		c1.38,0.29,3.01-0.51,4.5-0.93c4.35-1.21,8.64-2.68,13.05-3.58c1.38-0.28,3.06,0.91,4.6,1.43c-0.53,1.52-0.66,3.42-1.67,4.47
		c-1.46,1.5-3.44,2.75-5.42,3.43c-4.69,1.63-9.56,2.76-14.28,4.32c-1.24,0.41-2.19,1.66-3.28,2.53c1.43,0.53,3.02,1.76,4.26,1.48
		c5.92-1.34,11.72-3.15,17.6-4.67c5.14-1.33,8.27-4.69,10.25-9.43c3-7.18,0.73-10.31-7.13-9.49c-4.28,0.45-8.53,1.25-13.78,2.05
		c2.02-2.23,3.54-3.75,4.88-5.42c1.46-1.82,3.27-3.59,3.97-5.7c0.53-1.58-0.07-3.88-0.93-5.44c-0.39-0.71-2.87-0.9-4.02-0.42
		c-4.87,2.06-9.51,4.67-14.39,6.7c-4.99,2.07-10.08,3.96-15.28,5.41c-2.55,0.72-4.13,1.54-3.59,4.3c0.58,2.92,2.74,3.27,5.06,2.33
		c2.45-0.99,4.73-2.41,7.13-3.53C762.24,461.41,767.65,458.96,773.06,456.49z M740.94,418.05c-3.19-0.12-4.84,3.31-3.05,5.93
		c2.78,4.07,5.98,7.86,9.2,11.61c0.56,0.65,2.74,0.96,3.01,0.58c0.66-0.92,1.23-2.62,0.8-3.49c-2.01-4-4.26-7.89-6.68-11.65
		C743.37,419.68,741.8,418.8,740.94,418.05z M789.01,435.23c-0.68-4.76-0.85-8.32-1.82-11.66c-0.38-1.32-2.51-2.14-3.85-3.18
		c-1.28,1.75-3.8,3.67-3.59,5.21c0.48,3.43,2.11,6.78,3.72,9.94c0.54,1.06,2.56,2.15,3.65,1.94
		C788.18,437.25,788.9,435.38,789.01,435.23z"/>
	<path d="M786.51,361.63c0.21-9.89,4.61-17.8,12.08-23.86c11.44-9.27,24.61-14.32,39.41-15.01c6.33-0.3,12.71-1.68,18.95-1.18
		c9.8,0.78,15.5,7.3,18.38,16.32c2.6,8.16,2.95,16.56,2,25.04c-0.66,5.9-9.87,16.81-16.29,17.98c-10.51,1.9-21.13,3.23-31.75,4.41
		c-6.79,0.76-13.68,1.42-20.47,1.09C796.21,385.81,785.97,375.17,786.51,361.63z M872.88,354.94c-0.64-3.82-1.35-7.63-1.91-11.46
		c-1.64-11.34-13.69-19.59-24.75-16.53c-5.99,1.66-11.82,3.94-17.6,6.24c-2.66,1.06-4.85,1.41-7.51-0.13
		c-1.32-0.77-3.71-0.96-5.02-0.27c-8.18,4.32-15.79,9.35-20.96,17.43c-4.96,7.74-4.46,23.12,7.21,28.11
		c6,2.57,11.99,3.67,18.62,2.69c10.02-1.49,20.19-1.97,30.22-3.39C861.13,376.21,874.77,365.9,872.88,354.94z"/>
	<path d="M722.74,329.17c2.78,0.52,7.9,1.16,12.82,2.5c5.43,1.47,8.58,5.32,9.58,10.98c1.48,8.37,2.11,16.54-0.21,25.02
		c-3.31,12.11-11.87,19.82-21.36,26.39c-8.18,5.67-18.21,6.36-27.93,5.28c-8.34-0.92-12.7-7.33-15.82-14.33
		c-4.11-9.22-4.87-18.41,2.59-26.53c3.88-4.22,8.03-8.21,12.22-12.11c1.47-1.37,2.9-2.29,1.65-4.59c-1.81-3.33,0.39-5.2,2.77-6.97
		C705.43,330.09,712.77,329.07,722.74,329.17z M709.37,334.91c-0.03,0.51-0.05,1.02-0.08,1.52c3.65,3.24,3.76,4.91,0.91,6.75
		c-6.26,4.02-12.62,7.95-18.5,12.49c-9.78,7.54-11.65,14.96-6.93,26.14c2.07,4.9,4.54,10.13,10.2,11.55
		c7.68,1.92,15.64,1.27,22.75-2.06c14.44-6.75,22.85-18.6,23.68-34.43c0.71-13.53-1.49-21.36-18.8-22.37
		C718.22,334.24,713.79,334.75,709.37,334.91z"/>
	<path d="M773.06,456.49c-5.41,2.48-10.82,4.93-16.21,7.44c-2.4,1.12-4.68,2.54-7.13,3.53c-2.32,0.94-4.48,0.58-5.06-2.33
		c-0.54-2.76,1.04-3.58,3.59-4.3c5.19-1.46,10.29-3.34,15.28-5.41c4.88-2.03,9.52-4.63,14.39-6.7c1.15-0.49,3.63-0.29,4.02,0.42
		c0.87,1.55,1.46,3.85,0.93,5.44c-0.7,2.11-2.51,3.89-3.97,5.7c-1.34,1.66-2.86,3.19-4.88,5.42c5.25-0.79,9.5-1.6,13.78-2.05
		c7.86-0.82,10.13,2.32,7.13,9.49c-1.98,4.74-5.1,8.11-10.25,9.43c-5.88,1.52-11.69,3.33-17.6,4.67c-1.25,0.28-2.83-0.95-4.26-1.48
		c1.08-0.87,2.04-2.12,3.28-2.53c4.72-1.56,9.58-2.7,14.28-4.32c1.99-0.69,3.96-1.93,5.42-3.43c1.02-1.04,1.15-2.95,1.67-4.47
		c-1.54-0.52-3.22-1.71-4.6-1.43c-4.41,0.9-8.7,2.37-13.05,3.58c-1.49,0.42-3.13,1.22-4.5,0.93c-1.45-0.31-3.39-1.48-3.77-2.7
		c-0.35-1.13,0.74-3.18,1.8-4.17c3.43-3.22,7.14-6.13,10.74-9.16C773.74,457.53,773.4,457.01,773.06,456.49z"/>
	<path d="M740.94,418.05c0.85,0.75,2.42,1.64,3.28,2.98c2.42,3.77,4.67,7.66,6.68,11.65c0.43,0.86-0.14,2.57-0.8,3.49
		c-0.27,0.37-2.46,0.07-3.01-0.58c-3.22-3.74-6.42-7.54-9.2-11.61C736.1,421.35,737.75,417.92,740.94,418.05z"/>
	<path d="M789.01,435.23c-0.11,0.15-0.83,2.02-1.88,2.23c-1.09,0.21-3.11-0.87-3.65-1.94c-1.61-3.16-3.24-6.5-3.72-9.94
		c-0.21-1.54,2.31-3.46,3.59-5.21c1.33,1.05,3.47,1.86,3.85,3.18C788.16,426.9,788.33,430.47,789.01,435.23z"/>
	<path class="st8" d="M872.88,354.94c1.89,10.95-11.75,21.27-21.69,22.68c-10.03,1.42-20.2,1.9-30.22,3.39
		c-6.63,0.99-12.61-0.12-18.62-2.69c-11.67-4.99-12.17-20.37-7.21-28.11c5.17-8.08,12.78-13.11,20.96-17.43
		c1.3-0.69,3.69-0.49,5.02,0.27c2.66,1.54,4.85,1.18,7.51,0.13c5.78-2.3,11.61-4.58,17.6-6.24c11.06-3.07,23.12,5.19,24.75,16.53
		C871.53,347.31,872.24,351.12,872.88,354.94z M833.23,347.85c0.31-0.21,0.63-0.42,0.94-0.63c0-0.78-0.02-1.56,0-2.34
		c0.08-3.26-1.52-6.22-4.57-5.74c-1.99,0.31-4.61,3.43-5.05,5.67c-1.52,7.87-2.94,9.64-11.3,10.86c-2.79,0.41-4.62,1.6-4.68,4.76
		c-0.08,4.15,1.26,5.22,6.42,4.89c6.78-0.44,6.85-0.45,7.65,5.82c0.42,3.29,1.76,6.06,5.25,5.99c3.5-0.07,5-2.9,4.99-6.21
		c0-3.21,0.97-5.22,4.07-6.98c5.11-2.91,4.66-7.15-0.08-10.64C835.23,352.07,834.43,349.7,833.23,347.85z"/>
	<path class="st9" d="M709.37,334.91c4.41-0.16,8.85-0.67,13.24-0.41c17.31,1.01,19.51,8.85,18.8,22.37
		c-0.83,15.83-9.24,27.68-23.68,34.43c-7.12,3.33-15.07,3.98-22.75,2.06c-5.66-1.42-8.13-6.64-10.2-11.55
		c-4.73-11.17-2.85-18.59,6.93-26.14c5.88-4.54,12.24-8.47,18.5-12.49c2.86-1.83,2.74-3.5-0.91-6.75
		C709.32,335.92,709.35,335.42,709.37,334.91z M706.17,362.38c-3.84,1.7-10.48,0.41-9.79,7.41c0.48,4.86,4.74,4.46,9,3.87
		c0,2.04,0.08,3.72-0.02,5.4c-0.23,3.73,2.02,5.07,5.19,5.19c3.55,0.12,4.55-2.55,5.45-5.38c0.62-1.93,1.17-4.52,2.62-5.44
		c5.77-3.66,6.4-6.36,1.15-10.55c-2.47-1.97-3.2-3.96-2.71-6.85c0.21-1.22,0.17-2.51,0.05-3.74c-0.26-2.58-1.32-4.82-4.3-4.46
		c-2.6,0.31-5.2,1.02-5.34,4.72C707.35,355.78,706.64,359,706.17,362.38z"/>
	<path d="M833.23,347.85c1.2,1.85,2,4.22,3.66,5.44c4.74,3.49,5.19,7.73,0.08,10.64c-3.1,1.76-4.07,3.76-4.07,6.98
		c0,3.31-1.49,6.14-4.99,6.21c-3.49,0.07-4.84-2.7-5.25-5.99c-0.8-6.26-0.87-6.25-7.65-5.82c-5.17,0.33-6.5-0.74-6.42-4.89
		c0.06-3.16,1.89-4.36,4.68-4.76c8.35-1.22,9.77-2.99,11.3-10.86c0.43-2.23,3.05-5.36,5.05-5.67c3.05-0.48,4.65,2.48,4.57,5.74
		c-0.02,0.78,0,1.56,0,2.34C833.86,347.43,833.54,347.64,833.23,347.85z"/>
	<path d="M706.17,362.38c0.47-3.39,1.18-6.61,1.29-9.85c0.13-3.69,2.73-4.4,5.34-4.72c2.97-0.36,4.04,1.88,4.3,4.46
		c0.13,1.24,0.16,2.53-0.05,3.74c-0.49,2.88,0.24,4.88,2.71,6.85c5.25,4.18,4.63,6.89-1.15,10.55c-1.45,0.92-2,3.51-2.62,5.44
		c-0.9,2.83-1.9,5.5-5.45,5.38c-3.17-0.11-5.41-1.46-5.19-5.19c0.1-1.67,0.02-3.35,0.02-5.4c-4.26,0.6-8.52,0.99-9-3.87
		C695.69,362.79,702.32,364.08,706.17,362.38z"/>
</g>
</svg>
