<svg id="pumpkin" xmlns="http://www.w3.org/2000/svg" viewBox="0 0 158.73 129.74"><path d="M120.12,75.34c.58-2.82,1.27-6,1.86-9.13.36-2,.63-3.75,3.86-3.31.93.13,1.88.12,2.83.19,2.54.2,4-1.52,5.59-3.08,2-2,3.55-2,4.48.66a1.13,1.13,0,0,0,.37.59c3.61,2.52,4.22,6.53,5.24,10.35.53,2,1.06,2.29,3.06,1.64,5.15-1.67,10.2-3.7,15.44-5a76.46,76.46,0,0,1,16.21-2.44,14.15,14.15,0,0,1,11.82,5.68c2.6,3.4,5.77,6.35,8.57,9.6a17.42,17.42,0,0,1,2.69,4.21c2.17,4.85,4.68,9.64,6.16,14.71a135,135,0,0,1,3.79,18.72c.56,4-.1,8.15.29,12.18.48,5.11-.45,10-1.7,14.82a98.32,98.32,0,0,1-3.44,11.9,37.17,37.17,0,0,1-8.41,12.05c-3.47,3.55-7.76,5.38-12.19,7.18-4.28,1.73-8.44,3.74-12.72,5.47a64.82,64.82,0,0,1-22,4.55c-5.77.23-11.52,1-17.29,1.39a7.15,7.15,0,0,1-3.5-.55c-3.81-1.84-8-1.27-12-2.14a35.54,35.54,0,0,0-5.58-1c-9.81-.57-19.25-3.06-28.74-5.35a21.33,21.33,0,0,1-10-5.8,30,30,0,0,0-3.31-2.73,34.86,34.86,0,0,1-9.48-10.91,9.64,9.64,0,0,0-1.66-2.31c-2.43-2.21-3.22-5.24-4.18-8.17-.39-1.2-.4-2.53-.84-3.71-1.75-4.7-1.46-9.59-1.5-14.44,0-4.07-.24-8.15.09-12.19.29-3.38,1.39-6.68,1.87-10,1.1-7.61,4.71-14.29,7.64-21.22A22.87,22.87,0,0,1,70,79c1.58-1.31,3.16-2.63,4.76-3.93a4,4,0,0,1,1-.62c2.82-1.2,5.55-2.74,8.49-3.48,5-1.28,9.69-4.51,15-3.84,2.75.34,5.39,2,8,3.29,1.75.89,3.27,2.25,5,3.29a6.33,6.33,0,0,0,2,.55C116,74.61,117.72,74.91,120.12,75.34ZM55.63,130.68l-.33,0c.52,4.25.8,8.55,1.63,12.73.65,3.24,1.43,6.69,3.14,9.42,3.7,5.91,7.58,11.74,13.28,16.15,4.7,3.63,9.35,7,15.31,8.41a280.73,280.73,0,0,0,31.53,5.31c2.92.34,5.93.38,8.74,1.14,4.71,1.28,9.48,1.18,14.21,1.09a136.58,136.58,0,0,0,15.64-1.25,64.94,64.94,0,0,0,11-2.57,126.38,126.38,0,0,0,12.43-4.78c4.12-1.82,8.15-3.87,12.1-6a15.39,15.39,0,0,0,3.46-3.25c3.59-3.82,7.14-7.67,8.46-13,.58-2.3,1.41-4.55,1.86-6.87.83-4.31,2.22-8.68,2-13-.32-6.5.58-13.07-1-19.5-1.43-6-2.62-12.16-4.4-18.1-1-3.23-2.82-6.22-4.48-9.2a43.75,43.75,0,0,0-4.1-6c-1.73-2.17-3.76-4.09-5.56-6.2-4.08-4.77-9.09-7.51-15.46-7a49,49,0,0,0-9.63,1.76c-7,2.09-14,4.27-20.86,6.84a55.47,55.47,0,0,1-14.9,3,28.72,28.72,0,0,1-6.42-.13c-4.41-.62-8.79-1.49-13.18-2.24a21,21,0,0,1-10.78-5.72,3.66,3.66,0,0,0-2.21-1.16,23,23,0,0,0-5.85,1c-4.64,1.61-9.23,3.41-13.79,5.24a20.53,20.53,0,0,0-9,6.82,45.48,45.48,0,0,0-6.71,13.05c-.29.9-.68,1.76-1,2.64a47.53,47.53,0,0,0-2.5,6.93c-1.06,5.28-1.93,10.62-2.58,16A68.35,68.35,0,0,0,55.63,130.68ZM122,76.9h8c-.58-3.67-1.11-7.07-1.75-11.13-1.36,1-2.8,1.43-3.2,2.36C123.82,70.79,123.06,73.64,122,76.9Zm13.83-13.67c.13,1.18.28,2,.3,2.86,0,2.68,0,5.37.09,8.06,0,1.15.13,2.3,1.82,2.12,2.37-.25,3.47-1,3.37-2.66a19.55,19.55,0,0,0-3.48-9.49C137.59,63.62,136.62,63.55,135.81,63.23ZM133.23,76.8a4.49,4.49,0,0,0,.62-1.42c.05-2.12.05-4.24,0-6.36,0-1.15-.29-2.29-.45-3.46C130.73,66.22,130.71,67,133.23,76.8Z" transform="translate(-53.77 -58.59)"/><path d="M55.63,130.68a68.35,68.35,0,0,1,.06-8.35c.65-5.35,1.52-10.69,2.58-16a47.53,47.53,0,0,1,2.5-6.93c.33-.88.72-1.74,1-2.64a45.48,45.48,0,0,1,6.71-13.05,20.53,20.53,0,0,1,9-6.82c4.56-1.83,9.15-3.63,13.79-5.24a23,23,0,0,1,5.85-1,3.66,3.66,0,0,1,2.21,1.16,21,21,0,0,0,10.78,5.72c4.39.75,8.77,1.62,13.18,2.24a28.72,28.72,0,0,0,6.42.13,55.47,55.47,0,0,0,14.9-3c6.85-2.57,13.85-4.75,20.86-6.84a49,49,0,0,1,9.63-1.76c6.37-.56,11.38,2.18,15.46,7,1.8,2.11,3.83,4,5.56,6.2a43.75,43.75,0,0,1,4.1,6c1.66,3,3.51,6,4.48,9.2,1.78,5.94,3,12.06,4.4,18.1,1.54,6.43.64,13,1,19.5.21,4.28-1.18,8.65-2,13-.45,2.32-1.28,4.57-1.86,6.87-1.32,5.31-4.87,9.16-8.46,13a15.39,15.39,0,0,1-3.46,3.25c-4,2.17-8,4.22-12.1,6a126.38,126.38,0,0,1-12.43,4.78,64.94,64.94,0,0,1-11,2.57A136.58,136.58,0,0,1,143.14,185c-4.73.09-9.5.19-14.21-1.09-2.81-.76-5.82-.8-8.74-1.14a280.73,280.73,0,0,1-31.53-5.31c-6-1.4-10.61-4.78-15.31-8.41-5.7-4.41-9.58-10.24-13.28-16.15-1.71-2.73-2.49-6.18-3.14-9.42-.83-4.18-1.11-8.48-1.63-12.73Zm86.24,23.13c2.5-.79,2.43-2.16,2.11-3.83a10.59,10.59,0,0,1-.08-4.23,80.54,80.54,0,0,1,2.74-9.38,53.41,53.41,0,0,1,3-5.89c.9-1.77.12-3.41-1.59-3.12-5.17.85-10.31,1.9-15.48,2.78A55,55,0,0,1,125,131c-1.26,0-2.74-.24-2.93,1.17a5.5,5.5,0,0,0,1.16,3.55,24.57,24.57,0,0,0,3.32,3c1.17,1.08,2.12,2.49,3.45,3.27a31.8,31.8,0,0,1,9.58,8.67c.72,1,.94,1.78-.24,2.6a3,3,0,0,0-1.2,3.14,41.75,41.75,0,0,1,.05,5.12h-7.47c-1.36,0-2-.68-2.05-2.07,0-1.11-.26-2.21-.39-3.32-.19-1.67-.73-2.93-2.78-2.83a1.83,1.83,0,0,1-1.43-.59,20.48,20.48,0,0,1-2.31-4.39c-1.6-4.92-3-9.91-4.51-14.86a6.89,6.89,0,0,0-.7-1.31c-1.6,3.81.43,7,1.45,10.27s2.15,6.85,3.23,10.28a5,5,0,0,1-2.46-1.07,2.69,2.69,0,0,0-3.54,0,3.88,3.88,0,0,0-.93,2.41c-.16,1.17,0,2.39-.12,3.56-.08.52-.66,1.39-1,1.39-1.52,0-3.29.18-4.5-.52-1.49-.86-1.88-2.69-1.25-4.48a8.06,8.06,0,0,0,.5-1.08c.31-1.64-1-3.55-2.34-3.14-2.51.77-4.89,0-7.32,0-1.82,0-3.6-.84-5.66.58-2.58,1.79-3.87,4.18-5.08,6.73a6.18,6.18,0,0,0-.43,3.58,8.71,8.71,0,0,0,5.1,6.23c3.47,1.68,6.46,4.34,10.43,5a25.2,25.2,0,0,1,3.63,1.1c1.16.37,2.3.82,3.47,1.13.76.2,1.58.16,2.35.34,3.84.89,7.65,1.88,11.5,2.71,2.16.47,4.46.44,6.54,1.09,4.18,1.32,8.37,1.24,12.62.83,2.83-.27,5.68-.34,8.49-.75a46.7,46.7,0,0,0,9.06-1.86,58.85,58.85,0,0,0,10.33-4.83c4.55-2.71,8.84-5.86,13.26-8.79,2.21-1.46,3.6-4.12,6.62-4.44,2.61-.28,3.38-2.41,1.85-4.57-2.15-3-3.54-6.24-2.24-10.05a2.64,2.64,0,0,0,.19-1.63c-.43-1-.91-2.19-1.73-2.61-.52-.27-1.79.57-2.54,1.15a13.43,13.43,0,0,1-8,2.91c-2.8,0-4,1.58-2.8,4.15a4.87,4.87,0,0,1,.08,4.56,16.14,16.14,0,0,1-1.41-3.8c-.58-2.11-2.13-2.93-3.42-1.61-2.38,2.42-5.1,2.08-7.92,1.3-1.22-.34-2.42-1.1-3.35.49s-.79,2.71.82,3.88a2.22,2.22,0,0,1,.9,2.84c-.87,3.07-3.23,4.34-6.17,5.63-.64-1.56-1.32-3-1.79-4.46-.64-2.05-1.18-2.22-3.26-1.7C147.24,155.45,144.74,155.73,141.87,153.81ZM106.2,90.59c-1.11.49-1.94.6-2.32,1.07-1.12,1.42-2.07,3-3.09,4.48-3.59,5.32-7.16,10.65-10.77,16-1.29,1.89-2.6,3.77-4,5.56-.62.78-1.42,1.37-.5,2.4.77.86,1.31,1.83,2.92,1.46a27,27,0,0,1,12.33.19,8.58,8.58,0,0,0,2.63,0c4.36-.32,8.71-.81,13.07-1a27.19,27.19,0,0,1,6.39.73c1.07.22,2.09.75,2.66-.52s-.23-2.21-1.15-3.12c-2-1.93-4.28-3.69-5.65-6-3.56-6-6.65-12.32-10-18.45A17.36,17.36,0,0,0,106.2,90.59Zm40.35,28.49c.31,1.16.26,2.82,1,3.35,1.25.89,2.7.09,3.8-1a2.77,2.77,0,0,1,1.27-.55c1.53-.38,3.1-.66,4.62-1.08,6.28-1.73,12.55-3.51,18.83-5.23a4.9,4.9,0,0,1,2.32-.24,2,2,0,0,0,2.52-1.57c.15-.73-.56-1.81-1.17-2.49-1.09-1.22-2.5-2.17-3.59-3.39-2.86-3.2-5.64-6.48-8.41-9.75-1-1.15-1.84-2.4-2.79-3.57-1.18-1.46-2.34-2.94-3.61-4.33-.54-.59-1.44-1.46-1.95-1.33-.73.19-1.41,1.1-1.83,1.86a20.91,20.91,0,0,0-1.13,3.08c-.91,2.53-1.79,5.08-2.72,7.6-1.26,3.43-2.59,6.84-3.84,10.27C148.87,113.44,146.41,115.69,146.55,119.08ZM85.32,154.2c-1.57-2.73-3.12-5-4.24-7.52-.92-2-1-4.44-2-6.35-2.74-5-1.78-10.46-2.27-15.66-.74-7.82,2.46-15.12,4.88-22.44a6,6,0,0,1,1-1.63c1-1.35,2-2.65,3-4q5.9-8.1,11.77-16.21a9.66,9.66,0,0,0,.69-1.49c-4.38,1.07-5.58,5.06-8,7.7-2.13,2.29-3.45,5.3-5.25,7.91-1.16,1.7-2.89,3.09-3.75,4.91a69.67,69.67,0,0,0-4,10.54,54.14,54.14,0,0,0,.78,33.51,85.69,85.69,0,0,0,3.87,8.66A3.7,3.7,0,0,0,85.32,154.2ZM190,117l.78-.24a17.94,17.94,0,0,0-.33-2.65c-1.12-4.14-2.34-8.26-3.46-12.4-.85-3.14-1.63-6.31-2.39-9.47-1.38-5.73-5.41-9.86-8.72-14.41A5.48,5.48,0,0,0,173.39,76c-1.24-.42-2.63-1.27-4.21.24A12.29,12.29,0,0,0,171.51,78c4.4,1.76,6.19,6,8.81,9.37a12.54,12.54,0,0,1,2,4c2.37,8.09,4.61,16.21,6.93,24.31A5.73,5.73,0,0,0,190,117Zm-32.8,11.48c-1.43,1.74-.33,3.06.21,4.22a7.82,7.82,0,0,1-.62,8.16c-.58.86-1.17,1.71-1.71,2.6a2.43,2.43,0,0,0-.52,1.28,5.43,5.43,0,0,0,.66,1.59c.46-.22,1.16-.32,1.36-.68,1.94-3.53,4.44-6.88,3.84-11.29A8.49,8.49,0,0,0,157.22,128.45Zm-8.09-24.51c.54-.57.73-.68.74-.8a37.56,37.56,0,0,0-2.71-15.59,3.42,3.42,0,0,0-3.78-2.46,20.81,20.81,0,0,1,1.12,2,36.55,36.55,0,0,1,2.11,5.26c.61,2.37.81,4.85,1.29,7.27C148.18,101,148.66,102.3,149.13,103.94Zm-26.74-15c-2.36,3.55-1.69,9.14,1,10C123.06,95.73,122.75,92.57,122.39,88.93Z" transform="translate(-53.77 -58.59)" fill="#eb5b26"/><path d="M122,76.9c1.08-3.26,1.84-6.11,3-8.77.4-.93,1.84-1.4,3.2-2.36.64,4.06,1.17,7.46,1.75,11.13Z" transform="translate(-53.77 -58.59)" fill="#078c45"/><path d="M135.81,63.23c.81.32,1.78.39,2.1.89a19.55,19.55,0,0,1,3.48,9.49c.1,1.64-1,2.41-3.37,2.66-1.69.18-1.79-1-1.82-2.12-.06-2.69,0-5.38-.09-8.06C136.09,65.24,135.94,64.41,135.81,63.23Z" transform="translate(-53.77 -58.59)" fill="#6abd45"/><path d="M133.23,76.8c-2.52-9.78-2.5-10.58.14-11.24.16,1.17.4,2.31.45,3.46.08,2.12.08,4.24,0,6.36A4.49,4.49,0,0,1,133.23,76.8Z" transform="translate(-53.77 -58.59)" fill="#046937"/><path d="M141.87,153.81c2.87,1.92,5.37,1.64,7.77,1,2.08-.52,2.62-.35,3.26,1.7.47,1.48,1.15,2.9,1.79,4.46,2.94-1.29,5.3-2.56,6.17-5.63a2.22,2.22,0,0,0-.9-2.84c-1.61-1.17-1.76-2.26-.82-3.88s2.13-.83,3.35-.49c2.82.78,5.54,1.12,7.92-1.3,1.29-1.32,2.84-.5,3.42,1.61a16.14,16.14,0,0,0,1.41,3.8,4.87,4.87,0,0,0-.08-4.56c-1.17-2.57,0-4.11,2.8-4.15a13.43,13.43,0,0,0,8-2.91c.75-.58,2-1.42,2.54-1.15.82.42,1.3,1.64,1.73,2.61a2.64,2.64,0,0,1-.19,1.63c-1.3,3.81.09,7,2.24,10.05,1.53,2.16.76,4.29-1.85,4.57-3,.32-4.41,3-6.62,4.44-4.42,2.93-8.71,6.08-13.26,8.79a58.85,58.85,0,0,1-10.33,4.83,46.7,46.7,0,0,1-9.06,1.86c-2.81.41-5.66.48-8.49.75-4.25.41-8.44.49-12.62-.83-2.08-.65-4.38-.62-6.54-1.09-3.85-.83-7.66-1.82-11.5-2.71-.77-.18-1.59-.14-2.35-.34-1.17-.31-2.31-.76-3.47-1.13a25.2,25.2,0,0,0-3.63-1.1c-4-.64-7-3.3-10.43-5a8.71,8.71,0,0,1-5.1-6.23,6.18,6.18,0,0,1,.43-3.58c1.21-2.55,2.5-4.94,5.08-6.73,2.06-1.42,3.84-.59,5.66-.58,2.43,0,4.81.8,7.32,0,1.33-.41,2.65,1.5,2.34,3.14a8.06,8.06,0,0,1-.5,1.08c-.63,1.79-.24,3.62,1.25,4.48,1.21.7,3,.53,4.5.52.36,0,.94-.87,1-1.39.16-1.17,0-2.39.12-3.56a3.88,3.88,0,0,1,.93-2.41,2.69,2.69,0,0,1,3.54,0,5,5,0,0,0,2.46,1.07c-1.08-3.43-2.18-6.85-3.23-10.28s-3-6.46-1.45-10.27a6.89,6.89,0,0,1,.7,1.31c1.51,4.95,2.91,9.94,4.51,14.86a20.48,20.48,0,0,0,2.31,4.39,1.83,1.83,0,0,0,1.43.59c2-.1,2.59,1.16,2.78,2.83.13,1.11.35,2.21.39,3.32.05,1.39.69,2.07,2.05,2.07h7.47a41.75,41.75,0,0,0-.05-5.12,3,3,0,0,1,1.2-3.14c1.18-.82,1-1.62.24-2.6A31.8,31.8,0,0,0,130,142c-1.33-.78-2.28-2.19-3.45-3.27a24.57,24.57,0,0,1-3.32-3,5.5,5.5,0,0,1-1.16-3.55c.19-1.41,1.67-1.14,2.93-1.17a55,55,0,0,0,7.56-.86c5.17-.88,10.31-1.93,15.48-2.78,1.71-.29,2.49,1.35,1.59,3.12a53.41,53.41,0,0,0-3,5.89,80.54,80.54,0,0,0-2.74,9.38A10.59,10.59,0,0,0,144,150C144.3,151.65,144.37,153,141.87,153.81Zm-38.39-.24a11.27,11.27,0,0,1-2.62-.36c-4-1.56-6.9-.23-9.25,3.17-1.62,2.35-1.71,3.58.26,5.67a19.41,19.41,0,0,0,2.2,1.83c5.27,4.19,11.73,5.56,18,7.27,5.44,1.49,11.07,2.25,16.58,3.52a48.76,48.76,0,0,0,19.66.6c6.67-1.19,13.37-2.13,19.42-5.42,1.38-.75,2.69-1.62,4-2.43,2.78-1.68,5.63-3.28,8.34-5.09,1.09-.72,1.81-2,2.84-2.82,1.39-1.16,3.12-2,4.33-3.29a5,5,0,0,0,1.08-3.43,39.09,39.09,0,0,0-1.24-6.75c-.18-.7-1.18-1.84-1.47-1.75a48.72,48.72,0,0,0-6.79,2.75c-.48.25-.7,1.41-.69,2.15,0,1.42.38,2.84.48,4.26a4.4,4.4,0,0,1-4.35,4.47c-1.77,0-2.36-1-2.25-3.89a3.87,3.87,0,0,0,0-.48,2.76,2.76,0,0,0-2.87-2.83c-1.93.22-3.82.7-6,1.11.43.62.7,1,.95,1.37,1.61,2.41,1.32,3.5-1.11,4.94A6.54,6.54,0,0,0,161,160c-1.1,1.63-1.89,3.47-3.07,5a4.17,4.17,0,0,1-2.67,1.52c-.64,0-1.47-1-2-1.65a5.14,5.14,0,0,1-.51-1.83c-1.15-4.17-3.09-5.55-7.42-5.33-.64,0-1.29,0-1.92.05-1.57.21-2.46,1-2.16,2.72a11,11,0,0,1,.29,2.6c-.15,2.28-.71,2.45-2.88,1.77-2.89-.91-5.92-1.62-8.72.22-1.73,1.13-2.74.07-3.6-1-.4-.51-.19-1.52-.22-2.3-.15-4-.77-5.41-4.8-5.48a4,4,0,0,1-.47,0c-3.51-.46-3.61-.33-3.39,3.15.08,1.36,0,3.19-1.72,3.13a61.06,61.06,0,0,1-9.7-1.19c-2-.39-2.7-1.88-2.59-4C103.53,156.16,103.48,154.9,103.48,153.57Zm37.32-5.9c1.79-5.5,3.53-10.86,5.38-16.52a15.43,15.43,0,0,0-2.84-.28,45.14,45.14,0,0,0-6.13.94c-3.3.83-6.55,1.88-10.36,3Z" transform="translate(-53.77 -58.59)"/><path d="M106.2,90.59a17.36,17.36,0,0,1,2.49,2.83c3.37,6.13,6.46,12.43,10,18.45,1.37,2.31,3.68,4.07,5.65,6,.92.91,1.71,1.83,1.15,3.12s-1.59.74-2.66.52a27.19,27.19,0,0,0-6.39-.73c-4.36.15-8.71.64-13.07,1a8.58,8.58,0,0,1-2.63,0,27,27,0,0,0-12.33-.19c-1.61.37-2.15-.6-2.92-1.46-.92-1-.12-1.62.5-2.4,1.41-1.79,2.72-3.67,4-5.56,3.61-5.31,7.18-10.64,10.77-16,1-1.51,2-3.06,3.09-4.48C104.26,91.19,105.09,91.08,106.2,90.59Zm-.38,3.89a56.93,56.93,0,0,0-4.93,5.27c-2.49,3.48-4.55,7.28-7.12,10.7-1.75,2.33-2.32,5.53-5.1,7.11-.06,0,0,.28,0,.51a151.36,151.36,0,0,0,30.83-.19C114.81,110.14,111.1,102.13,105.82,94.48Z" transform="translate(-53.77 -58.59)"/><path d="M146.55,119.08c-.14-3.39,2.32-5.64,3.33-8.41,1.25-3.43,2.58-6.84,3.84-10.27.93-2.52,1.81-5.07,2.72-7.6a20.91,20.91,0,0,1,1.13-3.08c.42-.76,1.1-1.67,1.83-1.86.51-.13,1.41.74,1.95,1.33,1.27,1.39,2.43,2.87,3.61,4.33.95,1.17,1.81,2.42,2.79,3.57,2.77,3.27,5.55,6.55,8.41,9.75,1.09,1.22,2.5,2.17,3.59,3.39.61.68,1.32,1.76,1.17,2.49a2,2,0,0,1-2.52,1.57,4.9,4.9,0,0,0-2.32.24c-6.28,1.72-12.55,3.5-18.83,5.23-1.52.42-3.09.7-4.62,1.08a2.77,2.77,0,0,0-1.27.55c-1.1,1.13-2.55,1.93-3.8,1C146.81,121.9,146.86,120.24,146.55,119.08Zm13-27.19c-.9,1.81-1.72,3.17-2.28,4.63-2.19,5.63-4.35,11.28-6.4,17a27.37,27.37,0,0,0-.82,4.51c2.23-.38,4-.59,5.64-1,4.14-.93,8.29-1.87,12.4-3,2.68-.71,5.3-1.67,8.13-2.58C171,104.47,166.13,97.8,159.6,91.89Z" transform="translate(-53.77 -58.59)"/><path d="M85.32,154.2a3.7,3.7,0,0,1-3.62-2.07,85.69,85.69,0,0,1-3.87-8.66A54.14,54.14,0,0,1,77.05,110a69.67,69.67,0,0,1,4-10.54c.86-1.82,2.59-3.21,3.75-4.91,1.8-2.61,3.12-5.62,5.25-7.91,2.44-2.64,3.64-6.63,8-7.7a9.66,9.66,0,0,1-.69,1.49Q91.57,88.51,85.66,96.6c-1,1.35-2,2.65-3,4a6,6,0,0,0-1,1.63c-2.42,7.32-5.62,14.62-4.88,22.44.49,5.2-.47,10.68,2.27,15.66,1,1.91,1.1,4.34,2,6.35C82.2,149.17,83.75,151.47,85.32,154.2Z" transform="translate(-53.77 -58.59)"/><path d="M190,117a5.73,5.73,0,0,1-.76-1.3c-2.32-8.1-4.56-16.22-6.93-24.31a12.54,12.54,0,0,0-2-4c-2.62-3.4-4.41-7.61-8.81-9.37a12.29,12.29,0,0,1-2.33-1.67c1.58-1.51,3-.66,4.21-.24a5.48,5.48,0,0,1,2.51,1.76c3.31,4.55,7.34,8.68,8.72,14.41.76,3.16,1.54,6.33,2.39,9.47,1.12,4.14,2.34,8.26,3.46,12.4a17.94,17.94,0,0,1,.33,2.65Z" transform="translate(-53.77 -58.59)"/><path d="M157.22,128.45a8.49,8.49,0,0,1,3.22,5.88c.6,4.41-1.9,7.76-3.84,11.29-.2.36-.9.46-1.36.68a5.43,5.43,0,0,1-.66-1.59,2.43,2.43,0,0,1,.52-1.28c.54-.89,1.13-1.74,1.71-2.6a7.82,7.82,0,0,0,.62-8.16C156.89,131.51,155.79,130.19,157.22,128.45Z" transform="translate(-53.77 -58.59)"/><path d="M149.13,103.94c-.47-1.64-.95-3-1.23-4.34-.48-2.42-.68-4.9-1.29-7.27a36.55,36.55,0,0,0-2.11-5.26,20.81,20.81,0,0,0-1.12-2,3.42,3.42,0,0,1,3.78,2.46,37.56,37.56,0,0,1,2.71,15.59C149.86,103.26,149.67,103.37,149.13,103.94Z" transform="translate(-53.77 -58.59)"/><path d="M122.39,88.93c.36,3.64.67,6.8,1,10C120.7,98.07,120,92.48,122.39,88.93Z" transform="translate(-53.77 -58.59)"/><path d="M103.48,153.57c0,1.33,0,2.59,0,3.84-.11,2.1.6,3.59,2.59,4a61.06,61.06,0,0,0,9.7,1.19c1.72.06,1.8-1.77,1.72-3.13-.22-3.48-.12-3.61,3.39-3.15a4,4,0,0,0,.47,0c4,.07,4.65,1.45,4.8,5.48,0,.78-.18,1.79.22,2.3.86,1.08,1.87,2.14,3.6,1,2.8-1.84,5.83-1.13,8.72-.22,2.17.68,2.73.51,2.88-1.77a11,11,0,0,0-.29-2.6c-.3-1.74.59-2.51,2.16-2.72.63-.08,1.28,0,1.92-.05,4.33-.22,6.27,1.16,7.42,5.33a5.14,5.14,0,0,0,.51,1.83c.53.69,1.36,1.69,2,1.65a4.17,4.17,0,0,0,2.67-1.52c1.18-1.56,2-3.4,3.07-5a6.54,6.54,0,0,1,2.05-1.9c2.43-1.44,2.72-2.53,1.11-4.94-.25-.38-.52-.75-.95-1.37,2.14-.41,4-.89,6-1.11a2.76,2.76,0,0,1,2.87,2.83,3.87,3.87,0,0,1,0,.48c-.11,2.85.48,3.87,2.25,3.89a4.4,4.4,0,0,0,4.35-4.47c-.1-1.42-.45-2.84-.48-4.26,0-.74.21-1.9.69-2.15a48.72,48.72,0,0,1,6.79-2.75c.29-.09,1.29,1.05,1.47,1.75a39.09,39.09,0,0,1,1.24,6.75,5,5,0,0,1-1.08,3.43c-1.21,1.31-2.94,2.13-4.33,3.29-1,.85-1.75,2.1-2.84,2.82-2.71,1.81-5.56,3.41-8.34,5.09-1.35.81-2.66,1.68-4,2.43-6,3.29-12.75,4.23-19.42,5.42a48.76,48.76,0,0,1-19.66-.6c-5.51-1.27-11.14-2-16.58-3.52-6.24-1.71-12.7-3.08-18-7.27a19.41,19.41,0,0,1-2.2-1.83c-2-2.09-1.88-3.32-.26-5.67,2.35-3.4,5.24-4.73,9.25-3.17A11.27,11.27,0,0,0,103.48,153.57Z" transform="translate(-53.77 -58.59)" fill="#993720"/><path d="M140.8,147.67l-14-12.87c3.81-1.11,7.06-2.16,10.36-3a45.14,45.14,0,0,1,6.13-.94,15.43,15.43,0,0,1,2.84.28C144.33,136.81,142.59,142.17,140.8,147.67Z" transform="translate(-53.77 -58.59)" fill="#f8991d"/><path d="M105.82,94.48c5.28,7.65,9,15.66,13.68,23.4a151.36,151.36,0,0,1-30.83.19c0-.23-.06-.47,0-.51,2.78-1.58,3.35-4.78,5.1-7.11,2.57-3.42,4.63-7.22,7.12-10.7A56.93,56.93,0,0,1,105.82,94.48Z" transform="translate(-53.77 -58.59)" fill="#f8991d"/><path d="M159.6,91.89c6.53,5.91,11.35,12.58,16.67,19.6-2.83.91-5.45,1.87-8.13,2.58-4.11,1.08-8.26,2-12.4,3-1.69.38-3.41.59-5.64,1a27.37,27.37,0,0,1,.82-4.51c2.05-5.68,4.21-11.33,6.4-17C157.88,95.06,158.7,93.7,159.6,91.89Z" transform="translate(-53.77 -58.59)" fill="#f26722"/></svg>