<svg xmlns="http://www.w3.org/2000/svg" viewBox="0 0 593.19 582.65"><g id="Layer_1" data-name="Layer 1"><path d="M956.94,266.34c1.15,8.54,3.44,23.56,5.14,38.63,2.09,18.52,3.95,37.06,5.42,55.63,1.72,21.71,2,43.55,4.59,65.14,2.27,19.07,6.79,37.87,10.33,56.79,3,15.82,5,31.89,9.17,47.38,4.68,17.31,4.59,34.94,6.69,52.43s2.3,34.87,2.6,52.36c.09,5.48,2,11.07,3.93,16.34,2.74,7.66.35,12.53-7.68,12.52-13.64,0-26.45,3.54-39.4,7.16-4.63,1.29-9.83.51-14.76.75-10.64.51-21.31,1.93-31.89,1.42-16.73-.82-33.4-2.93-50.09-4.47-6.31-.59-12.61-1.17-18.92-1.69-14.46-1.18-29-1.77-43.36-3.63a574.63,574.63,0,0,0-60.92-4.32,222.37,222.37,0,0,1-54.47-8c-4.13-1.15-7.89-3.67-12-4.68-10.31-2.52-20.65-5.41-31.15-6.51-12.73-1.34-24.23,1.56-34,11.53-11.31,11.53-24.74,20.55-40.75,24.89-6.1,1.66-12.28,3.17-18.14,5.49-10.59,4.18-21.12,1.11-31.62.27-12.67-1-22.82-8-33.05-14.88-8.64-5.83-14.77-13.83-21.06-21.75-1.11-1.4-1.29-3.8-1.31-5.74-.12-9,.55-18-.15-27-1-12.38-2-24.87-4.68-37a438.2,438.2,0,0,1-8.87-56.33c-.42-4.9-2-9.71-3.25-14.53-3.38-13.58-7.75-27-10-40.76-2.83-17.11-3.87-34.52-5.88-51.77-1.09-9.43-2.88-18.77-3.85-28.2-1.17-11.48-2.81-23.05-2.39-34.51.41-11-2.51-21.46-2.63-32.28-.14-12.7-.39-25.41-.93-38.11-.56-13.29-1.4-26.58-2.36-39.85-.55-7.57-1.62-15.09-2.37-22.64a8.86,8.86,0,0,1,.33-4c2.19-5.54,4.14-11,1.64-17,4.3-8.6.63-20.4,11.13-26.68,2.68-1.61,4-5.41,6.13-8,8.54-10.23,18.56-17.8,32.77-17.15,3.57.17,7.11,1.31,10.67,1.36,9.49.11,19-.59,28.47-.06,6.71.37,13.3,2.54,20,3.3a52.64,52.64,0,0,0,12.78-.37c14.84-1.95,29.7-3.88,44.45-6.4,6.84-1.17,13.4-3.87,20.18-5.52,7-1.72,14.15-3.89,21.32-4.3,12.11-.7,23.67-3.73,35.4-6.23,8.58-1.83,17.33-2.88,26-4.5,16.94-3.18,33.78-7.05,50.81-9.62,14.75-2.23,29.7-3.29,44.6-4.43,10.4-.8,20.87-.85,31.31-1.28,13.13-.54,26.42,0,39.34-2,9.95-1.53,19.72-.4,29.53-1.15,6.57-.5,13.14-1.5,19.69-1.42,2.73,0,6.77,1.61,7.84,3.7,1.62,3.15-.56,6.46-4,8.26-3.94,2.06-5.28,5.67-4.95,9.72,1.2,14.93,2.31,29.9,7.31,44.21,1.07,3.08,1.54,7.51,3.75,8.77,2.43,1.39,6.54-.14,9.91-.43,7.71-.66,10.72.93,14.2,7.79,5.74,11.33,11.69,22.57,17,34.08C956.68,230.56,958.58,244.89,956.94,266.34Zm-419,402.5-6.16-.4.33,2.37,5.92-2.08c5,.77,9.44-1.93,10.69-6.52.53-1.94.51-4.51,1.78-5.67a9.21,9.21,0,0,1,6.41-2.34c3.16.34,2.38,3.12,1.85,5.43a23.53,23.53,0,0,0,0,4.47c6.28-3.45,13.84.15,19.18-5.89-2.11-3-3.56-6.67-6.28-8.54-8.35-5.78-8.54-5.51-2.07-13.25,3-3.64,10.45-4.19,13.83-1,2.71,2.54,1.75,5.09-3.65,9.81-.13.12-.09.42-.18.88L588,652.6c7.16-6.41,14.19-12.68,21.18-19a5.06,5.06,0,0,0,.88-1.82c1.73-4.35,5-5.66,9.34-4.57a60.39,60.39,0,0,0,7.29,1.76c6.22.73,12.7,2.26,17.17-4.39.61-.9,2.35-1.24,3.63-1.45,3.34-.56,6.72-.92,10.09-1.35,4.52-.57,6.92,1.73,6.43,6.29-.17,1.54-.62,3.06-1.09,5.29,16.53,6.5,32.63,13.65,51.19,13.86.29-5.22,1.58-9.67,7-9.63,6.5,0,4.27,6.2,5.72,10.27l23.71,1.82c0-5.19.79-9.23,6.34-9.25,7,0,4.2,6.16,5.65,9.7,10.42,1.5,20.7,3.07,31,4.36,1.15.14,3.4-1.09,3.62-2,1.13-4.81,4.8-4.89,8.47-5.18l-.12-.12c.46,2.64.92,5.28,1.45,8.37,7.27.77,14.25,3.79,22.17,1.58-1.21-2.46-2.68-4.08-2.66-5.69a24.06,24.06,0,0,0-2.73-11.89c-1.7-3.23,2-6.61,5.79-5.89a17.6,17.6,0,0,1,3.21,1.17c2.16-2,3.69-4.15,5.77-5.26,2.93-1.55,7,1,7.9,4.34,1.08,4.09-.39,6.67-4.67,7.38-3.73.63-7.73.43-9,3.25l5.3,13.84c4.59-1.88,4.73-12.06,13-7.85,1.82-3.3,2.94-6.76,5.23-9s5.61-3.2,8.12-4.53c-1.61-1.21-4.11-2.28-5.12-4.15-.67-1.24.93-5.27,1.3-5.25,3,.23,7.15.2,8.46,2a10.09,10.09,0,0,0,7.35,4.57c1.53.27,3.81,3.09,3.63,4.48-.25,2-2.27,3.93-3.89,5.53-.58.59-2.18.14-3.31.19-5.4.25-8.14,2.71-9,8.06-.81,5.11-2.14,6-7.22,5.15-1.08-.19-2.19-.23-4.5-.46,9.48,6.44,15.14,4.59,17.17-4.59.77-3.5,3.26-6.44,5.91-4.21,4.76,4,12.83,5.7,11.91,14.88h13.68c-.34-4.89-.45-9.14-1-13.34-.43-3.33.93-6,3.85-6.11a26,26,0,0,1,10.4,2.07c3,1.18,3.53,3.71,1.55,6.71-1.78,2.69-3.07,5.7-5.31,10a30.24,30.24,0,0,0,4.11-1.34c4.81-2.84,9.38-4.47,14.22.29,1.2,1.17,3.89,1.34,5.82,1.17,14.23-1.25,28.66-1.21,42.45-5.64,1.59-.51,3-1.74,4.41-2.63l-1.54-.72c.37-2.84-.25-7.27,1.28-8.22,5-3.12,6,3.49,10.09,6.15V639.67c-4.35-1.79-10.21-2.26-9.43-8.81.74-6.29,6-1.45,9.73-3.49,0-3.24.16-7,0-10.79-.72-14.66-1.57-29.32-2.32-44-.34-6.75-.2-13.54-.9-20.24-.77-7.4-2.09-14.76-3.46-22.08-2.25-12-4.74-24-7.11-36-4.33-22-9.15-43.95-12.79-66.08-2.12-12.93-2.32-26.18-3.41-39.28-1.14-13.74-2.34-27.47-3.47-41.2-1.06-12.9-1.51-25.87-3.2-38.68-2.49-18.93-4.33-37.83-4.07-57a66,66,0,0,0-8.37-34.09c-2.48-4.33-4.47-9-7.2-13.13-4.38-6.71-6.8-15.11-17.23-16.26-4.56-.5-8.11-1.61-11.67,2.08-2.22,2.3-5.49,3.39-7.87.63-4-4.7-9.16-4.51-14.38-4.08-11.55,1-23.09,1.93-34.6,3.19-17.33,1.9-34.8,1.81-52.05,5.29-16.22,3.28-32.92,4.12-49.2,7.17-27.88,5.22-55.5,11.85-83.4,16.87-20.1,3.61-40.51,5.46-60.75,8.3-10.08,1.42-20,3.64-30.15,4.84-7.48.89-10.8,5.5-13.32,11.7-7.41,18.18-26.22,30.32-46.28,30a15.53,15.53,0,0,1-4.66-.86c-10.25-3.47-21.09-5.2-30.55-11.09-3.71-2.31-8.22-3.56-12.53-4.67a32.24,32.24,0,0,1-17.85-11.71c-6.44-8.43-12-17.54-18-26.33a36.19,36.19,0,0,0-3.26-3.65l-1.56.64c.24,1.8.38,3.63.74,5.41s1.33,3.41,1.36,5.12c.38,23.57,1.09,47.15.73,70.71-.18,11.52,4.8,18.75,13.35,25.69,16,13,36,14.1,54.39,19.79a5.17,5.17,0,0,0,2,.05c8.35-.95,16.75-1.66,25.05-3,7.38-1.18,14.63-3.11,22-4.57,4.51-.9,9.07-1.56,13.63-2.33-.12-1.56-.13-2.22-.22-2.87-1.61-11-3.42-22-4.73-33-.41-3.47-1.39-7.73,3.54-10.54,4.78,9.85,6.37,20.18,8.19,30.29,3,16.75,5,33.68,7.78,50.47,2.12,12.74,4.84,25.38,7.23,38.08,2.1,11.14,4.23,22.28,6.13,33.46q4.26,25.11,8.2,50.29c1.17,7.39,1.64,14.9,3.1,22.22,3.06,15.32,6.55,30.56,9.87,45.83,1.62,7.43,1.33,15.57,8.14,21.08a3.87,3.87,0,0,1,.56,3.68c-2.55,4.23-4.63,9.39-8.4,12.12A126.52,126.52,0,0,1,584,609.06c-8.47,3.59-17.83,5.05-26.71,7.72-9.61,2.9-19.29,5.33-29.42,4.31-16-1.62-32-3.45-48.05-5.25-4.89-.55-6.32,1.14-4.91,5.74,1.06,3.44,1.62,7,2.76,10.45,1.32,4,3,7.8,4.15,10.63l10.46,1c-3.13,6.85-1.81,10.83,4.11,14.05,3.76,2,7.73,3.73,12.93,6.21a101,101,0,0,1,5.9-8.69c1.57-1.91,3.85-4.53,5.77-4.5s3.78,3,5.51,4.76c1.28,1.34,2.73,4.33,3.37,4.14,2.53-.75,5.76-1.94,6.87-4,1.34-2.47-.91-4.06-3.85-5a7.23,7.23,0,0,1-4.15-5.06c-.19-1.68,1.9-5,3.29-5.15,2-.26,4.62,1.28,6.39,2.75,1.18,1,1.34,3.17,2,5a23.24,23.24,0,0,1,2.63.29c6.29,1.4,7,3.31,3.33,8.73-1.12,1.67-1.56,3.81-2.76,5.39A78.33,78.33,0,0,1,537.93,668.84Zm-12.3-503.57c1.56-.79,2.29-1.41,3.11-1.53,9.16-1.43,18.3-3,27.5-4.09,10.38-1.2,20.82-1.85,31.22-2.84,19.36-1.84,38.72-3.67,58.07-5.65,13.94-1.42,27.82-3.81,41.78-4.44,16.78-.76,33-4.91,49.65-6.68,29.5-3.14,58.75-8.63,88.12-13.09q18.2-2.76,36.42-5.29c9.32-1.28,12.73,2.64,12,12.2-.4,5.54.35,11.19.94,16.76.57,5.4,1.88,10.74,2.35,16.15,1.11,12.94,1,12.95,14,11,.22,0,.45,0,.68-.08,4.51-.85,6-2.7,4.68-7.16-4.2-14.7-4.83-29.86-6.11-44.94-1.19-14.12-30.6-8.95-38.19-9.92a113.39,113.39,0,0,0-17-1.2c-9.52.22-19,1.14-28.54,1.63s-19,.85-28.57,1.25a25.33,25.33,0,0,1-4.08.09c-15.92-2-31.12,3.08-46.61,5-11.41,1.43-22.61,4.51-33.93,6.69-12.93,2.5-25.92,4.72-38.85,7.22-11.58,2.24-23,5-34.93,5.57-9.11.46-18,4.46-27.09,6.32-12.66,2.58-25.42,4.67-38.15,6.89-9.15,1.6-18.27,3.45-27.48,4.5-8.29.94-16.82.14-25,1.54a370.44,370.44,0,0,0-39.13,8.77c-7.2,2.05-13.14,7.05-17.9,13.59A48.61,48.61,0,0,0,459.28,182c12.8-3.66,25.36-8.21,38.25-11.47,6.46-1.64,13.44-1.57,20.19-1.61,2.6,0,6.58-.16,7.13,5-26.63,3.36-51.12,12.87-76.15,21.53a34.33,34.33,0,0,0,7.24,5.55c4,2.56,8.82,4.42,11.75,7.89C472.9,215,477,222.15,481.45,229c2.23,3.42,4,7.11,6.29,10.51s4.7,4.67,9.53,4.35c18-1.21,35.28-5.66,52.8-9.07,1.74-.34,3.48-2.51,4.53-4.25,2.76-4.55,6.27-7.57,11.8-8,13.79-1.19,27.61-2.23,41.35-3.87,16.92-2,33.79-4.49,50.67-6.93,7-1,13.89-2.28,20.79-3.66,11.77-2.36,23.49-5,35.26-7.33,3.77-.76,7.64-1.1,11.44-1.77,14.08-2.47,28.15-5,42.24-7.5,11.64-2,23.28-4.07,35-5.89,9.85-1.54,19.71-3.15,29.63-4,9.69-.84,19.46-.9,29.2-1,4.52-.07,6.55-2.54,6.06-6.38-1.46-11.43-3.17-22.84-5.31-34.16a7.2,7.2,0,0,0-7.92-6.16c-5.66.5-11.29,1.31-16.91,2.15-11.66,1.75-23.25,3.89-34.94,5.35-23.69,3-47.44,5.53-71.15,8.35-26.61,3.17-53.18,6.74-79.82,9.57-26.42,2.81-52.92,4.73-79.35,7.41-10.81,1.1-21.48,3.55-32.29,4.65C535.15,171.76,529.36,171.72,525.63,165.27Zm-84.8,208.59-3.09,1.44c8,52.45,8.41,105.91,23.26,157.59,1.48-.68,3.25-1.66,5.13-2.34,2.81-1,5.81-1.21,6.56,2.41.69,3.28-.92,5.82-4.59,6.26-2.18.26-4.4.22-7.55.36.83,5.35,1.56,10.11,2.15,13.93,3.84.54,7.75,0,9.05,1.52,2.82,3.39,5.8,3,9.12,2.36,2.65-.52,5.3-.89,6.16,2.28.39,1.43-.15,4.2-1.12,4.7-2.2,1.13-6.56,2.41-7.19,1.55-3.85-5.29-9.26-3-15.11-4.65,1.21,3.61,1.83,6.19,3,8.52.59,1.22,2.66,3,3.14,2.79,5.87-3,9.14,1.51,12.71,4.4,6-4.2,14.25-4.9,16-13.8.47-2.42,6.63-2.14,9.13.18s2.41,4.51-.74,6.52c-3.36,2.14-2,4.54.13,6.76,4.22,4.45,10.44,5.25,17.92,2-.48-2.9-1.21-6-1.44-9.07-.11-1.57.44-4.46,1.1-4.58,2-.39,5.44-.44,6.1.68,2.12,3.58,4.4,4.49,8.39,3.56,1.36-.32,4,1.37,4.67,2.79.44,1-1.32,3.28-2.53,4.6-1,1.14-2.71,1.73-4.1,2.56l.71,1.43c10.35-.85,19.48-4.82,27.9-10.75-1.91-3.22-5.17-6.52-4.49-8,1.71-3.75.46-5.62-1.62-8.31-.85-1.1-.48-4.59.53-5.31a7.08,7.08,0,0,1,5.95-.44c4.56,2,4.08,5.92,2.83,9.21l6.16,9,6.51-5.26c-4.15-2.36-9.46-3.35-8.07-9.09.34-1.44,3.14-3,4.92-3.17a6.93,6.93,0,0,1,5.26,2.51c1.54,2.19,2.09,5.07,3.27,8.23l10-3.19c-.3-4.59-.45-9.08-.91-13.53-.43-4.09-1.84-7.2-6.86-7.81-2.22-.27-4.2-2.6-7.27-4.66,3.33-2.19,5.59-3.29,7.33-4.93,1.25-1.18,2.68-3.17,2.53-4.64-.62-6.06-1.66-12.1-2.82-18.09-1.34-6.86-3.35-13.61-4.41-20.51-2.31-15-4-30-6.31-45-2.62-17.22-5.59-34.39-8.49-51.56a17.18,17.18,0,0,0-1.5-3.79c-11.72,2.41-20.93,10.4-32.81,11.28-9,.66-18,2.68-26.95,2.69-14,0-27.22-4.37-40.46-8.38-3-.92-6.23-1.55-9-3C452.79,380.92,446.86,377.3,440.83,373.86Zm120.6-26.5c-7.29.85-13.38,1.35-19.39,2.29-20.7,3.25-41,7.15-62.34,1.42-14.68-3.94-28.14-9.71-41.45-16.44-1.92-1-3.82-2-7.48-3.84,1.06,6.44,1.75,11.25,2.67,16a25,25,0,0,0,13.14,18.06A274.35,274.35,0,0,0,478.93,379c20.73,7.45,41.72,8.53,62.5-.17,7-2.94,14-6.06,20.79-9.5a6,6,0,0,0,2.68-4.87C564.11,358.65,562.64,353,561.43,347.36Zm-31,263,.09.54c4.93-.68,9.95-1,14.74-2.15,6.12-1.53,12-5,18.1-5.47a41.33,41.33,0,0,0,19-6.39c2.69-1.66,4.92-4.72,7.77-5.36,9.59-2.15,10.71-8.12,9.58-16.55-.82-6.12-1.16-7-6.74-4.47-8.26,3.75-16.29,8.06-24.73,11.31-12.91,5-25.87,10-40.27,8.58a100.82,100.82,0,0,0-16.3.06c-11.13.69-22.09.18-32.86-3a17.57,17.57,0,0,0-6.71-.33,4.54,4.54,0,0,0-3.09,2.12c-1.06,2,3.72,13.15,6.09,13.83,9.11,2.59,18.18,5.81,27.5,7C511.71,611.35,521.11,610.41,530.39,610.41ZM478.61,251.64c-1.86-18-27.68-49.64-41.8-49.32-1.4,6.58,1.71,11.89,4.95,17.09,3,4.8,6.22,9.45,9.36,14.16C457.57,243.24,466.46,249.15,478.61,251.64Zm72.94-8.4c-2.35-.44-3-.76-3.63-.66-17.14,3-33.25,10.81-51,11.08-.77,0-2.18,1.38-2.13,2,.08,1.17.77,2.82,1.7,3.29a40.17,40.17,0,0,0,7,2.4c16.52,4.8,30.89.85,43.19-10.9C548.51,248.75,549.58,246.23,551.55,243.24Zm-84-85c-11.78-1.77-21.09,3.42-29.44,10.59-6.07,5.21-8.93,12.82-7.06,17.69C438.49,170.68,451.65,162.84,467.5,158.27Zm52.63,506-1.89.08c-.82,1.38-1.65,2.75-3.42,5.71l6.46-1.31C520.89,667.21,520.51,665.71,520.13,664.22Zm-21.78-83.83V579.1h-4.16v1.29Z" transform="translate(-412.71 -101)"/><path d="M805.66,647.27c-3.67.29-7.34.37-8.47,5.18-.22.94-2.47,2.17-3.62,2-10.32-1.29-20.6-2.86-31-4.36-1.45-3.54,1.37-9.73-5.65-9.7-5.55,0-6.38,4.06-6.34,9.25l-23.71-1.82c-1.45-4.07.78-10.22-5.72-10.27-5.47,0-6.76,4.41-7,9.63-18.56-.21-34.66-7.36-51.19-13.86.47-2.23.92-3.75,1.09-5.29.49-4.56-1.91-6.86-6.43-6.29-3.37.43-6.75.79-10.09,1.35-1.28.21-3,.55-3.63,1.45-4.47,6.65-11,5.12-17.17,4.39a60.39,60.39,0,0,1-7.29-1.76c-4.39-1.09-7.61.22-9.34,4.57a5.06,5.06,0,0,1-.88,1.82c-7,6.33-14,12.6-21.18,19l-8.44-6.52c.09-.46.05-.76.18-.88,5.4-4.72,6.36-7.27,3.65-9.81-3.38-3.16-10.79-2.61-13.83,1-6.47,7.74-6.28,7.47,2.07,13.25,2.72,1.87,4.17,5.57,6.28,8.54-5.34,6-12.9,2.44-19.18,5.89a23.53,23.53,0,0,1,0-4.47c.53-2.31,1.31-5.09-1.85-5.43a9.21,9.21,0,0,0-6.41,2.34c-1.27,1.16-1.25,3.73-1.78,5.67-1.25,4.59-5.67,7.29-10.69,6.52l-.08.1a78.21,78.21,0,0,0,5.68-6.14c1.2-1.58,1.64-3.72,2.76-5.39,3.63-5.42,3-7.33-3.33-8.73a23.24,23.24,0,0,0-2.63-.29c-.69-1.85-.85-4-2-5-1.77-1.47-4.37-3-6.39-2.75-1.39.18-3.48,3.47-3.29,5.15a7.23,7.23,0,0,0,4.15,5.06c2.94.9,5.19,2.49,3.85,5-1.11,2-4.34,3.22-6.87,4-.64.19-2.09-2.8-3.37-4.14-1.73-1.8-3.64-4.72-5.51-4.76s-4.2,2.59-5.77,4.5a101,101,0,0,0-5.9,8.69c-5.2-2.48-9.17-4.16-12.93-6.21-5.92-3.22-7.24-7.2-4.11-14.05l-10.46-1c-1.12-2.83-2.83-6.67-4.15-10.63-1.14-3.41-1.7-7-2.76-10.45-1.41-4.6,0-6.29,4.91-5.74,16,1.8,32,3.63,48.05,5.25,10.13,1,19.81-1.41,29.42-4.31,8.88-2.67,18.24-4.13,26.71-7.72a126.52,126.52,0,0,0,24.63-14.29c3.77-2.73,5.85-7.89,8.4-12.12a3.87,3.87,0,0,0-.56-3.68c-6.81-5.51-6.52-13.65-8.14-21.08-3.32-15.27-6.81-30.51-9.87-45.83-1.46-7.32-1.93-14.83-3.1-22.22q-4-25.17-8.2-50.29c-1.9-11.18-4-22.32-6.13-33.46-2.39-12.7-5.11-25.34-7.23-38.08C571,351.22,569,334.29,566,317.54c-1.82-10.11-3.41-20.44-8.19-30.29-4.93,2.81-3.95,7.07-3.54,10.54,1.31,11,3.12,22,4.73,33,.09.65.1,1.31.22,2.87-4.56.77-9.12,1.43-13.63,2.33-7.34,1.46-14.59,3.39-22,4.57-8.3,1.32-16.7,2-25.05,3a5.17,5.17,0,0,1-2-.05c-18.43-5.69-38.37-6.78-54.39-19.79-8.55-6.94-13.53-14.17-13.35-25.69.36-23.56-.35-47.14-.73-70.71,0-1.71-1-3.39-1.36-5.12s-.5-3.61-.74-5.41l1.56-.64a36.19,36.19,0,0,1,3.26,3.65c6,8.79,11.51,17.9,18,26.33a32.24,32.24,0,0,0,17.85,11.71c4.31,1.11,8.82,2.36,12.53,4.67,9.46,5.89,20.3,7.62,30.55,11.09a15.53,15.53,0,0,0,4.66.86c20.06.37,38.87-11.77,46.28-30,2.52-6.2,5.84-10.81,13.32-11.7,10.1-1.2,20.07-3.42,30.15-4.84,20.24-2.84,40.65-4.69,60.75-8.3,27.9-5,55.52-11.65,83.4-16.87,16.28-3,33-3.89,49.2-7.17,17.25-3.48,34.72-3.39,52.05-5.29,11.51-1.26,23-2.24,34.6-3.19,5.22-.43,29.36.87,33.92,1.37,10.43,1.15,12.85,9.55,17.23,16.26,2.73,4.16,4.72,8.8,7.2,13.13A66,66,0,0,1,950.78,252c-.26,19.15,1.58,38,4.07,57,1.69,12.81,2.14,25.78,3.2,38.68,1.13,13.73,2.33,27.46,3.47,41.2,1.09,13.1,1.29,26.35,3.41,39.28,3.64,22.13,8.46,44.06,12.79,66.08,2.37,12,4.86,24,7.11,36,1.37,7.32,2.69,14.68,3.46,22.08.7,6.7.56,13.49.9,20.24.75,14.67,1.6,29.33,2.32,44,.18,3.77,0,7.55,0,10.79-3.76,2-9-2.8-9.73,3.49-.78,6.55,5.08,7,9.43,8.81V651.5c-4.1-2.66-5.06-9.27-10.09-6.15-1.53.95-.91,5.38-1.28,8.22l1.54.72c-1.46.89-2.82,2.12-4.41,2.63-13.79,4.43-28.22,4.39-42.45,5.64-1.93.17-4.62,0-5.82-1.17-4.84-4.76-9.41-3.13-14.22-.29a30.24,30.24,0,0,1-4.11,1.34c2.24-4.25,3.53-7.26,5.31-10,2-3,1.44-5.53-1.55-6.71a26,26,0,0,0-10.4-2.07c-2.92.14-4.28,2.78-3.85,6.11.53,4.2.64,8.45,1,13.34H887.2c.92-9.18-7.15-10.85-11.91-14.88-2.65-2.23-5.14.71-5.91,4.21-2,9.18-7.69,11-17.17,4.59,2.31.23,3.42.27,4.5.46,5.08.89,6.41,0,7.22-5.15.83-5.35,3.57-7.81,9-8.06,1.13-.05,2.73.4,3.31-.19,1.62-1.6,3.64-3.53,3.89-5.53.18-1.39-2.1-4.21-3.63-4.48a10.09,10.09,0,0,1-7.35-4.57c-1.31-1.84-5.51-1.81-8.46-2-.37,0-2,4-1.3,5.25,1,1.87,3.51,2.94,5.12,4.15-2.51,1.33-5.92,2.33-8.12,4.53s-3.41,5.75-5.23,9c-8.31-4.21-8.45,6-13,7.85l-5.3-13.84c1.25-2.82,5.25-2.62,9-3.25,4.28-.71,5.75-3.29,4.67-7.38-.89-3.39-5-5.89-7.9-4.34-2.08,1.11-3.61,3.23-5.77,5.26a17.6,17.6,0,0,0-3.21-1.17c-3.8-.72-7.49,2.66-5.79,5.89a24.06,24.06,0,0,1,2.73,11.89c0,1.61,1.45,3.23,2.66,5.69-7.92,2.21-14.9-.81-22.17-1.58-.53-3.09-1-5.73-1.46-8.37,2,.46,4.1,1.6,5.91,1.22,3.56-.76,9.15-1.57,9.94-3.78,1.62-4.52-4-5.2-7-6.16-3.4-1.07-8.42-2.25-10.64-.59C800.09,640.55,804.48,644.11,805.66,647.27ZM694.53,629.63c-6.07-2.26-12.16.58-16.66-4.21-.59-.63-4.2.77-5.64,2.08-.81.74-.55,4.43.09,4.7,5.52,2.27,11.23,4.1,16.93,5.94.46.15,1.38-.38,1.78-.86,2.09-2.48,4-1.5,6.56-.46,5.35,2.18,8.31-.08,8.13-5.91a17.48,17.48,0,0,0-1.62-6.48c-1.65-3.59-4.9-5-8.47-3.66C691.67,622.29,692.33,625.59,694.53,629.63ZM788.42,624c.47-4.5-.49-7.89-5-9.42-3.72-1.26-7.24-3.1-11-4.32-1.23-.4-2.84.35-4.27.57.31,1.38.34,2.92,1,4.11s2.07,2.11,3,3.26c2.09,2.54,4.09,5.15,7,8.83-.19,6.61.56,7.28,8.74,6.16,2.7-.38,5.48-.44,8.05-1.22,1.41-.42,3.66-2.36,3.47-3a7,7,0,0,0-3.38-4.28C794.1,623.8,791.64,624.17,788.42,624Zm127.12-4.61c-3.34-.63-6.14-1.93-8.6-1.45-4.27.82-7.79,1-11.37-2.16-1.22-1.07-5-1-6.05,0s-1,4.2-.44,6.18c.41,1.51,2.06,2.95,3.51,3.88C900.45,630.89,907.75,629.08,915.54,619.35ZM962,651.76c3.72-1.77,6.73-2.8,9.24-4.55,1.31-.9,1.75-3.06,2.58-4.66-1.46-.75-3.08-2.35-4.35-2.11-6.52,1.21-12.79,2.46-18.35-2.94-.71-.69-4.22.1-5,1.2s-.61,4.8.25,5.25C951.62,646.71,958.66,645.36,962,651.76Zm-290-38.09c-.07-5.37-7.73-10.32-12.41-8.37-2.94,1.22-4.7,5.29-2.76,7.79a38.79,38.79,0,0,0,8.13,7.85c3.15,2.23,5.53.78,6.34-3C671.55,616.44,671.73,614.88,671.92,613.67Zm262.31,10.54c-.63.65-3.3,2.1-3.46,3.79-.53,5.62,3.2,11.31,6.48,11.2,3.56-.13,10.14-5.73,10.15-8.64S940.93,624,934.23,624.21Zm-205.39,3.86c4.71-1.18,8.38-2.41,12.16-3,3.27-.47,6-1.19,5.77-5.08-.15-2.63-4.57-4.57-7.82-3.66s-6.56,1.4-9.4,2.93c-1.88,1-3.38,3.36-4.13,5.44C725.18,625.42,727.85,627.15,728.84,628.07Zm-91.58-6.27a73.55,73.55,0,0,0,1.28-8.74c.13-4.16-3.37-5.3-6.37-5.62-3.19-.34-7-.4-8,4.2-.85,3.78,1,6.2,4.05,7.56C630.82,620.36,633.73,620.82,637.26,621.8Zm100.53,18.49,12.93-1.1c.45,0,1,.08,1.34-.13,1.12-.64,2.49-1.21,3.11-2.21.36-.57-.28-2.17-.93-2.89-1.67-1.87-14.8-3.88-16.76-2.29-1.5,1.21-3.13,3.48-3,5.13S737.08,639.6,737.79,640.29Zm-222.15,6.16c-2.93-4-5.32-7.63-8.25-10.79-.59-.64-3.45.28-4.86,1.14a3.67,3.67,0,0,0-.8,3.51,55.47,55.47,0,0,0,5.76,9.1,4.48,4.48,0,0,0,4.1,1C513,649.86,514,648.15,515.64,646.45Zm87.23-20.85c-2.21-3.06-3.64-7.23-6-7.82-4.19-1.06-3.75,4-5.21,6.55-.11.19-.27.45-.23.63.54,2.28.77,4.73,1.83,6.74.41.77,3.31,1.23,4.05.61C599.27,630.68,600.66,628.39,602.87,625.6ZM920.78,632c-4.78.79-8,1.39-8.17,5.56-.17,3.55,3,6.78,6.21,6.66s7.11-3.9,6.21-6.68C924.28,635.19,922,633.41,920.78,632ZM822.2,599.17c4.23,3.33,10.48,4.58,13.07,2.16,1.16-1.08,2-4.22,1.32-5.2a9.31,9.31,0,0,0-5.81-3.53C826.14,592.09,823.19,594.6,822.2,599.17Zm122.91,53.12-.16-2.47c-2.33-1.15-4.6-3.06-7-3.25-3.24-.24-7,1.34-6.15,5.31.45,2.18,3.85,5.47,5.6,5.28C940.1,656.87,942.55,654,945.11,652.29Zm-236-59.91a87.53,87.53,0,0,0-8.33,2.91c-2.53,1.18-3,3.07-1.08,5.46,3.36,4.17,5.93,3.87,11.36-1.78,1-1,2.21-3,1.81-3.75C712.16,593.91,710.3,593.21,709.1,592.38ZM926,606.17l6-5.19c-2-2.1-3.71-5.21-6.17-6-3.1-1.06-5.54,1.49-6,4.84C919.26,603.77,922.1,604.73,926,606.17Zm-257.7-65.4c-2.68-.21-4.52,1.17-4.38,4.28s.63,6.72,4.5,6.19a11.69,11.69,0,0,0,7.24-4.72C677,544.6,672.17,540.8,668.34,540.77ZM819.1,598.49c-.68-4.15-1.87-5.75-5.14-5.78-3.8,0-6.2,1.56-6.42,5.38s2.91,5.47,5.75,5C815.41,602.8,817.18,600.12,819.1,598.49Zm22.81-30.83c0-.7,0-1.41,0-2.11-1.71-1-3.31-2.65-5.15-3-3.33-.62-5.78,1.22-6.47,4.54-.58,2.8,1.28,4.78,3.82,4.26C836.81,570.79,839.31,569,841.91,567.66Zm14.33,28.24c-2.32,3-4.7,4.61-4.71,6.27,0,3.68,3.4,4.7,6.3,4.26,1.68-.25,3.06-2.48,4.57-3.82ZM735,584.45c-2.6,2.45-5.62,4-5.78,5.72-.36,4,3.56,4.36,6.29,4.08,2-.2,3.89-2.12,5.82-3.27Zm216.46,38.47c3.09.05,6,.59,8.61-.1,1-.26,1.92-3.41,1.64-5-.21-1.16-2.44-2.67-3.84-2.76C953.6,614.78,952.22,617.81,951.45,622.92Zm-60.31-36c-.09-5-2.51-6.65-5.63-6.53a5.32,5.32,0,0,0-3.87,3.38c-.51,3.41,1.82,5.62,5.1,5.6C888.38,589.33,890,587.55,891.14,586.89ZM695.64,595c1.52-2.66,3.24-4.29,3.12-5.75-.3-3.39-3-5.12-6.2-4.53-1.39.25-3.64,3.3-3.46,3.54A67.87,67.87,0,0,0,695.64,595Zm280.19,24.83c-2.42,3-4.93,4.84-5.11,6.86-.13,1.44,2.88,3.16,4.49,4.76,1.66-1.87,3.89-3.51,4.72-5.69C980.3,624.79,977.92,622.75,975.83,619.86Zm-283.34-44.2c2-3.26,3.85-5,4-6.83.28-3-2.25-4.61-4.92-3.85-1.93.56-3.43,2.61-5.13,4Zm74.35,3.3c3.64,4.79,7.28,6.45,9.39,4.11.85-1,.81-3.85,0-5C773.57,574.52,770.73,574.87,766.84,579ZM498,643.41c-1.74,2.51-3.47,3.91-3.62,5.46-.24,2.38.21,5.75,3.62,5.22,1.9-.29,4.77-2.71,4.82-4.25C502.82,648.08,500.23,646.25,498,643.41Zm67.72-23.69c-1.66,2.75-3.65,4.59-3.41,6.06s3,4.13,4,3.87c2.15-.53,3.91-2.65,5.84-4.12Zm96.17-71.09c-3.74-2.15-6-3.77-8.44-4.6-.57-.19-3,2.4-2.92,3.57.27,3.35,2.73,5.27,6.09,4.92C657.89,552.38,659.06,550.75,661.84,548.63ZM786,647.47l4.4-5.22c-1.92-1.29-3.75-3.39-5.78-3.59-1.21-.12-2.71,2.73-4.08,4.24ZM632.88,596.86c0-.62,0-1.24,0-1.86-1.71-1-3.61-3.12-5.08-2.85-1.84.35-3.33,2.61-5,4.05,1.4,1.15,2.82,3.25,4.2,3.22C629,599.38,630.93,597.79,632.88,596.86ZM969,595.4c-2.57-1.82-4.39-4-5.46-3.65-1.75.53-3,2.67-4.48,4.13,1.44,1.11,2.86,3.06,4.34,3.11S966.43,597.18,969,595.4Zm-415,39.79,4.86-4.2c-1.22-1.32-2.64-3.84-3.62-3.68-1.69.28-3.38,2-4.48,3.59C550.55,631.27,552.57,633.27,554.06,635.19Zm77.15-57.37c-2.23-1.3-3.83-2.84-4.51-2.5-1.57.77-2.69,2.45-4,3.76,1.2,1,2.67,3.12,3.55,2.9C627.82,581.58,629,579.78,631.21,577.82ZM485.7,627.35c1.16,1.22,1.91,2.6,2.54,2.55,1-.09,2-1.12,2.95-1.75-.56-.8-1.1-2.23-1.7-2.26C488.43,625.85,487.34,626.66,485.7,627.35Z" transform="translate(-412.71 -101)" fill="#090"/><path d="M525.63,165.27c3.73,6.45,9.52,6.49,14.67,6,10.81-1.1,21.48-3.55,32.29-4.65,26.43-2.68,52.93-4.6,79.35-7.41,26.64-2.83,53.21-6.4,79.82-9.57,23.71-2.82,47.46-5.39,71.15-8.35,11.69-1.46,23.28-3.6,34.94-5.35,5.62-.84,11.25-1.65,16.91-2.15a7.2,7.2,0,0,1,7.92,6.16c2.14,11.32,3.85,22.73,5.31,34.16.49,3.84-1.54,6.31-6.06,6.38-9.74.13-19.51.19-29.2,1-9.92.86-19.78,2.47-29.63,4-11.67,1.82-23.31,3.86-35,5.89-14.09,2.46-28.16,5-42.24,7.5-3.8.67-7.67,1-11.44,1.77-11.77,2.38-23.49,5-35.26,7.33-6.9,1.38-13.83,2.66-20.79,3.66-16.88,2.44-33.75,4.92-50.67,6.93-13.74,1.64-27.56,2.68-41.35,3.87-5.53.47-9,3.49-11.8,8-1.05,1.74-2.79,3.91-4.53,4.25-17.52,3.41-34.84,7.86-52.8,9.07-4.83.32-7.32-1-9.53-4.35s-4.06-7.09-6.29-10.51c-4.44-6.8-8.55-13.91-13.76-20.08-2.93-3.47-7.75-5.33-11.75-7.89a34.33,34.33,0,0,1-7.24-5.55c25-8.66,49.52-18.17,76.15-21.53-.55-5.12-4.53-5-7.13-5-6.75,0-13.73,0-20.19,1.61-12.89,3.26-25.45,7.81-38.25,11.47a48.61,48.61,0,0,1-14.62,1.51c4.76-6.54,10.7-11.54,17.9-13.59a370.44,370.44,0,0,1,39.13-8.77c8.18-1.4,16.71-.6,25-1.54,9.21-1,18.33-2.9,27.48-4.5,12.73-2.22,25.49-4.31,38.15-6.89,9.1-1.86,18-5.86,27.09-6.32,12-.61,23.35-3.33,34.93-5.57,12.93-2.5,25.92-4.72,38.85-7.22,11.32-2.18,22.52-5.26,33.93-6.69,15.49-1.94,30.69-7,46.61-5a25.33,25.33,0,0,0,4.08-.09c9.52-.4,19.05-.75,28.57-1.25s19-1.41,28.54-1.63c5.64-.13,54-3,55.14,11.12,1.28,15.08,1.91,30.24,6.11,44.94,1.28,4.46-.17,6.31-4.68,7.16-.23,0-.46,0-.68.08-13,2-12.88,2-14-11-.47-5.41-1.78-10.75-2.35-16.15-.59-5.57-1.34-11.22-.94-16.76.7-9.56-2.71-13.48-12-12.2q-18.22,2.5-36.42,5.29c-29.37,4.46-58.62,10-88.12,13.09-16.64,1.77-32.87,5.92-49.65,6.68-14,.63-27.84,3-41.78,4.44-19.35,2-38.71,3.81-58.07,5.65-10.4,1-20.84,1.64-31.22,2.84-9.2,1.07-18.34,2.66-27.5,4.09C527.92,163.86,527.19,164.48,525.63,165.27Zm252.94,10-.05-1.57a37.69,37.69,0,0,0-5.65-.74c-7.27.11-14.56.19-21.82.64-12.9.8-25.84,1.42-38.67,2.92q-28.73,3.38-57.31,7.95c-13,2.08-25.78,5.34-38.73,7.68-19.21,3.47-38.51,6.49-57.73,9.91-17.2,3.06-34.36,6.37-51.51,9.67a7.22,7.22,0,0,0-4.07,2.13c-1,1.24-1.95,3.48-1.45,4.66s2.82,2.2,4.35,2.22c2.2,0,4.42-.89,6.63-1.45,16.71-4.28,33.29-9.2,50.16-12.72,30.91-6.46,62-11.95,93-18.14,37.16-7.42,74.75-10.35,112.51-11.88C771.68,176.41,775.12,175.71,778.57,175.27Zm-156.43,3.91c0-.7-.07-1.4-.1-2.1a23.29,23.29,0,0,0-2.95-1.09c-14.71-3.25-29.51-1.85-44,.84-19.32,3.6-38.38,8.67-57.55,13.09-11,2.54-22,4.94-33,7.61-3.22.78-6.47,2.05-7.43,6.86,2.44,0,4.43.3,6.3-.06,5.76-1.09,11.49-2.37,17.21-3.7,11.25-2.61,22.55-5,33.7-8,26.32-7.06,52.6-14.09,80.26-12.65C617.1,180.09,619.63,179.46,622.14,179.18Zm77-14.14c3.74,6.42,8.5,5.28,12.5,4.78,13-1.6,26-3.62,39-5.64,5.79-.91,11.47-2.6,17.28-3.25,15.34-1.72,30.71-3,46.07-4.55,7.68-.76,15.37-1.48,23-2.43,1.26-.16,2.37-1.42,3.55-2.18-.82-.91-1.49-2.34-2.49-2.62a16,16,0,0,0-5.4-.27c-5.66.43-11.32.89-17,1.52q-28.74,3.25-57.47,6.66c-15.53,1.83-31.06,3.67-46.58,5.62C707.8,163.18,703.94,164.13,699.17,165Z" transform="translate(-412.71 -101)" fill="#ffc"/><path d="M440.83,373.86c6,3.44,12,7.06,18.11,10.25,2.78,1.44,6,2.07,9,3,13.24,4,26.51,8.39,40.46,8.38,9,0,17.95-2,26.95-2.69,11.88-.88,21.09-8.87,32.81-11.28a17.18,17.18,0,0,1,1.5,3.79c2.9,17.17,5.87,34.34,8.49,51.56,2.29,15,4,30,6.31,45,1.06,6.9,3.07,13.65,4.41,20.51,1.16,6,2.2,12,2.82,18.09.15,1.47-1.28,3.46-2.53,4.64-1.74,1.64-4,2.74-7.33,4.93,3.07,2.06,5,4.39,7.27,4.66,5,.61,6.43,3.72,6.86,7.81.46,4.45.61,8.94.91,13.53l-10,3.19c-1.18-3.16-1.73-6-3.27-8.23a6.93,6.93,0,0,0-5.26-2.51c-1.78.13-4.58,1.73-4.92,3.17-1.39,5.74,3.92,6.73,8.07,9.09L575,566l-6.16-9c1.25-3.29,1.73-7.26-2.83-9.21a7.08,7.08,0,0,0-5.95.44c-1,.72-1.38,4.21-.53,5.31,2.08,2.69,3.33,4.56,1.62,8.31-.68,1.49,2.58,4.79,4.49,8-8.42,5.93-17.55,9.9-27.9,10.75l-.71-1.43c1.39-.83,3.05-1.42,4.1-2.56,1.21-1.32,3-3.62,2.53-4.6-.64-1.42-3.31-3.11-4.67-2.79-4,.93-6.27,0-8.39-3.56-.66-1.12-4.1-1.07-6.1-.68-.66.12-1.21,3-1.1,4.58.23,3.1,1,6.17,1.44,9.07-7.48,3.3-13.7,2.5-17.92-2-2.12-2.22-3.49-4.62-.13-6.76,3.15-2,3.35-4.1.74-6.52s-8.66-2.6-9.13-.18c-1.73,8.9-10,9.6-16,13.8-3.57-2.89-6.84-7.42-12.71-4.4-.48.24-2.55-1.57-3.14-2.79-1.15-2.33-1.77-4.91-3-8.52,5.85,1.66,11.26-.64,15.11,4.65.63.86,5-.42,7.19-1.55,1-.5,1.51-3.27,1.12-4.7-.86-3.17-3.51-2.8-6.16-2.28-3.32.65-6.3,1-9.12-2.36-1.3-1.57-5.21-1-9.05-1.52-.59-3.82-1.32-8.58-2.15-13.93,3.15-.14,5.37-.1,7.55-.36,3.67-.44,5.28-3,4.59-6.26-.75-3.62-3.75-3.44-6.56-2.41-1.88.68-3.65,1.66-5.13,2.34-14.85-51.68-15.23-105.14-23.26-157.59Zm99.69,173.66c-.83-1.09-1.72-3.36-2.89-3.52a14.32,14.32,0,0,0-6.78,1.14c-2.3.9-4.21,3.12-6.53,3.59-4,.79-4.67,3-4.14,6.32.59,3.62,3.41,5.59,6.3,4.22,4.62-2.18,8.69-5.56,12.9-8.57C540,550.29,540,549.09,540.52,547.52Zm-62.65-23,.72-1c2.25-.21,4.51-.34,6.75-.64,3.41-.46,4.53-2.75,4.07-5.85-.49-3.29-2.87-3.77-5.61-3.12a30.67,30.67,0,0,0-7.1,2.19c-1.58.83-2.64,2.64-3.93,4Zm33.5-.55c2.62-3,5.45-4.72,5.78-6.87.57-3.64-2.73-4.92-5.93-4.9-3.35,0-6.22,1.83-5.65,5.29C505.9,519.5,508.67,521.1,511.37,524Zm8.69,13.09c-.11-4.61-2.12-6.43-5.57-6.5-3.22-.07-5.11,1.75-5.29,4.95-.17,3,3.18,6.27,6.14,6C518.6,541.26,520.17,539.36,520.06,537.07ZM484,538.89c-3.15,2.49-6.09,3.65-6.73,5.58-1,3,1.47,5.47,4.52,5a9.41,9.41,0,0,0,5.86-4C488.15,544.65,485.79,542,484,538.89Zm56.13-21.79c-2.55,3.43-4.56,5.24-5.19,7.44-.24.83,2.87,3.79,4.16,3.61,1.91-.26,4.61-2.2,5-3.88S542.17,520.59,540.11,517.1Zm-37.19,21.11c-2.65-2.42-4-4.53-5.73-4.92-1.12-.26-2.81,2-4.24,3.11,1.47,1.37,2.74,3.21,4.48,3.92C498.43,540.74,500.18,539.34,502.92,538.21Zm-36.84-47.16c-3-2.12-4.52-3.88-6.34-4.23-1-.19-2.43,2-3.67,3.14,1.48,1.32,2.76,3.15,4.49,3.77C461.56,494.09,463.26,492.5,466.08,491.05Z" transform="translate(-412.71 -101)" fill="#007300"/><path d="M561.43,347.36c1.21,5.63,2.68,11.29,3.47,17.05a6,6,0,0,1-2.68,4.87c-6.79,3.44-13.76,6.56-20.79,9.5-20.78,8.7-41.77,7.62-62.5.17a274.35,274.35,0,0,1-32.35-14.08,25,25,0,0,1-13.14-18.06c-.92-4.77-1.61-9.58-2.67-16,3.66,1.88,5.56,2.87,7.48,3.84,13.31,6.73,26.77,12.5,41.45,16.44,21.35,5.73,41.64,1.83,62.34-1.42C548.05,348.71,554.14,348.21,561.43,347.36Z" transform="translate(-412.71 -101)" fill="#0d0639"/><path d="M530.39,610.41c-9.28,0-18.68.94-27.8-.27-9.32-1.22-18.39-4.44-27.5-7-2.37-.68-7.15-11.82-6.09-13.83a4.54,4.54,0,0,1,3.09-2.12,17.57,17.57,0,0,1,6.71.33c10.77,3.2,21.73,3.71,32.86,3a100.82,100.82,0,0,1,16.3-.06c14.4,1.45,27.36-3.61,40.27-8.58,8.44-3.25,16.47-7.56,24.73-11.31,5.58-2.53,5.92-1.65,6.74,4.47,1.13,8.43,0,14.4-9.58,16.55-2.85.64-5.08,3.7-7.77,5.36a41.33,41.33,0,0,1-19,6.39c-6.13.47-12,3.94-18.1,5.47-4.79,1.2-9.81,1.47-14.74,2.15Z" transform="translate(-412.71 -101)" fill="#0d0639"/><path d="M478.61,251.64c-12.15-2.49-21-8.4-27.49-18.07-3.14-4.71-6.37-9.36-9.36-14.16-3.24-5.2-6.35-10.51-4.95-17.09C450.93,202,476.75,233.67,478.61,251.64Z" transform="translate(-412.71 -101)" fill="#b22441"/><path d="M551.55,243.24c-2,3-3,5.51-4.85,7.24-12.3,11.75-26.67,15.7-43.19,10.9a40.17,40.17,0,0,1-7-2.4c-.93-.47-1.62-2.12-1.7-3.29,0-.65,1.36-2,2.13-2,17.76-.27,33.87-8.06,51-11.08C548.52,242.48,549.2,242.8,551.55,243.24Z" transform="translate(-412.71 -101)" fill="#861b31"/><path d="M467.5,158.27c-15.85,4.57-29,12.41-36.5,28.28-1.87-4.87,1-12.48,7.06-17.69C446.41,161.69,455.72,156.5,467.5,158.27Z" transform="translate(-412.71 -101)" fill="#861b31"/><path d="M520.13,664.22c.38,1.49.76,3,1.15,4.48L514.82,670c1.77-3,2.6-4.33,3.42-5.71Z" transform="translate(-412.71 -101)" fill="#fff"/><path d="M498.35,580.39h-4.16V579.1h4.16Z" transform="translate(-412.71 -101)" fill="#fff"/><path d="M538,668.73l-5.92,2.08-.33-2.37,6.16.4Z" transform="translate(-412.71 -101)" fill="#fff"/><path d="M694.53,629.63c-2.2-4-2.86-7.34,1.1-8.86,3.57-1.37,6.82.07,8.47,3.66a17.48,17.48,0,0,1,1.62,6.48c.18,5.83-2.78,8.09-8.13,5.91-2.56-1-4.47-2-6.56.46-.4.48-1.32,1-1.78.86-5.7-1.84-11.41-3.67-16.93-5.94-.64-.27-.9-4-.09-4.7,1.44-1.31,5-2.71,5.64-2.08C682.37,630.21,688.46,627.37,694.53,629.63Z" transform="translate(-412.71 -101)"/><path d="M788.42,624c3.22.21,5.68-.16,7.64.66a7,7,0,0,1,3.38,4.28c.19.67-2.06,2.61-3.47,3-2.57.78-5.35.84-8.05,1.22-8.18,1.12-8.93.45-8.74-6.16-2.9-3.68-4.9-6.29-7-8.83-1-1.15-2.32-2-3-3.26s-.69-2.73-1-4.11c1.43-.22,3-1,4.27-.57,3.73,1.22,7.25,3.06,11,4.32C787.93,616.07,788.89,619.46,788.42,624Z" transform="translate(-412.71 -101)"/><path d="M915.54,619.35c-7.79,9.73-15.09,11.54-22.95,6.47-1.45-.93-3.1-2.37-3.51-3.88-.53-2-.7-5.07.44-6.18s4.83-1.09,6.05,0c3.58,3.15,7.1,3,11.37,2.16C909.4,617.42,912.2,618.72,915.54,619.35Z" transform="translate(-412.71 -101)"/><path d="M962,651.76c-3.29-6.4-10.33-5-15.59-7.81-.86-.45-1.08-4-.25-5.25s4.25-1.89,5-1.2c5.56,5.4,11.83,4.15,18.35,2.94,1.27-.24,2.89,1.36,4.35,2.11-.83,1.6-1.27,3.76-2.58,4.66C968.68,649,965.67,650,962,651.76Z" transform="translate(-412.71 -101)"/><path d="M671.92,613.67c-.19,1.21-.37,2.77-.7,4.31-.81,3.74-3.19,5.19-6.34,3a38.79,38.79,0,0,1-8.13-7.85c-1.94-2.5-.18-6.57,2.76-7.79C664.19,603.35,671.85,608.3,671.92,613.67Z" transform="translate(-412.71 -101)"/><path d="M934.23,624.21c6.7-.21,13.18,3.43,13.17,6.35s-6.59,8.51-10.15,8.64c-3.28.11-7-5.58-6.48-11.2C930.93,626.31,933.6,624.86,934.23,624.21Z" transform="translate(-412.71 -101)"/><path d="M728.84,628.07c-1-.92-3.66-2.65-3.42-3.33.75-2.08,2.25-4.43,4.13-5.44,2.84-1.53,6.22-2,9.4-2.93s7.67,1,7.82,3.66c.22,3.89-2.5,4.61-5.77,5.08C737.22,625.66,733.55,626.89,728.84,628.07Z" transform="translate(-412.71 -101)"/><path d="M805.66,647.27c-1.18-3.16-5.57-6.72-1.93-9.43,2.22-1.66,7.24-.48,10.64.59,3,1,8.63,1.64,7,6.16-.79,2.21-6.38,3-9.94,3.78-1.81.38-3.93-.76-5.91-1.22Z" transform="translate(-412.71 -101)"/><path d="M637.26,621.8c-3.53-1-6.44-1.44-9-2.6-3.08-1.36-4.9-3.78-4.05-7.56,1-4.6,4.8-4.54,8-4.2,3,.32,6.5,1.46,6.37,5.62A73.55,73.55,0,0,1,637.26,621.8Z" transform="translate(-412.71 -101)"/><path d="M737.79,640.29c-.71-.69-3.16-2-3.29-3.49s1.48-3.92,3-5.13c2-1.59,15.09.42,16.76,2.29.65.72,1.29,2.32.93,2.89-.62,1-2,1.57-3.11,2.21-.35.21-.89.09-1.34.13Z" transform="translate(-412.71 -101)"/><path d="M515.64,646.45c-1.64,1.7-2.62,3.41-4.05,4a4.48,4.48,0,0,1-4.1-1,55.47,55.47,0,0,1-5.76-9.1,3.67,3.67,0,0,1,.8-3.51c1.41-.86,4.27-1.78,4.86-1.14C510.32,638.82,512.71,642.49,515.64,646.45Z" transform="translate(-412.71 -101)"/><path d="M602.87,625.6c-2.21,2.79-3.6,5.08-5.54,6.71-.74.62-3.64.16-4.05-.61-1.06-2-1.29-4.46-1.83-6.74,0-.18.12-.44.23-.63,1.46-2.54,1-7.61,5.21-6.55C599.23,618.37,600.66,622.54,602.87,625.6Z" transform="translate(-412.71 -101)"/><path d="M920.78,632c1.18,1.46,3.5,3.24,4.25,5.54.9,2.78-3.09,6.56-6.21,6.68s-6.38-3.11-6.21-6.66C912.81,633.34,916,632.74,920.78,632Z" transform="translate(-412.71 -101)"/><path d="M822.2,599.17c1-4.57,3.94-7.08,8.58-6.57a9.31,9.31,0,0,1,5.81,3.53c.7,1-.16,4.12-1.32,5.2C832.68,603.75,826.43,602.5,822.2,599.17Z" transform="translate(-412.71 -101)"/><path d="M945.11,652.29c-2.56,1.75-5,4.58-7.72,4.87-1.75.19-5.15-3.1-5.6-5.28-.81-4,2.91-5.55,6.15-5.31,2.41.19,4.68,2.1,7,3.25Z" transform="translate(-412.71 -101)"/><path d="M709.1,592.38c1.2.83,3.06,1.53,3.76,2.84.4.74-.85,2.75-1.81,3.75-5.43,5.65-8,5.95-11.36,1.78-1.94-2.39-1.45-4.28,1.08-5.46A87.53,87.53,0,0,1,709.1,592.38Z" transform="translate(-412.71 -101)"/><path d="M926,606.17c-3.94-1.44-6.78-2.4-6.19-6.39.49-3.35,2.93-5.9,6-4.84,2.46.83,4.14,3.94,6.17,6Z" transform="translate(-412.71 -101)"/><path d="M668.34,540.77c3.83,0,8.64,3.83,7.36,5.75a11.69,11.69,0,0,1-7.24,4.72c-3.87.53-4.37-3.22-4.5-6.19S665.66,540.56,668.34,540.77Z" transform="translate(-412.71 -101)"/><path d="M819.1,598.49c-1.92,1.63-3.69,4.31-5.81,4.64-2.84.43-6-1.17-5.75-5s2.62-5.42,6.42-5.38C817.23,592.74,818.42,594.34,819.1,598.49Z" transform="translate(-412.71 -101)"/><path d="M841.91,567.66c-2.6,1.29-5.1,3.13-7.85,3.7-2.54.52-4.4-1.46-3.82-4.26.69-3.32,3.14-5.16,6.47-4.54,1.84.34,3.44,2,5.15,3C841.88,566.25,841.89,567,841.91,567.66Z" transform="translate(-412.71 -101)"/><path d="M856.24,595.9l6.16,6.71c-1.51,1.34-2.89,3.57-4.57,3.82-2.9.44-6.31-.58-6.3-4.26C851.54,600.51,853.92,598.85,856.24,595.9Z" transform="translate(-412.71 -101)"/><path d="M735,584.45l6.33,6.53c-1.93,1.15-3.79,3.07-5.82,3.27-2.73.28-6.65-.11-6.29-4.08C729.37,588.41,732.39,586.9,735,584.45Z" transform="translate(-412.71 -101)"/><path d="M951.45,622.92c.77-5.11,2.15-8.14,6.41-7.88,1.4.09,3.63,1.6,3.84,2.76.28,1.61-.65,4.76-1.64,5C957.46,623.51,954.54,623,951.45,622.92Z" transform="translate(-412.71 -101)"/><path d="M891.14,586.89c-1.12.66-2.76,2.44-4.4,2.45-3.28,0-5.61-2.19-5.1-5.6a5.32,5.32,0,0,1,3.87-3.38C888.63,580.24,891.05,581.91,891.14,586.89Z" transform="translate(-412.71 -101)"/><path d="M695.64,595a67.87,67.87,0,0,1-6.54-6.74c-.18-.24,2.07-3.29,3.46-3.54,3.21-.59,5.9,1.14,6.2,4.53C698.88,590.74,697.16,592.37,695.64,595Z" transform="translate(-412.71 -101)"/><path d="M975.83,619.86c2.09,2.89,4.47,4.93,4.1,5.93-.83,2.18-3.06,3.82-4.72,5.69-1.61-1.6-4.62-3.32-4.49-4.76C970.9,624.7,973.41,622.89,975.83,619.86Z" transform="translate(-412.71 -101)"/><path d="M692.49,575.66l-6-6.69c1.7-1.38,3.2-3.43,5.13-4,2.67-.76,5.2.84,4.92,3.85C696.34,570.69,694.49,572.4,692.49,575.66Z" transform="translate(-412.71 -101)"/><path d="M766.84,579c3.89-4.09,6.73-4.44,9.37-.87.83,1.13.87,4,0,5C774.12,585.41,770.48,583.75,766.84,579Z" transform="translate(-412.71 -101)"/><path d="M498,643.41c2.28,2.84,4.87,4.67,4.82,6.43,0,1.54-2.92,4-4.82,4.25-3.41.53-3.86-2.84-3.62-5.22C494.48,647.32,496.21,645.92,498,643.41Z" transform="translate(-412.71 -101)"/><path d="M565.67,619.72l6.44,5.81c-1.93,1.47-3.69,3.59-5.84,4.12-1,.26-3.76-2.3-4-3.87S564,622.47,565.67,619.72Z" transform="translate(-412.71 -101)"/><path d="M661.84,548.63c-2.78,2.12-4,3.75-5.27,3.89-3.36.35-5.82-1.57-6.09-4.92-.09-1.17,2.35-3.76,2.92-3.57C655.88,544.86,658.1,546.48,661.84,548.63Z" transform="translate(-412.71 -101)"/><path d="M786,647.47l-5.46-4.57c1.37-1.51,2.87-4.36,4.08-4.24,2,.2,3.86,2.3,5.78,3.59Z" transform="translate(-412.71 -101)"/><path d="M632.88,596.86c-2,.93-3.9,2.52-5.87,2.56-1.38,0-2.8-2.07-4.2-3.22,1.65-1.44,3.14-3.7,5-4.05,1.47-.27,3.37,1.81,5.08,2.85C632.87,595.62,632.88,596.24,632.88,596.86Z" transform="translate(-412.71 -101)"/><path d="M969,595.4c-2.61,1.78-4.14,3.64-5.6,3.59s-2.9-2-4.34-3.11c1.47-1.46,2.73-3.6,4.48-4.13C964.65,591.42,966.47,593.58,969,595.4Z" transform="translate(-412.71 -101)"/><path d="M554.06,635.19c-1.49-1.92-3.51-3.92-3.24-4.29,1.1-1.56,2.79-3.31,4.48-3.59,1-.16,2.4,2.36,3.62,3.68Z" transform="translate(-412.71 -101)"/><path d="M631.21,577.82c-2.19,2-3.39,3.76-5,4.16-.88.22-2.35-1.86-3.55-2.9,1.3-1.31,2.42-3,4-3.76C627.38,575,629,576.52,631.21,577.82Z" transform="translate(-412.71 -101)"/><path d="M485.7,627.35c1.64-.69,2.73-1.5,3.79-1.46.6,0,1.14,1.46,1.7,2.26-1,.63-1.92,1.66-2.95,1.75C487.61,630,486.86,628.57,485.7,627.35Z" transform="translate(-412.71 -101)"/><path d="M778.57,175.27c-3.45.44-6.89,1.14-10.36,1.28-37.76,1.53-75.35,4.46-112.51,11.88-31,6.19-62.07,11.68-93,18.14-16.87,3.52-33.45,8.44-50.16,12.72-2.21.56-4.43,1.48-6.63,1.45-1.53,0-3.84-1-4.35-2.22s.46-3.42,1.45-4.66a7.22,7.22,0,0,1,4.07-2.13c17.15-3.3,34.31-6.61,51.51-9.67,19.22-3.42,38.52-6.44,57.73-9.91,12.95-2.34,25.74-5.6,38.73-7.68q28.56-4.58,57.31-7.95c12.83-1.5,25.77-2.12,38.67-2.92,7.26-.45,14.55-.53,21.82-.64a37.69,37.69,0,0,1,5.65.74Z" transform="translate(-412.71 -101)"/><path d="M622.14,179.18c-2.51.28-5,.91-7.53.79-27.66-1.44-53.94,5.59-80.26,12.65-11.15,3-22.45,5.4-33.7,8-5.72,1.33-11.45,2.61-17.21,3.7-1.87.36-3.86.06-6.3.06,1-4.81,4.21-6.08,7.43-6.86,11-2.67,22-5.07,33-7.61,19.17-4.42,38.23-9.49,57.55-13.09,14.45-2.69,29.25-4.09,44-.84a23.29,23.29,0,0,1,2.95,1.09C622.07,177.78,622.1,178.48,622.14,179.18Z" transform="translate(-412.71 -101)"/><path d="M699.17,165c4.77-.91,8.63-1.86,12.55-2.36,15.52-2,31-3.79,46.58-5.62q28.73-3.39,57.47-6.66c5.64-.63,11.3-1.09,17-1.52a16,16,0,0,1,5.4.27c1,.28,1.67,1.71,2.49,2.62-1.18.76-2.29,2-3.55,2.18-7.65,1-15.34,1.67-23,2.43-15.36,1.51-30.73,2.83-46.07,4.55-5.81.65-11.49,2.34-17.28,3.25-13,2-26,4-39,5.64C707.67,170.32,702.91,171.46,699.17,165Z" transform="translate(-412.71 -101)"/><path d="M540.52,547.52c-.53,1.57-.56,2.77-1.14,3.18-4.21,3-8.28,6.39-12.9,8.57-2.89,1.37-5.71-.6-6.3-4.22-.53-3.29.19-5.53,4.14-6.32,2.32-.47,4.23-2.69,6.53-3.59a14.32,14.32,0,0,1,6.78-1.14C538.8,544.16,539.69,546.43,540.52,547.52Z" transform="translate(-412.71 -101)"/><path d="M477.87,524.53l-5.1-4.38c1.29-1.38,2.35-3.19,3.93-4a30.67,30.67,0,0,1,7.1-2.19c2.74-.65,5.12-.17,5.61,3.12.46,3.1-.66,5.39-4.07,5.85-2.24.3-4.5.43-6.75.64Z" transform="translate(-412.71 -101)"/><path d="M511.37,524c-2.7-2.88-5.47-4.48-5.8-6.48-.57-3.46,2.3-5.26,5.65-5.29,3.2,0,6.5,1.26,5.93,4.9C516.82,519.26,514,521,511.37,524Z" transform="translate(-412.71 -101)"/><path d="M520.06,537.07c.11,2.29-1.46,4.19-4.72,4.47-3,.25-6.31-3-6.14-6,.18-3.2,2.07-5,5.29-4.95C517.94,530.64,520,532.46,520.06,537.07Z" transform="translate(-412.71 -101)"/><path d="M484,538.89c1.81,3.11,4.17,5.76,3.65,6.58a9.41,9.41,0,0,1-5.86,4c-3,.44-5.51-2-4.52-5C477.89,542.54,480.83,541.38,484,538.89Z" transform="translate(-412.71 -101)"/><path d="M540.11,517.1c2.06,3.49,4.33,5.63,4,7.17s-3.09,3.62-5,3.88c-1.29.18-4.4-2.78-4.16-3.61C535.55,522.34,537.56,520.53,540.11,517.1Z" transform="translate(-412.71 -101)"/><path d="M502.92,538.21c-2.74,1.13-4.49,2.53-5.49,2.11-1.74-.71-3-2.55-4.48-3.92,1.43-1.12,3.12-3.37,4.24-3.11C498.93,533.68,500.27,535.79,502.92,538.21Z" transform="translate(-412.71 -101)"/><path d="M466.08,491.05c-2.82,1.45-4.52,3-5.52,2.68-1.73-.62-3-2.45-4.49-3.77,1.24-1.13,2.69-3.33,3.67-3.14C461.56,487.17,463.1,488.93,466.08,491.05Z" transform="translate(-412.71 -101)"/></g><g id="Layer_2" data-name="Layer 2"><path d="M927.32,470.27a42,42,0,0,1,.56,6.86c-.1,1.51-.75,3.62-1.84,4.25s-3.17,0-4.76-.31c-1.34-.26-3-1.6-3.88-1.18C900.79,487.37,883,488,865.29,489c-15.82,1-31.65,1.89-47.46,3.05-3.54.26-7,1.6-10.53,2.17-11.47,1.86-23,3.56-34.44,5.37-9.05,1.42-18.08,3-27.16,4.31-11.21,1.6-22.35,3.57-33.86,2-7.2-1-14.67,0-21.88-.9-4.8-.62-9.31-3.21-14-4.72-6.21-2-12.49-3.77-18.73-5.69a59.88,59.88,0,0,1-8.77-3.07,5.17,5.17,0,0,1-2.22-3.74c-.57-7.57-.67-15.18-1.26-22.75-1-13.33-2.23-26.65.41-39.91,1.77-8.85,3.21-17.85,6-26.39,3-9.3,7.14-18.27,11.28-27.15,4.92-10.56,9.79-21.23,15.82-31.16a46.07,46.07,0,0,1,14-14.72,374.68,374.68,0,0,1,40.73-22.95c15.72-7.43,32.08-13.6,48.42-19.59,6-2.21,12.79-2.37,19.22-3.43,4.43-.72,8.88-1.3,13.29-2.08,12.69-2.27,24.34.88,35.8,6.13,13.42,6.15,21.85,17.77,31.62,27.94,6,6.28,10,13.78,13.25,21.87,3.47,8.63,8.21,16.76,11.72,25.38a152.75,152.75,0,0,1,10,40.4c1.8,15.68,4.06,31.3,6.09,46.95.71,5.41,1.09,10.88,2.11,16.23.51,2.64,2.15,5.07,3.28,7.59ZM651.89,485.91c7.41,2.17,14.67,4.29,21.93,6.44,6.11,1.81,12.09,4.43,18.33,5.34,16.83,2.47,33.67,3.12,50.53-.74,8.91-2,18.12-2.72,27.19-4.06,11.63-1.73,23.21-3.93,34.89-5.18,18.29-1.95,36.64-3.26,55-4.87,8.52-.75,17.06-1.25,25.52-2.42,5.77-.79,11.64-.88,17.08-4.12,3.84-2.29,8.75-2.78,13.16-4.11,3-.91,4.09-2.69,3.37-6a120.65,120.65,0,0,1-2.4-15.58c-.75-9.14-.5-18.41-1.77-27.47-2.06-14.76-4.59-29.48-7.72-44-2-9.09-4.43-18.31-8.37-26.67-6.06-12.88-12-26-21-37.27-8.46-10.59-18.25-19.88-30.07-26.33-12.09-6.61-25.19-7.14-39.1-5.54-25.65,2.94-48.76,12.51-71.71,23.24A300.49,300.49,0,0,0,700,327c-10.55,6.87-17.85,16.11-23.33,26.85a362.16,362.16,0,0,0-17.11,37.93,168.76,168.76,0,0,0-9.29,34.27C647.4,445.91,649.27,465.9,651.89,485.91Z" transform="translate(-412.71 -101)"/><path d="M651.89,485.91c-2.62-20-4.49-40-1.58-59.86a168.76,168.76,0,0,1,9.29-34.27,362.16,362.16,0,0,1,17.11-37.93c5.48-10.74,12.78-20,23.33-26.85a300.49,300.49,0,0,1,36.66-20.49c22.95-10.73,46.06-20.3,71.71-23.24,13.91-1.6,27-1.07,39.1,5.54,11.82,6.45,21.61,15.74,30.07,26.33,9,11.29,14.95,24.39,21,37.27,3.94,8.36,6.41,17.58,8.37,26.67,3.13,14.56,5.66,29.28,7.72,44,1.27,9.06,1,18.33,1.77,27.47a120.65,120.65,0,0,0,2.4,15.58c.72,3.33-.34,5.11-3.37,6-4.41,1.33-9.32,1.82-13.16,4.11-5.44,3.24-11.31,3.33-17.08,4.12-8.46,1.17-17,1.67-25.52,2.42-18.32,1.61-36.67,2.92-55,4.87-11.68,1.25-23.26,3.45-34.89,5.18-9.07,1.34-18.28,2-27.19,4.06-16.86,3.86-33.7,3.21-50.53.74-6.24-.91-12.22-3.53-18.33-5.34C666.56,490.2,659.3,488.08,651.89,485.91ZM786.51,361.63a23.59,23.59,0,0,0,22.3,24.8,129,129,0,0,0,20.48-1.09c10.62-1.19,21.24-2.51,31.75-4.42,6.42-1.16,15.63-12.07,16.29-18,.94-8.48.59-16.88-2-25-2.87-9-8.57-15.54-18.37-16.33-6.25-.5-12.62.89-19,1.18a66.08,66.08,0,0,0-39.41,15C791.12,343.83,786.72,351.75,786.51,361.63Zm-63.77-32.46c-10-.1-17.31.92-23.68,5.64-2.38,1.76-4.58,3.64-2.77,7,1.25,2.3-.18,3.22-1.65,4.59-4.2,3.91-8.34,7.89-12.22,12.12-7.46,8.11-6.7,17.31-2.59,26.53,3.12,7,7.48,13.41,15.82,14.33,9.72,1.07,19.75.38,27.93-5.29,9.49-6.57,18-14.28,21.36-26.39,2.32-8.48,1.69-16.65.21-25-1-5.66-4.16-9.51-9.58-11C730.64,330.33,725.52,329.69,722.74,329.17Zm50.32,127.32,1,1.56c-3.6,3-7.31,5.95-10.74,9.17-1.06,1-2.15,3-1.8,4.17s2.32,2.39,3.76,2.7,3-.52,4.51-.93c4.35-1.21,8.64-2.68,13.05-3.58,1.38-.29,3.06.91,4.6,1.43-.52,1.51-.65,3.42-1.67,4.46a14.45,14.45,0,0,1-5.42,3.44c-4.7,1.62-9.56,2.76-14.28,4.32-1.24.41-2.19,1.66-3.28,2.53,1.43.53,3,1.76,4.27,1.48,5.91-1.34,11.72-3.16,17.6-4.67,5.14-1.33,8.27-4.7,10.25-9.44,3-7.17.73-10.31-7.13-9.49-4.29.45-8.53,1.25-13.78,2.05,2-2.23,3.53-3.75,4.87-5.42s3.27-3.59,4-5.7c.53-1.59-.07-3.89-.93-5.44-.39-.7-2.87-.9-4-.42-4.87,2.07-9.51,4.67-14.39,6.7a136.65,136.65,0,0,1-15.28,5.42c-2.55.71-4.13,1.54-3.58,4.29.57,2.92,2.73,3.27,5.05,2.34s4.73-2.41,7.14-3.53C762.24,461.41,767.65,459,773.06,456.49Zm-32.12-38.44a3.67,3.67,0,0,0-3.05,5.92,131.65,131.65,0,0,0,9.2,11.61c.56.65,2.74,1,3,.58.66-.92,1.24-2.62.8-3.49A131.69,131.69,0,0,0,744.23,421C743.37,419.68,741.8,418.8,740.94,418.05ZM789,435.23c-.68-4.76-.85-8.33-1.82-11.66-.38-1.33-2.51-2.14-3.85-3.19-1.28,1.75-3.8,3.67-3.58,5.21.47,3.43,2.11,6.78,3.72,9.93a4.36,4.36,0,0,0,3.65,1.94C788.18,437.25,788.9,435.38,789,435.23Z" transform="translate(-412.71 -101)" fill="#330"/><path d="M786.51,361.63c.21-9.88,4.61-17.8,12.08-23.85a66.08,66.08,0,0,1,39.41-15c6.33-.29,12.7-1.68,19-1.18,9.8.79,15.5,7.3,18.37,16.33,2.6,8.16,2.95,16.56,2,25-.66,5.9-9.87,16.81-16.29,18-10.51,1.91-21.13,3.23-31.75,4.42a129,129,0,0,1-20.48,1.09A23.59,23.59,0,0,1,786.51,361.63Zm86.37-6.69c-.64-3.82-1.35-7.63-1.91-11.46-1.63-11.34-13.69-19.59-24.75-16.52a173.53,173.53,0,0,0-17.6,6.23c-2.66,1.06-4.85,1.41-7.51-.12a6,6,0,0,0-5-.28c-8.18,4.32-15.79,9.35-21,17.43-5,7.74-4.46,23.12,7.21,28.11A33.41,33.41,0,0,0,821,381c10-1.5,20.18-2,30.22-3.4S874.77,365.9,872.88,354.94Z" transform="translate(-412.71 -101)"/><path d="M722.74,329.17c2.78.52,7.9,1.16,12.83,2.5,5.42,1.47,8.58,5.32,9.58,11,1.48,8.37,2.11,16.54-.21,25-3.31,12.11-11.87,19.82-21.36,26.39-8.18,5.67-18.21,6.36-27.93,5.29-8.34-.92-12.7-7.33-15.82-14.33-4.11-9.22-4.87-18.42,2.59-26.53,3.88-4.23,8-8.21,12.22-12.12,1.47-1.37,2.9-2.29,1.65-4.59-1.81-3.33.39-5.21,2.77-7C705.43,330.09,712.77,329.07,722.74,329.17Zm-13.37,5.74c0,.51,0,1-.07,1.52,3.65,3.25,3.76,4.91.9,6.75-6.26,4-12.62,7.95-18.5,12.49-9.78,7.54-11.65,15-6.93,26.13,2.08,4.9,4.54,10.13,10.2,11.55a34,34,0,0,0,22.76-2.06c14.44-6.75,22.85-18.59,23.68-34.42.71-13.53-1.49-21.36-18.8-22.38C718.22,334.24,713.79,334.75,709.37,334.91Z" transform="translate(-412.71 -101)"/><path d="M773.06,456.49c-5.41,2.47-10.82,4.92-16.21,7.44-2.41,1.12-4.68,2.54-7.14,3.53s-4.48.58-5.05-2.34c-.55-2.75,1-3.58,3.58-4.29a136.65,136.65,0,0,0,15.28-5.42c4.88-2,9.52-4.63,14.39-6.7,1.15-.48,3.63-.28,4,.42.86,1.55,1.46,3.85.93,5.44-.7,2.11-2.5,3.89-4,5.7s-2.85,3.19-4.87,5.42c5.25-.8,9.49-1.6,13.78-2.05,7.86-.82,10.12,2.32,7.13,9.49-2,4.74-5.11,8.11-10.25,9.44-5.88,1.51-11.69,3.33-17.6,4.67-1.25.28-2.84-.95-4.27-1.48,1.09-.87,2-2.12,3.28-2.53,4.72-1.56,9.58-2.7,14.28-4.32a14.45,14.45,0,0,0,5.42-3.44c1-1,1.15-3,1.67-4.46-1.54-.52-3.22-1.72-4.6-1.43-4.41.9-8.7,2.37-13.05,3.58-1.5.41-3.13,1.22-4.51.93s-3.39-1.49-3.76-2.7.74-3.18,1.8-4.17c3.43-3.22,7.14-6.14,10.74-9.17Z" transform="translate(-412.71 -101)"/><path d="M740.94,418.05c.86.75,2.43,1.63,3.29,3a131.69,131.69,0,0,1,6.67,11.65c.44.87-.14,2.57-.8,3.49-.27.38-2.45.07-3-.58a131.65,131.65,0,0,1-9.2-11.61A3.67,3.67,0,0,1,740.94,418.05Z" transform="translate(-412.71 -101)"/><path d="M789,435.23c-.11.15-.83,2-1.88,2.23a4.36,4.36,0,0,1-3.65-1.94c-1.61-3.15-3.25-6.5-3.72-9.93-.22-1.54,2.3-3.46,3.58-5.21,1.34,1.05,3.47,1.86,3.85,3.19C788.16,426.9,788.33,430.47,789,435.23Z" transform="translate(-412.71 -101)"/><path d="M872.88,354.94c1.89,11-11.75,21.27-21.69,22.68S831,379.52,821,381a33.41,33.41,0,0,1-18.62-2.69c-11.67-5-12.17-20.37-7.21-28.11,5.17-8.08,12.78-13.11,21-17.43a6,6,0,0,1,5,.28c2.66,1.53,4.85,1.18,7.51.12a173.53,173.53,0,0,1,17.6-6.23c11.06-3.07,23.12,5.18,24.75,16.52C871.53,347.31,872.24,351.12,872.88,354.94Zm-39.65-7.09.94-.63c0-.78,0-1.56,0-2.34.08-3.26-1.52-6.22-4.57-5.74-2,.31-4.61,3.43-5,5.67-1.53,7.87-2.95,9.64-11.3,10.86-2.79.4-4.62,1.6-4.68,4.76-.08,4.15,1.26,5.22,6.42,4.88,6.79-.43,6.86-.44,7.65,5.82.42,3.29,1.77,6.06,5.26,6s5-2.91,5-6.22,1-5.21,4.07-7c5.11-2.91,4.66-7.15-.08-10.64C835.23,352.07,834.43,349.7,833.23,347.85Z" transform="translate(-412.71 -101)" fill="#f96"/><path d="M709.37,334.91c4.42-.16,8.85-.67,13.24-.42,17.31,1,19.51,8.85,18.8,22.38-.83,15.83-9.24,27.67-23.68,34.42A34,34,0,0,1,695,393.35c-5.66-1.42-8.12-6.65-10.2-11.55-4.72-11.17-2.85-18.59,6.93-26.13,5.88-4.54,12.24-8.48,18.5-12.49,2.86-1.84,2.75-3.5-.9-6.75C709.32,335.92,709.35,335.42,709.37,334.91Zm-3.2,27.47c-3.85,1.7-10.48.41-9.8,7.41.48,4.86,4.74,4.47,9,3.87,0,2,.09,3.72,0,5.39-.23,3.73,2,5.08,5.18,5.19,3.55.12,4.56-2.55,5.46-5.38.61-1.93,1.16-4.52,2.62-5.44,5.77-3.66,6.39-6.36,1.14-10.55-2.46-2-3.2-4-2.71-6.85a14.18,14.18,0,0,0,.05-3.74c-.27-2.58-1.33-4.82-4.3-4.46-2.61.31-5.2,1-5.34,4.71A96.78,96.78,0,0,1,706.17,362.38Z" transform="translate(-412.71 -101)" fill="#ff3"/><path d="M833.23,347.85c1.2,1.85,2,4.22,3.66,5.44,4.74,3.49,5.19,7.73.08,10.64-3.1,1.76-4.07,3.76-4.07,7s-1.49,6.15-5,6.22-4.84-2.7-5.26-6c-.79-6.26-.86-6.25-7.65-5.82-5.16.34-6.5-.73-6.42-4.88.06-3.16,1.89-4.36,4.68-4.76,8.35-1.22,9.77-3,11.3-10.86.43-2.24,3.05-5.36,5-5.67,3-.48,4.65,2.48,4.57,5.74,0,.78,0,1.56,0,2.34Z" transform="translate(-412.71 -101)"/><path d="M706.17,362.38a96.78,96.78,0,0,0,1.29-9.85c.14-3.69,2.73-4.4,5.34-4.71,3-.36,4,1.88,4.3,4.46a14.18,14.18,0,0,1-.05,3.74c-.49,2.89.25,4.88,2.71,6.85,5.25,4.19,4.63,6.89-1.14,10.55-1.46.92-2,3.51-2.62,5.44-.9,2.83-1.91,5.5-5.46,5.38-3.17-.11-5.41-1.46-5.18-5.19.1-1.67,0-3.35,0-5.39-4.26.6-8.52,1-9-3.87C695.69,362.79,702.32,364.08,706.17,362.38Z" transform="translate(-412.71 -101)"/></g></svg>