<svg id="Layer_1" data-name="Layer 1" xmlns="http://www.w3.org/2000/svg" viewBox="0 0 332 268.18"><path d="M913.9,458.87c.26,2.67.84,5.37.66,8-.12,1.77-.88,4.24-2.16,5s-3.69,0-5.55-.37c-1.57-.3-3.46-1.86-4.54-1.37-19.4,8.73-40.18,9.41-60.86,10.67-18.49,1.12-37,2.2-55.44,3.56-4.14.3-8.17,1.86-12.3,2.53-13.4,2.17-26.82,4.16-40.23,6.27-10.58,1.66-21.13,3.53-31.73,5-13.1,1.87-26.11,4.17-39.54,2.31-8.41-1.16-17.14,0-25.57-1.06-5.6-.72-10.88-3.74-16.37-5.51-7.26-2.32-14.6-4.4-21.88-6.65a70.57,70.57,0,0,1-10.25-3.57,6.06,6.06,0,0,1-2.59-4.37c-.67-8.85-.79-17.74-1.47-26.59-1.21-15.56-2.6-31.13.48-46.61,2.06-10.34,3.74-20.85,7-30.83,3.53-10.85,8.34-21.33,13.18-31.71,5.75-12.34,11.43-24.8,18.47-36.4A54.13,54.13,0,0,1,639.56,290a435.22,435.22,0,0,1,47.58-26.8c18.36-8.69,37.47-15.89,56.56-22.9,7-2.57,14.94-2.76,22.45-4,5.17-.84,10.37-1.51,15.53-2.43,14.81-2.64,28.43,1,41.81,7.16,15.68,7.19,25.52,20.76,36.93,32.64,7.06,7.34,11.68,16.1,15.48,25.54,4.06,10.09,9.6,19.58,13.69,29.65a179.11,179.11,0,0,1,11.7,47.2c2.1,18.31,4.73,36.55,7.11,54.83.82,6.32,1.27,12.71,2.47,19,.59,3.09,2.51,5.92,3.82,8.87ZM592.18,477.14c8.65,2.54,17.13,5,25.61,7.52,7.13,2.12,14.12,5.18,21.41,6.24,19.65,2.88,39.33,3.64,59-.86,10.4-2.38,21.16-3.18,31.76-4.75,13.58-2,27.11-4.59,40.75-6.05,21.36-2.28,42.8-3.81,64.2-5.69,9.95-.87,19.93-1.46,29.81-2.82,6.73-.93,13.59-1,20-4.82,4.49-2.67,10.21-3.24,15.37-4.8,3.53-1.06,4.77-3.14,3.93-7a141.69,141.69,0,0,1-2.79-18.19c-.89-10.69-.59-21.51-2.07-32.09-2.41-17.24-5.36-34.44-9-51.45-2.29-10.62-5.18-21.38-9.77-31.15-7.09-15.05-14-30.35-24.55-43.54-9.88-12.37-21.32-23.21-35.13-30.75-14.12-7.72-29.41-8.35-45.67-6.48-30,3.45-57,14.62-83.76,27.15a350.72,350.72,0,0,0-42.82,23.94c-12.32,8-20.85,18.81-27.25,31.36a427.18,427.18,0,0,0-20,44.31c-4.81,12.92-8.85,26.43-10.85,40C586.93,430.42,589.12,453.76,592.18,477.14Z" transform="translate(-582.69 -233)"/><path d="M592.18,477.14c-3.06-23.38-5.25-46.72-1.86-69.92,2-13.6,6-27.11,10.85-40a427.18,427.18,0,0,1,20-44.31c6.4-12.55,14.93-23.34,27.25-31.36a350.72,350.72,0,0,1,42.82-23.94C718,255.05,745,243.88,775,240.43c16.26-1.87,31.55-1.24,45.67,6.48,13.81,7.54,25.25,18.38,35.13,30.75,10.54,13.19,17.46,28.49,24.55,43.54,4.59,9.77,7.48,20.53,9.77,31.15,3.66,17,6.61,34.21,9,51.45,1.48,10.58,1.18,21.4,2.07,32.09A141.69,141.69,0,0,0,904,454.08c.84,3.89-.4,6-3.93,7-5.16,1.56-10.88,2.13-15.37,4.8-6.36,3.78-13.22,3.89-20,4.82-9.88,1.36-19.86,1.95-29.81,2.82-21.4,1.88-42.84,3.41-64.2,5.69-13.64,1.46-27.17,4-40.75,6.05-10.6,1.57-21.36,2.37-31.76,4.75-19.7,4.5-39.38,3.74-59,.86-7.29-1.06-14.28-4.12-21.41-6.24C609.31,482.15,600.83,479.68,592.18,477.14ZM749.42,332a27.56,27.56,0,0,0,26.05,29c7.94.39,16-.39,23.92-1.28,12.4-1.39,24.81-2.93,37.09-5.15,7.5-1.36,18.26-14.1,19-21,1.11-9.9.7-19.72-2.34-29.25-3.35-10.55-10-18.15-21.46-19.07-7.29-.58-14.74,1-22.14,1.38a77.19,77.19,0,0,0-46,17.54C754.8,311.18,749.67,320.43,749.42,332Zm-74.48-37.92c-11.65-.11-20.23,1.07-27.67,6.59-2.78,2.06-5.34,4.25-3.23,8.14,1.46,2.69-.22,3.77-1.93,5.37-4.9,4.56-9.75,9.22-14.28,14.15-8.7,9.48-7.82,20.22-3,31,3.64,8.17,8.74,15.66,18.48,16.74,11.36,1.25,23.06.44,32.62-6.17,11.08-7.68,21.08-16.69,25-30.83,2.71-9.91,2-19.46.25-29.23-1.17-6.61-4.85-11.11-11.2-12.83C684.16,295.41,678.18,294.66,674.94,294.05Zm58.77,148.72c.4.61.8,1.22,1.19,1.83-4.2,3.54-8.54,6.95-12.54,10.7-1.25,1.17-2.52,3.56-2.11,4.88s2.71,2.79,4.4,3.15,3.52-.6,5.26-1.09c5.08-1.41,10.1-3.12,15.25-4.18,1.61-.33,3.57,1.06,5.37,1.67-.61,1.77-.76,4-1.95,5.22a16.91,16.91,0,0,1-6.33,4c-5.49,1.9-11.17,3.22-16.68,5.05-1.44.48-2.56,1.94-3.83,2.95,1.67.62,3.53,2.06,5,1.73,6.91-1.56,13.69-3.68,20.56-5.45,6-1.55,9.66-5.49,12-11,3.5-8.39.86-12.05-8.32-11.09-5,.52-10,1.46-16.1,2.39,2.36-2.61,4.13-4.39,5.69-6.33,1.71-2.12,3.82-4.2,4.64-6.66.62-1.85-.08-4.54-1.09-6.35-.46-.82-3.36-1.06-4.69-.49-5.69,2.41-11.11,5.46-16.81,7.83a157.65,157.65,0,0,1-17.85,6.32c-3,.83-4.82,1.8-4.19,5,.67,3.41,3.2,3.82,5.91,2.72s5.53-2.81,8.33-4.12C721.07,448.53,727.4,445.66,733.71,442.77Zm-37.52-44.9c-3.72-.15-5.65,3.86-3.56,6.92a155.49,155.49,0,0,0,10.74,13.56c.66.76,3.21,1.12,3.52.68.78-1.07,1.44-3.07.94-4.08a152.83,152.83,0,0,0-7.8-13.61C699,399.78,697.19,398.74,696.19,397.87Zm56.15,20.07c-.79-5.56-1-9.72-2.12-13.62-.45-1.55-2.94-2.5-4.5-3.72-1.49,2-4.44,4.28-4.19,6.08.56,4,2.47,7.92,4.35,11.6a5.08,5.08,0,0,0,4.27,2.26C751.37,420.3,752.21,418.11,752.34,417.94Z" transform="translate(-582.69 -233)" fill="#330"/><path d="M749.42,332c.25-11.54,5.38-20.79,14.11-27.86a77.19,77.19,0,0,1,46-17.54c7.4-.35,14.85-2,22.14-1.38,11.45.92,18.11,8.52,21.46,19.07,3,9.53,3.45,19.35,2.34,29.25-.76,6.9-11.52,19.64-19,21-12.28,2.22-24.69,3.76-37.09,5.15-7.93.89-16,1.67-23.92,1.28A27.56,27.56,0,0,1,749.42,332Zm100.89-7.81c-.75-4.46-1.58-8.91-2.23-13.39-1.91-13.24-16-22.89-28.91-19.3a202.47,202.47,0,0,0-20.56,7.28c-3.11,1.23-5.67,1.65-8.77-.15a7.12,7.12,0,0,0-5.86-.32c-9.55,5.05-18.44,10.93-24.48,20.36-5.79,9-5.21,27,8.42,32.84a38.93,38.93,0,0,0,21.75,3.13c11.7-1.74,23.58-2.3,35.3-4S852.52,337,850.31,324.16Z" transform="translate(-582.69 -233)"/><path d="M674.94,294.05c3.24.61,9.22,1.36,15,2.92,6.35,1.72,10,6.22,11.2,12.83,1.73,9.77,2.46,19.32-.25,29.23-3.87,14.14-13.87,23.15-25,30.83-9.56,6.61-21.26,7.42-32.62,6.17-9.74-1.08-14.84-8.57-18.48-16.74-4.8-10.77-5.68-21.51,3-31,4.53-4.93,9.38-9.59,14.28-14.15,1.71-1.6,3.39-2.68,1.93-5.37-2.11-3.89.45-6.08,3.23-8.14C654.71,295.12,663.29,293.94,674.94,294.05Zm-15.62,6.71-.09,1.77c4.26,3.79,4.4,5.74,1.06,7.88-7.32,4.7-14.75,9.29-21.62,14.59-11.42,8.82-13.61,17.48-8.09,30.53,2.42,5.73,5.31,11.84,11.92,13.49a39.73,39.73,0,0,0,26.58-2.4c16.87-7.89,26.69-21.72,27.66-40.21.83-15.8-1.74-25-22-26.14C669.65,300,664.47,300.57,659.32,300.76Z" transform="translate(-582.69 -233)"/><path d="M733.71,442.77c-6.31,2.89-12.64,5.76-18.94,8.69-2.8,1.31-5.47,3-8.33,4.12s-5.24.69-5.91-2.72c-.63-3.22,1.21-4.19,4.19-5a157.65,157.65,0,0,0,17.85-6.32c5.7-2.37,11.12-5.42,16.81-7.83,1.33-.57,4.23-.33,4.69.49,1,1.81,1.71,4.5,1.09,6.35-.82,2.46-2.93,4.54-4.64,6.66-1.56,1.94-3.33,3.72-5.69,6.33,6.13-.93,11.09-1.87,16.1-2.39,9.18-1,11.82,2.7,8.32,11.09-2.31,5.53-6,9.47-12,11-6.87,1.77-13.65,3.89-20.56,5.45-1.45.33-3.31-1.11-5-1.73,1.27-1,2.39-2.47,3.83-2.95,5.51-1.83,11.19-3.15,16.68-5.05a16.91,16.91,0,0,0,6.33-4c1.19-1.22,1.34-3.45,1.95-5.22-1.8-.61-3.76-2-5.37-1.67-5.15,1.06-10.17,2.77-15.25,4.18-1.74.49-3.65,1.43-5.26,1.09s-4-1.73-4.4-3.15.86-3.71,2.11-4.88c4-3.75,8.34-7.16,12.54-10.7C734.51,444,734.11,443.38,733.71,442.77Z" transform="translate(-582.69 -233)"/><path d="M696.19,397.87c1,.87,2.84,1.91,3.84,3.47a152.83,152.83,0,0,1,7.8,13.61c.5,1-.16,3-.94,4.08-.31.44-2.86.08-3.52-.68a155.49,155.49,0,0,1-10.74-13.56C690.54,401.73,692.47,397.72,696.19,397.87Z" transform="translate(-582.69 -233)"/><path d="M752.34,417.94c-.13.17-1,2.36-2.19,2.6a5.08,5.08,0,0,1-4.27-2.26c-1.88-3.68-3.79-7.59-4.35-11.6-.25-1.8,2.7-4,4.19-6.08,1.56,1.22,4,2.17,4.5,3.72C751.34,408.22,751.55,412.38,752.34,417.94Z" transform="translate(-582.69 -233)"/><path d="M850.31,324.16C852.52,337,836.58,349,825,350.65s-23.6,2.22-35.3,4a38.93,38.93,0,0,1-21.75-3.13c-13.63-5.84-14.21-23.8-8.42-32.84,6-9.43,14.93-15.31,24.48-20.36a7.12,7.12,0,0,1,5.86.32c3.1,1.8,5.66,1.38,8.77.15a202.47,202.47,0,0,1,20.56-7.28c12.92-3.59,27,6.06,28.91,19.3C848.73,315.25,849.56,319.7,850.31,324.16ZM804,315.87l1.09-.74c0-.91,0-1.82,0-2.73.09-3.8-1.78-7.26-5.34-6.7-2.33.36-5.39,4-5.9,6.62-1.78,9.19-3.44,11.26-13.19,12.68-3.26.48-5.4,1.88-5.47,5.57-.09,4.84,1.47,6.09,7.5,5.7,7.93-.51,8-.52,8.94,6.8.49,3.84,2.06,7.07,6.14,7s5.84-3.39,5.83-7.26,1.13-6.09,4.75-8.15c6-3.39,5.45-8.35-.09-12.43C806.34,320.8,805.39,318,804,315.87Z" transform="translate(-582.69 -233)" fill="#f96"/><path d="M659.32,300.76c5.15-.19,10.33-.79,15.46-.49,20.22,1.18,22.79,10.34,22,26.14-1,18.49-10.79,32.32-27.66,40.21A39.73,39.73,0,0,1,642.5,369c-6.61-1.65-9.5-7.76-11.92-13.49-5.52-13-3.33-21.71,8.09-30.53,6.87-5.3,14.3-9.89,21.62-14.59,3.34-2.14,3.2-4.09-1.06-7.88Zm-3.74,32.09c-4.5,2-12.25.47-11.45,8.65.56,5.68,5.54,5.22,10.52,4.52,0,2.38.1,4.35,0,6.3-.27,4.36,2.35,5.93,6.06,6.06,4.14.14,5.31-3,6.37-6.29.71-2.25,1.36-5.28,3.05-6.35,6.75-4.28,7.48-7.43,1.35-12.32-2.89-2.3-3.75-4.63-3.17-8a16.39,16.39,0,0,0,.05-4.37c-.31-3-1.55-5.63-5-5.21-3,.36-6.08,1.19-6.23,5.51C657,325.13,656.12,328.89,655.58,332.85Z" transform="translate(-582.69 -233)" fill="#ff3"/><path d="M804,315.87c1.39,2.16,2.34,4.93,4.27,6.35,5.54,4.08,6.06,9,.09,12.43-3.62,2.06-4.75,4.4-4.75,8.15s-1.74,7.18-5.83,7.26-5.65-3.15-6.14-7c-.93-7.32-1-7.31-8.94-6.8-6,.39-7.59-.86-7.5-5.7.07-3.69,2.21-5.09,5.47-5.57,9.75-1.42,11.41-3.49,13.19-12.68.51-2.61,3.57-6.26,5.9-6.62,3.56-.56,5.43,2.9,5.34,6.7,0,.91,0,1.82,0,2.73Z" transform="translate(-582.69 -233)"/><path d="M655.58,332.85c.54-4,1.37-7.72,1.51-11.5.15-4.32,3.19-5.15,6.23-5.51,3.47-.42,4.71,2.2,5,5.21a16.39,16.39,0,0,1-.05,4.37c-.58,3.37.28,5.7,3.17,8,6.13,4.89,5.4,8-1.35,12.32-1.69,1.07-2.34,4.1-3.05,6.35-1.06,3.31-2.23,6.43-6.37,6.29-3.71-.13-6.33-1.7-6.06-6.06.12-1.95,0-3.92,0-6.3-5,.7-10,1.16-10.52-4.52C643.33,333.32,651.08,334.83,655.58,332.85Z" transform="translate(-582.69 -233)"/></svg>