<svg id="Layer_1" data-name="Layer 1" xmlns="http://www.w3.org/2000/svg" viewBox="0 0 677.42 239.43"><path d="M997.73,421.47c.93.55,1,1.55,1.25,2.46a8.43,8.43,0,0,1,.13,1.42c.17,2.47,1,4.39,3.54,5.41,1.28.51,2.25,1.72,3.75,2a10.73,10.73,0,0,0,5.42-.41,10.29,10.29,0,0,1,3.24-.7,9.54,9.54,0,0,1,3.19.8,1.77,1.77,0,0,1,1.32,2,3.62,3.62,0,0,1-1.54,2,9.15,9.15,0,0,1-6.21,1.13,2.65,2.65,0,0,0-3.18,1.43c-.37.66-1.14,1.09-1.67,1.68a7.5,7.5,0,0,0-1.59,2.06,16.51,16.51,0,0,1-3.75,5.48c-1.13,1.21-2.39,2.31-3.75,3.61-1-.69-2-1.26-2.35-2.42-.82-2.74-2-5.39-2.16-8.3-.06-1,0-2.06,0-3.23l-1.87-.47c-.21-.95-.42-1.94-.67-3.09.68-.94,1.44-2,2.17-3a13,13,0,0,0,2.52-6.86C995.62,422.58,995.75,422.5,997.73,421.47Z" transform="translate(-344.51 -264.11)" fill="#b3a49e"/><path d="M992.15,449c1.68,1.37,1.78,3.42,3.59,4.77-2.66,1.86-4.83,3.5-7.86,4.24C988.63,454.46,990.48,451.86,992.15,449Z" transform="translate(-344.51 -264.11)" fill="#100703"/><path d="M983.32,439.13c.61-.4,1.28-.75,1.9-1.09a34.56,34.56,0,0,1,3.76-1.61c.6,2.22,1.22,4.32,1.72,6.44a4.92,4.92,0,0,1-.16,2.75,31.59,31.59,0,0,1-2.31,5.18c-.53,1-1,2.06-1.5,3.14l-2.78-.51a9.91,9.91,0,0,0,1.06-3.19c.55-3.46,1.11-6.92,1.65-10.38a3.46,3.46,0,0,0-.23-.92c-.21.16-.43.29-.61.42Z" transform="translate(-344.51 -264.11)" fill="#fff"/><path d="M981.15,456.62a9.45,9.45,0,0,0,2.8-3.19l2.78.51c-.79,1.79-1.55,3.66-2.43,5.65l-5.16,1.64C979.46,459.27,979.62,457.75,981.15,456.62Z" transform="translate(-344.51 -264.11)" fill="#fff"/><path d="M981.79,440.53a5.58,5.58,0,0,1,1.53-1.4l2.5.23a1.43,1.43,0,0,0-.44.4,2.25,2.25,0,0,0-.28,1.15,24.74,24.74,0,0,1-1.73,7.89,16.68,16.68,0,0,1-2.06,3.71c-.88,1.3-2,2.43-2.89,3.75a10.71,10.71,0,0,0-1,2.65c-.26.82-.44,1.67-.67,2.61l-3,.31a1.72,1.72,0,0,1-.36-2.17c1.52-3.76,2.66-7.66,4.07-11.46A36.17,36.17,0,0,1,981.79,440.53Z" transform="translate(-344.51 -264.11)" fill="#100703"/><path d="M981.85,378.67c-1.79-2,.86-3.32.57-5.32.28,2,1.1,2.91,1.63,1.56C983.55,376.37,983.62,378.05,981.85,378.67Z" transform="translate(-344.51 -264.11)" fill="#666"/><path d="M968.33,371.76c0,1.2,5.25,3.08,5.76.2-.51,2.88-1.85,3.53-5.76,3Z" transform="translate(-344.51 -264.11)" fill="#666"/><path d="M969.82,443.06l2.65-.14a13.27,13.27,0,0,1-1.88,4.49c-.82,1.53-1.86,2.94-2.8,4.42a20.19,20.19,0,0,0-1.21,2.06c-1.63,3.43-3.22,6.88-4.83,10.32l-4.66.64a13,13,0,0,1,.62-1.52c2-3.42,4-6.83,5.7-10.44a64.06,64.06,0,0,1,4.73-7.42C968.62,444.74,969.13,444,969.82,443.06Z" transform="translate(-344.51 -264.11)" fill="#fff"/><path d="M974.63,394.75c-2.38,1.86-5.13.83-7.86,1.08.86-2.43,1.59-4.5,2.33-6.57C971.22,389.67,973.78,392.15,974.63,394.75Z" transform="translate(-344.51 -264.11)" fill="#fff"/><path d="M955.71,462.39c-1.28,2.73-3.17,3.4-6.05,2.41a9,9,0,0,1,1.66-3.6c.66-1.08,1.3-2.18,2.06-3.19a13.51,13.51,0,0,0,2.06-4.27,15.07,15.07,0,0,1,1.2-2.58c.62-1.19,1.24-2.39,1.94-3.54.93-1.54,1.94-3,2.91-4.55l5,.65c-1.1,2.1-1.85,4.07-2.91,5.92C961.09,454,957.86,457.84,955.71,462.39Z" transform="translate(-344.51 -264.11)" fill="#1b0320"/><path d="M966,460.46c.64-1.63,1.21-3.28,1.8-4.93.43-1.23.93-2.4,2.47-2.83a3.53,3.53,0,0,1,.83-3.32,17.26,17.26,0,0,0,1.28-2.27c.86-1.43,1.72-2.85,2.64-4.23.39-.59.76-.64,2.88-.83a22.57,22.57,0,0,1-.7,2.47c-2,4.92-4.08,9.83-6.12,14.75a9.82,9.82,0,0,1-.43,1.11c-.42.73,0,1.95-1.09,2.23-1.48.39-3,1.09-4.8.48C965.24,462.14,965.69,461.32,966,460.46Z" transform="translate(-344.51 -264.11)" fill="#350640"/><path d="M961.24,386.7a19,19,0,0,1,3.86.12c1.67,2.89.87,5.45-.71,7.61-1.07,1.47-3.13,1.65-4.87,1.15a11.92,11.92,0,0,1-3.79-2,3.25,3.25,0,0,1,.93-5.55A24.05,24.05,0,0,1,961.24,386.7Z" transform="translate(-344.51 -264.11)" fill="#630"/><path d="M960.92,372.26a15.4,15.4,0,0,0-.74,2.4c-.2,1.41-3.53,2.74-4.16,2.85-2.45.4-3.68-.33-4.56-2.71-.27-.72-.51-1.46-.78-2.23C950.94,373.33,960.32,373,960.92,372.26Z" transform="translate(-344.51 -264.11)" fill="#666"/><path d="M954.17,442.24l2.73.54c.37.08.74.2,1.16.32a4.62,4.62,0,0,1-.81,3.22q-3.62,6.74-7.32,13.41c-1,1.8-2.14,3.52-3.28,5.38-1.19-.09-2.37-.13-3.55-.29s-2.17-.41-3.43-.67a7.27,7.27,0,0,1,.57-1.34c1.63-2.25,2.59-4.93,4.58-7a9.3,9.3,0,0,0,1.3-2.53c.67-1.36,1.3-2.71,2.79-3.43.36-.18.58-.68.81-1.07C951.05,446.56,951.92,444,954.17,442.24Z" transform="translate(-344.51 -264.11)" fill="#fff"/><path d="M945.06,398c1.24-3.54,4.55-6.63,7.44-6.93a19.36,19.36,0,0,0,.89,3.13,21.38,21.38,0,0,0,2,2.92,22.58,22.58,0,0,1-2.48.62c-2.44.26-4.88.47-7.32.66C945.42,398.46,945.23,398.18,945.06,398Z" transform="translate(-344.51 -264.11)" fill="#fff"/><path d="M929.71,458.14a16.24,16.24,0,0,1-1.92,2.52c-3.93-1-3.93-1-5.18-2.34,1.78-2.76,3.3-5.69,5.63-8.16s4.38-5.28,6.71-7.79a51.51,51.51,0,0,1,5-4.44,10.48,10.48,0,0,1,2.09-1.05l3.35,2.28a5.44,5.44,0,0,1-.69,1.23c-1.61,1.62-3.26,3.19-4.9,4.78a4.87,4.87,0,0,0-.72.62C936.2,450.09,932.1,453.45,929.71,458.14Z" transform="translate(-344.51 -264.11)" fill="#fff"/><path d="M966.77,395.83c2.73-.25,5.48.78,7.86-1.08-.85-2.6-3.41-5.08-5.53-5.49C968.36,391.33,967.63,393.4,966.77,395.83Zm-10.11-7.77a3.25,3.25,0,0,0-.93,5.55,11.92,11.92,0,0,0,3.79,2c1.74.5,3.8.32,4.87-1.15,1.58-2.16,2.38-4.72.71-7.61a19,19,0,0,0-3.86-.12A24.05,24.05,0,0,0,956.66,388.06Zm-4.16,3.05c-2.89.3-6.2,3.39-7.44,6.93.17.14.36.42.53.4,2.44-.19,4.88-.4,7.32-.66a22.58,22.58,0,0,0,2.48-.62,21.38,21.38,0,0,1-2-2.92A19.36,19.36,0,0,1,952.5,391.11Zm-6.81,9.09c-1.17.14-2.32.54-3.49.76-.26.05-.76-.08-.83-.26s-.15-.89,0-1.05c1.64-1.38,2.37-3.37,3.57-5a26.93,26.93,0,0,1,6.16-5.6c1.27-.94,2.59-1.83,4-2.65a9.67,9.67,0,0,1,2.63-1.11c3.12-.78,6.39-1.21,9.4,0a23.26,23.26,0,0,1,5.94,3.94,51.8,51.8,0,0,1,4.53,4.6,5.43,5.43,0,0,1,.65,1.25,6.24,6.24,0,0,1-3.56,2.24c-3.68,1-7.45.58-11.14,1.16-3.47.54-7,.78-10.47,1.13C950.61,399.77,948.14,399.92,945.69,400.2Z" transform="translate(-344.51 -264.11)"/><path d="M922,455.27a13.62,13.62,0,0,1-1.52,1.88,7.93,7.93,0,0,1-4.85-5.14,11.42,11.42,0,0,0,3.94-2.93q6.58-6.4,13.38-12.61a63.5,63.5,0,0,1,5.11-3.93,5.11,5.11,0,0,1,1.15-.45,6.75,6.75,0,0,1,2.1,3.33c-1.72,1.36-3.42,2.53-4.92,3.92s-2.81,3-4.2,4.55c-2.47,2.71-4.88,5.49-7.43,8.11A16,16,0,0,0,922,455.27Z" transform="translate(-344.51 -264.11)" fill="#666"/><path d="M939.29,417.58c-.66-.73-7.34,4.25-12.13,7.66.14-.16.27-.32.4-.49a42.37,42.37,0,0,0,5.26-8.26,8.25,8.25,0,0,1,1-1.41c1,.31,1.77.84,2.47.73A2.43,2.43,0,0,1,939.29,417.58Z" transform="translate(-344.51 -264.11)" fill="#666"/><path d="M937.67,462.19c-1.1,1.68-1.29,1.55-3.19.82-1.41-.54-2.83-1-4.39-1.58a15.8,15.8,0,0,1,3.16-6.52c1.22-1.67,2.62-3.21,4-4.8a3,3,0,0,1,.84-.85c2.17-1,3.35-3.15,5.13-4.6,1.53-1.26,3.11-2.47,4.72-3.62,1.32-.93,2.36.11,3.78.64a20,20,0,0,1-1.1,2.18c-1.84,2.78-3.92,5.44-5.56,8.34C943,455.85,940,458.73,937.67,462.19Z" transform="translate(-344.51 -264.11)" fill="#033"/><path d="M923.4,385.78c.35.33,5.79-4.82,8-6.62a1.44,1.44,0,0,0,.05,1.76,7.75,7.75,0,0,0,2.25,2.38,2.72,2.72,0,0,1,1.2,3.3,26.62,26.62,0,0,1-1.6,3.74,1.7,1.7,0,0,1-.72.59,5,5,0,0,1-7.1-2.11c-.34-.63-.56-1.34-1-1.93A6.84,6.84,0,0,0,923.4,385.78Z" transform="translate(-344.51 -264.11)" fill="#666"/><path d="M922.11,436.09c-.5.51-1.72.23-2.5.59a19.38,19.38,0,0,1-7,1.32c2.38-.15,13.3-3.83,15-5.14C925.94,434.17,923.69,434.48,922.11,436.09Z" transform="translate(-344.51 -264.11)" fill="#b3a49e"/><path d="M926.28,439.94c-3.72,3.68-7.88,6.92-11.46,11.16a11.7,11.7,0,0,1-1.7-4.55c-.35-1.55-.44-3.16-.65-4.74-.16-1.23.18-2.7-2-2.95l.45-.45a11.08,11.08,0,0,1,1.75-.41,19.38,19.38,0,0,0,7-1.32c.78-.36,2-.08,2.5-.59,1.58-1.61,3.83-1.92,5.53-3.23s3.32-2.48,5-3.76a17.36,17.36,0,0,0,1.3-1.4c.59-.62,1.21-1.22,1.83-1.83,1.56.89,1.59,2.47,2.47,3.77A83,83,0,0,0,926.28,439.94Z" transform="translate(-344.51 -264.11)" fill="#b3a49e"/><path d="M910.29,414.57c-.81-.23-1.35-.14-1.62.38.55-1.51,2.53-5.94,3.58-8.37a.92.92,0,0,0,.29.83c1,1,1.92,0,2.78-.49s1.68-1.11,2.56-1.71c.38.42.54.52.58.65.64,2.31-.63,4.18-1.47,6.14a4.26,4.26,0,0,1-3.18,2.31,2.4,2.4,0,0,0-2,2.32,13.4,13.4,0,0,1-.6,2.21l-.47,0C910.58,417.38,910.43,416,910.29,414.57Z" transform="translate(-344.51 -264.11)" fill="#666"/><path d="M911.4,448c0,.14-.27.32-.6.7-.37-1.85-1.29-3.35-.86-5.39A13.35,13.35,0,0,1,911.4,448Z" transform="translate(-344.51 -264.11)" fill="#fff"/><path d="M941.37,400.7c.07.18.57.31.83.26,1.17-.22,2.32-.62,3.49-.76,2.45-.28,4.92-.43,7.38-.67,3.49-.35,7-.59,10.47-1.13,3.69-.58,7.46-.18,11.14-1.16a6.24,6.24,0,0,0,3.56-2.24,5.43,5.43,0,0,0-.65-1.25,51.8,51.8,0,0,0-4.53-4.6,23.26,23.26,0,0,0-5.94-3.94c-3-1.17-6.28-.74-9.4,0a9.67,9.67,0,0,0-2.63,1.11c-1.36.82-2.68,1.71-4,2.65a26.93,26.93,0,0,0-6.16,5.6c-1.2,1.67-1.93,3.66-3.57,5C941.22,399.81,941.25,400.39,941.37,400.7Zm-29.23,29.64c-3.21,0-3.84-.35-3.9-2.93,0-.31,0-.65,0-1,0-3,0-6.05.08-9.07a11.18,11.18,0,0,1,.22-1.91l0-.11c0-.08.06-.19.1-.32s0,0,0,0c.27-.52.81-.61,1.62-.38.14,1.38.29,2.81.44,4.24l.47,0a13.4,13.4,0,0,0,.6-2.21,2.4,2.4,0,0,1,2-2.32A4.26,4.26,0,0,0,917,412c.84-2,2.11-3.83,1.47-6.14,0-.13-.2-.23-.58-.65-.88.6-1.68,1.23-2.56,1.71s-1.79,1.49-2.78.49a.92.92,0,0,1-.29-.83c.26-.58.46-1.05.58-1.33l.09-.24c1.69-5.09,4.42-9.71,6.6-14.58a10.22,10.22,0,0,1,3.88-4.65,6.84,6.84,0,0,1,1.16,1.11c.39.59.61,1.3,1,1.93a5,5,0,0,0,7.1,2.11,1.7,1.7,0,0,0,.72-.59,26.62,26.62,0,0,0,1.6-3.74,2.72,2.72,0,0,0-1.2-3.3,7.75,7.75,0,0,1-2.25-2.38,1.44,1.44,0,0,1-.05-1.76l0,0c.27-.22.5-.38.65-.49l.14-.07c2.73-1.27,5.25-3,8.36-3.46a12.9,12.9,0,0,0,3.15-1.12,18.66,18.66,0,0,1,6.92-1.42c.27.77.51,1.51.78,2.23.88,2.38,2.11,3.11,4.56,2.71.63-.11,4-1.44,4.16-2.85a15.4,15.4,0,0,1,.74-2.4l0-.05,7.39-.45V375c3.91.54,5.25-.11,5.76-3,2.25.54,4.65.21,6.85.81a6.59,6.59,0,0,1,1.48.58c.29,2-2.36,3.35-.57,5.32,1.77-.62,1.7-2.3,2.2-3.76l0-.09a6.24,6.24,0,0,1,1.36.42c2.34,1.32,4.91,2.29,6.75,4.42a5.31,5.31,0,0,0,1.81,1.16,12,12,0,0,1,4.61,4.39c2.48,3.5,3.64,7.52,4.83,11.59,1,3.34.83,6.81,1.65,10.14a4.94,4.94,0,0,1,.12.95c.13,2.4-.43,3.13-2.83,3.58a4.9,4.9,0,0,1-1.43.09,27.8,27.8,0,0,0-6.43.47c-4.66.6-9.29,1.47-14,1.28a33.16,33.16,0,0,0-5.22.55c-1.11.13-2.22.32-3.33.42-5.64.48-11.28,1.14-16.94,1.32-3.87.13-7.53,1.22-11.32,1.67-1.42.17-2.85.24-4.35.37l0-.06a2.43,2.43,0,0,0-3-1.77c-.7.11-1.49-.42-2.47-.73a8.25,8.25,0,0,0-1,1.41,42.37,42.37,0,0,1-5.26,8.26c-.13.17-.26.33-.4.49a30.27,30.27,0,0,1-4.66,3,43.52,43.52,0,0,1-4.94,1.49A30.21,30.21,0,0,1,912.14,430.34Z" transform="translate(-344.51 -264.11)" fill="#666"/><path d="M909.68,377.29c.73,2.52.48,5,.3,7.6a32.49,32.49,0,0,0-.28,4.28,34.83,34.83,0,0,1-.51,9.07c-.31,1.45,0,2.84-.22,4.24s-.55,3-.86,4.46c-.1.52-.27,1-.41,1.53a3.82,3.82,0,0,1-.85,0c-4.13-.83-8-2.22-11.13-5.18-.46-.44-.78-1-1.24-1.45a1.74,1.74,0,0,0-2.88.08c-1.56,1.71-3.1,3.42-4.62,5.15-2.38,2.7-4.58,5.56-7.13,8.07a37.83,37.83,0,0,0-5.85,7.51,3.18,3.18,0,0,1-2.37,1.77c-.21-.7-.4-1.36-.61-2-.64-2-1.82-3.32-4.14-3.27a16.94,16.94,0,0,1-3.33-.33,5.47,5.47,0,0,1-1.44-.82,6.11,6.11,0,0,1,3.64-2.11,6.85,6.85,0,0,0,4.29-3.19,4.74,4.74,0,0,0,.15-4.78c-.68-1.49-2.24-1.28-3.59-1.3-1,0-2.08.1-3.11,0s-2.16-.27-3.09-.39a2.47,2.47,0,0,1,.46-2.72A17.25,17.25,0,0,1,863,401a6.49,6.49,0,0,0,2.07-4.06c-.39-.37-.78-.73-1.17-1.11l.83-.88c1.57-.5,1.54-.51,2.08-1.51a5.83,5.83,0,0,1,1.21-1.75,36.71,36.71,0,0,1,4.89-3.78c3.15-1.84,5.56-4.53,8.41-6.7,2.46-1.89,4.84-3.89,7.27-5.82.31-.25.7-.39,1-.61l2.94-2c.78-.54,1.54-1.11,2.33-1.64A16.11,16.11,0,0,0,898,369a3.64,3.64,0,0,1,3.42-1.21,16.5,16.5,0,0,0,4.5.1c2.3-.37,3.67.93,3.79,3.25.07,1.43-.12,2.86-.16,4.29A6.39,6.39,0,0,0,909.68,377.29Z" transform="translate(-344.51 -264.11)" fill="#f90"/><path d="M893.26,403.45c-.06,1.05-.1,1.63-.14,2.33,2.1.69,3.45,2.3,5.07,3.56,1.8,1.4,3.55,3,5.85,3.58.45.13.83.52,1.28.65,1.53.46,1.79,1.5,1.69,3a50.15,50.15,0,0,0,.08,9.8,1.7,1.7,0,0,1,0,.28,21.35,21.35,0,0,1-.24,2.74c-3.39-.64-6.27-1.56-8.38-4.12-.75-.93-4.59-2.41-4.57-2,.15,2.58-.12,5.19,1.64,7.52a56.08,56.08,0,0,0,3.91,4.8,6.79,6.79,0,0,0,5.08,2.28c2.34,0,2.92.34,3.26,3.38.24,2.2.12,4.44.17,6.82a4.46,4.46,0,0,0-3.63,1,2.55,2.55,0,0,1-1.83.24c-1.82-.27-3.62-.63-5.42-1-2-.41-4.06-.83-6.08-1.28-1.08-.24-2.14-.55-3.21-.83-.18-1.29-.28-2.39-.49-3.47-.52-2.65-1.15-5.28-1.63-7.93-.33-1.8-.51-3.63-.73-5.46-.26-2.22-.51-4.44-.77-6.66l-.6-5.48a10.3,10.3,0,0,1,0-2.15,2.92,2.92,0,0,1,.45-1.56c1.45-1.69,3-3.29,4.48-4.94,1.06-1.18,2.07-2.41,3.13-3.59C892,404.49,892.51,404.13,893.26,403.45Z" transform="translate(-344.51 -264.11)" fill="#f90"/><path d="M906.87,429.36a21.35,21.35,0,0,0,.24-2.74c0,.2,0,.47,0,.81.13,3,.36,11.19.65,13.75-.34-3-.92-3.35-3.26-3.38a6.79,6.79,0,0,1-5.08-2.28,56.08,56.08,0,0,1-3.91-4.8c-1.76-2.33-1.49-4.94-1.64-7.52,0-.37,3.82,1.11,4.57,2C900.6,427.8,903.48,428.72,906.87,429.36Z" transform="translate(-344.51 -264.11)" fill="#f90"/><path d="M903.35,347a1.28,1.28,0,0,1-.67-2.21,13.26,13.26,0,0,1,2.39-1.89,1.86,1.86,0,0,1,2.3.7,1.51,1.51,0,0,1,0,2.14,3,3,0,0,1-2.86,1.37A6.45,6.45,0,0,1,903.35,347Z" transform="translate(-344.51 -264.11)" fill="#fff"/><path d="M903.35,347a6.45,6.45,0,0,0,1.17.11,3,3,0,0,0,2.86-1.37,1.51,1.51,0,0,0,0-2.14,1.86,1.86,0,0,0-2.3-.7,13.26,13.26,0,0,0-2.39,1.89A1.28,1.28,0,0,0,903.35,347Zm-3-2.28c.37-.92.93-2.12,1.72-2.44,1.57-.64,3.34-1.29,5.1-.63a2.89,2.89,0,0,1,1.88,2.82,3.48,3.48,0,0,1-1.7,3.46,16.3,16.3,0,0,1-2.94.88,23.9,23.9,0,0,1-2.37-.57C900.21,347.62,899.64,346.55,900.37,344.76Z" transform="translate(-344.51 -264.11)" fill="#333"/><path d="M885.34,346.18c0-1.08.86-1.14,1.37-1.57a14.48,14.48,0,0,0,1.41-1.5c.77.17.76.78.49,1.26A3.42,3.42,0,0,1,885.34,346.18Z" transform="translate(-344.51 -264.11)" fill="#fff"/><path d="M890.79,361.61c-2.33-.1-4.27-1.22-6.29-2.17-.55-.26-.93-.79-.53-1.36a1.39,1.39,0,0,1,1.19-.44,11.38,11.38,0,0,1,2.85,1.19,9.14,9.14,0,0,0,6.92,1.05c1.35-.26,1.21-.59,1.61-2.55a1.67,1.67,0,0,0-1.28-2c-.22-.07-.48-.07-.7-.15-.65-.24-1.64-.35-1.85-.8a4,4,0,0,1-.4-3.23,6.68,6.68,0,0,1,2-3.18c.64-.46,1.23-1,1.88-1.55-.81-2.16-1.54-4.08-2.25-6-.21-.59-.62-1.24-.51-1.78a9.23,9.23,0,0,1,3.51-6.05c2.77-1.92,6-2.36,9.33-2.58a2,2,0,0,1,.94.13c.25.13.61.46.58.65a1.81,1.81,0,0,1-.57.93.87.87,0,0,1-.68.14c-2.06-.4-3.93.5-5.87.9-3.08.64-4.55,2.55-4.59,5.7a18.1,18.1,0,0,0,0,2.85,7,7,0,0,0,2.26,4.63,5.92,5.92,0,0,1,.81,1.05,2.08,2.08,0,0,1-1.81,1.79,4.38,4.38,0,0,0-2.42,1.86c-1,1.35-.77,2.28.77,3.05.57.28,1.2.44,1.78.7,1.8.82,2.07,1.59,1.22,3.35-.26.56-.46,1.15-.66,1.64a1.25,1.25,0,0,0,1.76.54c3.59-1.36,7.13-2.81,10-5.47.53-.49,1-1.11,1.92-.69.58,1.3-.23,2-1.19,2.67A32.4,32.4,0,0,1,899,362a3.12,3.12,0,0,0-.56.37c0,.64,0,1.2,0,1.76,0,.74-.27,1.31-1,1.35s-1.06-.55-1-1.29,0-1.25,0-2.08C894.4,361.91,892.6,361.68,890.79,361.61Z" transform="translate(-344.51 -264.11)"/><path d="M886.71,344.61c-.51.43-1.37.49-1.37,1.57a3.42,3.42,0,0,0,3.27-1.81c.27-.48.28-1.09-.49-1.26A14.48,14.48,0,0,1,886.71,344.61Zm3.14.7a7.17,7.17,0,0,1-4.81,2.78,2.07,2.07,0,0,1-1.95-1.14c-.52-.92-.14-1.61.46-2.36.8-1,1.39-2.18,3-2.07a.58.58,0,0,0,.43-.18c.41-.52.86-1,1.59-.7a2.9,2.9,0,0,1,1,.58A2.58,2.58,0,0,1,889.85,345.31Z" transform="translate(-344.51 -264.11)" fill="#333"/><path d="M884.31,456.57a13.72,13.72,0,0,1-3.79-.1,27.64,27.64,0,0,1-5.42-1.67,3.36,3.36,0,0,1-1.52-2,25.39,25.39,0,0,1-.76-4.45,1.76,1.76,0,0,1,1.88-1.78c3.32-.13,6.7-.47,9.93.6A90,90,0,0,0,897.18,450c2.48.44,4.94,1,7.53,1.55a3.8,3.8,0,0,1-2.55,2.71,15.91,15.91,0,0,1-6.79,1.1,14.35,14.35,0,0,0-4.68.5A32.14,32.14,0,0,1,884.31,456.57Z" transform="translate(-344.51 -264.11)" fill="#300"/><path d="M995.51,424.46a13,13,0,0,1-2.52,6.86c-.73,1-1.49,2.05-2.17,3,.25,1.15.46,2.14.67,3.09l1.87.47c0,1.17-.05,2.2,0,3.23.16,2.91,1.34,5.56,2.16,8.3.35,1.16,1.32,1.73,2.35,2.42,1.36-1.3,2.62-2.4,3.75-3.61a16.51,16.51,0,0,0,3.75-5.48,7.5,7.5,0,0,1,1.59-2.06c.53-.59,1.3-1,1.67-1.68a2.65,2.65,0,0,1,3.18-1.43,9.15,9.15,0,0,0,6.21-1.13,3.62,3.62,0,0,0,1.54-2,1.77,1.77,0,0,0-1.32-2,9.54,9.54,0,0,0-3.19-.8,10.29,10.29,0,0,0-3.24.7,10.73,10.73,0,0,1-5.42.41c-1.5-.27-2.47-1.48-3.75-2-2.58-1-3.37-2.94-3.54-5.41a8.43,8.43,0,0,0-.13-1.42c-.23-.91-.32-1.91-1.25-2.46C995.75,422.5,995.62,422.58,995.51,424.46ZM992.15,449c-1.67,2.9-3.52,5.5-4.27,9,3-.74,5.2-2.38,7.86-4.24C993.93,452.38,993.83,450.33,992.15,449Zm-18.77,10.7a1.72,1.72,0,0,0,.36,2.17l3-.31c.23-.94.41-1.79.67-2.61a10.71,10.71,0,0,1,1-2.65c.87-1.32,2-2.45,2.89-3.75a16.68,16.68,0,0,0,2.06-3.71,24.74,24.74,0,0,0,1.73-7.89,2.25,2.25,0,0,1,.28-1.15,1.43,1.43,0,0,1,.44-.4c.18-.13.4-.26.61-.42a3.46,3.46,0,0,1,.23.92c-.54,3.46-1.1,6.92-1.65,10.38a9.91,9.91,0,0,1-1.06,3.19,9.45,9.45,0,0,1-2.8,3.19c-1.53,1.13-1.69,2.65-2,4.61l5.16-1.64c.88-2,1.64-3.86,2.43-5.65.48-1.08,1-2.12,1.5-3.14a31.59,31.59,0,0,0,2.31-5.18,4.92,4.92,0,0,0,.16-2.75c-.5-2.12-1.12-4.22-1.72-6.44a34.56,34.56,0,0,0-3.76,1.61c-.62.34-1.29.69-1.9,1.09a5.58,5.58,0,0,0-1.53,1.4,36.17,36.17,0,0,0-4.34,7.67C976,452,974.9,455.9,973.38,459.66Zm-5.56-4.13c-.59,1.65-1.16,3.3-1.8,4.93-.33.86-.78,1.68-1.24,2.63,1.84.61,3.32-.09,4.8-.48,1.09-.28.67-1.5,1.09-2.23a9.82,9.82,0,0,0,.43-1.11c2-4.92,4.1-9.83,6.12-14.75a22.57,22.57,0,0,0,.7-2.47c-2.12.19-2.49.24-2.88.83-.92,1.38-1.78,2.8-2.64,4.23a17.26,17.26,0,0,1-1.28,2.27,3.53,3.53,0,0,0-.83,3.32C968.75,453.13,968.25,454.3,967.82,455.53Zm-4.41-2.64c-1.69,3.61-3.69,7-5.7,10.44a13,13,0,0,0-.62,1.52l4.66-.64c1.61-3.44,3.2-6.89,4.83-10.32a20.19,20.19,0,0,1,1.21-2.06c.94-1.48,2-2.89,2.8-4.42a13.27,13.27,0,0,0,1.88-4.49l-2.65.14c-.69,1-1.2,1.68-1.68,2.41A64.06,64.06,0,0,0,963.41,452.89ZM949.66,464.8c2.88,1,4.77.32,6.05-2.41,2.15-4.55,5.38-8.42,7.86-12.75,1.06-1.85,1.81-3.82,2.91-5.92l-5-.65c-1,1.51-2,3-2.91,4.55-.7,1.15-1.32,2.35-1.94,3.54a15.07,15.07,0,0,0-1.2,2.58,13.51,13.51,0,0,1-2.06,4.27c-.76,1-1.4,2.11-2.06,3.19A9,9,0,0,0,949.66,464.8Zm-4.84-9c-2,2.05-3,4.73-4.58,7a7.27,7.27,0,0,0-.57,1.34c1.26.26,2.34.53,3.43.67s2.36.2,3.55.29c1.14-1.86,2.27-3.58,3.28-5.38q3.72-6.68,7.32-13.41a4.62,4.62,0,0,0,.81-3.22c-.42-.12-.79-.24-1.16-.32l-2.73-.54c-2.25,1.77-3.12,4.32-4.45,6.56-.23.39-.45.89-.81,1.07-1.49.72-2.12,2.07-2.79,3.43A9.3,9.3,0,0,1,944.82,455.83Zm-11.57-.92a15.8,15.8,0,0,0-3.16,6.52c1.56.56,3,1,4.39,1.58,1.9.73,2.09.86,3.19-.82,2.28-3.46,5.29-6.34,7.34-10,1.64-2.9,3.72-5.56,5.56-8.34a20,20,0,0,0,1.1-2.18c-1.42-.53-2.46-1.57-3.78-.64-1.61,1.15-3.19,2.36-4.72,3.62-1.78,1.45-3,3.56-5.13,4.6a3,3,0,0,0-.84.85C935.87,451.7,934.47,453.24,933.25,454.91Zm-10.64,3.41c1.25,1.3,1.25,1.3,5.18,2.34a16.24,16.24,0,0,0,1.92-2.52c2.39-4.69,6.49-8.05,9.36-12.35a4.87,4.87,0,0,1,.72-.62c1.64-1.59,3.29-3.16,4.9-4.78a5.44,5.44,0,0,0,.69-1.23L942,436.88a10.48,10.48,0,0,0-2.09,1.05,51.51,51.51,0,0,0-5,4.44c-2.33,2.51-4.36,5.3-6.71,7.79S924.39,455.56,922.61,458.32Zm-3-9.24a11.42,11.42,0,0,1-3.94,2.93,7.93,7.93,0,0,0,4.85,5.14,13.62,13.62,0,0,0,1.52-1.88,16,16,0,0,1,2.76-3.27c2.55-2.62,5-5.4,7.43-8.11,1.39-1.53,2.69-3.15,4.2-4.55s3.2-2.56,4.92-3.92a6.75,6.75,0,0,0-2.1-3.33,5.11,5.11,0,0,0-1.15.45,63.5,63.5,0,0,0-5.11,3.93Q926.17,442.68,919.57,449.08Zm-9.13-10.22c2.21.25,1.87,1.72,2,2.95.21,1.58.3,3.19.65,4.74a11.7,11.7,0,0,0,1.7,4.55c3.58-4.24,7.74-7.48,11.46-11.16a83,83,0,0,1,11.91-10.3c-.88-1.3-.91-2.88-2.47-3.77-.62.61-1.24,1.21-1.83,1.83a17.36,17.36,0,0,1-1.3,1.4c-1.63,1.28-3.31,2.5-5,3.76s-12.62,5-15,5.14a11.08,11.08,0,0,0-1.75.41Zm.36,9.8c.33-.38.62-.56.6-.7a13.35,13.35,0,0,0-1.46-4.69C909.51,445.31,910.43,446.81,910.8,448.66Zm-35.86,8a5,5,0,0,1-2.65-2.85c-.9-2-.85-4.21-1.39-6.28a1.69,1.69,0,0,1,1.19-2.08,9.61,9.61,0,0,1,2.76-.76c3.17-.25,6.36-.88,9.47.39a2.41,2.41,0,0,0,.46-3,6.28,6.28,0,0,1-.32-2.31c-.08-1.67,0-3.34-.14-5-.3-3.34-.71-6.66-1.09-10l-.24-2.07,1.2-.13c.26,2.22.51,4.44.77,6.66.22,1.83.4,3.66.73,5.46.48,2.65,1.11,5.28,1.63,7.93.21,1.08.31,2.18.49,3.47,1.07.28,2.13.59,3.21.83,2,.45,4.05.87,6.08,1.28,1.8.36,3.6.72,5.42,1a2.55,2.55,0,0,0,1.83-.24,4.46,4.46,0,0,1,3.63-1c-.05-2.38.07-4.62-.17-6.82-.29-2.56-.52-10.73-.65-13.75l1.08,0c.06,2.58.69,2.92,3.9,2.93a30.21,30.21,0,0,0,5.42-.62,43.52,43.52,0,0,0,4.94-1.49,9.61,9.61,0,0,0,4.66-3c4.79-3.41,11.47-8.39,12.13-7.66l0,.06c1.5-.13,2.93-.2,4.35-.37,3.79-.45,7.45-1.54,11.32-1.67,5.66-.18,11.3-.84,16.94-1.32,1.11-.1,2.22-.29,3.33-.42a33.16,33.16,0,0,1,5.22-.55c4.75.19,9.38-.68,14-1.28a27.8,27.8,0,0,1,6.43-.47,4.9,4.9,0,0,0,1.43-.09c2.4-.45,3-1.18,2.83-3.58a4.94,4.94,0,0,0-.12-.95c-.82-3.33-.67-6.8-1.65-10.14-1.19-4.07-2.35-8.09-4.83-11.59a12,12,0,0,0-4.61-4.39,5.31,5.31,0,0,1-1.81-1.16c-1.84-2.13-4.41-3.1-6.75-4.42a6.24,6.24,0,0,0-1.36-.42l0,.09c-.53,1.35-1.35.4-1.63-1.56a6.59,6.59,0,0,0-1.48-.58l.23-.66c3.62,1.27,6.71,2.55,7.07,2.77,2.63,1.64,5.5,3,7.88,4.93A17,17,0,0,1,1002,388a9.21,9.21,0,0,0,.66,1.8c1.56,2.78,2.07,5.83,2.54,8.93.4,2.59,1,5.15,1.47,7.74.3,1.73.47,3.47.63,5.22a3,3,0,0,1-.31,1.05c-3.22.16-6.32.21-9.4.48-2.7.23-5.37.71-8.06,1.07s-5.46,1-8.32.64a22.83,22.83,0,0,0-5.24.42c-3.88.43-7.76.92-11.64,1.35-2.3.25-4.61.4-6.91.66-3.16.35-6.32.72-9.47,1.14-2.13.28-4.27.6-6.38,1a4.44,4.44,0,0,0-3.1,4.59,9.93,9.93,0,0,0,1.29,4.56,15.76,15.76,0,0,1,1.32,2.78,11.73,11.73,0,0,0,9.16,7.52,14.93,14.93,0,0,1,2.71.92,19.27,19.27,0,0,0,6.79,1.3c3.27,0,6.56.29,9.82,0,2.32-.19,4.72-.2,6.93-1.48,1.84-1.06,4-1.51,6-2.35,4.85-2.05,8.93-5,10.74-10.2a11.69,11.69,0,0,0,.74-4.15,3.07,3.07,0,0,1,1.94-3.22,4.45,4.45,0,0,1,3.6-.43,8.74,8.74,0,0,1,1.23,4.43,5.08,5.08,0,0,0,2,4.4,29.79,29.79,0,0,0,4,2.6,3.17,3.17,0,0,0,2.79.08c1-.39,2.13-.65,3.19-1a7.73,7.73,0,0,1,5.15.27,5.81,5.81,0,0,1,3.39,2.85,8.21,8.21,0,0,0,.67,1v1.44c-1.38,2.7-3.69,3.8-6.62,3.87a9.4,9.4,0,0,0-1.66.26c-.62.12-1.23.3-1.85.42-2.38.5-3.77,2-5,4.09a60.15,60.15,0,0,1-4.86,6.48c-2.67,3.41-6.37,5.52-10,7.69a20.25,20.25,0,0,1-3.69,1.62c-2.94,1-5.88,2-8.87,2.92a13,13,0,0,1-4.23.6,21.17,21.17,0,0,0-5.4.88c-4.38.89-8.74,2-13.16,2.53a44.66,44.66,0,0,1-14.72-.42,20.94,20.94,0,0,0-2.62-.26,5.8,5.8,0,0,1-3.41-.88,2.3,2.3,0,0,0-1.1-.47c-4.16-.46-7.84-2.61-11.92-3.37a6.66,6.66,0,0,1-3.38-2.06,61,61,0,0,0-5.6-4.29c-.63-1.7-1.35-3.62-2.12-5.65-1.85,1.17-3.53,2.11-5.07,3.26a8.12,8.12,0,0,0-1.76,2.23,3.57,3.57,0,0,1-2.47,1.68,25.26,25.26,0,0,1-6.84.86,22.35,22.35,0,0,0-7.09.93,17.23,17.23,0,0,1-4.26.18A22.21,22.21,0,0,1,874.94,456.68Zm-1.36-3.91a3.36,3.36,0,0,0,1.52,2,27.64,27.64,0,0,0,5.42,1.67,13.72,13.72,0,0,0,3.79.1,32.14,32.14,0,0,0,6.38-.72,14.35,14.35,0,0,1,4.68-.5,15.91,15.91,0,0,0,6.79-1.1,3.8,3.8,0,0,0,2.55-2.71c-2.59-.54-5.05-1.11-7.53-1.55a90,90,0,0,1-12.55-2.85c-3.23-1.07-6.61-.73-9.93-.6a1.76,1.76,0,0,0-1.88,1.78A25.39,25.39,0,0,0,873.58,452.77Z" transform="translate(-344.51 -264.11)"/><path d="M857.48,422.08l2.09-2.13a2,2,0,0,0,.93.59,27.78,27.78,0,0,0,3.51.77c1.17.21,2.36.34,3.62.51a12.35,12.35,0,0,1,.93,1.65,3.13,3.13,0,0,1-1.29,3.76,3,3,0,0,1-3.93-.08C861.39,425.46,859.41,423.79,857.48,422.08Z" transform="translate(-344.51 -264.11)" fill="#390"/><path d="M841.07,456.55c2.38.16,4.75.41,7.13.57s4.6.26,6.9.32c1.22,0,1.79-.46,2.19-2.08a6.78,6.78,0,0,1,2.63-4c.81,1.12,1.72.65,2.64.36,2.73-.85,4.84.51,4.88,3.32a24.07,24.07,0,0,1-.51,5.69,5.33,5.33,0,0,1-3.32,3.5,2.86,2.86,0,0,1-.69.2c-3.15.46-6.3.93-9.45,1.37-1,.15-2.07.12-3.09.32a38.17,38.17,0,0,1-11.88.11c-1.66-.21-3.34-.21-5-.47a36.73,36.73,0,0,1-4.87-1.17,7.54,7.54,0,0,1-1.86-1.17c-.15-2.05.21-3.72,1.78-4.87a5.38,5.38,0,0,1,2.07-1.09c1.79-.33,3.62-.46,5.44-.65.87-.09,1.74-.14,2.61-.2A21.19,21.19,0,0,1,841.07,456.55Z" transform="translate(-344.51 -264.11)" fill="#630"/><path d="M838.26,344.4c-.35-.72-.91-1.06-1.58-.75l-2.11,3.18c1.5.88,2.38.07,3.25-.73A1.39,1.39,0,0,0,838.26,344.4Zm-5.78-.31c.93-1.36,2.51-1.57,4-1.81a3,3,0,0,1,3.1,1.38,2.87,2.87,0,0,1-.32,3.38,4.62,4.62,0,0,1-4.4,1.9c-1.71-.23-2.31-.94-2.35-2.69C832.46,345.55,832.48,344.84,832.48,344.09Z" transform="translate(-344.51 -264.11)" fill="#333"/><path d="M836.68,343.65c.67-.31,1.23,0,1.58.75a1.39,1.39,0,0,1-.44,1.7c-.87.8-1.75,1.61-3.25.73Z" transform="translate(-344.51 -264.11)" fill="#fff"/><path d="M827,371.22c3.83-1.44,6.87-.07,9.65,2.38,3.16,2.78,6.15,5.76,9.55,8.26a2.45,2.45,0,0,1,.55.46c3.34,4.42,7.87,7.62,11.78,11.45,1.47,1.44,2.85,3,4.38,4.56-1.5,1.64-2.93,3.22-4.38,4.79-.78.84-1.48,1.6-.92,2.94s1.33,2.58,3,2.63c1.51.05,3,0,4.54,0,1.08,0,2.32-.4,2.93,1,.38.86-.53,2.69-1.73,3.38-1,.6-2.12,1.1-3.19,1.63a8.15,8.15,0,0,1-1.33.56c-1.59.51-2.08,1.9-2.55,3.25a1.46,1.46,0,0,0,.23,1.45l-2.09,2.13c-1.16-1-2.31-2.08-3.42-3.16-2.39-2.32-5.22-4.17-7.46-6.67-.32-.35-1.09-.69-1.44-.53a2.14,2.14,0,0,0-1.09,1.37,5.78,5.78,0,0,0,.61,3.93c1.23,2.23,2.62,4.41,2.82,7.05,2.31,5.05,2.6,10.69,4.6,15.83.89,2.3,1.75,4.62,2.45,7s1.57,5.06,0,7.84a23.52,23.52,0,0,1-3.61.55A40.93,40.93,0,0,1,844,455c-3.44-.55-6.85-.22-10.28-.09a11.47,11.47,0,0,0-4.18.75c-1.17.52-2.06,1.68-3.13,2.6-1-.69-1.05-1.79-1.24-2.76-.55-2.73-1-5.49-1.55-8.23a142,142,0,0,1-2.84-19.83c-.27-5.48-.47-11-1.8-16.4a76.54,76.54,0,0,1-1.07-8.06c-.61-4.58-.94-9.22-2-13.71a81.78,81.78,0,0,1-2.24-13.6,4.38,4.38,0,0,1,1.17-.92c2.18-.73,4.2-1.87,6.55-2.19A26,26,0,0,0,827,371.22Z" transform="translate(-344.51 -264.11)" fill="#390"/><path d="M823.61,350.26c-.25,1-1.18,1.41-2.54,1.23-.09-1,.73-1.5,1.28-2.11.14-.16.72-.07,1,.09A.85.85,0,0,1,823.61,350.26Z" transform="translate(-344.51 -264.11)" fill="#fff"/><path d="M821.07,351.49c1.36.18,2.29-.24,2.54-1.23a.85.85,0,0,0-.26-.79c-.28-.16-.86-.25-1-.09C821.8,350,821,350.48,821.07,351.49Zm.87-3.78c2,0,3.41.73,3.79,1.81s-.7,2.43-2.11,3.42a4,4,0,0,1-1.77.63c-1.77.22-3-.61-3.2-2.07a3.3,3.3,0,0,1,2.54-3.73A7.36,7.36,0,0,1,821.94,347.71Z" transform="translate(-344.51 -264.11)" fill="#333"/><path d="M830.64,457.48a5.38,5.38,0,0,0-2.07,1.09c-1.57,1.15-1.93,2.82-1.78,4.87a7.54,7.54,0,0,0,1.86,1.17,36.73,36.73,0,0,0,4.87,1.17c1.64.26,3.32.26,5,.47a38.17,38.17,0,0,0,11.88-.11c1-.2,2.07-.17,3.09-.32,3.15-.44,6.3-.91,9.45-1.37a2.86,2.86,0,0,0,.69-.2,5.33,5.33,0,0,0,3.32-3.5,24.07,24.07,0,0,0,.51-5.69c0-2.81-2.15-4.17-4.88-3.32-.92.29-1.83.76-2.64-.36a6.78,6.78,0,0,0-2.63,4c-.4,1.62-1,2.12-2.19,2.08q-3.45-.09-6.9-.32c-2.38-.16-4.75-.41-7.13-.57a21.19,21.19,0,0,0-2.38.08c-.87.06-1.74.11-2.61.2C834.26,457,832.43,457.15,830.64,457.48Zm-13.1-114.9c.43-1.45,4-3,5.36-2.05,2,1.39,4.13,2.71,6.16,4.13A3.08,3.08,0,0,1,830,346c.87,2.21,1.69,4.45,2.61,6.9l1.35.35c2.8.66,3.91,3,2.65,5.65a5.66,5.66,0,0,1-3.33,3.24c-1.93.61-2.41,2.1-2.66,3.83,1.5.32,6.33-.11,7.29-.65.55-.32,1.06-.72,1.6-1.05a3.33,3.33,0,0,1,1.27-.62c.39,0,.81.29,1.22.46-.16.33-.22.83-.48,1-1.86,1.07-3.76,2.08-5.66,3.08a8.38,8.38,0,0,1-1.17.4c.16,1.42,1.4,1.77,2.14,2.52s1.51,1.38,2.26,2.07c.47.42.92.86,1.39,1.27s.87.7,1.29,1.06c2.54,2.18,5.11,4.33,7.6,6.57,1.12,1,2,2.22,3.15,3.26,1.57,1.47,3.23,2.84,4.81,4.3,2.22,2.06,4.42,4.14,6.59,6.18.39.38.78.74,1.17,1.11A6.49,6.49,0,0,1,863,401a17.25,17.25,0,0,0-2.14,2.58,2.47,2.47,0,0,0-.46,2.72c.93.12,2,.32,3.09.39s2.07,0,3.11,0c1.35,0,2.91-.19,3.59,1.3a4.74,4.74,0,0,1-.15,4.78,6.85,6.85,0,0,1-4.29,3.19,6.11,6.11,0,0,0-3.64,2.11,5.47,5.47,0,0,0,1.44.82,16.94,16.94,0,0,0,3.33.33c2.32-.05,3.5,1.25,4.14,3.27.21.65.4,1.31.61,2a3.18,3.18,0,0,0,2.37-1.77,37.83,37.83,0,0,1,5.85-7.51c2.55-2.51,4.75-5.37,7.13-8.07,1.52-1.73,3.06-3.44,4.62-5.15a1.74,1.74,0,0,1,2.88-.08c.46.44.78,1,1.24,1.45,3.13,3,7,4.35,11.13,5.18a3.82,3.82,0,0,0,.85,0c.14-.5.31-1,.41-1.53.31-1.48.62-3,.86-4.46s-.09-2.79.22-4.24a34.83,34.83,0,0,0,.51-9.07,32.49,32.49,0,0,1,.28-4.28c.18-2.55.43-5.08-.3-7.6a6.39,6.39,0,0,1-.11-1.86c0-1.43.23-2.86.16-4.29-.12-2.32-1.49-3.62-3.79-3.25a16.5,16.5,0,0,1-4.5-.1A3.64,3.64,0,0,0,898,369a16.11,16.11,0,0,1-3.13,2.09c-.79.53-1.55,1.1-2.33,1.64l-2.94,2c-.33.22-.72.36-1,.61-2.43,1.93-4.81,3.93-7.27,5.82-2.85,2.17-5.26,4.86-8.41,6.7a36.71,36.71,0,0,0-4.89,3.78,5.83,5.83,0,0,0-1.21,1.75c-.54,1-.51,1-2.08,1.51-.13-.33-.46-.75-.37-1a4.71,4.71,0,0,1,1.08-2.08c2.36-2,4.83-3.9,7.24-5.86,2.84-2.3,5.64-4.65,8.49-6.92s5.65-4.42,8.5-6.6c2-1.54,4.14-3,6.15-4.56a6.63,6.63,0,0,1,4.79-1.76c1.34.12,2.71-.18,4.06-.12a60.65,60.65,0,0,1,6.18.58c.59.09,1.09.78,1.78,1.31-2.27,2.67-1.66,5.72-1.69,8.61-.07,6.07,0,12.14,0,18.21a25.75,25.75,0,0,1-.3,2.61c-.37,3.41-.74,6.82-1.08,10.24,0,.2.12.41.38,1.18.44-1.6.68-2.72,1.06-3.79a34.39,34.39,0,0,1,1.45-3.5c1.4-2.95,3-5.83,4.23-8.83a37.76,37.76,0,0,1,4.81-7.67c.69-.93,9.35-8.35,9.5-8.14,3.26-.45,5.91-2.55,8.94-3.51.43-2,9-2.36,10.49-2.59.19-.21,16-.39,18.52-.91.91-1.28,7.07.49,12.18,2.27l-.23.66c-2.2-.6-4.6-.27-6.85-.81-.51,2.88-5.76,1-5.76-.2l-7.39.45,0,.05c-.6.78-10,1.07-10.24.31a18.66,18.66,0,0,0-6.92,1.42,12.9,12.9,0,0,1-3.15,1.12c-3.11.44-5.63,2.19-8.36,3.46l-.14.07a2.13,2.13,0,0,0-.65.49l0,0c-2.24,1.8-7.68,6.95-8,6.62a10.22,10.22,0,0,0-3.88,4.65c-2.18,4.87-4.91,9.49-6.6,14.58l-.09.24a4.81,4.81,0,0,0-.58,1.33c-1,2.43-3,6.86-3.58,8.37,0,0,0,0,0,0a1.34,1.34,0,0,0-.1.32l0,.11a11.18,11.18,0,0,0-.22,1.91c0,3,0,6-.08,9.07,0,.38,0,.72,0,1l-1.08,0c0-.34,0-.61,0-.81a1.7,1.7,0,0,0,0-.28,50.15,50.15,0,0,1-.08-9.8c.1-1.47-.16-2.51-1.69-3-.45-.13-.83-.52-1.28-.65-2.3-.62-4-2.18-5.85-3.58-1.62-1.26-3-2.87-5.07-3.56,0-.7.08-1.28.14-2.33-.75.68-1.24,1-1.64,1.48-1.06,1.18-2.07,2.41-3.13,3.59-1.49,1.65-3,3.25-4.48,4.94a2.92,2.92,0,0,0-.45,1.56,10.3,10.3,0,0,0,0,2.15l.6,5.48-1.2.13c-.24-2.08-.49-4.2-.76-6.47a6.15,6.15,0,0,0-1.43.81,24.91,24.91,0,0,0-4.9,6.74,5,5,0,0,1-1.68,1.93,17.82,17.82,0,0,0-4.24,3.84,11.71,11.71,0,0,1-2.32,2.05,2.15,2.15,0,0,1-3-.14c-2.84-2.77-6.23-4.94-8.73-8.11a23.15,23.15,0,0,0-6.28-5.45c-.86-.51-1.23-1.7-2.73-1.83,3.53,11.68,7,23.18,10.53,34.8.85.12,1.3-.43,1.77-1.14,1.06-1.61,1.9-1.86,3.61-1.21s3.35,1,4.57,2.4,2.19,2.73,1.82,4.7a8.12,8.12,0,0,0,0,1.91,7.91,7.91,0,0,1-7.43,8.55,11.2,11.2,0,0,0-2.84.42,20.94,20.94,0,0,1-7.07,1c-1.19,0-2.38.23-3.57.35-2.93.29-5.86.77-8.8.8-2,0-4.09-.61-6.15-.85a26.92,26.92,0,0,1-7.22-2.41,4.93,4.93,0,0,1-2.65-2.64c-.38-.84-.74-1.59-.11-2.45a2.6,2.6,0,0,0,.24-2.25c-.52-2.66-.82-5.35-1.26-8-.74-4.57-1.59-9.11-2.25-13.68-.33-2.28-.3-4.61-.48-6.9-.35-4.54-.7-9.07-1.12-13.6-.2-2.14-.54-4.28-.85-6.41-.26-1.73-.65-3.45-.86-5.19-.37-2.92-.65-5.86-.94-8.8a80.53,80.53,0,0,0-1.78-9.11,63.75,63.75,0,0,1-1.23-9.23c-.14-2,.9-3.53,2.83-4.59a17.57,17.57,0,0,1,6.32-2.53,17,17,0,0,0,3.83-1.32,6.65,6.65,0,0,0,1.13-.78c-.35-.23-.54-.45-.75-.47a7.45,7.45,0,0,1-3.59-1.79c-1.77-1.36-3.5-2.77-5.2-4.21a2.59,2.59,0,0,1-.82-1.37c-.07-.37.19-1.11.44-1.19a3.34,3.34,0,0,1,1.52.23c.12,0,.23.23.29.37,1,2.28,3.05,3.4,4.85,4.85a5.24,5.24,0,0,0,4.24,1.15,4.36,4.36,0,0,0,.58-1.58c0-.91-.2-1.85.6-2.42a6.28,6.28,0,0,1,2.53-1.23,3.85,3.85,0,0,0,2.48-1.26c.9-1,.86-2-.12-3.45l-1.32.39c-1.58.42-2.61-.32-2.33-1.88a6.52,6.52,0,0,0-.57-3.48,20.5,20.5,0,0,0-.94-2.44,8.47,8.47,0,0,0-1.55-2.36,28.08,28.08,0,0,0-3.94-3.09,3.59,3.59,0,0,0-3.65.1c-.34.17-.56.61-.9.76a1.21,1.21,0,0,1-1.05,0A1.22,1.22,0,0,1,817.54,342.58ZM816,389.25c1,4.49,1.35,9.13,2,13.71A76.54,76.54,0,0,0,819,411c1.33,5.4,1.53,10.92,1.8,16.4a142,142,0,0,0,2.84,19.83c.54,2.74,1,5.5,1.55,8.23.19,1,.21,2.07,1.24,2.76,1.07-.92,2-2.08,3.13-2.6a11.47,11.47,0,0,1,4.18-.75c3.43-.13,6.84-.46,10.28.09a40.93,40.93,0,0,0,6.92.29,23.52,23.52,0,0,0,3.61-.55c1.56-2.78.73-5.34,0-7.84s-1.56-4.68-2.45-7c-2-5.14-2.29-10.78-4.6-15.83-.2-2.64-1.59-4.82-2.82-7.05a5.78,5.78,0,0,1-.61-3.93,2.14,2.14,0,0,1,1.09-1.37c.35-.16,1.12.18,1.44.53,2.24,2.5,5.07,4.35,7.46,6.67,1.11,1.08,2.26,2.13,3.42,3.16,1.93,1.71,3.91,3.38,5.86,5.07a3,3,0,0,0,3.93.08,3.13,3.13,0,0,0,1.29-3.76,12.35,12.35,0,0,0-.93-1.65c-1.26-.17-2.45-.3-3.62-.51a27.78,27.78,0,0,1-3.51-.77,2,2,0,0,1-.93-.59,1.46,1.46,0,0,1-.23-1.45c.47-1.35,1-2.74,2.55-3.25a8.15,8.15,0,0,0,1.33-.56c1.07-.53,2.16-1,3.19-1.63,1.2-.69,2.11-2.52,1.73-3.38-.61-1.37-1.85-1-2.93-1-1.51,0-3,0-4.54,0-1.7-.05-2.43-1.19-3-2.63s.14-2.1.92-2.94c1.45-1.57,2.88-3.15,4.38-4.79-1.53-1.6-2.91-3.12-4.38-4.56-3.91-3.83-8.44-7-11.78-11.45a2.45,2.45,0,0,0-.55-.46c-3.4-2.5-6.39-5.48-9.55-8.26-2.78-2.45-5.82-3.82-9.65-2.38a26,26,0,0,1-5.57,1.32c-2.35.32-4.37,1.46-6.55,2.19a4.38,4.38,0,0,0-1.17.92A81.78,81.78,0,0,0,816,389.25Z" transform="translate(-344.51 -264.11)"/><path d="M803.08,405c1.63-1.37,3.72-1.66,6.12-1.78.74,2.71,1.76,5.12,2,7.6a90.36,90.36,0,0,1,0,10,2.52,2.52,0,0,1-.35.81,12.78,12.78,0,0,1-7.13-1.67,65.69,65.69,0,0,0-12.62-5,14.24,14.24,0,0,1-1.49-.74,20.84,20.84,0,0,1,1.87-1.72c1.9-1.32,3.79-2.64,5.77-3.83A41.4,41.4,0,0,0,803.08,405Z" transform="translate(-344.51 -264.11)" fill="#39f"/><path d="M774.72,379.28a38.91,38.91,0,0,1,20.17,2.37,5.39,5.39,0,0,1,2,1.29,52.29,52.29,0,0,1,8.26,10.19,14.38,14.38,0,0,1,2,6.31c-3.37,2.38-6.65,4.78-10,7.05s-6.66,4.33-10,6.46c-1.47-1.36-2.63-2.85-4.15-3.73a18,18,0,0,0-5-1.54c-1.86-.44-3.61.26-5.47,1l-1.31-2a24.41,24.41,0,0,0-6.06-6.71c-1.81-1.31-3.55-2.71-5.32-4.08l-5.35-4.13a6,6,0,0,1,.64-1.12,38.13,38.13,0,0,1,7.9-6.89,8.24,8.24,0,0,1,3.31-1.21,5.82,5.82,0,0,0,3-1.18A11.57,11.57,0,0,1,774.72,379.28Zm9.95,23.4c.89,0,1.5-.48,1.34-1.29-.43-2.19.74-3.84,1.68-5.58.67-1.26,1.42-2.48,2.08-3.76.47-.89,0-2-.67-1.81-1.39.43-1.79-.61-2.56-1.19a15.18,15.18,0,0,0-2.79-1.82,5.8,5.8,0,0,0-2.74-.51,64.53,64.53,0,0,0-9.83,1.77c-1.47.37-1.93,1.28-1.28,2.66.34.72.78,1.4,1.07,2.13.85,2.15,1.66,4.31,2.48,6.47a3.85,3.85,0,0,0,2.27,2.23,10.86,10.86,0,0,0,5.84.69C782.6,402.67,783.63,402.66,784.67,402.68Z" transform="translate(-344.51 -264.11)" fill="#06c"/><path d="M771.92,417.46a8.24,8.24,0,0,0,5.16,3.63,10.67,10.67,0,0,0,6.14.21,4.29,4.29,0,0,0,3.36-3.33c.09-.38.22-.74.36-1.18a12.75,12.75,0,0,1,5,.46,67.67,67.67,0,0,1,15.19,7.48,34.59,34.59,0,0,0,3.33,1.61A13.73,13.73,0,0,1,809.4,432a72.21,72.21,0,0,1-3.41,8.92,24.6,24.6,0,0,1-3.88,6,15.56,15.56,0,0,1-4.74,3.12c-2,1-4.16,1.61-6.25,2.4-4.47,1.67-9,1-13.44,0-2.8-.61-5.61-1.24-8.34-2.1-2.26-.71-4.43-1.75-6.62-2.68a13,13,0,0,1-7.1-7.35c-1.15-2.8-2.22-5.63-3.32-8.45-.71-1.84-1.4-3.7-2.06-5.42,2.57-3.95,6.54-5.83,10.11-8.15,3-1.93,6-4,9.85-4.37C770.81,415.19,771.31,416.36,771.92,417.46Zm.72,28.46a38.87,38.87,0,0,0,5.48.57c3.69.12,7.34-.06,10.63-2.13,1.57-1,2-2,1-3.5a44.61,44.61,0,0,1-4.29-9.31,10.32,10.32,0,0,0-1-2.16,1.8,1.8,0,0,0-2.28-.79c-2.78,1-5.49.42-8.4-.63a5.06,5.06,0,0,0-1.75,3.09c-.26,1.65-.8,3.25-1.19,4.87a26.55,26.55,0,0,1-2.35,6.51c-.59,1.1-.35,1.76.82,2.35A12.56,12.56,0,0,0,772.64,445.92Z" transform="translate(-344.51 -264.11)" fill="#fc6"/><path d="M782.7,389.45a5.8,5.8,0,0,1,3.78,3.09,2.49,2.49,0,0,1-.11,2.67c-1.23,1.86-2.43,3.73-3.63,5.58-3.13,1-5.6-.37-7.82-2.29a6.11,6.11,0,0,1-1.21-2.29,27.32,27.32,0,0,1-1.29-3.58c-.35-1.38-.11-2.14,1.15-2.49C776.55,389.31,779.63,388.45,782.7,389.45Z" transform="translate(-344.51 -264.11)" fill="#ffc"/><path d="M783.93,436.7a1.13,1.13,0,0,0-.09-.35l1.39-.57q.91,2.21,1.76,4.46c.71,1.9,0,3.09-2,3.47a25.64,25.64,0,0,1-3,.2c-.28-2.07-.54-3.93-.81-5.89a9.71,9.71,0,0,0,1.82-.42C783.38,437.42,784,437,783.93,436.7Z" transform="translate(-344.51 -264.11)" fill="#ffc"/><path d="M780.24,431.5c2.08-.71,3-.43,3.79,1.44.41.94.81,1.89,1.2,2.84l-1.39.57a3.8,3.8,0,0,0-.71-1c-.19-.21-.58-.24-.87-.35C780.09,434.24,780,434.05,780.24,431.5Z" transform="translate(-344.51 -264.11)" fill="#ffc"/><path d="M775.31,436.51a2.15,2.15,0,0,0,0,1.12l3.35.16c1.1,2.11.61,4.26.43,6.56-2-.11-3.88-.08-5.68-.32-2.24-.29-2.79-1.26-2.2-3.46l1.32-4.82Z" transform="translate(-344.51 -264.11)" fill="#ffc"/><path d="M775.21,431c.77.05,1.54.16,2.19.22a3,3,0,0,1,.27.67c.08.86.13,1.73.19,2.54-.52,1-2.15.93-2.55,2.06l-2.81-.76c.3-1.07.59-2.15.88-3.24S774.15,431,775.21,431Z" transform="translate(-344.51 -264.11)" fill="#ffc"/><path d="M783.75,387.23a15.18,15.18,0,0,1,2.79,1.82c.77.58,1.17,1.62,2.56,1.19.7-.22,1.14.92.67,1.81-.66,1.28-1.41,2.5-2.08,3.76-.94,1.74-2.11,3.39-1.68,5.58.16.81-.45,1.3-1.34,1.29s-2.07,0-3.11,0a10.86,10.86,0,0,1-5.84-.69,3.85,3.85,0,0,1-2.27-2.23c-.82-2.16-1.63-4.32-2.48-6.47-.29-.73-.73-1.41-1.07-2.13-.65-1.38-.19-2.29,1.28-2.66a64.53,64.53,0,0,1,9.83-1.77A5.8,5.8,0,0,1,783.75,387.23Zm-8.83,11.27c2.22,1.92,4.69,3.28,7.82,2.29,1.2-1.85,2.4-3.72,3.63-5.58a2.49,2.49,0,0,0,.11-2.67,5.8,5.8,0,0,0-3.78-3.09c-3.07-1-6.15-.14-9.13.69-1.26.35-1.5,1.11-1.15,2.49a27.32,27.32,0,0,0,1.29,3.58A6.11,6.11,0,0,0,774.92,398.5Z" transform="translate(-344.51 -264.11)"/><path d="M783.84,436.35a1.13,1.13,0,0,1,.09.35c0,.28-.55.72-.94.9a9.71,9.71,0,0,1-1.82.42c.27,2,.53,3.82.81,5.89a25.64,25.64,0,0,0,3-.2c2-.38,2.68-1.57,2-3.47q-.84-2.25-1.76-4.46c-.39-.95-.79-1.9-1.2-2.84-.82-1.87-1.71-2.15-3.79-1.44-.25,2.55-.15,2.74,2,3.55.29.11.68.14.87.35A3.8,3.8,0,0,1,783.84,436.35Zm-6-1.9c-.06-.81-.11-1.68-.19-2.54a3,3,0,0,0-.27-.67c-.65-.06-1.42-.17-2.19-.22-1.06-.07-1.57.51-1.83,1.49s-.58,2.17-.88,3.24l-1.32,4.82c-.59,2.2,0,3.17,2.2,3.46,1.8.24,3.63.21,5.68.32.18-2.3.67-4.45-.43-6.56l-3.35-.16a2.15,2.15,0,0,1,0-1.12C775.71,435.38,777.34,435.44,777.86,434.45Zm4.29-5.85a1.8,1.8,0,0,1,2.28.79,10.32,10.32,0,0,1,1,2.16,44.61,44.61,0,0,0,4.29,9.31c1,1.5.61,2.51-1,3.5-3.29,2.07-6.94,2.25-10.63,2.13a38.87,38.87,0,0,1-5.48-.57,12.56,12.56,0,0,1-3.36-1.13c-1.17-.59-1.41-1.25-.82-2.35a26.55,26.55,0,0,0,2.35-6.51c.39-1.62.93-3.22,1.19-4.87a5.06,5.06,0,0,1,1.75-3.09C776.66,429,779.37,429.58,782.15,428.6Z" transform="translate(-344.51 -264.11)"/><path d="M770.21,409.13a7.6,7.6,0,0,1,.5,1.28c-1,.41-2,.85-2.92,1.15a13.49,13.49,0,0,0-4,2.15c-2,1.46-4.14,2.67-6.18,4s-4,2.82-6.06,4.23l-1.84,1.28a19,19,0,0,1-1.39-6c-.13-3.1-.35-6.19-.41-9.29a21.92,21.92,0,0,1,.39-4,19.18,19.18,0,0,1,4.6-10.4,11,11,0,0,1,1.24.67c3.27,2.4,6.58,4.75,9.76,7.26a23.84,23.84,0,0,1,3.57,3.8A45.82,45.82,0,0,1,770.21,409.13Z" transform="translate(-344.51 -264.11)" fill="#39f"/><path d="M791.07,414.94a65.69,65.69,0,0,1,12.62,5,12.78,12.78,0,0,0,7.13,1.67,2.52,2.52,0,0,0,.35-.81,90.36,90.36,0,0,0,0-10c-.24-2.48-1.26-4.89-2-7.6-2.4.12-4.49.41-6.12,1.78a41.4,41.4,0,0,1-5.86,3.64c-2,1.19-3.87,2.51-5.77,3.83a20.84,20.84,0,0,0-1.87,1.72A14.24,14.24,0,0,0,791.07,414.94Zm-14.25,3.84a19.35,19.35,0,0,0,3.93.87c4.19.28,4.8-3.45,3.72-5.78a6.29,6.29,0,0,0-6.24-3.85,2,2,0,0,0-.48,0c-.83.18-2,.11-2.42.62a17.58,17.58,0,0,0-2.17,3.6c-.11.21,0,.63.16.91C774,416.78,775,418.25,776.82,418.78Zm6.76-41.88a112.14,112.14,0,0,1,11.66,2.57c2,.51,3.36,2.1,4.64,3.59,1.61,1.87,3,3.94,4.57,5.84a18.23,18.23,0,0,1,3.11,5.34c.9,2.38,2,4.71,2.7,7.15,1.36,4.63,3.3,9.2,2.4,14.23a10.33,10.33,0,0,0,0,1.67A46.07,46.07,0,0,1,811.1,432c-.73,2.76-1.88,5.41-2.86,8.1-.38,1.05-.89,2.06-1.24,3.11-1,3-3.24,5.15-5.51,7.06-1.52,1.27-3.71,1.75-5.63,2.53-1,.42-2.14.65-3.16,1.09a15.29,15.29,0,0,1-9.31,1.28c-3-.59-6-.93-9-1.44-.86-.14-1.68-.49-2.53-.69-1.62-.39-3.24-.82-4.88-1.08a5.88,5.88,0,0,1-3.48-1.39,5.81,5.81,0,0,0-2-1.3c-3.33-1.19-5.1-3.87-6.73-6.73a73.62,73.62,0,0,1-6.13-15.24,37.93,37.93,0,0,1-1.89-10.05c-.07-2.37-.66-4.71-.66-7.11,0-6.49.89-12.76,4.77-18.16a33,33,0,0,1,7.77-8.05c1.43-1,2.79-2.1,4.26-3a5.3,5.3,0,0,1,2.43-.88,12.6,12.6,0,0,0,5.35-1.93,6.65,6.65,0,0,1,2.15-1A39.56,39.56,0,0,1,783.58,376.9Zm-12.87,33.51a7.6,7.6,0,0,0-.5-1.28,45.82,45.82,0,0,0-2.7-3.9,23.84,23.84,0,0,0-3.57-3.8c-3.18-2.51-6.49-4.86-9.76-7.26a11,11,0,0,0-1.24-.67,19.18,19.18,0,0,0-4.6,10.4,21.92,21.92,0,0,0-.39,4c.06,3.1.28,6.19.41,9.29a19,19,0,0,0,1.39,6l1.84-1.28c2-1.41,4-2.85,6.06-4.23s4.2-2.58,6.18-4a13.49,13.49,0,0,1,4-2.15C768.75,411.26,769.68,410.82,770.71,410.41Zm-16.18-18.68,5.35,4.13c1.77,1.37,3.51,2.77,5.32,4.08a24.41,24.41,0,0,1,6.06,6.71l1.31,2c1.86-.73,3.61-1.43,5.47-1a18,18,0,0,1,5,1.54c1.52.88,2.68,2.37,4.15,3.73,3.29-2.13,6.66-4.23,10-6.46s6.64-4.67,10-7.05a14.38,14.38,0,0,0-2-6.31,52.29,52.29,0,0,0-8.26-10.19,5.39,5.39,0,0,0-2-1.29,38.91,38.91,0,0,0-20.17-2.37,11.57,11.57,0,0,0-5.3,2.05,5.82,5.82,0,0,1-3,1.18,8.24,8.24,0,0,0-3.31,1.21,38.13,38.13,0,0,0-7.9,6.89A6,6,0,0,0,754.53,391.73ZM809.4,432a13.73,13.73,0,0,0,1.06-5.67,34.59,34.59,0,0,1-3.33-1.61,67.67,67.67,0,0,0-15.19-7.48,12.75,12.75,0,0,0-5-.46c-.14.44-.27.8-.36,1.18a4.29,4.29,0,0,1-3.36,3.33,10.67,10.67,0,0,1-6.14-.21,8.24,8.24,0,0,1-5.16-3.63c-.61-1.1-1.11-2.27-1.72-3.54-3.87.4-6.87,2.44-9.85,4.37-3.57,2.32-7.54,4.2-10.11,8.15.66,1.72,1.35,3.58,2.06,5.42,1.1,2.82,2.17,5.65,3.32,8.45a13,13,0,0,0,7.1,7.35c2.19.93,4.36,2,6.62,2.68,2.73.86,5.54,1.49,8.34,2.1,4.48,1,9,1.65,13.44,0,2.09-.79,4.25-1.43,6.25-2.4a15.56,15.56,0,0,0,4.74-3.12,24.6,24.6,0,0,0,3.88-6A72.21,72.21,0,0,0,809.4,432Z" transform="translate(-344.51 -264.11)"/><path d="M735.72,395.34c1.58,1.72,1.53,3,0,4.81s-3.12,3.84-4.65,5.77a5.45,5.45,0,0,1-2.47,2.18,2.43,2.43,0,0,0-1.11.88c-1.67,2.15-4.15,3.18-6.34,4.6a12.21,12.21,0,0,1-2.4.89,6.12,6.12,0,0,1,0-1.65c.79-2.17.21-4.26-.25-6.36a1.39,1.39,0,0,0-.26-.66c-2-2-3.83-4.2-6.75-4.7a15.88,15.88,0,0,0-7.34.37,8.36,8.36,0,0,1-1.37.43c-3.61.49-6,3-8.73,5.08a4,4,0,0,0-.84,1.16c-1.62,2.76-3,5.61-2.94,8.93a30.89,30.89,0,0,1-.36,4.28c-.48,3.47.26,6.85.69,10.24a17.46,17.46,0,0,0,1.74,5.19c1.49,3.15,2.75,6.45,5.26,9,1.16,1.19,2,2.69,3.13,3.9a15.16,15.16,0,0,0,10,5.1c2.6.21,5.23.23,7.84.3a2.57,2.57,0,0,0,1.17-.21c2.8-1.36,5.67-2.6,8.32-4.21a26.87,26.87,0,0,0,4.46-4,2.24,2.24,0,0,0,.54-1.51,12.52,12.52,0,0,0-.39-3.06,22.06,22.06,0,0,0-3.42-7.07,5.83,5.83,0,0,1-.72-1.23c-.6-1.41-.42-1.91.91-2.74,2.35-1.48,2.86-1.38,4.37,1a80.88,80.88,0,0,0,4.53,7c1.68,2.1,2.57,4.51,3.77,6.82a16.08,16.08,0,0,1,2.25,7.4,22.84,22.84,0,0,1-.65,6.12,28.88,28.88,0,0,1-3.45,7.54,5.89,5.89,0,0,1-1,1.29,33.13,33.13,0,0,1-6.43,4.47c-2.41,1.28-4.9,2.29-7.38,3.34a21.28,21.28,0,0,1-7.42,1.73,62.4,62.4,0,0,1-16-1.14,22.13,22.13,0,0,1-5.87-2.57,19.81,19.81,0,0,1-7.35-6.35,1.8,1.8,0,0,0-.3-.37c-4.11-3.45-5.69-8.4-7.52-13.1a85.26,85.26,0,0,1-4.35-14.64c-.45-2.35-.79-4.72-1.12-7.09s-.59-4.9-.91-7.35c-.15-1.18-.43-2.35-.51-3.54a63.44,63.44,0,0,1,.75-15.26,12.46,12.46,0,0,1,2.54-5.61,66.36,66.36,0,0,1,5.54-6,29.07,29.07,0,0,1,3.07-2.28c.69-.53,1.33-1.13,2-1.65a29.64,29.64,0,0,1,4.25-3.06,24.21,24.21,0,0,1,13.18-2.62c.86.08,1.74-.08,2.6-.08s1.71.06,2.57.12c.31,0,.62.17.93.16l5.91-.36a4.21,4.21,0,0,1,1.42.08c6.19,1.81,12.1,4.09,16.16,9.52A8.64,8.64,0,0,0,735.72,395.34Z" transform="translate(-344.51 -264.11)" fill="#999"/><path d="M711.85,357.9a5.24,5.24,0,0,1,3.66,2.64,1.08,1.08,0,0,1-.16,1.06c-.92.81-1.78,1.89-3.5,1.21Z" transform="translate(-344.51 -264.11)" fill="#6f0"/><path d="M717.28,371c-2,1.09-3.95,1.06-6,1.25a8.85,8.85,0,0,1-.16-1.37c.11-1.84.54-2.23,2.4-2a10.44,10.44,0,0,1,2.72.78C716.65,369.83,716.87,370.41,717.28,371Z" transform="translate(-344.51 -264.11)" fill="#996"/><path d="M714.75,339.51a6.1,6.1,0,0,1,3.11,6.2c-.05.63-.12,1.27-.21,1.9a5.34,5.34,0,0,1-4.56,4.52c-.56.09-1.12.12-1.66.23-4.78,1-8.82-3.06-8.74-7.8,0-.32.09-.79.12-1.27.35-5.33,5.58-6.51,8.93-5.21A20.25,20.25,0,0,1,714.75,339.51Z" transform="translate(-344.51 -264.11)" fill="#6f0"/><path d="M704.58,366.6c1.3-1,2.78-.78,4.56-1.06-.14.68-.13,1.17-.27,1.22a10.18,10.18,0,0,1-2,.43A4.57,4.57,0,0,1,704.58,366.6Z" transform="translate(-344.51 -264.11)" fill="#9c6"/><path d="M708.51,374.71a1.9,1.9,0,0,1,.27,2.42,1.86,1.86,0,0,1-2.16.54c-1-.25-2.3-.06-2.81-1.53C704.93,373.75,706.9,375,708.51,374.71Z" transform="translate(-344.51 -264.11)" fill="#4d4d4d"/><path d="M704.58,366.6a4.57,4.57,0,0,0,2.32.59,10.18,10.18,0,0,0,2-.43c.14-.05.13-.54.27-1.22C707.36,365.82,705.88,365.62,704.58,366.6Zm11.68,3a10.44,10.44,0,0,0-2.72-.78c-1.86-.27-2.29.12-2.4,2a8.85,8.85,0,0,0,.16,1.37c2-.19,4-.16,6-1.25C716.87,370.41,716.65,369.83,716.26,369.65Zm-13.57-25.09c-.08,4.74,4,8.81,8.74,7.8.54-.11,1.1-.14,1.66-.23a5.34,5.34,0,0,0,4.56-4.52c.09-.63.16-1.27.21-1.9a6.1,6.1,0,0,0-3.11-6.2,20.25,20.25,0,0,0-3-1.43c-3.35-1.3-8.58-.12-8.93,5.21C702.78,343.77,702.72,344.24,702.69,344.56Zm12.82,16a5.24,5.24,0,0,0-3.66-2.64v4.91c1.72.68,2.58-.4,3.5-1.21A1.08,1.08,0,0,0,715.51,360.54Zm-11.7,15.6c.51,1.47,1.78,1.28,2.81,1.53a1.86,1.86,0,0,0,2.16-.54,1.9,1.9,0,0,0-.27-2.42C706.9,375,704.93,373.75,703.81,376.14Zm-19.72,89c-.9-1.68-1.84-3.34-2.71-5a37.67,37.67,0,0,1-1.8-3.87c-.79-2.08-1.46-4.2-2.15-6.32-.2-.6-.3-1.24-.46-1.85-.33-1.24-.61-2.49-1-3.69a24.46,24.46,0,0,1-1.3-5.81,57.72,57.72,0,0,0-1.18-6.08,4.17,4.17,0,0,1-.24-.92c.25-3.31-1-6.47-1-9.71a128.63,128.63,0,0,1,.37-13.59c.53-5.58,3.94-9.22,7.25-13.07,0-.06.14-.09.19-.14,2.48-2.86,5.69-4.82,8.64-7.1a18.19,18.19,0,0,1,3.82-2.44,23.67,23.67,0,0,1,9-2.28c1.92,0,3.83-.09,5.74-.17.77,0,1.54-.15,2.53-.26-.07-1.05-.13-1.88-.19-2.85-2.68-.3-5.27-.37-7.51-1.71a7.57,7.57,0,0,1-1.38-1.39,6.41,6.41,0,0,0,.36-1.17c.3-2.41,1.94-3.11,4-3.22l3.57-.17c.19-1,.36-1.86.59-3a15.27,15.27,0,0,0-2.05-.07,7.47,7.47,0,0,1-7.08-2.94c.7-1.48,2-1.9,3.46-2.12s2.7-.31,4-.6c1.67-.35,1.89-.7,2.07-2.44a8.54,8.54,0,0,0-.69-4.2c-.84-2.05-1.78-3.86-4.43-3.87-.4,0-.93-.58-1.19-1a31.47,31.47,0,0,1-2.08-4,7.28,7.28,0,0,1-.59-3,20.65,20.65,0,0,1,.73-4.47,5.23,5.23,0,0,1,1.28-1.91c2.2-2.48,4.67-3.76,8.22-2.78a15,15,0,0,1,5.64,2.4,9.28,9.28,0,0,1,3.15,10.54,7.78,7.78,0,0,1-4.71,5.08c-.8.27-1.54.7-2.48,1.13a16.11,16.11,0,0,0,4,3.27c2.67,1.57,2.79,3.08.27,4.84a19.14,19.14,0,0,1-3.85,1.82c-.79.33-.82.26-1.69,1.46a10.9,10.9,0,0,0,1.78.52c.87.1,1.75.1,2.63.12a4.43,4.43,0,0,1,3.55,2.07c1.5,1.89.68,4.28-1.93,4.48-1.42.11-2.84.26-4.27.39-.87.08-1.81,0-2,1.22-.3,1.72.18,2.83,1.43,3.34.57.23,1.12.49,1.73.77a6.15,6.15,0,0,1-2.42,1.43c-.21,1.86-.21,1.92,1.2,2.16a21.92,21.92,0,0,0,3.33.3,14.05,14.05,0,0,1,6.07,1.17,1.54,1.54,0,0,0,.44.19c3.51.34,6.13,2.55,8.95,4.3a19.35,19.35,0,0,1,2.81,2.56c1.66,1.59,2.94,3.56,4.94,4.82a1.62,1.62,0,0,1,.21,2.79,18.06,18.06,0,0,0-3.52,4.18c-.93,1.38-2.23,2.5-3.22,3.85a28.67,28.67,0,0,1-9.69,7.95c-2.09,1.15-4.22,2.24-6.35,3.33s-2.17,1.09-3.3-1.46c.75-1,1.5-2.11,2.4-3.09a3.32,3.32,0,0,0,.91-2.1,6.43,6.43,0,0,0-2.16-6,10,10,0,0,0-6.05-2.45c-3-.2-5.56,1.3-8.35,1.82-3.54,2.52-7.08,5.11-7.87,9.77-.5,2.89-.67,5.84-.88,8.77-.23,3.3.56,6.5,1.29,9.67a27.47,27.47,0,0,0,2,5.12,34.6,34.6,0,0,0,9.55,12.11,11.94,11.94,0,0,0,7.34,2.47c2,.1,4,.07,6,.2s3.38-.88,4.91-1.67c1.84-.95,3.57-2.1,5.35-3.16a5.5,5.5,0,0,0,3-4.83,10.37,10.37,0,0,0-1.14-4.1,50,50,0,0,0-3-5.14c-.42-.67-1.05-1.19-1.52-1.83-1-1.38-.52-2.56,1.19-2.57a5.41,5.41,0,0,0,4.72-2.28,1.91,1.91,0,0,1,3.44.58c1.24,3.36,3.7,5.93,5.42,8.95,1.31,2.29,2.93,4.4,4.07,6.74a30.45,30.45,0,0,1,2.36,8A17.16,17.16,0,0,1,745,462.06c-.52,1.15-.66,2.49-1.28,3.57-1.46,2.56-3.11,5-5.73,6.58-4.11,2.47-8.24,4.9-12.87,6.28-3.44,1-6.88,2.13-10.54,1.22a1.1,1.1,0,0,0-.47,0c-3.86.91-7.61-.22-11.4-.6a4.91,4.91,0,0,1-1.63-.37c-3.91-1.8-8-3.41-11-6.53-1.64-1.7-3.34-3.37-4.94-5.12A8.86,8.86,0,0,1,684.09,465.16Zm51.64-65c1.52-1.79,1.57-3.09,0-4.81a8.64,8.64,0,0,1-.69-.66c-4.06-5.43-10-7.71-16.16-9.52a4.21,4.21,0,0,0-1.42-.08l-5.91.36c-.31,0-.62-.14-.93-.16-.86-.06-1.71-.11-2.57-.12s-1.74.16-2.6.08a24.21,24.21,0,0,0-13.18,2.62,29.64,29.64,0,0,0-4.25,3.06c-.69.52-1.33,1.12-2,1.65a29.07,29.07,0,0,0-3.07,2.28,66.36,66.36,0,0,0-5.54,6,12.46,12.46,0,0,0-2.54,5.61,63.44,63.44,0,0,0-.75,15.26c.08,1.19.36,2.36.51,3.54.32,2.45.57,4.9.91,7.35s.67,4.74,1.12,7.09A85.26,85.26,0,0,0,681,454.3c1.83,4.7,3.41,9.65,7.52,13.1a1.8,1.8,0,0,1,.3.37,19.81,19.81,0,0,0,7.35,6.35,22.13,22.13,0,0,0,5.87,2.57,62.4,62.4,0,0,0,16,1.14,21.28,21.28,0,0,0,7.42-1.73c2.48-1.05,5-2.06,7.38-3.34a33.13,33.13,0,0,0,6.43-4.47,5.89,5.89,0,0,0,1-1.29,28.88,28.88,0,0,0,3.45-7.54,22.84,22.84,0,0,0,.65-6.12,16.08,16.08,0,0,0-2.25-7.4c-1.2-2.31-2.09-4.72-3.77-6.82a80.88,80.88,0,0,1-4.53-7c-1.51-2.35-2-2.45-4.37-1-1.33.83-1.51,1.33-.91,2.74a5.83,5.83,0,0,0,.72,1.23,22.06,22.06,0,0,1,3.42,7.07,12.52,12.52,0,0,1,.39,3.06,2.24,2.24,0,0,1-.54,1.51,26.87,26.87,0,0,1-4.46,4c-2.65,1.61-5.52,2.85-8.32,4.21a2.57,2.57,0,0,1-1.17.21c-2.61-.07-5.24-.09-7.84-.3a15.16,15.16,0,0,1-10-5.1c-1.14-1.21-2-2.71-3.13-3.9-2.51-2.59-3.77-5.89-5.26-9a17.46,17.46,0,0,1-1.74-5.19c-.43-3.39-1.17-6.77-.69-10.24a30.89,30.89,0,0,0,.36-4.28c0-3.32,1.32-6.17,2.94-8.93a4,4,0,0,1,.84-1.16c2.7-2.05,5.12-4.59,8.73-5.08a8.36,8.36,0,0,0,1.37-.43,15.88,15.88,0,0,1,7.34-.37c2.92.5,4.77,2.73,6.75,4.7a1.39,1.39,0,0,1,.26.66c.46,2.1,1,4.19.25,6.36a6.12,6.12,0,0,0,0,1.65,12.21,12.21,0,0,0,2.4-.89c2.19-1.42,4.67-2.45,6.34-4.6a2.43,2.43,0,0,1,1.11-.88,5.45,5.45,0,0,0,2.47-2.18C732.61,404,734.12,402,735.73,400.15Z" transform="translate(-344.51 -264.11)"/><path d="M645.89,315c-.06,1.34-.87,1.67-1.88.79a5.4,5.4,0,0,1-1.53-2.06c-1.2-3.18-.22-6,1.87-8.44a3.48,3.48,0,0,1,3-1c1.32,2.32,1.74,4,1.86,7.45-.28.16-.41.29-.55.3A2.7,2.7,0,0,0,645.89,315Z" transform="translate(-344.51 -264.11)" fill="#f90"/><path d="M645.55,374.61c-1.56-1.52-1.63-3-.62-4.53C645.45,371.47,646.05,372.84,645.55,374.61Z" transform="translate(-344.51 -264.11)" fill="#93f"/><path d="M665.84,399.2a34.31,34.31,0,0,0,.58,7.08,7.47,7.47,0,0,1,.1,1.43c.15,2.3.23,4.61.46,6.91.43,4.36.94,8.71,1.44,13.06.41,3.64,1,7.27,1.28,10.91.62,7,2,13.84,2.14,20.88.09,4.68.8,9.36,1.22,14,.25,2.76-2,6-4.82,7.69s-6.24,2.44-9.44,3.28c-3,.78-5.62-.54-7.69-2.8a3.09,3.09,0,0,1-.54-1.54c-.55-3.69-1.16-7.38-1.55-11.1-.32-3-.37-6.05-.54-9.08-.18-3.34-.25-6.68-.56-10q-.81-8.56-1.9-17.11c-.36-2.84-1-5.64-1.54-8.47-.56-3.06-1.17-6.11-1.64-9.18-.42-2.76-.66-5.54-1-8.31a12.91,12.91,0,0,0-.8-3.71,19,19,0,0,1-1.4-6c-.45-3.48-.86-7-1.28-10.45a3.43,3.43,0,0,1-.06-.95c.78-4.61-.8-9-1-13.56-.12-2.22-.53-4.44,0-6.82,2.64-.41,3.33-2.28,3.07-4.6.93-.37,1.29.17,1.35.7q.33,2.84.47,5.68c.12,2.38-.13,4.81.29,7.13a10.42,10.42,0,0,0,2.26,4.12,1.5,1.5,0,0,0,2.8-.69,21.59,21.59,0,0,0,.2-4.75c-.14-2.23-.53-4.44-.77-6.66a4.05,4.05,0,0,1,.4-2.86c1.65.45,2,1.73,2.25,3.07.35,2.12.69,4.24.9,6.38a50.18,50.18,0,0,1,.19,5.48c-.06,4.71-.18,9.41-.28,14.12,0,.31-.13.68,0,.94,1,2.06,2,4.11,3.11,6.14a1.62,1.62,0,0,0,1,.57c1,.2,3.82-1.58,3.94-2.62.51-4.26,1.5-8.51.67-12.85-.37-1.88-.84-3.74-1.14-5.63s-.24-4,1.36-5.52c1,.51,1,1.47,1.23,2.29.52,2,1.1,4.14,2.54,5.63a6.31,6.31,0,0,1,1.62,4.44C665,390.31,665.63,394.75,665.84,399.2Z" transform="translate(-344.51 -264.11)" fill="#60f"/><path d="M643.35,303A8.12,8.12,0,0,0,640,310.8c0,.32.06.64.07,1a7.93,7.93,0,0,0,2.24,6c-1,0-1.52.15-1.8,0a2.46,2.46,0,0,1-.79-1.16c-1.41-3.79-2.28-7.6-1.17-11.69a75.56,75.56,0,0,0,1.36-7.53c.39-2.36.73-4.73,1.12-7.08a4.16,4.16,0,0,1,.45-1,17.49,17.49,0,0,1,5.42,3.41,26.75,26.75,0,0,1,5,4.72c1.9,2.55,3.3,5.42,2.74,8.86a19.3,19.3,0,0,0,.15,3.55c.09,3-.55,5.71-3.33,7.44-.11.06-.3,0-.54,0,.06-1.7.11-3.42.19-5.14a30.86,30.86,0,0,0-.64-6.63C649.86,302.05,647,300.2,643.35,303Z" transform="translate(-344.51 -264.11)" fill="#fc0"/><path d="M639.7,281.55c-.75-3,.11-5.29.76-7.63.08-.29.64-.73.82-.66a2.37,2.37,0,0,1,.92.89.87.87,0,0,1,.08.69c-.48,1.91-1,3.81-1.51,5.7C640.68,280.84,640.26,281,639.7,281.55Z" transform="translate(-344.51 -264.11)" fill="#fc0"/><path d="M644.38,365.7c-.15-1.89-.34-3.78-.45-5.67a3.79,3.79,0,0,0-4-3.59,2.18,2.18,0,0,0-1.91,1.24,4.48,4.48,0,0,1-.95,1.52c-.1-1-.2-2.08-.31-3.12s-.26-2.05-.38-3.08-.09-1.92-.28-2.85a14.9,14.9,0,0,1-.44-5,10.62,10.62,0,0,0-.24-2.13c-.06-.78-.06-1.57-.05-2.35,0-.48.23-1,.09-1.42-.75-2.09.15-3.94.86-5.77.81-2.08,2.72-2.92,4.73-3.19a61.81,61.81,0,0,0,11.2-2.45c3.4-1.12,6.45.06,9.48,1.34a2.25,2.25,0,0,1,1,1.25c1.17,3.3,2.43,6.6,2.18,10.21a2,2,0,0,0,0,.48c.82,3.64.07,7.3.08,10.95,0,2.31.26,4.61.35,6.92.13,2.94.28,5.88.29,8.82,0,2.7-.1,5.39-.24,8.08a11.62,11.62,0,0,1-.62,2.26,2.3,2.3,0,0,1-2.2-1.83c-.41-1.54-.76-3.09-1.13-4.64a7.34,7.34,0,0,0-.23-1.17,1.72,1.72,0,0,0-2.76-.68,3.1,3.1,0,0,0-.64.71c-1.75,2.7-2.68,5.57-1.9,8.83.6,2.48,1.17,5,1.63,7.49a11.1,11.1,0,0,1,0,3.1c-.19,1.66-.52,3.31-.79,5A2.13,2.13,0,0,1,655,397c-1.63-2.11-3.11-4.18-2.88-7.21a99.37,99.37,0,0,0,.28-12.44,80.77,80.77,0,0,0-1.94-15.15c-.32-1.32-.93-2-2-2.06a2.92,2.92,0,0,0-3,1.85,13,13,0,0,0-.41,1.87A4.62,4.62,0,0,1,644.38,365.7Z" transform="translate(-344.51 -264.11)" fill="#93f"/><path d="M636.46,461.88c.95,2,2.59,3.84,1.43,6.66-.6-.34-1.06-.45-1.24-.74-1.9-3.19-3.76-6.42-5.47-9.78C633.46,458.65,635.4,459.65,636.46,461.88Z" transform="translate(-344.51 -264.11)" fill="#fff"/><path d="M640.77,280.54c.55-1.89,1-3.79,1.51-5.7a.87.87,0,0,0-.08-.69,2.37,2.37,0,0,0-.92-.89c-.18-.07-.74.37-.82.66-.65,2.34-1.51,4.67-.76,7.63C640.26,281,640.68,280.84,640.77,280.54Zm4.78,94.07c.5-1.77-.1-3.14-.62-4.53C643.92,371.65,644,373.09,645.55,374.61Zm-3.07-60.91a5.4,5.4,0,0,0,1.53,2.06c1,.88,1.82.55,1.88-.79a2.7,2.7,0,0,1,2.78-2.93c.14,0,.27-.14.55-.3-.12-3.44-.54-5.13-1.86-7.45a3.48,3.48,0,0,0-3,1C642.26,307.73,641.28,310.52,642.48,313.7Zm-9.6,26.46a13,13,0,0,1,2.51-9.72,2.19,2.19,0,0,1,.88-.78c2.38-.85,4.51-2.43,7.23-2.29a15.52,15.52,0,0,0,3.33-.24c1.18-.19,1.47-.68,1.29-1.85a5.38,5.38,0,0,0-2-3.56,24.6,24.6,0,0,1-2.52.38c-1.79.08-3.13-1.06-4.57-1.89-1-.58-1.09-1.7-1.41-2.67s-.61-1.65-.93-2.46a4.16,4.16,0,0,1-.39-.87,28.57,28.57,0,0,1-.56-5.42A36.78,36.78,0,0,1,637,302a23.84,23.84,0,0,0,.84-5.17,24.32,24.32,0,0,1,.54-5.34,16,16,0,0,0,.2-5.93,3.72,3.72,0,0,0-.42-1.36,12.58,12.58,0,0,1-1.26-5.54,7.94,7.94,0,0,1,1.67-5.58,13.83,13.83,0,0,0,1.2-2.58c.56-1.29,1.75-1.6,2.6-.52,1.36,1.74,2.3,3.67,1.62,6-.29,1-.65,2-.88,3a10.85,10.85,0,0,0-.36,2.59c0,1.19.2,2.38-.57,3.46a1.3,1.3,0,0,0,.23,1.76,13.23,13.23,0,0,0,2.71,2.27c5,2.74,8.46,6.92,11.07,11.87a5.14,5.14,0,0,1,.55,2.06c.09,3.11.19,6.22.13,9.32a8.49,8.49,0,0,1-4,7c-3.4,2.32-3.46,2.22-2,6a2.63,2.63,0,0,0,.32.41,6.2,6.2,0,0,0,1.87,0c3.67-1.14,6.91.22,10.12,1.67a2.93,2.93,0,0,1,1.18,1.4,26,26,0,0,1,2.61,11.79c0,1.35.12,2.71.17,4.06a17.25,17.25,0,0,1,.06,2.87,58.37,58.37,0,0,0,.1,11c.31,4.78.7,9.55.82,14.33.05,2.09.31,4.3-.93,6.26a3.35,3.35,0,0,0-.37,1.61,139.16,139.16,0,0,0,.68,15.55c.08,1,.21,1.91.28,2.86.5,6.76.89,13.52,1.51,20.27.4,4.28,1.18,8.53,1.73,12.81a72.88,72.88,0,0,1,.69,7.37c.07,2.4.7,4.7,1,7.06.47,3.95.87,7.91,1.29,11.87.45,4.28,1,8.56,1.32,12.85a37.92,37.92,0,0,1,0,5.74,6.08,6.08,0,0,1-2.85,4.47c-1.9,1.41-3.74,3-6.32,3.14-.49,0-.94.57-1.43.83a3.63,3.63,0,0,1-1.1.46c-2,.28-4,1-6,1.34a8.27,8.27,0,0,1-7.66-2.44,6.69,6.69,0,0,1-1.29-3.23c-.4-1.94-.58-3.92-.86-5.89-.24-1.73-.47-3.48-.75-5.21a41.46,41.46,0,0,1-.47-10.2,32.57,32.57,0,0,0-.34-4.5c-.13-2.15-.14-4.3-.35-6.44-.31-3.24-.75-6.48-1.13-9.71-.24-2.05-.41-4.1-.7-6.14-.38-2.6-.83-5.18-1.28-7.77a141.54,141.54,0,0,1-2.38-17.05,14.47,14.47,0,0,0-.68-3.49,42.38,42.38,0,0,1-1.63-8.2c-.2-1.82-.56-3.62-.77-5.45-.23-2.05-.5-4.11-.55-6.18a125.85,125.85,0,0,0-1.26-13.56,81,81,0,0,1-.72-13.12c.13-3.93-.78-7.76-.92-11.66C632.75,344.81,633.23,342.42,632.88,340.16ZM643.35,303c3.67-2.84,6.51-1,7.1,2.51a30.86,30.86,0,0,1,.64,6.63c-.08,1.72-.13,3.44-.19,5.14.24,0,.43.06.54,0,2.78-1.73,3.42-4.43,3.33-7.44a19.3,19.3,0,0,1-.15-3.55c.56-3.44-.84-6.31-2.74-8.86a26.75,26.75,0,0,0-5-4.72,17.49,17.49,0,0,0-5.42-3.41,4.16,4.16,0,0,0-.45,1c-.39,2.35-.73,4.72-1.12,7.08a75.56,75.56,0,0,1-1.36,7.53c-1.11,4.09-.24,7.9,1.17,11.69a2.46,2.46,0,0,0,.79,1.16c.28.19.79,0,1.8,0a7.93,7.93,0,0,1-2.24-6c0-.32,0-.64-.07-1A8.12,8.12,0,0,1,643.35,303Zm10.14,96.52c-1.08-2-2.11-4.08-3.11-6.14-.13-.26,0-.63,0-.94.1-4.71.22-9.41.28-14.12a50.18,50.18,0,0,0-.19-5.48c-.21-2.14-.55-4.26-.9-6.38-.22-1.34-.6-2.62-2.25-3.07a4.05,4.05,0,0,0-.4,2.86c.24,2.22.63,4.43.77,6.66a21.59,21.59,0,0,1-.2,4.75,1.5,1.5,0,0,1-2.8.69,10.42,10.42,0,0,1-2.26-4.12c-.42-2.32-.17-4.75-.29-7.13q-.14-2.85-.47-5.68c-.06-.53-.42-1.07-1.35-.7.26,2.32-.43,4.19-3.07,4.6-.56,2.38-.15,4.6,0,6.82.25,4.53,1.83,8.95,1,13.56a3.43,3.43,0,0,0,.06.95c.42,3.48.83,7,1.28,10.45a19,19,0,0,0,1.4,6,12.91,12.91,0,0,1,.8,3.71c.37,2.77.61,5.55,1,8.31.47,3.07,1.08,6.12,1.64,9.18.52,2.83,1.18,5.63,1.54,8.47q1.1,8.55,1.9,17.11c.31,3.33.38,6.67.56,10,.17,3,.22,6.07.54,9.08.39,3.72,1,7.41,1.55,11.1a3.09,3.09,0,0,0,.54,1.54c2.07,2.26,4.69,3.58,7.69,2.8,3.2-.84,6.49-1.51,9.44-3.28s5.07-4.93,4.82-7.69c-.42-4.68-1.13-9.36-1.22-14-.14-7-1.52-13.91-2.14-20.88-.33-3.64-.87-7.27-1.28-10.91-.5-4.35-1-8.7-1.44-13.06-.23-2.3-.31-4.61-.46-6.91a7.47,7.47,0,0,0-.1-1.43,34.31,34.31,0,0,1-.58-7.08c-.21-4.45-.8-8.89-1.12-13.33a6.31,6.31,0,0,0-1.62-4.44c-1.44-1.49-2-3.6-2.54-5.63-.22-.82-.18-1.78-1.23-2.29-1.6,1.56-1.67,3.52-1.36,5.52s.77,3.75,1.14,5.63c.83,4.34-.16,8.59-.67,12.85-.12,1-2.9,2.82-3.94,2.62A1.62,1.62,0,0,1,653.49,399.56Zm11.32-21.39a11.62,11.62,0,0,0,.62-2.26c.14-2.69.25-5.38.24-8.08,0-2.94-.16-5.88-.29-8.82-.09-2.31-.33-4.61-.35-6.92,0-3.65.74-7.31-.08-10.95a2,2,0,0,1,0-.48c.25-3.61-1-6.91-2.18-10.21a2.25,2.25,0,0,0-1-1.25c-3-1.28-6.08-2.46-9.48-1.34a61.81,61.81,0,0,1-11.2,2.45c-2,.27-3.92,1.11-4.73,3.19-.71,1.83-1.61,3.68-.86,5.77.14.41-.09.94-.09,1.42,0,.78,0,1.57.05,2.35a10.62,10.62,0,0,1,.24,2.13,14.9,14.9,0,0,0,.44,5c.19.93.18,1.9.28,2.85s.27,2.05.38,3.08.21,2.08.31,3.12a4.48,4.48,0,0,0,.95-1.52,2.18,2.18,0,0,1,1.91-1.24,3.79,3.79,0,0,1,4,3.59c.11,1.89.3,3.78.45,5.67a4.62,4.62,0,0,0,.61-1.82,13,13,0,0,1,.41-1.87,2.92,2.92,0,0,1,3-1.85c1.06.11,1.67.74,2,2.06a80.77,80.77,0,0,1,1.94,15.15,99.37,99.37,0,0,1-.28,12.44c-.23,3,1.25,5.1,2.88,7.21A2.13,2.13,0,0,0,656.8,395c.27-1.66.6-3.31.79-5a11.1,11.1,0,0,0,0-3.1c-.46-2.51-1-5-1.63-7.49-.78-3.26.15-6.13,1.9-8.83a3.1,3.1,0,0,1,.64-.71,1.72,1.72,0,0,1,2.76.68,7.34,7.34,0,0,1,.23,1.17c.37,1.55.72,3.1,1.13,4.64A2.3,2.3,0,0,0,664.81,378.17Z" transform="translate(-344.51 -264.11)"/><path d="M641,467.77c-.83-4.26-2-8.39-6.33-10.63a20.74,20.74,0,0,1-1.75-1.25c-.79-.54-1.59-1.05-2.4-1.56a1.4,1.4,0,0,0-1.38-.15L626.93,453a25.15,25.15,0,0,1,2.58-1.59,3.94,3.94,0,0,1,4.86.57c1.34,1.22,3.09,1.84,4.26,3.39s2.52,3.06,2.89,5.11a3.16,3.16,0,0,0,.42,1.12c1.19,1.91,1.22,4.07,1.38,6.18L641,468A1.52,1.52,0,0,0,641,467.77Z" transform="translate(-344.51 -264.11)" fill="#fc0"/><path d="M641,468c.16,1.64-1.57,3-4,3-1,0-1.8-1.09-2.5-2.3-1.17-2.05-2.3-4.13-3.5-6.17a13.5,13.5,0,0,0-1.44-1.87,5.61,5.61,0,0,1-1.71-3.58,4.52,4.52,0,0,1,.57-2.21,1.58,1.58,0,0,1,.67-.66,1.4,1.4,0,0,1,1.38.15c.81.51,1.61,1,2.4,1.56a20.74,20.74,0,0,0,1.75,1.25c4.31,2.24,5.5,6.37,6.33,10.63A1.52,1.52,0,0,1,641,468Zm-3.12.56c1.16-2.82-.48-4.66-1.43-6.66-1.06-2.23-3-3.23-5.28-3.86,1.71,3.36,3.57,6.59,5.47,9.78C636.83,468.09,637.29,468.2,637.89,468.54Z" transform="translate(-344.51 -264.11)"/><path d="M627,480.9c-.57.16-1.14.36-1.69.57l-.65-1.49a1.32,1.32,0,0,0,1.5-1.3c-.3-.26-.64-.57-1-.86a14.89,14.89,0,0,1-1.33-1,13,13,0,0,1-4-12.38,5.62,5.62,0,0,0,.05-1.42c0-.91-.64-1.16-1.43-1.14,0,0,0,0,0-.05h0a14.06,14.06,0,0,1,1.36-2.16c1-1.19,2.21-2.25,3.31-3.4a25.52,25.52,0,0,1,3.85-3.27l2.19,1.17a1.58,1.58,0,0,0-.67.66,4.52,4.52,0,0,0-.57,2.21,5.61,5.61,0,0,0,1.71,3.58A13.5,13.5,0,0,1,631,462.5c1.2,2,2.33,4.12,3.5,6.17.7,1.21,1.52,2.26,2.5,2.3,2.41,0,4.14-1.35,4-3l2.31-.19c0,.17,0,.34,0,.51.27,2.92-1.38,5.17-3.45,6.74-1.9,1.45-4.38,2.15-6.6,3.17-.15.07-.33.06-.46.14A22.46,22.46,0,0,1,627,480.9Z" transform="translate(-344.51 -264.11)" fill="#fc0"/><path d="M621.93,478.28a8.78,8.78,0,0,0-2.38-2.94,2.22,2.22,0,0,1-.89-1.36c-.3-2.58-1.51-5-1.09-7.7.24-1.47.56-2.94.86-4.4.79,0,1.39.23,1.43,1.14a5.62,5.62,0,0,1-.05,1.42,13,13,0,0,0,4,12.38,14.89,14.89,0,0,0,1.33,1c.36.29.7.6,1,.86a1.32,1.32,0,0,1-1.5,1.3h-.26A3.06,3.06,0,0,1,621.93,478.28Z" transform="translate(-344.51 -264.11)"/><path d="M618.44,461.83s0,0,0,.05h0Z" transform="translate(-344.51 -264.11)"/><path d="M618.44,461.83l-.05.05a.08.08,0,0,0,0,0Z" transform="translate(-344.51 -264.11)" fill="#fff"/><path d="M621.93,478.28a3.06,3.06,0,0,0,2.46,1.69h.26l.65,1.49c-.93.35-1.85.74-2.79,1.07a9.32,9.32,0,0,1-1.45.24c-.18-.69-.35-1.28-.53-2-2,0-3.22-1.19-4.27-2.65-.18-.26-.36-.53-.55-.79a11.19,11.19,0,0,1-1.49-12.08,3.6,3.6,0,0,0,.19-1.15,7,7,0,0,0-.08-1c1.4-.47,2.74-.9,4.08-1.34a.08.08,0,0,1,0,0h0c-.3,1.46-.62,2.93-.86,4.4-.42,2.66.79,5.12,1.09,7.7a2.22,2.22,0,0,0,.89,1.36A8.78,8.78,0,0,1,621.93,478.28Z" transform="translate(-344.51 -264.11)" fill="#fc0"/><path d="M560.94,449.63c.84,2.32,1.68,4.64,2.58,6.94.16.41.61.71.93,1.07a24.78,24.78,0,0,0,2.84,3.19,60,60,0,0,1,5.2,4.88,14.94,14.94,0,0,0,2.94,1.93,9.35,9.35,0,0,0,1.67.91,26.65,26.65,0,0,0,14.83.75c1.32-.29,2.65-.61,4-.77,4.18-.47,8-2.13,12-3.4.89-.28,1.79-.54,2.87-.86a18.8,18.8,0,0,1,.65,6.3c0,3.89,1.73,6.88,4.09,9.66.93,1.09,2,2.08,3.08,3.24a6.27,6.27,0,0,1-1.07.63c-2.78,1-5.53,2.06-8.36,2.84a92.68,92.68,0,0,1-11.72,2.31c-3.75.53-7.48.45-11.22.66a15.64,15.64,0,0,1-2.8-.28,14.89,14.89,0,0,0-1.63-.24c-1.91,0-3.83,0-5.75,0s-4,.16-5.9-.68a3.05,3.05,0,0,0-1.17-.23c-4.75,0-9-1.86-13.37-3.41-5-1.77-8.17-5.38-10.81-9.69-3-4.81-4.69-10.09-6.25-15.48a54.25,54.25,0,0,1-2-9.83c0-.39-.07-.79-.08-1.18a24.64,24.64,0,0,1,.48-7.15,48.41,48.41,0,0,0,.72-5.91,35,35,0,0,1,3.21-11.47c1.62-3.47,3.14-7,4.84-10.41a11.89,11.89,0,0,1,.86-1.46c.54-.78,1.13-1.53,1.67-2.31.82-1.18,1.62-2.38,2.48-3.53a74.93,74.93,0,0,1,5.56-7.17,28,28,0,0,1,5.72-4.25c2.24-1.37,4.65-2.47,7-3.68a3.32,3.32,0,0,1,1.1-.43,21.66,21.66,0,0,0,6.55-2.21c3.08-1.43,6.49-1.62,9.75-2.33,1.86-.41,3.79-.49,5.68-.82,5.34-.94,10.32.48,15,2.67a58.81,58.81,0,0,1,8.08,5.08,18.58,18.58,0,0,1,2.76,2.64c2.67,2.81,5.53,5.46,7.58,8.81,1.75,2.85,3.69,5.59,5.24,8.54a54.82,54.82,0,0,1,2.94,7.32c.48,1.34-.07,2.17-1.35,2.84a7.43,7.43,0,0,0-2.08,1.52,11,11,0,0,1-8.29,3.61c-2.23.08-4.61,0-6.63.73-2.82,1.07-5.77,1.19-8.61,1.92-2.09.54-4.22.85-6.34,1.27a16.83,16.83,0,0,0-2.1.49c-3.43,1.16-7,1.39-10.58,1.77-3.09.32-6.15.92-9.24,1.25-2.85.31-5.72.56-8.59.6a8.68,8.68,0,0,0-4.34,1,22.78,22.78,0,0,1-2.37,1,9.56,9.56,0,0,1,.34-6c1.48-4.59,4.15-8.58,6.51-12.72a2.35,2.35,0,0,1,1.4-1.1c2.65-.49,5.32-.93,8-1.21,1.49-.15,3,.15,4.53.07,1.67-.08,3.33-.47,5-.52,3.42-.1,6.85-.05,10.28-.1a14.18,14.18,0,0,0,2.6-.29c1.53-.29,1.52-.32,1.76-2.34-1.72-.95-2.51-2.66-3.46-4.34-1.33-2.35-2.93-4.54-4.43-6.79a13.37,13.37,0,0,1-.9-1.12c-1-1.9-2.65-2.42-4.58-2.48-1.28,0-2.56,0-3.84,0a2.47,2.47,0,0,0-.94.14c-3.66,1.75-7.46,3.34-9.71,7.06l-4.34,7.15c-.25.4-.49,1-.86,1.11-1.45.52-1.77,1.95-2.61,3-1.93,2.29-2.77,5.16-4.27,7.67a24.2,24.2,0,0,0-2.07,5.31c-.91,3-1.69,6-2.5,9a2.53,2.53,0,0,0-.12,1.18c.47,2.17,1,4.33,1.5,6.49A12.65,12.65,0,0,0,560.94,449.63Z" transform="translate(-344.51 -264.11)" fill="#c00"/><path d="M579.91,405.68c-2.86,2.72-4.88,6.05-7,9.31a4.32,4.32,0,0,0-.26,1.36c.88-.07,1.57-.07,2.24-.19a17.62,17.62,0,0,1,2.79-.6,84.93,84.93,0,0,0,11.16-.63c2.67-.37,5.39-.31,8.09-.48a20.26,20.26,0,0,0,2.22-.41c-.43-3.1-2.36-5.14-3.93-7.36A30.74,30.74,0,0,0,593,404c-.52-.58-1.06-1.47-1.69-1.56a13.93,13.93,0,0,0-5.18-.14A13.69,13.69,0,0,0,579.91,405.68Zm40.62,75.14c.18.68.35,1.27.53,2a9.32,9.32,0,0,0,1.45-.24c.94-.33,1.86-.72,2.79-1.07.55-.21,1.12-.41,1.69-.57a22.46,22.46,0,0,0,5.86-2.55c.13-.08.31-.07.46-.14,2.22-1,4.7-1.72,6.6-3.17,2.07-1.57,3.72-3.82,3.45-6.74,0-.17,0-.34,0-.51-.16-2.11-.19-4.27-1.38-6.18a3.16,3.16,0,0,1-.42-1.12c-.37-2.05-1.68-3.51-2.89-5.11s-2.92-2.17-4.26-3.39a3.94,3.94,0,0,0-4.86-.57,25.15,25.15,0,0,0-2.58,1.59,25.52,25.52,0,0,0-3.85,3.27c-1.1,1.15-2.27,2.21-3.31,3.4a14.06,14.06,0,0,0-1.36,2.16c-1.34.44-2.68.87-4.08,1.34a7,7,0,0,1,.08,1,3.6,3.6,0,0,1-.19,1.15,11.19,11.19,0,0,0,1.49,12.08c.19.26.37.53.55.79C617.31,479.63,618.52,480.84,620.53,480.82Zm-2.64-22.54a70.42,70.42,0,0,1,9.37-8.47,6.82,6.82,0,0,1,7.8-.4c1.39.92,2.68,2,4,3,2.27,1.71,3.41,4.24,4.47,6.69a22.54,22.54,0,0,1,2.19,9c0,4.23-2.17,7.21-5.1,9.85a2.22,2.22,0,0,1-.63.33c-4.09,1.76-8.18,3.54-12.29,5.26-1.1.46-2.29.68-3.42,1.06-4.84,1.61-9.65,3.33-14.53,4.84a47.45,47.45,0,0,1-6.1,1.09,12.76,12.76,0,0,0-1.66.21c-4.17,1.34-8.49,1.22-12.78,1.34a19,19,0,0,0-5.46.59,3.11,3.11,0,0,1-2-.09,12.59,12.59,0,0,0-6.33-.93,34.13,34.13,0,0,1-8.8-.74c-1.56-.24-3.1-.67-4.66-1-3.41-.65-6.41-2.42-9.64-3.57a9.19,9.19,0,0,1-2.92-2,12.31,12.31,0,0,0-3.62-2.68c-.56-.23-.92-1.06-1.28-1.66-.58-.95-1-2-1.63-2.9-2.12-2.8-2.84-6.18-4.09-9.34a56.56,56.56,0,0,1-1.92-6.13,39.86,39.86,0,0,1-.85-4.19,42,42,0,0,1-1.07-7.08c0-.43,0-.87,0-1.31l1.55-.11c0,.39,0,.79.08,1.18a54.25,54.25,0,0,0,2,9.83c1.56,5.39,3.3,10.67,6.25,15.48,2.64,4.31,5.83,7.92,10.81,9.69,4.37,1.55,8.62,3.43,13.37,3.41a3.05,3.05,0,0,1,1.17.23c1.9.84,3.91.71,5.9.68s3.84-.05,5.75,0a14.89,14.89,0,0,1,1.63.24,15.64,15.64,0,0,0,2.8.28c3.74-.21,7.47-.13,11.22-.66a92.68,92.68,0,0,0,11.72-2.31c2.83-.78,5.58-1.86,8.36-2.84a6.27,6.27,0,0,0,1.07-.63c-1.11-1.16-2.15-2.15-3.08-3.24-2.36-2.78-4.11-5.77-4.09-9.66a18.8,18.8,0,0,0-.65-6.3c-1.08.32-2,.58-2.87.86-4,1.27-7.77,2.93-12,3.4-1.34.16-2.67.48-4,.77a26.65,26.65,0,0,1-14.83-.75,9.35,9.35,0,0,1-1.67-.91,14.94,14.94,0,0,1-2.94-1.93,60,60,0,0,0-5.2-4.88,24.78,24.78,0,0,1-2.84-3.19c-.32-.36-.77-.66-.93-1.07-.9-2.3-1.74-4.62-2.58-6.94a12.65,12.65,0,0,1-.48-1.59c-.52-2.16-1-4.32-1.5-6.49a2.53,2.53,0,0,1,.12-1.18c.81-3,1.59-6,2.5-9a24.2,24.2,0,0,1,2.07-5.31c1.5-2.51,2.34-5.38,4.27-7.67.84-1,1.16-2.44,2.61-3,.37-.14.61-.71.86-1.11l4.34-7.15c2.25-3.72,6-5.31,9.71-7.06a2.47,2.47,0,0,1,.94-.14c1.28,0,2.56-.07,3.84,0,1.93.06,3.62.58,4.58,2.48a13.37,13.37,0,0,0,.9,1.12c1.5,2.25,3.1,4.44,4.43,6.79,1,1.68,1.74,3.39,3.46,4.34-.24,2-.23,2.05-1.76,2.34a14.18,14.18,0,0,1-2.6.29c-3.43.05-6.86,0-10.28.1-1.67.05-3.33.44-5,.52-1.51.08-3-.22-4.53-.07-2.68.28-5.35.72-8,1.21a2.35,2.35,0,0,0-1.4,1.1c-2.36,4.14-5,8.13-6.51,12.72a9.56,9.56,0,0,0-.34,6,22.78,22.78,0,0,0,2.37-1,8.68,8.68,0,0,1,4.34-1c2.87,0,5.74-.29,8.59-.6,3.09-.33,6.15-.93,9.24-1.25,3.57-.38,7.15-.61,10.58-1.77a16.83,16.83,0,0,1,2.1-.49c2.12-.42,4.25-.73,6.34-1.27,2.84-.73,5.79-.85,8.61-1.92,2-.76,4.4-.65,6.63-.73a11,11,0,0,0,8.29-3.61,7.43,7.43,0,0,1,2.08-1.52c1.28-.67,1.83-1.5,1.35-2.84a54.82,54.82,0,0,0-2.94-7.32c-1.55-3-3.49-5.69-5.24-8.54-2-3.35-4.91-6-7.58-8.81a18.58,18.58,0,0,0-2.76-2.64,58.81,58.81,0,0,0-8.08-5.08c-4.72-2.19-9.7-3.61-15-2.67-1.89.33-3.82.41-5.68.82-3.26.71-6.67.9-9.75,2.33a21.66,21.66,0,0,1-6.55,2.21,3.32,3.32,0,0,0-1.1.43c-2.35,1.21-4.76,2.31-7,3.68a28,28,0,0,0-5.72,4.25,74.93,74.93,0,0,0-5.56,7.17c-.86,1.15-1.66,2.35-2.48,3.53-.54.78-1.13,1.53-1.67,2.31l-1.52-.68c.48-.73,1-1.46,1.41-2.2a9.31,9.31,0,0,0,1.05-1.86,7.5,7.5,0,0,1,2.14-3.13,3.54,3.54,0,0,0,.67-.67,30.49,30.49,0,0,1,1.91-3.52c.75-1,1.91-1.7,2.69-2.68a6.46,6.46,0,0,1,2.35-2,8.36,8.36,0,0,0,2.44-1.47c2.18-2.14,5-3,7.69-4.12.66-.27,1.3-.59,2-.89a6.75,6.75,0,0,1,1.51-.68,34.53,34.53,0,0,0,7.85-2.82,13.18,13.18,0,0,1,4.37-.93c2.93-.2,5.83-.77,8.75-1.18a18.85,18.85,0,0,1,9,.47c1.13.38,2.32.61,3.49.88a15.54,15.54,0,0,1,6.43,3.05,7.31,7.31,0,0,0,1.61,1c3.9,1.64,6.37,5,9.22,7.83a47,47,0,0,1,3.34,3.71c1.11,1.36,2.13,2.78,3.16,4.2a48.27,48.27,0,0,1,6.8,12.57,29.16,29.16,0,0,1,.76,3.23c.21,1,.36,2,.58,3,.33,1.46.26,1.56-1.19,1.88a2.71,2.71,0,0,0-1.2.56C632.85,427,632,428,631,429a8.25,8.25,0,0,0-2,.69,12.54,12.54,0,0,1-7.55,1.71,27.47,27.47,0,0,0-6.37.72c-3.62.65-7.19,1.54-10.8,2.19-7,1.25-14,2.57-21,3.41-3.24.39-6.51.48-9.75.8a34.93,34.93,0,0,0-10.18,2.56c-1.13.48-1.19,1.4-1.12,2.39a24.28,24.28,0,0,0,3.22,11.11c2.77,4.62,6.77,8,11.07,11.1a4.25,4.25,0,0,0,1.31.56c3.91,1.24,7.84,2,12,1.15s8.15-1.46,12.2-2.3a26,26,0,0,0,4.77-1.52c3.3-1.36,6.56-2.83,9.82-4.29A4.75,4.75,0,0,0,617.89,458.28Z" transform="translate(-344.51 -264.11)"/><path d="M529.59,423.85c1.74-2.63,4.39-2.83,7.17-2.68.93.05,1.86.15,3.08.25a18.18,18.18,0,0,1-2,5.58,26.63,26.63,0,0,0-2.37,10.6c-.05,1,.08,2.07-.82,3.06-1.78-.13-3.68-.17-5.54-.44s-2.21-2.06-2.89-3.46a1.19,1.19,0,0,1-.07-.47A21,21,0,0,1,529.59,423.85Z" transform="translate(-344.51 -264.11)" fill="#fc0"/><path d="M526.53,317.05a25.26,25.26,0,0,1,8.57-.49,74.94,74.94,0,0,0,15.27.08,9.62,9.62,0,0,1,1.42,0c.13,0,.25.17.54.39-3.27,9-6.57,18-9.92,27.14-1.27-.47-2.23-1.07-3.49-.8-1,.21-1.74-.69-2.08-1.66-.2-.6-.26-1.25-.44-1.86a1.75,1.75,0,0,0-2.8-1.06,6.23,6.23,0,0,1-5.23,1.8,12,12,0,0,1-6.49-2.85,5.91,5.91,0,0,1-1.06-1.55c-1-1.56-2.34-1.62-3.71-.38a19.42,19.42,0,0,1-4.17,3.14,7.63,7.63,0,0,1-6.49,0,1.92,1.92,0,0,1-1.32-2.5,38.3,38.3,0,0,1,1.28-4.84c.81-2.42,1.62-4.85,2.64-7.18,1.14-2.59,1.67-5.53,4.26-7.72l4.18.77A22.77,22.77,0,0,0,526.53,317.05Z" transform="translate(-344.51 -264.11)" fill="#b23a12"/><path d="M534.64,309.68c-.12.53-.39,1-.52,1.58-.6,2.67-1.13,3-4,2.67,0-3.52,1.93-6,4.69-5.82A13.46,13.46,0,0,1,534.64,309.68Z" transform="translate(-344.51 -264.11)" fill="#601f0a"/><path d="M529.49,421.74a16.6,16.6,0,0,1,5.1-2.64c1.41-.27,2.83-.5,4.24-.74,1.78-.29,3.24-.76,4.08-2.75a24.51,24.51,0,0,1,2.11-3.76l1.52.68a11.89,11.89,0,0,0-.86,1.46c-1.7,3.43-3.22,6.94-4.84,10.41a35,35,0,0,0-3.21,11.47,48.41,48.41,0,0,1-.72,5.91,24.64,24.64,0,0,0-.48,7.15l-1.55.11c-.08-1.3-.26-2.62-.36-3.92,0-.38-.08-.77-.12-1.25-4.27.17-7.72-1.82-11.37-3.68.23-4.25.32-8.49,1.91-12.46a12.5,12.5,0,0,1,3.81-5.39A8.43,8.43,0,0,0,529.49,421.74Zm5.14,18.92c.9-1,.77-2,.82-3.06a26.63,26.63,0,0,1,2.37-10.6,18.18,18.18,0,0,0,2-5.58c-1.22-.1-2.15-.2-3.08-.25-2.78-.15-5.43.05-7.17,2.68a21,21,0,0,0-3.46,12.44,1.19,1.19,0,0,0,.07.47c.68,1.4,1,3.19,2.89,3.46S532.85,440.53,534.63,440.66Z" transform="translate(-344.51 -264.11)"/><path d="M520.13,352.08c1.67-1,2.16-.79,2.79,1a6.46,6.46,0,0,1,.33,1.14,3,3,0,0,0,2.54,2.53c1.23.32,2.43.75,3.64,1.17a8.2,8.2,0,0,0,5.83.35,2.32,2.32,0,0,1,.87,0c.72.89.11,1.62-.14,2.31-1.18,3.12-2.41,6.23-3.63,9.34-.05.12-.22.2-.37.33a30.87,30.87,0,0,1-3.07-2,2.84,2.84,0,0,1-.84-1.58c-.55-2.74-2.05-3.31-4.34-1.59l-.57.44a3.35,3.35,0,0,1-4,.1c-1.62-1-3.21-2-4.75-3.17a7.06,7.06,0,0,1-3-4.18,2.75,2.75,0,0,0-.55-1,2.28,2.28,0,0,0-1.73-1.09l.33-2.27c.84.11,1.68.24,2.51.34C515,354.56,517.59,353.54,520.13,352.08Z" transform="translate(-344.51 -264.11)" fill="#c30"/><path d="M491.83,375.15a18.82,18.82,0,0,0,16.4-2.21c.63.73,1.25,1.41,1.83,2.13,1.44,1.79,2.61,3.78,4.46,5.26a10.29,10.29,0,0,0,5,2.24c1.57.23,3.16.31,4.75.39,2,.09,2.83,1,2.27,2.89-.68,2.36-1.18,4.8-2.66,7.08a5.76,5.76,0,0,0-5.45-.3,3.64,3.64,0,0,1-2.35,0c-3-1-5.46-2.61-6.81-5.59-.3-.66-.5-1.36-.83-2A2.24,2.24,0,0,0,505,384,18.58,18.58,0,0,1,493,386a14,14,0,0,1-3.52-1.35,1.52,1.52,0,0,1-.71-2.06c.46-1.27.88-2.55,1.4-3.8S491.23,376.44,491.83,375.15Z" transform="translate(-344.51 -264.11)" fill="#0b3531"/><path d="M558.38,281.77c1.37-.08,2.21.79,3.14,1.52a20.09,20.09,0,0,1,1.88,1.81c1.21,1.26,1.07,2.48-.36,3.57-.56.42-1.07.91-1.6,1.37a2.82,2.82,0,0,0,1.75,2c2.39,1.28,2.76,3.24,1,5.31a7.77,7.77,0,0,1-3.73,2.49,2.55,2.55,0,0,0-2,2.56,4.22,4.22,0,0,1-6.15,3.23c-.93-.44-1.84-.92-2.86-1.44-.62.44-1.19.86-1.77,1.25a4.5,4.5,0,0,1-6.11-.5c-.29-.27-.53-.6-.82-.87-1.41-1.33-2.22-1.41-3.7-.13-2,1.72-4.36,1.74-6.77,1.65-1.67-1.45-4.4-.68-5.78-2.9-.63-1-2.09-.84-3.12.27A5,5,0,0,1,518,304.4a3.33,3.33,0,0,1-3.54-2.61c-.09-.46.27-1,.5-1.49a12.3,12.3,0,0,0,1-1.62c.32-.94-.28-1.57-1.25-1.45a1.74,1.74,0,0,0-.46.13,2.89,2.89,0,0,1-3.65-.84,5.34,5.34,0,0,1-1.56-4.59,3,3,0,0,1,1.93-2.29c.9-.34,1.81-.64,2.71-1,.66-.24,1.22-.7.95-1.41a2,2,0,0,0-1.23-.87,12.93,12.93,0,0,0-1.66-.07c-1.78-.27-2.43-1.45-1.39-2.87,2.08-2.85,4.49-5.38,7.9-6.71a5.24,5.24,0,0,1,6.14,1.28c.28.28.57.55.88.81a1.29,1.29,0,0,0,1.92-.14,1.36,1.36,0,0,0,.09-1.95,7.41,7.41,0,0,0-.91-.75,2.44,2.44,0,0,1-.71-3.21,4,4,0,0,1,2.75-2.47,26.87,26.87,0,0,1,4.27-.57,6.28,6.28,0,0,1,5.06,1.71,2.73,2.73,0,0,0,.58.43c.59.38,1.3.52,1.74,0a2.61,2.61,0,0,0,.53-1.7c0-.77-.53-1.51-.61-2.28-.11-1.2.4-1.69,1.59-2A10.06,10.06,0,0,1,548,267c1.73.77,3.26,1.24,4.75-.15,4.34,2.71,7.26,6.34,3.62,13.55A2,2,0,0,0,558.38,281.77Z" transform="translate(-344.51 -264.11)" fill="#209f24"/><path d="M524.29,341.58c2.69,1.62,5.52,1.27,8.32.53a1.73,1.73,0,0,1,2.35.94,6,6,0,0,0,5.24,3.19c.13,0,.26.15.56.33-.7,2.22-1.39,4.49-2.13,6.74a2.19,2.19,0,0,1-1.9,1.61c-2.61.3-5.2.82-7.86.4-3.11-.5-4.45-2.09-4.3-5.22.11-2.13-1.3-3.13-3.19-2.15a8.55,8.55,0,0,0-2,1.71,8,8,0,0,1-7.17,2.32c-1.18-.17-2.37-.19-3.56-.31a9.92,9.92,0,0,1-6.06-3.06,2,2,0,0,1-.58-2.56,11.67,11.67,0,0,0,.64-2.28,6.35,6.35,0,0,1,1.62-3.19c1.48.37,2.77.76,4.1,1a8.42,8.42,0,0,0,7-1.74c.26-.19.55-.33.8-.53,1.5-1.18,2.85-1.32,4.42.09A22.88,22.88,0,0,0,524.29,341.58Z" transform="translate(-344.51 -264.11)" fill="#591d09"/><path d="M499.92,351.61a9.68,9.68,0,0,1,.95-1.53,21,21,0,0,1,2.28,1.71,5.94,5.94,0,0,0,3.82,1.73c.82.08,1.64.19,2.46.32l-.33,2.27a2.34,2.34,0,0,0-1.77,1.14,6.81,6.81,0,0,1-7.55,2.54c-1.83-.55-2.17-1.12-1.61-3S499.3,353.34,499.92,351.61Z" transform="translate(-344.51 -264.11)" fill="#c30"/><path d="M496,362.4c.12-.37.33-.71.55-1.2a10.91,10.91,0,0,1,1.6.43c2.79,1.22,5.47.67,8.12-.44s2.59-1.07,4.51,1a23.74,23.74,0,0,0,6.34,5.05,14.55,14.55,0,0,0,4.35,1c.78.12,1.6-.15,2.39-.06a2.76,2.76,0,0,1,1.67.64,10,10,0,0,0,5.88,3.1c-.65,3.09-2.24,5.74-3.17,8.89a14.22,14.22,0,0,1-1.24-.93,1.85,1.85,0,0,0-2.22-.38c-3.32,1.73-6.31.52-9-1.26-2.55-1.67-4.67-3.9-4.84-7.3a1.77,1.77,0,0,0-1.25-1.85,1.88,1.88,0,0,0-2.06.9c-1.73,2.71-4.4,3.5-7.38,3.68-1,.06-1.91.26-2.86.27a9.81,9.81,0,0,1-2.6-.25c-2.05-.52-2.12-.83-1.44-2.86C494.29,368,495.14,365.21,496,362.4Z" transform="translate(-344.51 -264.11)" fill="#100620"/><path d="M504.11,387.2c1.68-.43,2.49-.24,3.17,1.24,1.41,3,4,4.72,6.79,6.07a17.22,17.22,0,0,0,4.86,1c1.16.17,2.42-.08,3.44.95-.19,1.46-.17,3-1.08,4.3a6.59,6.59,0,0,0-.69,1.76c-1.42,4.57-2.85,9.14-4.25,13.71-.59,1.9-1.09,3.83-1.72,5.72-1.24,3.7-2.58,7.36-3.8,11.06-.7,2.11-1.18,4.3-1.85,6.42-1.38,4.41-2.83,8.79-4.23,13.2-.9,2.8-1.75,5.62-2.62,8.43a14.09,14.09,0,0,1-.48,1.6A69.36,69.36,0,0,0,498,474q-1.38,5.21-3,10.33c-.58,1.81-1.43,3.53-2.26,5.52l-1.1.36a1.56,1.56,0,0,0-1.12,1.64c0,.85,0,1.7-.06,2.79a12.17,12.17,0,0,1-5.31-3.49c-1.7-1.8-3.27-3.72-4.95-5.54-1.18-1.28-2.55-2.4-3.66-3.74-3.27-3.93-6.35-8-9.68-11.87a51.29,51.29,0,0,1-4.58-6.68c-1.68-2.7-3.68-5.21-5.62-7.75-1.74-2.29-3.65-4.45-5.36-6.75a112.24,112.24,0,0,0-8.42-9.81,72.58,72.58,0,0,1-4.54-5.86,2,2,0,0,1-.06-2.42c2.68-4.81,5.23-9.68,7.92-14.49a47.22,47.22,0,0,1,3.21-4.76,94.76,94.76,0,0,0,7.31-12.05,11.24,11.24,0,0,1,2.52-3.86,12.49,12.49,0,0,1,2.6,2.81,12.56,12.56,0,0,0,3.8,3.6,2.39,2.39,0,0,1,.78.53c2.16,2.82,5.18,5,6.27,8.6a5,5,0,0,0,.53,1.33,1.44,1.44,0,0,0,2.55-.08,5.75,5.75,0,0,0,.58-1.56,20.35,20.35,0,0,1,2.51-6.69c1.83-2.76,2.76-5.92,4.1-8.9a48.41,48.41,0,0,1,4.78-8.6,5.84,5.84,0,0,1,1.19.23c4.7,2.08,9.49,1.76,14.32.6Z" transform="translate(-344.51 -264.11)" fill="#19267f"/><path d="M414.39,396.68c.85.43,1.4-.13,1.75-.77a2.83,2.83,0,0,0,.4-1.58,5.76,5.76,0,0,1,1.07-3.61c.69-1.17,1.48-2.28,2.16-3.44,2.45-4.2,4-8.84,6.81-12.89a48.25,48.25,0,0,1,4-5.25c3.05-3.31,6.94-4.32,11.14-4.75a13.46,13.46,0,0,0,3.08-.37c3.66-1.29,7.28-.27,10.91,0,1.59.11,2.3,1.37,2.93,2.56a2.33,2.33,0,0,1-1,3.11c-1.63.82-3.25,1.7-5.21,1.57a6.5,6.5,0,0,0-2.53.54,1.22,1.22,0,0,0-.77,1.57,1.32,1.32,0,0,0,1.54,1.17,14.38,14.38,0,0,0,2.32-.6,10.92,10.92,0,0,1,7.05-.24c1.46.47,2.66,1.17,2.92,2.81a3.87,3.87,0,0,1-1.81,3.9,11.25,11.25,0,0,1-4.72,1.61,6.63,6.63,0,0,0-1.63.31,1.57,1.57,0,0,0-.82,1,1.34,1.34,0,0,0,.66,1.1,6.1,6.1,0,0,0,2.53.3c1.41-.2,2.78-.74,4.18-.95a7,7,0,0,1,2.82.11c2.28.62,2.84,2.65,1.27,4.42a7.9,7.9,0,0,1-4.81,2.92,4.27,4.27,0,0,0-3.46,2.27,29.94,29.94,0,0,0-1.51,3.26,30.59,30.59,0,0,1-4.58,8.36c-2.38,3.11-4,6.67-6.28,9.81a31.37,31.37,0,0,0-2.32,3.32c-1.33,2.45-2.47,5-3.82,7.45-1,1.73-2.14,3.34-3.22,5a10.47,10.47,0,0,0-.63,1c-.71,1.41-1.36,2.86-2.12,4.25-1.81,3.28-3.66,6.53-5.52,9.78-.95,1.66-2,3.27-2.92,4.92-2,3.5-4.54,6.73-6,10.59a32.81,32.81,0,0,1-2.2,4.24c-.58,1-1.22,2-1.82,3.07L411.16,474c-.32.55-.69,1.07-1,1.62s-.74,1.35-1.1,2a110.44,110.44,0,0,1-7.32,11.88c-1.69,2.31-2.63,5.1-4.67,7.19-.32.32-.34.92-.62,1.28-.47.59-1,1.09-1.94,2-.69-1.52-1.13-2.53-1.6-3.53-.61-1.29-1.24-2.56-1.84-3.86a15.72,15.72,0,0,1-.7-1.76c-1.78-5.37-3.44-10.79-5.35-16.11a138.45,138.45,0,0,1-4.1-14.75c-.61-2.52-1.19-5-1.77-7.57s-1.16-5.05-1.77-7.58c-.54-2.25-1.31-4.45-1.78-6.71-.82-4-1.48-8-2.21-12-.85-4.63-1.67-9.27-2.58-13.88s-1.91-9.06-2.84-13.59c-.21-1-.32-2-.48-3.05a13.8,13.8,0,0,1,1.34-.43c2.66-.52,5.33-1,8-1.54,1.41-.29,2.78-.76,4.2-1,2.9-.45,5.76-1.23,8.74-1a6.05,6.05,0,0,0,1.87-.41l9.89-2.78c1-.28,2-.61,3-.85s1.76,0,2.17.94c.87,2,1.73,4.11,2.47,6.21.53,1.49.81,3.08,1.3,4.59a1.72,1.72,0,0,0,1.73,1.4c.89-.05,1.14-.85,1.3-1.53a2.26,2.26,0,0,0-.34-1.31c-.2-.43-.45-.84-.69-1.26l1.18-.59A1.77,1.77,0,0,0,414.39,396.68Z" transform="translate(-344.51 -264.11)" fill="#fc0"/><path d="M534.8,308.11c-2.76-.2-4.7,2.3-4.69,5.82,2.88.36,3.41,0,4-2.67.13-.54.4-1.05.52-1.58A13.46,13.46,0,0,0,534.8,308.11Zm-10.29-5.46c1.38,2.22,4.11,1.45,5.78,2.9,2.41.09,4.77.07,6.77-1.65,1.48-1.28,2.29-1.2,3.7.13.29.27.53.6.82.87a4.5,4.5,0,0,0,6.11.5c.58-.39,1.15-.81,1.77-1.25,1,.52,1.93,1,2.86,1.44a4.22,4.22,0,0,0,6.15-3.23,2.55,2.55,0,0,1,2-2.56,7.77,7.77,0,0,0,3.73-2.49c1.74-2.07,1.37-4-1-5.31a2.82,2.82,0,0,1-1.75-2c.53-.46,1-1,1.6-1.37,1.43-1.09,1.57-2.31.36-3.57a20.09,20.09,0,0,0-1.88-1.81c-.93-.73-1.77-1.6-3.14-1.52a2,2,0,0,1-2-1.38c3.64-7.21.72-10.84-3.62-13.55-1.49,1.39-3,.92-4.75.15a10.06,10.06,0,0,0-6.5-1.09c-1.19.28-1.7.77-1.59,2,.08.77.56,1.51.61,2.28a2.61,2.61,0,0,1-.53,1.7c-.44.55-1.15.41-1.74,0a2.73,2.73,0,0,1-.58-.43,6.28,6.28,0,0,0-5.06-1.71,26.87,26.87,0,0,0-4.27.57,4,4,0,0,0-2.75,2.47,2.44,2.44,0,0,0,.71,3.21,7.41,7.41,0,0,1,.91.75,1.36,1.36,0,0,1-.09,1.95,1.29,1.29,0,0,1-1.92.14c-.31-.26-.6-.53-.88-.81a5.24,5.24,0,0,0-6.14-1.28c-3.41,1.33-5.82,3.86-7.9,6.71-1,1.42-.39,2.6,1.39,2.87a12.93,12.93,0,0,1,1.66.07,2,2,0,0,1,1.23.87c.27.71-.29,1.17-.95,1.41-.9.33-1.81.63-2.71,1a3,3,0,0,0-1.93,2.29,5.34,5.34,0,0,0,1.56,4.59,2.89,2.89,0,0,0,3.65.84,1.74,1.74,0,0,1,.46-.13c1-.12,1.57.51,1.25,1.45a12.3,12.3,0,0,1-1,1.62c-.23.47-.59,1-.5,1.49A3.33,3.33,0,0,0,518,304.4a5,5,0,0,0,3.42-1.48C522.42,301.81,523.88,301.65,524.51,302.65ZM494.93,484.34q1.65-5.11,3-10.33a69.36,69.36,0,0,1,3.7-11.35,14.09,14.09,0,0,0,.48-1.6c.87-2.81,1.72-5.63,2.62-8.43,1.4-4.41,2.85-8.79,4.23-13.2.67-2.12,1.15-4.31,1.85-6.42,1.22-3.7,2.56-7.36,3.8-11.06.63-1.89,1.13-3.82,1.72-5.72,1.4-4.57,2.83-9.14,4.25-13.71a6.59,6.59,0,0,1,.69-1.76c.91-1.34.89-2.84,1.08-4.3-1-1-2.28-.78-3.44-.95a17.22,17.22,0,0,1-4.86-1c-2.78-1.35-5.38-3-6.79-6.07-.68-1.48-1.49-1.67-3.17-1.24l-.93.25c-4.83,1.16-9.62,1.48-14.32-.6a5.84,5.84,0,0,0-1.19-.23,48.41,48.41,0,0,0-4.78,8.6c-1.34,3-2.27,6.14-4.1,8.9a20.35,20.35,0,0,0-2.51,6.69,5.75,5.75,0,0,1-.58,1.56,1.44,1.44,0,0,1-2.55.08,5,5,0,0,1-.53-1.33c-1.09-3.59-4.11-5.78-6.27-8.6a2.39,2.39,0,0,0-.78-.53,12.56,12.56,0,0,1-3.8-3.6,12.49,12.49,0,0,0-2.6-2.81,11.24,11.24,0,0,0-2.52,3.86,94.76,94.76,0,0,1-7.31,12.05,47.22,47.22,0,0,0-3.21,4.76c-2.69,4.81-5.24,9.68-7.92,14.49a2,2,0,0,0,.06,2.42,72.58,72.58,0,0,0,4.54,5.86,112.24,112.24,0,0,1,8.42,9.81c1.71,2.3,3.62,4.46,5.36,6.75,1.94,2.54,3.94,5.05,5.62,7.75a51.29,51.29,0,0,0,4.58,6.68c3.33,3.87,6.41,7.94,9.68,11.87,1.11,1.34,2.48,2.46,3.66,3.74,1.68,1.82,3.25,3.74,4.95,5.54a12.17,12.17,0,0,0,5.31,3.49c0-1.09.06-1.94.06-2.79a1.56,1.56,0,0,1,1.12-1.64l1.1-.36C493.5,487.87,494.35,486.15,494.93,484.34ZM505,384a2.24,2.24,0,0,1,3.39,1.08c.33.63.53,1.33.83,2,1.35,3,3.85,4.61,6.81,5.59a3.64,3.64,0,0,0,2.35,0,5.76,5.76,0,0,1,5.45.3c1.48-2.28,2-4.72,2.66-7.08.56-1.91-.22-2.8-2.27-2.89-1.59-.08-3.18-.16-4.75-.39a10.29,10.29,0,0,1-5-2.24c-1.85-1.48-3-3.47-4.46-5.26-.58-.72-1.2-1.4-1.83-2.13a18.82,18.82,0,0,1-16.4,2.21c-.6,1.29-1.19,2.42-1.67,3.59s-.94,2.53-1.4,3.8a1.52,1.52,0,0,0,.71,2.06A14,14,0,0,0,493,386,18.58,18.58,0,0,0,505,384Zm-4.13-33.92a9.68,9.68,0,0,0-.95,1.53c-.62,1.73-1.22,3.46-1.75,5.21s-.22,2.42,1.61,3a6.81,6.81,0,0,0,7.55-2.54,2.34,2.34,0,0,1,1.77-1.14,2.28,2.28,0,0,1,1.73,1.09,2.75,2.75,0,0,1,.55,1,7.06,7.06,0,0,0,3,4.18c1.54,1.12,3.13,2.17,4.75,3.17a3.35,3.35,0,0,0,4-.1l.57-.44c2.29-1.72,3.79-1.15,4.34,1.59a2.84,2.84,0,0,0,.84,1.58,30.87,30.87,0,0,0,3.07,2c.15-.13.32-.21.37-.33,1.22-3.11,2.45-6.22,3.63-9.34.25-.69.86-1.42.14-2.31a2.32,2.32,0,0,0-.87,0,8.2,8.2,0,0,1-5.83-.35c-1.21-.42-2.41-.85-3.64-1.17a3,3,0,0,1-2.54-2.53,6.46,6.46,0,0,0-.33-1.14c-.63-1.76-1.12-1.94-2.79-1-2.54,1.46-5.18,2.48-8.19,2.1-.83-.1-1.67-.23-2.51-.34s-1.64-.24-2.46-.32a5.94,5.94,0,0,1-3.82-1.73A21,21,0,0,0,500.87,350.08ZM506.45,339a7.63,7.63,0,0,0,6.49,0,19.42,19.42,0,0,0,4.17-3.14c1.37-1.24,2.74-1.18,3.71.38a5.91,5.91,0,0,0,1.06,1.55,12,12,0,0,0,6.49,2.85,6.23,6.23,0,0,0,5.23-1.8,1.75,1.75,0,0,1,2.8,1.06c.18.61.24,1.26.44,1.86.34,1,1.08,1.87,2.08,1.66,1.26-.27,2.22.33,3.49.8,3.35-9.17,6.65-18.18,9.92-27.14-.29-.22-.41-.38-.54-.39a9.62,9.62,0,0,0-1.42,0,74.94,74.94,0,0,1-15.27-.08,25.26,25.26,0,0,0-8.57.49,22.77,22.77,0,0,1-9,.45l-4.18-.77c-2.59,2.19-3.12,5.13-4.26,7.72-1,2.33-1.83,4.76-2.64,7.18a38.3,38.3,0,0,0-1.28,4.84A1.92,1.92,0,0,0,506.45,339Zm22.42,16.35c2.66.42,5.25-.1,7.86-.4a2.19,2.19,0,0,0,1.9-1.61c.74-2.25,1.43-4.52,2.13-6.74-.3-.18-.43-.32-.56-.33a6,6,0,0,1-5.24-3.19,1.73,1.73,0,0,0-2.35-.94c-2.8.74-5.63,1.09-8.32-.53a22.88,22.88,0,0,1-3.7-2.17c-1.57-1.41-2.92-1.27-4.42-.09-.25.2-.54.34-.8.53a8.42,8.42,0,0,1-7,1.74c-1.33-.25-2.62-.64-4.1-1a6.35,6.35,0,0,0-1.62,3.19,11.67,11.67,0,0,1-.64,2.28,2,2,0,0,0,.58,2.56,9.92,9.92,0,0,0,6.06,3.06c1.19.12,2.38.14,3.56.31a8,8,0,0,0,7.17-2.32,8.55,8.55,0,0,1,2-1.71c1.89-1,3.3,0,3.19,2.15C524.42,353.23,525.76,354.82,528.87,355.32ZM496.76,485c-.22.77-.5,1.52-.77,2.27a11.15,11.15,0,0,0-1,5.13,2.86,2.86,0,0,1-.3,1.61,38.13,38.13,0,0,0-2.11,3.7,2.7,2.7,0,0,1-3.8.83,34.06,34.06,0,0,1-4.54-3.86c-1.1-1.12-1.86-2.58-2.9-3.78-2.07-2.4-4.25-4.72-6.34-7.11-.83-.95-1.54-2-2.32-3-1.08-1.35-2.21-2.67-3.28-4a89.16,89.16,0,0,1-6.54-8.55c-1.46-2.38-3.18-4.55-4.66-6.9-.59-.94-1.36-1.77-2-2.67-1.66-2.24-3.21-4.57-5-6.72-2.77-3.39-5.72-6.63-8.53-10-1.48-1.77-2.82-3.67-4.25-5.48-.58-.73-1.25-1.37-1.94-2.1-1.78,1.22-2.46,3-3.52,4.43-.8,1.1-1.52,2.24-2.25,3.38a9.07,9.07,0,0,0-1,1.89,18.1,18.1,0,0,1-3.52,6.2,9.43,9.43,0,0,0-1.17,1.8c-.73,1.41-1.38,2.86-2.11,4.27-1.55,3-3.07,6-4.71,8.9-1.08,1.94-2.43,3.75-3.5,5.7-1.39,2.5-3.08,4.8-4.53,7.28l-1.14-.63c.36-.68.73-1.35,1.1-2s.67-1.07,1-1.62l3.11-5.38c.6-1,1.24-2,1.82-3.07a32.81,32.81,0,0,0,2.2-4.24c1.43-3.86,3.94-7.09,6-10.59.95-1.65,2-3.26,2.92-4.92,1.86-3.25,3.71-6.5,5.52-9.78.76-1.39,1.41-2.84,2.12-4.25a10.47,10.47,0,0,1,.63-1c1.08-1.66,2.26-3.27,3.22-5,1.35-2.44,2.49-5,3.82-7.45a31.37,31.37,0,0,1,2.32-3.32c2.28-3.14,3.9-6.7,6.28-9.81a30.59,30.59,0,0,0,4.58-8.36,29.94,29.94,0,0,1,1.51-3.26,4.27,4.27,0,0,1,3.46-2.27,7.9,7.9,0,0,0,4.81-2.92c1.57-1.77,1-3.8-1.27-4.42a7,7,0,0,0-2.82-.11c-1.4.21-2.77.75-4.18.95a6.1,6.1,0,0,1-2.53-.3,1.34,1.34,0,0,1-.66-1.1,1.57,1.57,0,0,1,.82-1,6.63,6.63,0,0,1,1.63-.31,11.25,11.25,0,0,0,4.72-1.61,3.87,3.87,0,0,0,1.81-3.9c-.26-1.64-1.46-2.34-2.92-2.81a10.92,10.92,0,0,0-7.05.24,14.38,14.38,0,0,1-2.32.6,1.32,1.32,0,0,1-1.54-1.17,1.22,1.22,0,0,1,.77-1.57,6.5,6.5,0,0,1,2.53-.54c2,.13,3.58-.75,5.21-1.57a2.33,2.33,0,0,0,1-3.11c-.63-1.19-1.34-2.45-2.93-2.56-3.63-.26-7.25-1.28-10.91,0a13.46,13.46,0,0,1-3.08.37c-4.2.43-8.09,1.44-11.14,4.75a48.25,48.25,0,0,0-4,5.25c-2.8,4.05-4.36,8.69-6.81,12.89-.68,1.16-1.47,2.27-2.16,3.44a5.76,5.76,0,0,0-1.07,3.61,2.83,2.83,0,0,1-.4,1.58c-.35.64-.9,1.2-1.75.77a1.77,1.77,0,0,1-.76-.69,1.18,1.18,0,0,1,0-1.09c.76-1.85,1.5-3.7,2.4-5.47s1.85-3.16,2.8-4.72a14.71,14.71,0,0,0,1.58-3.71,19.17,19.17,0,0,1,2-3.77c1.68-3.05,3.32-6.13,5.06-9.15a9.12,9.12,0,0,1,4.89-3.66c2.21-.89,4.46-1.71,6.72-2.49a4.22,4.22,0,0,1,1.87-.15,12.67,12.67,0,0,0,5.88-.64,7.67,7.67,0,0,1,3.06-.3c2.46.21,4.91.57,7.36.88a1.67,1.67,0,0,1,.9.25,11.22,11.22,0,0,1,3.05,3.92,4.6,4.6,0,0,1-.62,3.89c-.18.35-.32.71-.59,1.32,1,.44,1.93.85,2.85,1.24,2.23,1,3.09,2.33,2.74,4.7-.2,1.32-.58,2.61-.92,4.09.76.49,1.57,1,2.34,1.54a4,4,0,0,1,1.31,5.48,22.39,22.39,0,0,1-1.21,2.07,5.85,5.85,0,0,1-4.32,3.08,11.38,11.38,0,0,0-2,.65,4.89,4.89,0,0,0,.66,1.3,29.45,29.45,0,0,0,5.22,4.54c2.37,1.43,3.8,3.85,5.52,5.94l1.64,2a4.06,4.06,0,0,0,2.19-2.65,16.62,16.62,0,0,1,2.36-4.36,17.87,17.87,0,0,0,2-3.82c1.18-2.53,2.36-5.07,3.47-7.63.69-1.61,1.23-3.27,1.9-4.89.4-.95.95-1.83,1.35-2.78.87-2,1.67-4.14,2.54-6.2a2.92,2.92,0,0,0-.32-2.95A18.14,18.14,0,0,0,488,371c.37-1,.94-1.15,1.89-.83,1.35.47,1.46.38,1.91-.88s.69-2.29,1.05-3.43.85-2.57,1.29-3.85c.1-.31.39-.6.37-.88-.15-1.82.9-3.22,1.58-4.75a32.15,32.15,0,0,0,1.8-4.69c1.2-4.47,3.7-8.48,4.4-13.13a31.86,31.86,0,0,1,1.43-4.3c.57-1.9,1-3.84,1.59-5.74.25-.84.62-1.64.94-2.45a6.31,6.31,0,0,0,.74-2c0-3.49,2.26-6.21,3.11-9.41.44-1.64,1.71-2.06,3.15-1.11a11.74,11.74,0,0,0,7.73,1.84c1.72-.15,3.48.1,5.23-.3a2.83,2.83,0,0,0,2.52-2.45c.24-1.32.71-2.6,1.05-3.83-.44-1-1.28-1-2.05-1.16-2.28-.37-4.55-.75-6.84-1a16,16,0,0,0-3.32.08,3.69,3.69,0,0,1-3.64-1.34,15.32,15.32,0,0,1-2.33-4.14,4.3,4.3,0,0,0-1.53-2.26,8.37,8.37,0,0,1-2.86-4c-.51-1.59-.71-3.1.51-4.5.25-.29.29-.74.49-1.08a1.84,1.84,0,0,0-.12-2.41,2.35,2.35,0,0,1-.05-3.27A27.89,27.89,0,0,1,515.9,276a8.82,8.82,0,0,1,4.55-1.33c.87,0,1.73-.11,2.65-.18.34-.92.66-1.72.92-2.54a4.72,4.72,0,0,1,4.49-3.39c2.45-.16,4.88-1,7.39-.29.35.09.93-.39,1.31-.72.19-.18.18-.6.26-.9a3,3,0,0,1,3.29-2.48c2.15,0,4.28-.34,6.38.58a3.08,3.08,0,0,0,2.27-.12,3.87,3.87,0,0,1,4.09.34c3.52,2.43,6.47,5.28,6.21,10.08a6.16,6.16,0,0,0,1.94,5.17c1.55,1.47,2.74,3.32,4.15,4.95a2.89,2.89,0,0,1,.42,3.33c-.31.73-.71,1.43-1.07,2.15a4.92,4.92,0,0,0,.44.89c2,2.55,1.89,5.13-.32,7.46a14.67,14.67,0,0,1-1.63,1.42,14.43,14.43,0,0,0-4,4.38,8.51,8.51,0,0,1-1.22,1.47,5.33,5.33,0,0,1-6.3,1.54,5,5,0,0,0-3.47,0c-3,.92-6,.92-8.66-1.05a7.94,7.94,0,0,0-1.57-.7,12.74,12.74,0,0,0-2.29,6.26c-.11,1.36.36,1.82,1.75,2a43.31,43.31,0,0,0,11-.08,27.86,27.86,0,0,1,6,.11,2.17,2.17,0,0,1,1.46,1c.16.29-.16,1.11-.51,1.4-2.08,1.74-2.87,4.22-3.77,6.58-1.9,5-3.59,10.07-5.42,15.09-.63,1.72-1.42,3.38-2.11,5.08-2,4.89-4,9.77-5.88,14.67-1.83,4.68-3.59,9.39-5.37,14.09-.93,2.46-1.93,4.9-2.77,7.39-1.12,3.32-2.11,6.68-3.18,10a35.21,35.21,0,0,1-1.29,3.61,4.13,4.13,0,0,0-.27,3.47c-1.82,1.41-2.32,3.48-3,5.42-1.33,4-2.46,8.1-3.79,12.11-1.41,4.23-3,8.39-4.43,12.63-1.32,4-2.41,8.11-3.67,12.15-1.58,5-3.24,10-4.85,15-1.23,3.8-2.49,7.59-3.61,11.42C500.46,472,498.63,478.51,496.76,485Zm9.54-123.83c-2.65,1.11-5.33,1.66-8.12.44a10.91,10.91,0,0,0-1.6-.43c-.22.49-.43.83-.55,1.2-.89,2.81-1.74,5.63-2.67,8.42-.68,2-.61,2.34,1.44,2.86a9.81,9.81,0,0,0,2.6.25c1,0,1.9-.21,2.86-.27,3-.18,5.65-1,7.38-3.68a1.88,1.88,0,0,1,2.06-.9,1.77,1.77,0,0,1,1.25,1.85c.17,3.4,2.29,5.63,4.84,7.3,2.71,1.78,5.7,3,9,1.26a1.85,1.85,0,0,1,2.22.38,14.22,14.22,0,0,0,1.24.93c.93-3.15,2.52-5.8,3.17-8.89a10,10,0,0,1-5.88-3.1,2.76,2.76,0,0,0-1.67-.64c-.79-.09-1.61.18-2.39.06a14.55,14.55,0,0,1-4.35-1,23.74,23.74,0,0,1-6.34-5.05C508.89,360.12,508.91,360.1,506.3,361.19Z" transform="translate(-344.51 -264.11)"/><path d="M410,321.28c1.68.84,3.37,4.6,2.77,6.38a2.09,2.09,0,0,1-.08.23c-.72,1.6-4.71,3.54-6.55,3.18a5.94,5.94,0,0,1-5.2-5.91,3.64,3.64,0,0,1,2.78-3.78C405.66,320.71,407.84,320.23,410,321.28Z" transform="translate(-344.51 -264.11)" fill="#6cf"/><path d="M399.38,379.3c3.35-.53,4.33-1.33,4.95,3.09a9.28,9.28,0,0,1,0,1.18c-1,.57-2,1.16-3,1.64a1.38,1.38,0,0,1-2.15-.76,19,19,0,0,1-1-3.42A1.32,1.32,0,0,1,399.38,379.3Z" transform="translate(-344.51 -264.11)" fill="#c25eb4"/><path d="M397.93,386.54c-1.43.53-2.73,1.08-4.07,1.47a2,2,0,0,1-2.42-1.08,14.39,14.39,0,0,1-1.79-5.86c1.64-.37,3.16-.8,4.71-1a1.89,1.89,0,0,1,1.56.76A16.22,16.22,0,0,1,397.93,386.54Z" transform="translate(-344.51 -264.11)" fill="#ffc499"/><path d="M389.21,387c.37,1.32.07,1.79-1.25,2-1.87.28-3.76.45-5.7.68a8.34,8.34,0,0,1-1.83-5.05c-.12-1.42.36-2,1.75-2.43a27.79,27.79,0,0,1,3.22-.86c1.29-.24,1.81,0,2.26,1.18A46.82,46.82,0,0,1,389.21,387Z" transform="translate(-344.51 -264.11)" fill="#ff0"/><path d="M397.1,339.5c.5,1.72.18,2.38-1.47,3.28a12.17,12.17,0,0,1-5.59,1.89,27.55,27.55,0,0,0-5.62,1.06c-2.88.67-5.77,1.29-8.58,2.17-2,.62-3.8,1.66-5.71,2.44A17.91,17.91,0,0,1,362,352c-2.44-.19-4.28-1.22-5-3.69s-1.5-4.89-2.2-7.34c-.75-2.61-1.43-5.24-2.14-7.85a9.34,9.34,0,0,1-.6-4.47,1.33,1.33,0,0,0-.11-.93c-1.14-1.74-1.23-3.95-2.68-5.57a5.9,5.9,0,0,1-1-2.38,32.84,32.84,0,0,1-.6-3.29c-.22-1.52.07-2.08,1.6-2.41,2.11-.46,4.25-.74,6.38-1.08a21.19,21.19,0,0,0,5.69-1.8,50.88,50.88,0,0,1,14.63-4.34,22.5,22.5,0,0,0,6.34-2c1.82-.84,3-.49,3.95,1.27a17.83,17.83,0,0,1,1,2.45c1,2.7,1.9,5.41,2.85,8.12a2,2,0,0,1,.08.22c.79,3.15,1.46,6.34,2.55,9.41a3.07,3.07,0,0,1,.05.67c-2,1.51-3.6,1.44-4.86-.43a9.09,9.09,0,0,0-6-3.66,7.14,7.14,0,0,0-6.7,2.43c-2.28,2.39-2.9,5.45-3.14,8.6-.12,1.52,1,2.51,2,3.37a22.61,22.61,0,0,0,7.72,3.75c3.73,1.19,8.51-2.73,8.52-6.66,0-.88,0-1.76,0-2.63a2.94,2.94,0,0,1,.22-.62l3.25-1.06a12,12,0,0,1,1,1.89Q396,335.72,397.1,339.5Z" transform="translate(-344.51 -264.11)" fill="#c03"/><path d="M391.57,375.25c.18,1.91-.4,2.66-2.23,3-1.49.26-3,.42-4.49.62a2.28,2.28,0,0,1-2.61-1.61c-.64-1.71-1.34-3.39-2-5.09s-1.24-3.1-1.82-4.67c-1.43-3.81-2.88-7.61-4.26-11.44-.24-.66-.48-1.32-.71-2-.68-1.92-.41-2.39,1.48-3.06s3.93-1.32,5.94-1.82c1.73-.44,2.18-.1,2.94,1.54a69.72,69.72,0,0,1,2.87,7.34c.83,2.49,1.56,5,2.29,7.54.57,2,1.34,3.9,1.91,5.89A20.8,20.8,0,0,1,391.57,375.25Z" transform="translate(-344.51 -264.11)" fill="#f63"/><path d="M401.75,489.49a110.44,110.44,0,0,0,7.32-11.88l1.14.63c-.48.83-.93,1.68-1.33,2.56-1.85,4-4.33,7.79-6.54,11.67a14.83,14.83,0,0,0-1.27,2.3,10.82,10.82,0,0,1-2,3.51,5.56,5.56,0,0,0-.89,1.94c-.82,2.69-1.48,3.25-4.19,3.32-.55,0-1.09-.07-1.8-.12-.69-1.89-1.53-3.71-2-5.63A103.49,103.49,0,0,0,386,484.58c-.93-2.28-1.68-4.64-2.45-7-.32-1-.43-2-.75-3-1-3.18-2-6.36-2.83-9.59-.35-1.38-.55-2.81-.78-4.22-.46-2.74-.75-5.53-1.4-8.23l1.4-.19c.58,2.53,1.16,5.05,1.77,7.57a138.45,138.45,0,0,0,4.1,14.75c1.91,5.32,3.57,10.74,5.35,16.11a15.72,15.72,0,0,0,.7,1.76c.6,1.3,1.23,2.57,1.84,3.86.47,1,.91,2,1.6,3.53.89-.9,1.47-1.4,1.94-2,.28-.36.3-1,.62-1.28C399.12,494.59,400.06,491.8,401.75,489.49Z" transform="translate(-344.51 -264.11)"/><path d="M382.06,325.36a8.58,8.58,0,0,1,6,8.23,3.3,3.3,0,0,1-2,3.5,4.64,4.64,0,0,0-1,.69,3.31,3.31,0,0,1-3.77.58c-1.66-.77-3.38-1.41-5-2.25-1.94-1-2.22-1.88-2-4.08a9,9,0,0,1,2.63-5.48A4.67,4.67,0,0,1,382.06,325.36Z" transform="translate(-344.51 -264.11)" fill="#39f"/><path d="M378.8,386.5c.32,1,.6,2.09,1,3.5a39.19,39.19,0,0,1-3.89,1,2.69,2.69,0,0,1-3.07-2,9.06,9.06,0,0,1-.26-1.88c-.09-1.64.1-1.88,1.67-2.32.31-.09.62-.15.92-.23C377.63,383.94,378.08,384.17,378.8,386.5Z" transform="translate(-344.51 -264.11)" fill="#b23f24"/><path d="M368,386.83c1.82-.37,2.68.19,3.07,2a7.45,7.45,0,0,1,.08.95,2.86,2.86,0,0,1-3.31,3.21,1.5,1.5,0,0,1-1.06-.76,12.88,12.88,0,0,1-.51-2C366.3,387.71,366.66,387.12,368,386.83Z" transform="translate(-344.51 -264.11)" fill="#3f9"/><path d="M371.11,388.86c-.39-1.84-1.25-2.4-3.07-2-1.38.29-1.74.88-1.73,3.39a12.88,12.88,0,0,0,.51,2,1.5,1.5,0,0,0,1.06.76,2.86,2.86,0,0,0,3.31-3.21A7.45,7.45,0,0,0,371.11,388.86Zm8.7,1.14c-.41-1.41-.69-2.46-1-3.5-.72-2.33-1.17-2.56-3.62-1.94-.3.08-.61.14-.92.23-1.57.44-1.76.68-1.67,2.32a9.06,9.06,0,0,0,.26,1.88,2.69,2.69,0,0,0,3.07,2A39.19,39.19,0,0,0,379.81,390Zm8.15-1c1.32-.19,1.62-.66,1.25-2a46.82,46.82,0,0,0-1.55-4.5c-.45-1.16-1-1.42-2.26-1.18a27.79,27.79,0,0,0-3.22.86c-1.39.44-1.87,1-1.75,2.43a8.34,8.34,0,0,0,1.83,5.05C384.2,389.47,386.09,389.3,388,389Zm10-2.48a16.22,16.22,0,0,0-2-5.71,1.89,1.89,0,0,0-1.56-.76c-1.55.2-3.07.63-4.71,1a14.39,14.39,0,0,0,1.79,5.86,2,2,0,0,0,2.42,1.08C395.2,387.62,396.5,387.07,397.93,386.54Zm6.4-4.15c-.62-4.42-1.6-3.62-4.95-3.09a1.32,1.32,0,0,0-1.19,1.73,19,19,0,0,0,1,3.42,1.38,1.38,0,0,0,2.15.76c1-.48,2-1.07,3-1.64A9.28,9.28,0,0,0,404.33,382.39Zm3.8,3.82c1.17,3.06,2.41,6.09,3.66,9.1a11.74,11.74,0,0,0,.66,1.27c.24.42.49.83.69,1.26a2.26,2.26,0,0,1,.34,1.31c-.16.68-.41,1.48-1.3,1.53a1.72,1.72,0,0,1-1.73-1.4c-.49-1.51-.77-3.1-1.3-4.59-.74-2.1-1.6-4.16-2.47-6.21-.41-1-1-1.22-2.17-.94s-2,.57-3,.85l-9.89,2.78a6.05,6.05,0,0,1-1.87.41c-3-.21-5.84.57-8.74,1-1.42.22-2.79.69-4.2,1-2.65.54-5.32,1-8,1.54a13.8,13.8,0,0,0-1.34.43c.16,1.06.27,2.07.48,3.05.93,4.53,1.95,9,2.84,13.59s1.73,9.25,2.58,13.88c.73,4,1.39,8,2.21,12,.47,2.26,1.24,4.46,1.78,6.71.61,2.53,1.19,5,1.77,7.58l-1.4.19c-.88-3.71-2-7.36-3.1-11a47.55,47.55,0,0,1-2.18-8.56c-.26-2.21-.72-4.4-1.11-6.6-.75-4.15-1.52-8.3-2.27-12.45-.58-3.21-1.09-6.44-1.71-9.65-.69-3.52-1.42-7-2.23-10.53a36.71,36.71,0,0,0-1.4-4.31c-.71-1.95-.61-2.27.85-3.79a9.19,9.19,0,0,1,7.92-3.11,5.28,5.28,0,0,0,2.12-.24c1.81-.6,3.58-1.3,5.57-2-.36-1.59-.65-3.05-1-4.5-.29-1.16-.63-2.31-1-3.44-.46-1.34-1-2.65-1.49-4-1.34-3.93-2.62-7.87-4-11.8l1.42-.51c1.38,3.83,2.83,7.63,4.26,11.44.58,1.57,1.21,3.12,1.82,4.67s1.36,3.38,2,5.09a2.28,2.28,0,0,0,2.61,1.61c1.49-.2,3-.36,4.49-.62,1.83-.33,2.41-1.08,2.23-3a20.8,20.8,0,0,0-.69-3.75c-.57-2-1.34-3.91-1.91-5.89-.73-2.53-1.46-5.05-2.29-7.54l1.54-.51q2.36,7.15,4.75,14.29c.4,1.21.87,2.4,1.35,3.58s.83,1.39,2.18,1.31a29.18,29.18,0,0,0,7.3-1.27c1.13-.36,1.62,0,1.9,1.07a2.82,2.82,0,0,1,.09.71C405.71,380.46,407,383.32,408.13,386.21Z" transform="translate(-344.51 -264.11)"/><path d="M388.07,333.59a8.58,8.58,0,0,0-6-8.23,4.67,4.67,0,0,0-5,1.19,9,9,0,0,0-2.63,5.48c-.25,2.2,0,3.08,2,4.08,1.62.84,3.34,1.48,5,2.25a3.31,3.31,0,0,0,3.77-.58,4.64,4.64,0,0,1,1-.69A3.3,3.3,0,0,0,388.07,333.59Zm7.56,9.19c1.65-.9,2-1.56,1.47-3.28q-1.12-3.78-2.37-7.53a12,12,0,0,0-1-1.89l-3.25,1.06a2.94,2.94,0,0,0-.22.62c0,.87,0,1.75,0,2.63,0,3.93-4.79,7.85-8.52,6.66A22.61,22.61,0,0,1,374,337.3c-1-.86-2.12-1.85-2-3.37.24-3.15.86-6.21,3.14-8.6a7.14,7.14,0,0,1,6.7-2.43,9.09,9.09,0,0,1,6,3.66c1.26,1.87,2.84,1.94,4.86.43a3.07,3.07,0,0,0-.05-.67c-1.09-3.07-1.76-6.26-2.55-9.41a2,2,0,0,0-.08-.22c-.95-2.71-1.89-5.42-2.85-8.12a17.83,17.83,0,0,0-1-2.45c-.92-1.76-2.13-2.11-3.95-1.27a22.5,22.5,0,0,1-6.34,2,50.88,50.88,0,0,0-14.63,4.34,21.19,21.19,0,0,1-5.69,1.8c-2.13.34-4.27.62-6.38,1.08-1.53.33-1.82.89-1.6,2.41a32.84,32.84,0,0,0,.6,3.29,5.9,5.9,0,0,0,1,2.38c1.45,1.62,1.54,3.83,2.68,5.57a1.33,1.33,0,0,1,.11.93,9.34,9.34,0,0,0,.6,4.47c.71,2.61,1.39,5.24,2.14,7.85.7,2.45,1.45,4.9,2.2,7.34s2.6,3.5,5,3.69a17.91,17.91,0,0,0,8.12-1.7c1.91-.78,3.74-1.82,5.71-2.44,2.81-.88,5.7-1.5,8.58-2.17a27.55,27.55,0,0,1,5.62-1.06A12.17,12.17,0,0,0,395.63,342.78Zm10.48-11.71c1.84.36,5.83-1.58,6.55-3.18a2.09,2.09,0,0,0,.08-.23c.6-1.78-1.09-5.54-2.77-6.38-2.13-1-4.31-.57-6.28.1a3.64,3.64,0,0,0-2.78,3.78A5.94,5.94,0,0,0,406.11,331.07Zm8.69-3.48a3.23,3.23,0,0,1-1.65,3.66c-3.2,2.07-6.58,2.84-10.21,1.1a5.27,5.27,0,0,1-2.71-2.25,1.85,1.85,0,0,0-2-1.09c-1.62.1-2.33,1-1.82,2.53.93,2.81,2,5.57,3,8.35.25.67.55,1.33.74,2,.36,1.3,0,2.31-1.17,2.78a48.79,48.79,0,0,1-5.89,1.92c-2.24.57-4.53.92-6.8,1.38a5.43,5.43,0,0,0-.95.41,14,14,0,0,0,.35,1.65c.83,2.5,1.65,5,2.49,7.51l-1.54.51a69.72,69.72,0,0,0-2.87-7.34c-.76-1.64-1.21-2-2.94-1.54-2,.5-4,1.13-5.94,1.82s-2.16,1.14-1.48,3.06c.23.66.47,1.32.71,2l-1.42.51c-.44-1.26-1-2.49-1.51-3.86a40.16,40.16,0,0,1-4.7,1.16,63.89,63.89,0,0,1-7.82.49c-2.72,0-3.53-1.14-3.65-3.86a23.55,23.55,0,0,0-.78-4.46c-.62-2.64-1.33-5.25-2-7.87-.6-2.31-1.06-4.67-1.85-6.92a62.84,62.84,0,0,0-2.67-5.86,5,5,0,0,1-.61-1.29,67,67,0,0,0-2.47-9.68c-.4-1.3-.05-1.89,1.32-2.3a11.07,11.07,0,0,1,2.35-.44,63.27,63.27,0,0,0,10.58-1.82,9.56,9.56,0,0,0,1.6-.49c4.23-2,8.76-3,13.23-4.15a35.6,35.6,0,0,1,4.68-.95,12.51,12.51,0,0,0,4.84-1.95c3.13-1.86,3.75-1.22,4.65,1.65,1.41,4.49,2.77,9,4.19,13.48.85,2.67,1.78,5.3,2.7,7.94a5.9,5.9,0,0,0,.73,1.1l3.06-1.33a8.93,8.93,0,0,1,.56-1.89,5.37,5.37,0,0,1,1.5-2.08,14.14,14.14,0,0,1,8.09-2.52c2.84.08,5.24,2.6,5.67,5.84C414.56,325.53,414.56,326.59,414.8,327.59Z" transform="translate(-344.51 -264.11)"/></svg>